<svg width="32" height="32" viewBox="0 0 32 32" fill="none" xmlns="http://www.w3.org/2000/svg">
<g id="Frame">
<path id="Union" fill-rule="evenodd" clip-rule="evenodd" d="M26 2.35742C26.5521 2.35765 27 2.80528 27 3.35742V29.6436C26.9997 30.0166 26.7921 30.3594 26.4609 30.5312C26.1298 30.703 25.7299 30.6755 25.4248 30.4609L16.1436 23.9189L6.8623 30.4609C6.55736 30.6758 6.15746 30.7026 5.82617 30.5312C5.49486 30.3594 5.28639 30.0167 5.28613 29.6436V3.35742C5.28613 2.80514 5.73385 2.35742 6.28613 2.35742H26ZM7.28613 12.498V27.7148L15.5674 21.8789L15.7021 21.7988C16.0265 21.6394 16.4176 21.666 16.7197 21.8789L25 27.7148V12.498H7.28613ZM7.28613 10.498H24.9434V4.49805H7.28613V10.498Z" fill="#262626"/>
</g>
</svg>
