<svg width="57" height="65" viewBox="0 0 57 65" fill="none" xmlns="http://www.w3.org/2000/svg">
<path opacity="0.6" d="M38.9296 50.6591L36.5112 53.076C36.3093 53.2738 36.1487 53.5095 36.0386 53.7696C35.9284 54.0298 35.871 54.3091 35.8696 54.5916C35.8681 54.8741 35.9227 55.154 36.0302 55.4153C36.1377 55.6765 36.296 55.9138 36.4958 56.1136C36.6957 56.3133 36.9332 56.4715 37.1946 56.5789C37.456 56.6863 37.7361 56.7409 38.0187 56.7395C38.3013 56.7381 38.5809 56.6807 38.8412 56.5706C39.1015 56.4605 39.3373 56.3 39.5352 56.0982L41.9535 53.6805L44.3727 56.0982C44.5705 56.3 44.8064 56.4605 45.0667 56.5706C45.327 56.6807 45.6065 56.7381 45.8892 56.7395C46.1718 56.7409 46.4519 56.6863 46.7133 56.5789C46.9747 56.4715 47.2122 56.3133 47.412 56.1136C47.6119 55.9138 47.7701 55.6765 47.8776 55.4153C47.9851 55.154 48.0397 54.8741 48.0383 54.5916C48.0369 54.3091 47.9795 54.0298 47.8693 53.7696C47.7592 53.5095 47.5985 53.2738 47.3967 53.076L44.9775 50.6591L47.3958 48.2414C47.5977 48.0437 47.7584 47.8079 47.8685 47.5478C47.9786 47.2876 48.0361 47.0083 48.0375 46.7258C48.0389 46.4433 47.9843 46.1634 47.8768 45.9021C47.7693 45.6409 47.611 45.4036 47.4112 45.2038C47.2113 45.0041 46.9739 44.8459 46.7125 44.7385C46.4511 44.6311 46.171 44.5765 45.8883 44.5779C45.6057 44.5793 45.3262 44.6367 45.0659 44.7468C44.8056 44.8569 44.5697 45.0174 44.3719 45.2192L41.9535 47.6378L39.5343 45.2208C39.3365 45.0191 39.1006 44.8585 38.8403 44.7485C38.5801 44.6384 38.3005 44.581 38.0179 44.5796C37.7353 44.5781 37.4551 44.6327 37.1937 44.7402C36.9324 44.8476 36.6949 45.0058 36.495 45.2055C36.2952 45.4052 36.1369 45.6426 36.0294 45.9038C35.9219 46.165 35.8673 46.445 35.8687 46.7275C35.8702 47.0099 35.9276 47.2893 36.0377 47.5494C36.1479 47.8096 36.3085 48.0453 36.5104 48.243L38.9296 50.6591ZM56.4919 39.8589C53.2519 35.3314 47.9475 32.3807 41.9535 32.3807C32.089 32.3807 24.0921 40.3729 24.0921 50.2315C24.0921 56.2219 27.0447 61.5233 31.5748 64.7613H6.6461C4.88345 64.7613 3.19298 64.0615 1.9466 62.8159C0.700212 61.5702 0 59.8807 0 58.1191V13.2844C2.21623e-08 11.5228 0.700212 9.83329 1.9466 8.58764C3.19298 7.34198 4.88345 6.64219 6.6461 6.64219H9.96915V10.3784C9.96915 11.1962 10.1303 12.0059 10.4434 12.7614C10.7566 13.5169 11.2155 14.2034 11.7941 14.7816C12.3727 15.3598 13.0595 15.8185 13.8155 16.1315C14.5714 16.4444 15.3816 16.6055 16.1999 16.6055C17.0181 16.6055 17.8283 16.4444 18.5843 16.1315C19.3402 15.8185 20.0271 15.3598 20.6057 14.7816C21.1842 14.2034 21.6432 13.5169 21.9563 12.7614C22.2694 12.0059 22.4306 11.1962 22.4306 10.3784V6.64219H34.0613V10.3784C34.0612 11.1962 34.2223 12.006 34.5354 12.7616C34.8484 13.5172 35.3074 14.2038 35.886 14.7821C36.4645 15.3604 37.1514 15.8191 37.9074 16.1321C38.6634 16.4451 39.4737 16.6062 40.292 16.6062C41.1103 16.6062 41.9206 16.4451 42.6766 16.1321C43.4326 15.8191 44.1194 15.3604 44.698 14.7821C45.2766 14.2038 45.7356 13.5172 46.0486 12.7616C46.3617 12.006 46.5228 11.1962 46.5227 10.3784V6.64219H49.8458C51.6084 6.64219 53.2989 7.34198 54.5453 8.58764C55.7917 9.83329 56.4919 11.5228 56.4919 13.2844V39.8589ZM9.55377 24.0779C9.00294 24.0779 8.47467 24.2966 8.08518 24.6859C7.69568 25.0751 7.47687 25.6031 7.47687 26.1536C7.47687 26.7041 7.69568 27.2321 8.08518 27.6213C8.47467 28.0106 9.00294 28.2293 9.55377 28.2293H46.9381C47.4889 28.2293 48.0172 28.0106 48.4067 27.6213C48.7962 27.2321 49.015 26.7041 49.015 26.1536C49.015 25.6031 48.7962 25.0751 48.4067 24.6859C48.0172 24.2966 47.4889 24.0779 46.9381 24.0779H9.55377ZM9.55377 36.532C9.00294 36.532 8.47467 36.7507 8.08518 37.14C7.69568 37.5292 7.47687 38.0572 7.47687 38.6077C7.47687 39.1582 7.69568 39.6862 8.08518 40.0754C8.47467 40.4647 9.00294 40.6834 9.55377 40.6834H22.0152C22.288 40.6834 22.558 40.6297 22.81 40.5254C23.062 40.4211 23.291 40.2682 23.4838 40.0754C23.6767 39.8827 23.8297 39.6539 23.934 39.402C24.0384 39.1502 24.0921 38.8803 24.0921 38.6077C24.0921 38.3351 24.0384 38.0652 23.934 37.8134C23.8297 37.5615 23.6767 37.3327 23.4838 37.14C23.291 36.9472 23.062 36.7943 22.81 36.69C22.558 36.5857 22.288 36.532 22.0152 36.532H9.55377ZM9.55377 48.9861C9.00294 48.9861 8.47467 49.2048 8.08518 49.5941C7.69568 49.9833 7.47687 50.5113 7.47687 51.0618C7.47687 51.6123 7.69568 52.1403 8.08518 52.5295C8.47467 52.9188 9.00294 53.1375 9.55377 53.1375H17.8614C18.4122 53.1375 18.9405 52.9188 19.33 52.5295C19.7195 52.1403 19.9383 51.6123 19.9383 51.0618C19.9383 50.5113 19.7195 49.9833 19.33 49.5941C18.9405 49.2048 18.4122 48.9861 17.8614 48.9861H9.55377ZM16.1999 0C16.971 0 17.7106 0.306162 18.2559 0.851135C18.8012 1.39611 19.1075 2.13525 19.1075 2.90596V10.3784C19.1075 11.1491 18.8012 11.8883 18.2559 12.4332C17.7106 12.9782 16.971 13.2844 16.1999 13.2844C15.4287 13.2844 14.6891 12.9782 14.1438 12.4332C13.5985 11.8883 13.2922 11.1491 13.2922 10.3784V2.90596C13.2922 2.13525 13.5985 1.39611 14.1438 0.851135C14.6891 0.306162 15.4287 0 16.1999 0ZM40.292 0C41.0632 2.21492e-08 41.8027 0.306162 42.348 0.851135C42.8933 1.39611 43.1997 2.13525 43.1997 2.90596V10.3784C43.1997 10.7601 43.1246 11.138 42.9785 11.4906C42.8324 11.8432 42.6182 12.1637 42.3482 12.4336C42.0782 12.7034 41.7576 12.9175 41.4048 13.0636C41.052 13.2097 40.6739 13.2849 40.292 13.2849C39.9101 13.2849 39.532 13.2097 39.1792 13.0636C38.8264 12.9175 38.5058 12.7034 38.2358 12.4336C37.9658 12.1637 37.7516 11.8432 37.6055 11.4906C37.4594 11.138 37.3843 10.7601 37.3843 10.3784V2.90596C37.3843 2.13525 37.6907 1.39611 38.236 0.851135C38.7813 0.306162 39.5208 0 40.292 0ZM41.9535 35.7017C43.8635 35.6968 45.7555 36.0704 47.5201 36.8007C49.2847 37.5311 50.887 38.6038 52.2342 39.9569C53.588 41.3034 54.6613 42.9047 55.3921 44.6683C56.1229 46.4319 56.4967 48.3227 56.4919 50.2315C56.4967 52.1403 56.1229 54.0312 55.3921 55.7948C54.6613 57.5583 53.588 59.1597 52.2342 60.5062C50.887 61.8592 49.2847 62.9319 47.5201 63.6623C45.7555 64.3927 43.8635 64.7662 41.9535 64.7613C40.0436 64.7663 38.1516 64.3928 36.3869 63.6624C34.6223 62.932 33.02 61.8593 31.6728 60.5062C30.319 59.1597 29.2456 57.5584 28.5148 55.7948C27.784 54.0312 27.4103 52.1404 27.4152 50.2315C27.4102 48.3227 27.7839 46.4318 28.5147 44.6682C29.2456 42.9046 30.3189 41.3033 31.6728 39.9569C33.02 38.6038 34.6223 37.531 36.3869 36.8007C38.1516 36.0703 40.0436 35.6968 41.9535 35.7017Z" fill="#6B7785"/>
</svg>
