<svg width="32" height="32" viewBox="0 0 32 32" fill="none" xmlns="http://www.w3.org/2000/svg">
<g id="Frame 89679">
<path id="Union" d="M21.6895 15.5576C25.7151 15.5576 28.9793 18.8215 28.9795 22.8467L28.9697 23.2217C28.7743 27.0726 25.5893 30.1348 21.6895 30.1348C17.7899 30.1344 14.6056 27.0724 14.4102 23.2217L14.4004 22.8467C14.4006 18.8217 17.6641 15.558 21.6895 15.5576ZM22.8721 1.86523C24.1183 1.86526 25.1289 2.87573 25.1289 4.12207V12.793C25.1288 13.3452 24.6811 13.7929 24.1289 13.793C23.5767 13.7929 23.129 13.3451 23.1289 12.793V4.12207C23.1289 3.98047 23.0139 3.86526 22.8721 3.86523H5.27734C5.13546 3.86523 5.02056 3.98046 5.02051 4.12207V26.7422C5.02072 26.8837 5.13555 26.998 5.27734 26.998H12.1895C12.7415 26.9981 13.1892 27.446 13.1895 27.998C13.1895 28.5503 12.7417 28.998 12.1895 28.998H5.27734C4.03119 28.998 3.02072 27.9884 3.02051 26.7422V4.12207C3.02056 2.8757 4.03108 1.86523 5.27734 1.86523H22.8721ZM21.6895 17.5576C18.7685 17.558 16.4006 19.9264 16.4004 22.8467C16.4006 25.7669 18.7685 28.1344 21.6895 28.1348C24.6107 28.1348 26.9793 25.7671 26.9795 22.8467C26.9793 19.9262 24.6107 17.5576 21.6895 17.5576ZM23.4375 20.7822C23.8214 20.3855 24.4546 20.3752 24.8516 20.7588C25.2483 21.1427 25.2588 21.7759 24.875 22.1729L21.8418 25.3105C21.3967 25.7703 20.6537 25.7547 20.2285 25.2764L18.5859 23.4277C18.2192 23.0151 18.2566 22.3836 18.6689 22.0166C19.0817 21.6497 19.7131 21.6869 20.0801 22.0996L21.0781 23.2217L23.4375 20.7822ZM14.4131 14.2676C14.9653 14.2677 15.4131 14.7154 15.4131 15.2676C15.4131 15.8198 14.9653 16.2674 14.4131 16.2676H9.41309C8.8608 16.2676 8.41309 15.8199 8.41309 15.2676C8.41309 14.7153 8.8608 14.2676 9.41309 14.2676H14.4131ZM18.4619 8.74316C19.0141 8.7433 19.4619 9.19096 19.4619 9.74316C19.4619 10.2954 19.0141 10.743 18.4619 10.7432H9.41309C8.8608 10.7432 8.41309 10.2954 8.41309 9.74316C8.41309 9.19088 8.8608 8.74316 9.41309 8.74316H18.4619Z" fill="#262626"/>
</g>
</svg>
