<svg width="32" height="32" viewBox="0 0 32 32" fill="none" xmlns="http://www.w3.org/2000/svg">
<g id="Frame 89150">
<g id="Group 89149">
<path id="Vector" d="M16 30C8.36364 30 2 23.6364 2 16C2 8.36364 8.36364 2 16 2C23.6364 2 30 8.36364 30 16C30 23.6364 23.6364 30 16 30ZM16 3.90909C9.38182 3.90909 3.90909 9.25455 3.90909 16C3.90909 22.7455 9.25455 28.0909 16 28.0909C22.7455 28.0909 28.0909 22.7455 28.0909 16C28.0909 9.25455 22.6182 3.90909 16 3.90909Z" fill="#262626"/>
<path id="Ellipse 27" d="M7.26665 22.6879C6.02439 21.0658 5.25849 19.1296 5.0548 17.0966C4.85111 15.0636 5.21767 13.014 6.11341 11.1776C7.00915 9.34122 8.39865 7.7906 10.1262 6.69956C11.8537 5.60852 13.8509 5.02019 15.894 5.00051L16 16L7.26665 22.6879Z" fill="#262626"/>
</g>
</g>
</svg>
