<svg width="32" height="32" viewBox="0 0 32 32" fill="none" xmlns="http://www.w3.org/2000/svg">
<g id="order type=retail">
<rect id="Rectangle 930" width="32" height="32" rx="5.33" fill="#13C2C2"/>
<path id="Vector" d="M26.8636 12.3062H5.16659C4.97478 12.3062 4.79082 12.3829 4.65519 12.5195C4.51956 12.6561 4.44336 12.8413 4.44336 13.0345C4.44336 13.2276 4.51956 13.4129 4.65519 13.5495C4.79082 13.6861 4.97478 13.7628 5.16659 13.7628H6.40043L7.66608 24.6114C7.66608 25.7446 8.49202 26.6666 9.50888 26.6666H22.5213C23.5367 26.6666 24.3641 25.7446 24.3597 24.6827L25.6297 13.7613H26.8636C27.0496 13.7529 27.2253 13.6726 27.3539 13.5371C27.4826 13.4016 27.5545 13.2213 27.5545 13.0338C27.5545 12.8463 27.4826 12.666 27.3539 12.5304C27.2253 12.3949 27.0496 12.3146 26.8636 12.3062ZM13.3131 21.7739C13.3131 21.9671 13.2369 22.1523 13.1013 22.2889C12.9656 22.4255 12.7817 22.5022 12.5899 22.5022C12.398 22.5022 12.2141 22.4255 12.0784 22.2889C11.9428 22.1523 11.8666 21.9671 11.8666 21.7739V17.4042C11.8666 17.2111 11.9428 17.0258 12.0784 16.8892C12.2141 16.7527 12.398 16.6759 12.5899 16.6759C12.7817 16.6759 12.9656 16.7527 13.1013 16.8892C13.2369 17.0258 13.3131 17.2111 13.3131 17.4042V21.7739ZM16.9177 21.7739C16.9177 21.9671 16.8415 22.1523 16.7058 22.2889C16.5702 22.4255 16.3863 22.5022 16.1944 22.5022C16.0026 22.5022 15.8187 22.4255 15.683 22.2889C15.5474 22.1523 15.4712 21.9671 15.4712 21.7739V17.4042C15.4712 17.2111 15.5474 17.0258 15.683 16.8892C15.8187 16.7527 16.0026 16.6759 16.1944 16.6759C16.3863 16.6759 16.5702 16.7527 16.7058 16.8892C16.8415 17.0258 16.9177 17.2111 16.9177 17.4042V21.7739ZM20.5237 21.7739C20.5237 21.9671 20.4475 22.1523 20.3119 22.2889C20.1763 22.4255 19.9923 22.5022 19.8005 22.5022C19.6087 22.5022 19.4247 22.4255 19.2891 22.2889C19.1534 22.1523 19.0772 21.9671 19.0772 21.7739V17.4042C19.0772 17.2111 19.1534 17.0258 19.2891 16.8892C19.4247 16.7527 19.6087 16.6759 19.8005 16.6759C19.9923 16.6759 20.1763 16.7527 20.3119 16.8892C20.4475 17.0258 20.5237 17.2111 20.5237 17.4042V21.7739ZM21.5522 11.2706C21.6069 11.3488 21.6763 11.4154 21.7566 11.4666C21.8369 11.5178 21.9264 11.5526 22.02 11.569C22.1136 11.5853 22.2095 11.583 22.3022 11.562C22.3949 11.5411 22.4826 11.5019 22.5603 11.4468C22.638 11.3917 22.7042 11.3218 22.755 11.2409C22.8059 11.1601 22.8404 11.07 22.8567 10.9757C22.8729 10.8814 22.8706 10.7849 22.8497 10.6915C22.8289 10.5981 22.7901 10.5098 22.7354 10.4316L19.3839 5.64237C19.3292 5.56414 19.2597 5.49752 19.1794 5.44633C19.0992 5.39513 19.0097 5.36035 18.9161 5.34399C18.8224 5.32762 18.7265 5.32999 18.6338 5.35094C18.5411 5.3719 18.4534 5.41104 18.3757 5.46613C18.298 5.52122 18.2319 5.59118 18.181 5.67201C18.1302 5.75284 18.0957 5.84297 18.0794 5.93724C18.0631 6.03152 18.0655 6.12809 18.0863 6.22145C18.1071 6.31481 18.146 6.40313 18.2007 6.48136L21.5522 11.2706ZM10.478 11.2706L13.8295 6.48136C13.9338 6.32338 13.9728 6.13063 13.9382 5.94413C13.9036 5.75763 13.798 5.5921 13.644 5.48277C13.49 5.37345 13.2998 5.32895 13.1137 5.35876C12.9276 5.38857 12.7604 5.49032 12.6477 5.64237L9.2948 10.4316C9.2401 10.5098 9.20123 10.5981 9.18042 10.6915C9.15961 10.7849 9.15726 10.8814 9.17351 10.9757C9.18977 11.07 9.2243 11.1601 9.27514 11.2409C9.32598 11.3218 9.39214 11.3917 9.46983 11.4468C9.54752 11.5019 9.63522 11.5411 9.72793 11.562C9.82065 11.583 9.91655 11.5853 10.0102 11.569C10.1038 11.5526 10.1933 11.5178 10.2736 11.4666C10.3538 11.4154 10.4233 11.3488 10.478 11.2706Z" fill="white"/>
</g>
</svg>
