<svg width="102" height="102" viewBox="0 0 102 102" fill="none" xmlns="http://www.w3.org/2000/svg">
<g id="Group 89074">
<rect id="Rectangle 7386" width="102" height="102" rx="24" fill="#ED7F1C"/>
<g id="Frame" clip-path="url(#clip0_4401_39613)">
<path id="Vector" d="M67.0874 54.915C67.0939 53.9576 66.7226 53.0328 66.0518 52.3489L45.7119 32.3542C44.9955 31.6508 44.0055 31.0451 42.8137 30.5371C41.7651 30.0747 40.6383 29.8207 39.4986 29.7946H27.6581C26.6942 29.7881 25.7628 30.1789 25.092 30.8758C24.3951 31.5271 23.9978 32.4389 23.9978 33.3963V45.0089C23.9978 45.9858 24.2388 47.106 24.7533 48.2783C25.2678 49.4898 25.8475 50.4276 26.603 51.131L46.9429 71.1713C47.6202 71.8487 48.5516 72.2199 49.509 72.1873C50.4729 72.2004 51.4042 71.8356 52.1076 71.1713L66.0518 57.4355C66.7161 56.7582 67.0874 55.8529 67.0874 54.915ZM35.669 41.3095C34.9916 41.9934 34.0668 42.3711 33.1029 42.3516C32.1455 42.3711 31.2141 41.9934 30.5433 41.3095C29.8529 40.6517 29.4752 39.7399 29.4882 38.789C29.4882 37.8121 29.8269 36.9719 30.5433 36.262C31.2206 35.5846 32.1455 35.2069 33.1029 35.2264C34.0994 35.2264 34.9526 35.5586 35.669 36.262C36.3854 36.9654 36.698 37.8055 36.698 38.789C36.7501 39.7399 36.3724 40.6712 35.669 41.3095ZM76.961 52.3294L56.6211 32.3542C55.9047 31.6508 54.9147 31.0451 53.7228 30.5371C52.6742 30.0747 51.5475 29.8207 50.4077 29.7946H44.0055C45.002 29.7946 46.1353 30.0291 47.3271 30.5371C48.5581 31.0451 49.5155 31.6117 50.2254 32.3542L70.5653 52.3294C71.2491 53.0067 71.6269 53.9316 71.6204 54.8955C71.6399 55.8464 71.2557 56.7582 70.5653 57.416L57.2333 70.5917C57.813 71.1583 58.3275 71.5686 58.7443 71.8421C59.1611 72.1092 59.7343 72.2134 60.4116 72.2134C61.382 72.2264 62.3199 71.8552 63.0168 71.1778L76.961 57.403C77.6448 56.7452 78.0226 55.8268 77.9965 54.8759C78.003 53.9251 77.6318 53.0067 76.961 52.3294Z" fill="white"/>
</g>
</g>
<defs>
<clipPath id="clip0_4401_39613">
<rect width="54" height="54" fill="white" transform="translate(24 24)"/>
</clipPath>
</defs>
</svg>
