<svg width="54" height="54" viewBox="0 0 54 54" fill="none" xmlns="http://www.w3.org/2000/svg">
<rect width="54" height="54" rx="8" fill="#13C2C2"/>
<path d="M43.9708 21.285H10.0797C9.78004 21.285 9.49269 21.4041 9.28083 21.6159C9.06897 21.8278 8.94995 22.1151 8.94995 22.4147C8.94995 22.7144 9.06897 23.0017 9.28083 23.2136C9.49269 23.4254 9.78004 23.5444 10.0797 23.5444H12.0069L13.9839 40.3725C13.9839 42.1303 15.274 43.5605 16.8624 43.5605H37.188C38.7741 43.5605 40.0665 42.1303 40.0597 40.4832L42.0435 23.5422H43.9708C44.2613 23.5292 44.5357 23.4046 44.7367 23.1944C44.9378 22.9841 45.0499 22.7045 45.0499 22.4136C45.0499 22.1227 44.9378 21.8431 44.7367 21.6329C44.5357 21.4226 44.2613 21.298 43.9708 21.285ZM22.8046 35.9712C22.8046 36.2708 22.6856 36.5581 22.4738 36.77C22.2619 36.9819 21.9745 37.1009 21.6749 37.1009C21.3753 37.1009 21.088 36.9819 20.8761 36.77C20.6642 36.5581 20.5452 36.2708 20.5452 35.9712V29.193C20.5452 28.8934 20.6642 28.606 20.8761 28.3941C21.088 28.1823 21.3753 28.0633 21.6749 28.0633C21.9745 28.0633 22.2619 28.1823 22.4738 28.3941C22.6856 28.606 22.8046 28.8934 22.8046 29.193V35.9712ZM28.4351 35.9712C28.4351 36.2708 28.3161 36.5581 28.1042 36.77C27.8923 36.9819 27.605 37.1009 27.3054 37.1009C27.0058 37.1009 26.7184 36.9819 26.5065 36.77C26.2947 36.5581 26.1757 36.2708 26.1757 35.9712V29.193C26.1757 28.8934 26.2947 28.606 26.5065 28.3941C26.7184 28.1823 27.0058 28.0633 27.3054 28.0633C27.605 28.0633 27.8923 28.1823 28.1042 28.3941C28.3161 28.606 28.4351 28.8934 28.4351 29.193V35.9712ZM34.0678 35.9712C34.0678 36.2708 33.9488 36.5581 33.7369 36.77C33.525 36.9819 33.2377 37.1009 32.9381 37.1009C32.6385 37.1009 32.3511 36.9819 32.1392 36.77C31.9274 36.5581 31.8084 36.2708 31.8084 35.9712V29.193C31.8084 28.8934 31.9274 28.606 32.1392 28.3941C32.3511 28.1823 32.6385 28.0633 32.9381 28.0633C33.2377 28.0633 33.525 28.1823 33.7369 28.3941C33.9488 28.606 34.0678 28.8934 34.0678 29.193V35.9712ZM35.6742 19.6786C35.7597 19.8 35.8682 19.9033 35.9936 19.9827C36.119 20.0621 36.2588 20.1161 36.405 20.1414C36.5512 20.1668 36.701 20.1632 36.8458 20.1307C36.9907 20.0982 37.1277 20.0374 37.249 19.952C37.3704 19.8665 37.4737 19.758 37.5531 19.6326C37.6325 19.5072 37.6865 19.3674 37.7119 19.2212C37.7373 19.075 37.7336 18.9252 37.7011 18.7804C37.6686 18.6355 37.6079 18.4985 37.5224 18.3772L32.2874 10.9483C32.2019 10.8269 32.0934 10.7236 31.968 10.6441C31.8426 10.5647 31.7028 10.5108 31.5566 10.4854C31.4103 10.46 31.2605 10.4637 31.1157 10.4962C30.9709 10.5287 30.8339 10.5894 30.7126 10.6749C30.5912 10.7603 30.4879 10.8688 30.4085 10.9942C30.329 11.1196 30.2751 11.2594 30.2497 11.4056C30.2243 11.5519 30.228 11.7017 30.2605 11.8465C30.293 11.9913 30.3537 12.1283 30.4392 12.2497L35.6742 19.6786ZM18.3762 19.6786L23.6112 12.2497C23.7742 12.0046 23.8352 11.7056 23.7811 11.4163C23.727 11.127 23.5621 10.8703 23.3216 10.7007C23.081 10.5311 22.7838 10.4621 22.4931 10.5083C22.2025 10.5546 21.9414 10.7124 21.7653 10.9483L16.528 18.3772C16.4425 18.4985 16.3818 18.6355 16.3493 18.7804C16.3168 18.9252 16.3132 19.075 16.3385 19.2212C16.3639 19.3674 16.4179 19.5072 16.4973 19.6326C16.5767 19.758 16.68 19.8665 16.8014 19.952C16.9227 20.0374 17.0597 20.0982 17.2046 20.1307C17.3494 20.1632 17.4992 20.1668 17.6454 20.1414C17.7916 20.1161 17.9314 20.0621 18.0568 19.9827C18.1822 19.9033 18.2907 19.8 18.3762 19.6786Z" fill="white"/>
</svg>
