<svg width="24" height="24" viewBox="0 0 24 24" fill="none" xmlns="http://www.w3.org/2000/svg">
<g id="Frame 90694">
<g id="Group 89154">
<g id="Frame 89452">
<path id="Vector 212" d="M6.16932 2.3186C5.78994 2.69798 5.11157 4.0065 5.78717 5.27776C6.51299 6.64352 6.90789 6.87113 6.16932 8.57833" stroke="black" stroke-width="1.5" stroke-linecap="round"/>
<path id="Vector 213" d="M12.6226 0.18042C12.2432 0.559797 11.0754 3.00534 11.7929 4.25339C12.7745 5.96059 13.3132 6.87108 12.1751 8.57828" stroke="black" stroke-width="1.5" stroke-linecap="round"/>
<path id="Vector 214" d="M18.4843 2.3186C18.1049 2.69798 17.4265 4.0065 18.1021 5.27776C18.8279 6.64352 19.2228 6.87113 18.4843 8.57833" stroke="black" stroke-width="1.5" stroke-linecap="round"/>
</g>
<g id="Group 89108">
<path id="Vector 209" d="M1 11.8147H23" stroke="black" stroke-width="1.5" stroke-linecap="round"/>
<path id="Vector 210" d="M3.75 12.3645V19.7645C3.75 21.1453 4.86929 22.2645 6.25 22.2645H17.75C19.1307 22.2645 20.25 21.1453 20.25 19.7645V12.3645" stroke="black" stroke-width="1.5" stroke-linecap="round"/>
</g>
</g>
</g>
</svg>
