<svg width="54" height="54" viewBox="0 0 54 54" fill="none" xmlns="http://www.w3.org/2000/svg">
<rect width="54" height="54" rx="8" fill="#FF6A01"/>
<g clip-path="url(#clip0_1011_3274)">
<path d="M38.2308 43.6884C38.2275 45.1045 37.8641 46.0034 36.5152 46.0011C35.169 45.9978 34.8742 45.0935 34.8776 43.6767L34.8347 31.7962C34.7856 31.8016 29.3854 31.1483 29.7441 25.9556C29.7441 25.9556 31.2899 8.02475 37.0982 8.03907C38.5807 8.04234 38.2033 11.964 38.2033 11.964L38.2308 43.6884ZM21.8666 17.9469C21.8581 17.9554 21.8666 17.9554 21.8666 17.9469V17.9469Z" fill="white"/>
<path d="M26.0875 19.3962C26.0875 15.735 24.8161 11.4971 24.0532 8.06452V8.03906H23.3754L23.3584 17.9469C23.3584 18.464 23.1126 18.8878 22.5955 18.8878C22.1125 18.8878 21.9174 18.5234 21.8667 18.0488C21.8582 18.0148 21.8667 17.9808 21.8667 17.9469L20.9937 8.0391H20.3156L19.5528 17.9555L19.5444 18.0488C19.4935 18.5234 19.2307 18.8878 18.7391 18.8878C18.2221 18.8878 17.9679 18.464 17.9679 17.947L17.9339 8.03914H17.2558C16.5101 11.5142 15.2388 15.7434 15.2388 19.4048C15.2388 21.5831 16.4761 23.4816 18.3492 24.3376C19.2986 24.7699 19.307 25.2106 19.307 25.2106C19.307 25.2106 17.9508 42.3057 17.9508 43.272C17.9508 44.2381 18.29 44.8399 18.756 45.3061C19.2222 45.7723 19.9596 46.0011 20.6545 46.0011H20.6884C21.3835 46.0011 22.1125 45.7722 22.5869 45.3061C23.0532 44.8399 23.3753 44.3821 23.3753 43.272C23.3753 42.1617 22.0191 25.2106 22.0191 25.2106C22.0191 25.2106 21.9343 24.7868 22.9852 24.3121C24.8162 23.4816 26.0875 21.5831 26.0875 19.3962Z" fill="white"/>
</g>
<defs>
<clipPath id="clip0_1011_3274">
<rect width="38" height="38" fill="white" transform="translate(8 8)"/>
</clipPath>
</defs>
</svg>
