<svg width="32" height="32" viewBox="0 0 32 32" fill="none" xmlns="http://www.w3.org/2000/svg">
<g id="Track Reward">
<g id="Group 88376">
<circle id="Ellipse 29" cx="16" cy="16" r="13.5" stroke="#262626" stroke-width="2"/>
<path id="Star 4" d="M15.8164 9.02441C15.8869 8.86658 16.111 8.86665 16.1816 9.02441L17.8574 12.7793C18.0132 13.1284 18.3388 13.3718 18.7178 13.4219L22.7549 13.9531C22.9196 13.9752 22.9875 14.1772 22.8691 14.2939L19.8564 17.2617C19.597 17.5173 19.4805 17.8849 19.5459 18.2432L20.3096 22.4258C20.3402 22.5936 20.1603 22.7203 20.0127 22.6348L16.5508 20.6289L16.4189 20.5635C16.1502 20.4525 15.8478 20.4524 15.5791 20.5635L15.4473 20.6289L11.9863 22.6348C11.8387 22.7203 11.6578 22.5936 11.6885 22.4258L12.4521 18.2432C12.5175 17.885 12.4019 17.5173 12.1426 17.2617L9.12988 14.2939C9.01126 14.1771 9.07904 13.9749 9.24414 13.9531L13.2803 13.4219C13.6593 13.3719 13.9848 13.1284 14.1406 12.7793L15.8164 9.02441Z" stroke="#262626" stroke-width="2"/>
</g>
</g>
</svg>
