<svg width="24" height="24" viewBox="0 0 24 24" fill="none" xmlns="http://www.w3.org/2000/svg">
<g id="Frame 90697">
<g id="Group 89153">
<path id="Vector 212" d="M10.5922 4.77124C10.3303 5.03314 9.86197 5.93647 10.3284 6.81408C10.8295 7.75692 11.1021 7.91405 10.5922 9.09261" stroke="black" stroke-width="1.5" stroke-linecap="round"/>
<path id="Vector 213" d="M14.5206 3.98535C14.2587 4.24725 13.7614 5.24517 14.2568 6.10676C14.9344 7.28531 15.3063 7.91387 14.5206 9.09242" stroke="black" stroke-width="1.5" stroke-linecap="round"/>
<path id="Vector 209" d="M4.43457 11.0571H20.1489" stroke="black" stroke-width="1.5" stroke-linecap="round"/>
<path id="Vector 210" d="M6.39917 11.4495V16.0208C6.39917 17.4015 7.51846 18.5208 8.89917 18.5208H15.6849C17.0657 18.5208 18.185 17.4015 18.185 16.0208V11.4495" stroke="black" stroke-width="1.5" stroke-linecap="round"/>
<path id="Vector" d="M20.7096 19.3331C19.2363 21.8997 14.9214 22.9997 11.8702 22.9997C5.76794 22.9997 0.821045 18.0749 0.821045 11.9998C0.821045 5.92481 5.76794 1 11.8702 1C14.9214 1 17.6837 2.2312 19.6831 4.22179C21.0779 5.61031 22.0355 7.72213 22.0355 7.72213" stroke="black" stroke-width="1.5" stroke-linecap="round" stroke-linejoin="round"/>
<path id="Vector_2" d="M23.1788 4.96789L22.3032 7.98627L19.2848 7.11066" stroke="black" stroke-width="1.5" stroke-linecap="round" stroke-linejoin="round"/>
</g>
</g>
</svg>
