<svg width="32" height="32" viewBox="0 0 32 32" fill="none" xmlns="http://www.w3.org/2000/svg">
<g id="order type=take out">
<rect id="Rectangle 930" width="32" height="32" rx="5.33" fill="#135CC2"/>
<g id="Frame">
<path id="Union" d="M20.9717 6.00146C21.4036 6.00146 21.7725 6.15412 22.0781 6.45947C22.3834 6.76507 22.5361 7.13408 22.5361 7.56592V11.5542C22.5514 11.5697 22.5662 11.5862 22.5801 11.603L24.7871 14.2896C24.9606 14.5015 25.0479 14.744 25.0479 15.0171V23.8882C25.0479 24.4356 24.8539 24.9033 24.4668 25.2905C24.0796 25.6775 23.612 25.8716 23.0645 25.8716H9.25195C8.70453 25.8715 8.2368 25.6774 7.84961 25.2905C7.46286 24.9033 7.26953 24.4356 7.26953 23.8882V15.0161C7.26953 14.7443 7.35505 14.5028 7.52637 14.2925L9.3623 12.0386V10.9819C9.06784 10.9215 8.81439 10.7758 8.60156 10.5464C8.34169 10.2664 8.21094 9.9353 8.21094 9.55322V7.46143C8.21094 7.05837 8.35373 6.71344 8.63867 6.42822C8.92385 6.1434 9.2682 6.00146 9.6709 6.00146H20.9717ZM9.6709 6.20557C9.39697 6.20566 9.13331 6.29659 8.91699 6.45947C9.13311 6.29711 9.39646 6.20663 9.66992 6.20654H20.9697C21.1483 6.20654 21.3252 6.24173 21.4902 6.31006C21.6553 6.37842 21.8053 6.47867 21.9316 6.60498C22.0579 6.73127 22.1582 6.88139 22.2266 7.04639C22.2948 7.21132 22.3301 7.38839 22.3301 7.56689V11.647C22.3627 11.6715 22.3931 11.7004 22.4209 11.7339L24.6279 14.4194C24.7659 14.588 24.8418 14.7997 24.8418 15.0181V23.8892C24.8418 24.1228 24.7955 24.355 24.7061 24.5708C24.6167 24.7864 24.4853 24.9819 24.3203 25.147C24.2242 25.2431 24.1168 25.3265 24.002 25.3979C24.1173 25.3263 24.2257 25.2425 24.3223 25.146C24.4872 24.981 24.6187 24.7854 24.708 24.5698C24.7974 24.354 24.8428 24.1218 24.8428 23.8882V15.0171C24.8428 14.7987 24.7669 14.5871 24.6289 14.4185L22.4219 11.7329C22.3942 11.6995 22.3646 11.6704 22.332 11.646V7.56592C22.332 7.38735 22.2959 7.21039 22.2275 7.04541C22.1592 6.88054 22.0597 6.73024 21.9336 6.604C21.8074 6.47779 21.6571 6.37744 21.4922 6.30908C21.3273 6.24077 21.1502 6.20561 20.9717 6.20557H9.6709ZM8.51855 16.0571V23.8892C8.51855 24.2937 8.84683 24.6216 9.25098 24.6216H18.7725V24.6206H9.25195C8.84797 24.6204 8.51953 24.2926 8.51953 23.8882V16.0571H8.51855ZM19.8193 15.0776V24.6216H23.0625C23.069 24.6216 23.0755 24.6198 23.082 24.6196C23.0759 24.6198 23.0697 24.6206 23.0635 24.6206H19.8203V15.0757L19.8193 15.0776ZM23.582 24.4067C23.4783 24.5104 23.3429 24.5811 23.1924 24.6079C23.3425 24.581 23.4776 24.5111 23.5811 24.4077L23.582 24.4067ZM8.72363 16.0571V23.8882C8.72363 24.0341 8.77549 24.1591 8.87891 24.2622C8.98195 24.3652 9.10628 24.4164 9.25195 24.4165H18.5693V16.0571H8.72363ZM10.6113 10.9146V12.1499C10.6113 12.3662 10.5361 12.5759 10.3994 12.7437L8.79883 14.7095H8.7998L10.4014 12.7427C10.538 12.575 10.6123 12.3651 10.6123 12.1489V10.9136C10.6123 10.878 10.609 10.8432 10.6025 10.8101H10.6006C10.6071 10.8435 10.6113 10.8787 10.6113 10.9146ZM20.3379 7.45557L20.3389 7.46143V9.55322C20.3389 9.95624 20.1963 10.3005 19.9111 10.5854C19.6262 10.8706 19.2819 11.0131 18.8789 11.0132H10.8164V12.1489C10.8164 12.4201 10.7309 12.661 10.5596 12.8716L9.0625 14.7095H18.6172C18.6591 14.5681 18.7286 14.4362 18.8271 14.3149L21.0352 11.605C21.0492 11.5879 21.064 11.5716 21.0791 11.5562L21.0811 11.5542V7.56592C21.0811 7.53574 21.0706 7.50928 21.0488 7.48779C21.0276 7.46629 21.0012 7.45557 20.9707 7.45557H20.3379ZM20.8008 13.8716L21.6777 12.7964L21.8076 12.6362L20.8008 13.8716ZM20.1162 7.25244C20.1272 7.32062 20.1328 7.39096 20.1328 7.4624V9.5542C20.1328 9.71901 20.1001 9.88239 20.0371 10.0347C19.9747 10.1853 19.8843 10.3232 19.7695 10.439C19.8849 10.3229 19.9764 10.1849 20.0391 10.0337C20.102 9.88148 20.1348 9.71795 20.1348 9.55322V7.45557C20.1344 7.3865 20.1281 7.31868 20.1172 7.25244H20.1162ZM9.46094 9.5542C9.46094 9.66973 9.5548 9.76416 9.66992 9.76416H18.8779C18.891 9.76415 18.9036 9.76159 18.916 9.75928C18.9038 9.76151 18.8908 9.76318 18.8779 9.76318H9.66992C9.61461 9.76297 9.56155 9.74081 9.52246 9.70166C9.48327 9.6624 9.46094 9.60869 9.46094 9.55322V9.5542ZM19.0254 9.70166C18.9999 9.72698 18.9683 9.74577 18.9326 9.75537C18.9684 9.7456 19 9.72718 19.0254 9.70166ZM9.46484 7.42139C9.46263 7.4326 9.46129 7.44401 9.46094 7.45557C9.46126 7.44287 9.46332 7.4305 9.46582 7.41846L9.46484 7.42139Z" fill="white"/>
</g>
</g>
</svg>
