<svg width="24" height="24" viewBox="0 0 24 24" fill="none" xmlns="http://www.w3.org/2000/svg">
<g id="Frame" clip-path="url(#clip0_4433_40831)">
<path id="Vector" d="M12.0015 22.999C18.0766 22.999 23.0015 18.0742 23.0015 11.999C23.0015 5.92389 18.0766 0.999023 12.0015 0.999023C5.92633 0.999023 1.00146 5.92389 1.00146 11.999C1.00146 18.0742 5.92633 22.999 12.0015 22.999Z" stroke="#262626" stroke-width="1.5" stroke-linecap="round" stroke-linejoin="round"/>
<path id="Vector_2" d="M17.0015 12.999C16.3337 15.3174 14.3477 16.999 12.0015 16.999C9.65526 16.999 7.66918 15.3174 7.00146 12.999V16.4276" stroke="#262626" stroke-width="1.5" stroke-linecap="round" stroke-linejoin="round"/>
<path id="Vector_3" d="M17.0015 7.57045V10.999C16.3337 8.68068 14.3477 6.99902 12.0015 6.99902C9.65526 6.99902 7.66918 8.68068 7.00146 10.999" stroke="#262626" stroke-width="1.5" stroke-linecap="round" stroke-linejoin="round"/>
</g>
<defs>
<clipPath id="clip0_4433_40831">
<rect width="24" height="24" fill="white"/>
</clipPath>
</defs>
</svg>
