<svg width="24" height="24" viewBox="0 0 24 24" fill="none" xmlns="http://www.w3.org/2000/svg">
<g id="Frame" clip-path="url(#clip0_4401_39571)">
<path id="Vector" d="M11.2438 16.7258C11.1917 16.7258 11.1528 16.7128 11.1007 16.7128C10.6632 16.7134 10.2437 16.8875 9.93432 17.1969C9.62491 17.5063 9.45081 17.9258 9.45018 18.3633C9.45081 18.8009 9.62491 19.2204 9.93432 19.5298C10.2437 19.8392 10.6632 20.0133 11.1007 20.0139C11.3928 20.0136 11.6794 19.9351 11.9308 19.7865C12.1822 19.638 12.3892 19.4248 12.5304 19.1691C11.9483 18.4451 11.5114 17.6155 11.2438 16.7258ZM11.1658 12.6061C9.07342 12.593 6.96792 13.3729 5.36939 14.9715C5.20083 15.1405 5.10617 15.3695 5.10617 15.6083C5.10617 15.847 5.20083 16.076 5.36939 16.245C5.53844 16.4136 5.76743 16.5082 6.00616 16.5082C6.24489 16.5082 6.47388 16.4136 6.64293 16.245C7.82576 15.0622 9.35919 14.4514 10.9188 14.4125C10.9318 13.7887 11.0098 13.191 11.1658 12.6061ZM12.5042 10.0198C12.7252 9.74683 12.9722 9.47413 13.2452 9.22732C13.5261 8.97113 13.8257 8.73638 14.1417 8.52504C10.2301 7.48523 5.88942 8.47301 2.82229 11.5401C2.65374 11.7092 2.55908 11.9382 2.55908 12.1769C2.55908 12.4156 2.65374 12.6446 2.82229 12.8137C2.99135 12.9822 3.22034 13.0769 3.45907 13.0769C3.69779 13.0769 3.92678 12.9822 4.09584 12.8137C6.38305 10.5137 9.52836 9.59073 12.5042 10.0195V10.0198Z" fill="#262626"/>
<path id="Vector_2" d="M17.9757 7.28969C18.2225 7.28969 18.4827 7.28969 18.7423 7.30276C19.9382 7.38067 21.1207 7.78358 22.1603 8.45917C22.1206 8.31658 22.0446 8.18675 21.9396 8.08242C15.9612 2.11706 6.2531 2.11706 0.27493 8.08242C0.106372 8.25147 0.0117187 8.48046 0.0117188 8.71919C0.0117187 8.95792 0.106372 9.18691 0.27493 9.35597C0.443985 9.52452 0.672974 9.61918 0.911703 9.61918C1.15043 9.61918 1.37942 9.52452 1.54848 9.35597C5.99321 4.91123 12.7903 4.23563 17.976 7.28996L17.9757 7.28969Z" fill="#262626"/>
<path id="Vector_3" d="M19.2361 12.4139V12.4219L19.2335 12.4272V12.4323L19.2308 12.4374C19.2308 12.4374 18.5149 15.7684 18.5149 15.7761C18.4656 16.028 18.3412 16.1657 18.1259 16.1657C17.9106 16.1657 17.799 16.0072 17.7315 15.7476C17.6643 15.488 17.0338 12.51 17.0338 12.5076V12.5022L17.0311 12.4969V12.479L17.0284 12.4763V12.4683L17.026 12.4633V12.4529L17.0234 12.4475V12.4272L17.0207 12.4219V12.4118C16.9865 12.2468 16.9895 12.0763 17.0294 11.9126C17.0693 11.7489 17.1452 11.5961 17.2514 11.4654C17.3577 11.3347 17.4917 11.2292 17.6438 11.1567C17.7959 11.0842 17.9622 11.0464 18.1307 11.0462C18.2998 11.0465 18.4667 11.0845 18.6193 11.1576C18.7718 11.2307 18.9061 11.3369 19.0123 11.4686C19.1185 11.6002 19.1939 11.7539 19.2331 11.9184C19.2723 12.0829 19.2743 12.2541 19.2388 12.4195L19.2361 12.4142V12.4139ZM18.1259 18.7176C18.013 18.7206 17.9006 18.701 17.7953 18.6599C17.6901 18.6188 17.5942 18.5571 17.5132 18.4783C17.4322 18.3996 17.3678 18.3054 17.3237 18.2014C17.2797 18.0974 17.2569 17.9856 17.2567 17.8726C17.2565 17.7596 17.279 17.6478 17.3227 17.5436C17.3664 17.4394 17.4305 17.3451 17.5113 17.2661C17.592 17.1871 17.6878 17.125 17.7929 17.0836C17.898 17.0422 18.0103 17.0222 18.1232 17.0249C18.5902 17.0249 18.969 17.4038 18.969 17.8712C18.9696 17.9823 18.9482 18.0923 18.906 18.195C18.8639 18.2977 18.8018 18.3911 18.7235 18.4697C18.6451 18.5484 18.552 18.6108 18.4494 18.6533C18.3469 18.6959 18.2369 18.7177 18.1259 18.7176ZM18.144 8.66504C14.9016 8.66504 12.2766 11.2924 12.2739 14.5351C12.2766 17.7778 14.9016 20.4053 18.1414 20.4053H18.1467C21.3865 20.4053 24.0115 17.7778 24.0141 14.5351C24.0115 11.2924 21.3865 8.66504 18.144 8.66504Z" fill="#262626"/>
</g>
<defs>
<clipPath id="clip0_4401_39571">
<rect width="24" height="24" fill="white"/>
</clipPath>
</defs>
</svg>
