<svg width="124" height="124" viewBox="0 0 124 124" fill="none" xmlns="http://www.w3.org/2000/svg">
<path d="M105.506 8.00413L25.9912 4.06425C24.8981 4.01009 23.9645 4.84462 23.8961 5.93695L18.6287 90.1521C18.5582 91.278 19.4323 92.2393 20.5598 92.2759L101.392 94.9026C102.484 94.9381 103.402 94.0904 103.454 92.9988L107.405 10.0969C107.457 8.99504 106.608 8.05872 105.506 8.00413Z" fill="url(#paint0_linear_4975_8446)" stroke="url(#paint1_linear_4975_8446)" stroke-width="0.5"/>
<path d="M90.5355 14.9666H8.5C7.39543 14.9666 6.49997 15.8545 6.50004 16.9591C6.50154 40.9503 6.55541 88.3744 8.5 102.687C10.4342 116.923 21.4669 120.185 27.9504 119.955C47.4007 119.495 86.5793 118.574 87.6907 118.574C89.0801 118.574 96.7213 100.615 95.332 99.9243C93.9426 99.2336 92.5533 97.1615 92.5533 95.0893C92.5533 93.3858 92.3333 43.5782 92.5368 16.9728C92.5453 15.8613 91.647 14.9666 90.5355 14.9666Z" fill="url(#paint2_linear_4975_8446)" stroke="url(#paint3_linear_4975_8446)" stroke-width="0.5"/>
<path opacity="0.8" d="M24.5 33.9666H59.5" stroke="url(#paint4_linear_4975_8446)" stroke-width="3" stroke-linecap="round"/>
<path opacity="0.8" d="M24.5 50.9666H53.5" stroke="url(#paint5_linear_4975_8446)" stroke-width="3" stroke-linecap="round"/>
<path opacity="0.8" d="M24.5 67.9666H48.5" stroke="url(#paint6_linear_4975_8446)" stroke-width="3" stroke-linecap="round"/>
<path opacity="0.8" d="M55.5 67.9666H60.5" stroke="url(#paint7_linear_4975_8446)" stroke-width="3" stroke-linecap="round"/>
<path opacity="0.8" d="M24.5 83.9666H68.5" stroke="url(#paint8_linear_4975_8446)" stroke-width="3" stroke-linecap="round"/>
<path d="M41.8103 100.375C41.8103 117.839 27 119.521 22.5 119.467C25.5 120.467 79.1897 119.952 88.0172 119.388C99.0517 118.684 102.5 108.191 102.5 104.6C102.5 101.784 101.58 99.671 100.431 98.9668L41.8103 100.375Z" fill="url(#paint9_linear_4975_8446)"/>
<path d="M72.3849 56.3302V32.6938H73.8991V56.3302H72.3849ZM76.4013 40.4957C76.3274 39.7509 76.0104 39.1723 75.4503 38.7599C74.8902 38.3475 74.13 38.1413 73.1697 38.1413C72.5173 38.1413 71.9664 38.2336 71.517 38.4183C71.0677 38.5968 70.723 38.8461 70.483 39.1661C70.2491 39.4862 70.1321 39.8494 70.1321 40.2556C70.1198 40.5942 70.1906 40.8896 70.3445 41.142C70.5045 41.3943 70.723 41.6129 71 41.7975C71.277 41.976 71.5971 42.133 71.9602 42.2684C72.3234 42.3977 72.7112 42.5085 73.1236 42.6008L74.8224 43.007C75.6473 43.1917 76.4044 43.4379 77.0938 43.7457C77.7831 44.0534 78.3802 44.432 78.8849 44.8813C79.3897 45.3307 79.7805 45.86 80.0575 46.4694C80.3407 47.0788 80.4853 47.7774 80.4915 48.5653C80.4853 49.7225 80.1899 50.7258 79.6051 51.5752C79.0265 52.4185 78.1894 53.074 77.0938 53.5418C76.0043 54.0035 74.6901 54.2343 73.1513 54.2343C71.6248 54.2343 70.2952 54.0004 69.1626 53.5326C68.0362 53.0648 67.156 52.3723 66.522 51.4552C65.8942 50.5319 65.5649 49.3901 65.5341 48.0298H69.4027C69.4458 48.6638 69.6274 49.1931 69.9474 49.6178C70.2737 50.0364 70.7076 50.3534 71.2493 50.5688C71.7971 50.7781 72.4157 50.8827 73.1051 50.8827C73.7822 50.8827 74.37 50.7843 74.8686 50.5873C75.3733 50.3903 75.7642 50.1164 76.0412 49.7656C76.3182 49.4147 76.4567 49.0115 76.4567 48.556C76.4567 48.1313 76.3305 47.7743 76.0781 47.485C75.8319 47.1957 75.4688 46.9495 74.9886 46.7464C74.5147 46.5433 73.933 46.3586 73.2436 46.1924L71.1847 45.6754C69.5904 45.2876 68.3317 44.6813 67.4084 43.8565C66.4851 43.0317 66.0265 41.9206 66.0327 40.5234C66.0265 39.3785 66.3312 38.3782 66.9467 37.5227C67.5684 36.6671 68.4209 35.9992 69.5043 35.5191C70.5876 35.039 71.8187 34.7989 73.1974 34.7989C74.6009 34.7989 75.8258 35.039 76.8722 35.5191C77.9247 35.9992 78.7434 36.6671 79.3281 37.5227C79.9129 38.3782 80.2145 39.3693 80.233 40.4957H76.4013Z" fill="url(#paint10_linear_4975_8446)"/>
<path d="M98.5 105.967C103.747 105.967 108.497 103.84 111.935 100.402C115.373 96.9632 117.5 92.2132 117.5 86.9666C117.5 81.7199 115.373 76.9699 111.935 73.5315C108.497 70.0932 103.747 67.9666 98.5 67.9666C93.2533 67.9666 88.5033 70.0932 85.065 73.5315C81.6267 76.9699 79.5 81.7199 79.5 86.9666C79.5 92.2132 81.6267 96.9632 85.065 100.402C88.5033 103.84 93.2533 105.967 98.5 105.967Z" fill="url(#paint11_linear_4975_8446)"/>
<path d="M104.567 80.9668L92.4331 93.3679" stroke="url(#paint12_linear_4975_8446)" stroke-width="3.5" stroke-linecap="round" stroke-linejoin="round"/>
<path d="M92.4333 80.9668L104.567 93.3679" stroke="url(#paint13_linear_4975_8446)" stroke-width="3.5" stroke-linecap="round" stroke-linejoin="round"/>
<defs>
<linearGradient id="paint0_linear_4975_8446" x1="46.7868" y1="1.89837" x2="21.0362" y2="34.4087" gradientUnits="userSpaceOnUse">
<stop stop-color="#A4D1FF"/>
<stop offset="1" stop-color="#BFDAF8"/>
</linearGradient>
<linearGradient id="paint1_linear_4975_8446" x1="34.5" y1="3.96655" x2="96.6582" y2="79.4666" gradientUnits="userSpaceOnUse">
<stop stop-color="#DEEDFF"/>
<stop offset="1" stop-color="#95C9FF" stop-opacity="0"/>
</linearGradient>
<linearGradient id="paint2_linear_4975_8446" x1="25.8664" y1="17.7294" x2="63.0057" y2="116.641" gradientUnits="userSpaceOnUse">
<stop stop-color="#EAF3FE"/>
<stop offset="1" stop-color="#F1F7FF"/>
</linearGradient>
<linearGradient id="paint3_linear_4975_8446" x1="8.5" y1="14.9666" x2="32.6408" y2="46.1818" gradientUnits="userSpaceOnUse">
<stop stop-color="#D1E7FF"/>
<stop offset="1" stop-color="#EAF2FB"/>
</linearGradient>
<linearGradient id="paint4_linear_4975_8446" x1="24.5" y1="34.4666" x2="59.5" y2="34.4666" gradientUnits="userSpaceOnUse">
<stop stop-color="#7BB4EF"/>
<stop offset="1" stop-color="#6BAAFE"/>
</linearGradient>
<linearGradient id="paint5_linear_4975_8446" x1="24.5" y1="51.4666" x2="53.5" y2="51.4666" gradientUnits="userSpaceOnUse">
<stop stop-color="#7BB4EF"/>
<stop offset="1" stop-color="#6BAAFE"/>
</linearGradient>
<linearGradient id="paint6_linear_4975_8446" x1="24.5" y1="68.4666" x2="48.5" y2="68.4666" gradientUnits="userSpaceOnUse">
<stop stop-color="#7BB4EF"/>
<stop offset="1" stop-color="#6BAAFE"/>
</linearGradient>
<linearGradient id="paint7_linear_4975_8446" x1="55.5" y1="68.4666" x2="60.5" y2="68.4666" gradientUnits="userSpaceOnUse">
<stop stop-color="#7BB4EF"/>
<stop offset="1" stop-color="#6BAAFE"/>
</linearGradient>
<linearGradient id="paint8_linear_4975_8446" x1="24.5" y1="84.4666" x2="68.5" y2="84.4666" gradientUnits="userSpaceOnUse">
<stop stop-color="#7BB4EF"/>
<stop offset="1" stop-color="#6BAAFE"/>
</linearGradient>
<linearGradient id="paint9_linear_4975_8446" x1="77.6724" y1="98.9668" x2="62.8009" y2="118.386" gradientUnits="userSpaceOnUse">
<stop stop-color="#BFDAF8"/>
<stop offset="1" stop-color="#A4D1FF"/>
</linearGradient>
<linearGradient id="paint10_linear_4975_8446" x1="70.2857" y1="35.4249" x2="76.7683" y2="55.4282" gradientUnits="userSpaceOnUse">
<stop stop-color="#9AC7FF"/>
<stop offset="1" stop-color="#69A8F5"/>
</linearGradient>
<linearGradient id="paint11_linear_4975_8446" x1="94.7" y1="67.9666" x2="105.625" y2="104.542" gradientUnits="userSpaceOnUse">
<stop stop-color="#9DC9FF"/>
<stop offset="1" stop-color="#539EF9"/>
</linearGradient>
<linearGradient id="paint12_linear_4975_8446" x1="95.1685" y1="82.2163" x2="103.16" y2="90.7664" gradientUnits="userSpaceOnUse">
<stop stop-color="white"/>
<stop offset="1" stop-color="#EAF3FE"/>
</linearGradient>
<linearGradient id="paint13_linear_4975_8446" x1="101.831" y1="82.2163" x2="93.8402" y2="90.7664" gradientUnits="userSpaceOnUse">
<stop stop-color="white"/>
<stop offset="1" stop-color="#EAF3FE"/>
</linearGradient>
</defs>
</svg>
