<svg width="20" height="24" viewBox="0 0 20 24" fill="none" xmlns="http://www.w3.org/2000/svg">
<path d="M13.1155 0.835938L18.6968 6.41727" stroke="#007CFF" stroke-width="1.6744" stroke-linecap="round" stroke-linejoin="round"/>
<path d="M13.1162 0C13.5782 0.000419467 13.9531 0.374806 13.9531 0.836914V5.58105H18.6973C19.1593 5.58132 19.534 5.9559 19.5342 6.41797V22.0459C19.5342 23.1246 18.6597 23.9987 17.5811 23.999H1.95312C0.874288 23.999 0 23.1248 0 22.0459V1.95312C3.68919e-05 0.874305 0.874303 2.99609e-05 1.95312 0H13.1162ZM9.7666 9.48828C9.30438 9.48846 8.92871 9.86293 8.92871 10.3252V13.3945H5.85938C5.39715 13.3947 5.02246 13.7702 5.02246 14.2324C5.02262 14.6945 5.39725 15.0692 5.85938 15.0693H8.92871V18.1387C8.92871 18.6009 9.30438 18.9764 9.7666 18.9766C10.2288 18.9764 10.6035 18.6009 10.6035 18.1387V15.0693H13.6729C14.1351 15.0693 14.5106 14.6947 14.5107 14.2324C14.5107 13.77 14.1352 13.3945 13.6729 13.3945H10.6035V10.3252C10.6035 9.86292 10.2288 9.48844 9.7666 9.48828Z" fill="#007CFF"/>
</svg>
