<svg width="32" height="32" viewBox="0 0 32 32" fill="none" xmlns="http://www.w3.org/2000/svg">
<g id="Frame 89656">
<g id="Union">
<path d="M24.4668 -1.93359C26.4218 -1.93354 28.0068 -0.348621 28.0068 1.60645V30.3936C28.0067 32.3485 26.4218 33.9335 24.4668 33.9336H7.5332C5.57828 33.9335 3.99327 32.3485 3.99316 30.3936V1.60645C3.99316 -0.348576 5.57821 -1.93346 7.5332 -1.93359H24.4668ZM7.5332 0.0664062C6.68278 0.0665376 5.99316 0.755994 5.99316 1.60645V30.3936C5.99327 31.2439 6.68285 31.9335 7.5332 31.9336H24.4668C25.3172 31.9335 26.0067 31.244 26.0068 30.3936V1.60645C26.0068 0.755948 25.3173 0.0664639 24.4668 0.0664062H7.5332ZM19.3867 26.8535C19.9389 26.8535 20.3866 27.3013 20.3867 27.8535C20.3867 28.4058 19.939 28.8535 19.3867 28.8535H12.6133C12.0611 28.8534 11.6133 28.4057 11.6133 27.8535C11.6134 27.3014 12.0612 26.8537 12.6133 26.8535H19.3867ZM17.6934 3.14648C18.2456 3.14649 18.6934 3.59421 18.6934 4.14648C18.6933 4.69869 18.2456 5.14647 17.6934 5.14648H14.3066C13.7546 5.14622 13.3067 4.69853 13.3066 4.14648C13.3066 3.59436 13.7546 3.14675 14.3066 3.14648H17.6934Z" fill="#262626"/>
<path d="M24.4668 -1.93359L24.4668 -2.43359H24.4668V-1.93359ZM28.0068 30.3936L28.5068 30.3936V30.3936H28.0068ZM24.4668 33.9336V34.4336H24.4668L24.4668 33.9336ZM7.5332 33.9336L7.53317 34.4336H7.5332V33.9336ZM3.99316 30.3936H3.49316V30.3936L3.99316 30.3936ZM7.5332 -1.93359V-2.43359H7.53317L7.5332 -1.93359ZM7.5332 0.0664062V-0.433594H7.53313L7.5332 0.0664062ZM5.99316 30.3936H5.49316V30.3936L5.99316 30.3936ZM7.5332 31.9336L7.53313 32.4336H7.5332V31.9336ZM24.4668 31.9336V32.4336H24.4668L24.4668 31.9336ZM26.0068 30.3936L26.5068 30.3936V30.3936H26.0068ZM24.4668 0.0664062L24.4668 -0.433594H24.4668V0.0664062ZM19.3867 26.8535L19.3867 26.3535H19.3867V26.8535ZM20.3867 27.8535H20.8867V27.8534L20.3867 27.8535ZM19.3867 28.8535V29.3535H19.3867L19.3867 28.8535ZM12.6133 28.8535L12.6131 29.3535H12.6133V28.8535ZM11.6133 27.8535L11.1133 27.8534V27.8535H11.6133ZM12.6133 26.8535V26.3535H12.6131L12.6133 26.8535ZM17.6934 3.14648L17.6934 2.64648H17.6934V3.14648ZM18.6934 4.14648L19.1934 4.14657V4.14648H18.6934ZM17.6934 5.14648V5.64648H17.6934L17.6934 5.14648ZM14.3066 5.14648L14.3064 5.64648H14.3066V5.14648ZM13.3066 4.14648H12.8066V4.14657L13.3066 4.14648ZM14.3066 3.14648V2.64648H14.3064L14.3066 3.14648ZM24.4668 -1.93359L24.4668 -1.43359C26.1457 -1.43354 27.5068 -0.072464 27.5068 1.60645H28.0068H28.5068C28.5068 -0.624778 26.698 -2.43353 24.4668 -2.43359L24.4668 -1.93359ZM28.0068 1.60645H27.5068V30.3936H28.0068H28.5068V1.60645H28.0068ZM28.0068 30.3936L27.5068 30.3935C27.5067 32.0724 26.1456 33.4335 24.4668 33.4336L24.4668 33.9336L24.4668 34.4336C26.6979 34.4335 28.5067 32.6247 28.5068 30.3936L28.0068 30.3936ZM24.4668 33.9336V33.4336H7.5332V33.9336V34.4336H24.4668V33.9336ZM7.5332 33.9336L7.53324 33.4336C5.85442 33.4335 4.49325 32.0723 4.49316 30.3935L3.99316 30.3936L3.49316 30.3936C3.49328 32.6246 5.30213 34.4334 7.53317 34.4336L7.5332 33.9336ZM3.99316 30.3936H4.49316V1.60645H3.99316H3.49316V30.3936H3.99316ZM3.99316 1.60645H4.49316C4.49316 -0.0723999 5.85433 -1.43348 7.53324 -1.43359L7.5332 -1.93359L7.53317 -2.43359C5.3021 -2.43344 3.49316 -0.624752 3.49316 1.60645H3.99316ZM7.5332 -1.93359V-1.43359H24.4668V-1.93359V-2.43359H7.5332V-1.93359ZM7.5332 0.0664062L7.53313 -0.433594C6.4067 -0.43342 5.49316 0.479774 5.49316 1.60645H5.99316H6.49316C6.49316 1.03221 6.95886 0.566495 7.53328 0.566406L7.5332 0.0664062ZM5.99316 1.60645H5.49316V30.3936H5.99316H6.49316V1.60645H5.99316ZM5.99316 30.3936L5.49316 30.3936C5.4933 31.5201 6.4067 32.4334 7.53313 32.4336L7.5332 31.9336L7.53328 31.4336C6.95899 31.4335 6.49323 30.9677 6.49316 30.3935L5.99316 30.3936ZM7.5332 31.9336V32.4336H24.4668V31.9336V31.4336H7.5332V31.9336ZM24.4668 31.9336L24.4668 32.4336C25.5934 32.4335 26.5067 31.5201 26.5068 30.3936L26.0068 30.3936L25.5068 30.3935C25.5068 30.9678 25.041 31.4336 24.4668 31.4336L24.4668 31.9336ZM26.0068 30.3936H26.5068V1.60645H26.0068H25.5068V30.3936H26.0068ZM26.0068 1.60645H26.5068C26.5068 0.479772 25.5934 -0.433517 24.4668 -0.433594L24.4668 0.0664062L24.4668 0.566406C25.0412 0.566445 25.5068 1.03212 25.5068 1.60645H26.0068ZM24.4668 0.0664062V-0.433594H7.5332V0.0664062V0.566406H24.4668V0.0664062ZM19.3867 26.8535L19.3867 27.3535C19.6627 27.3535 19.8867 27.5774 19.8867 27.8536L20.3867 27.8535L20.8867 27.8534C20.8866 27.0252 20.2151 26.3535 19.3867 26.3535L19.3867 26.8535ZM20.3867 27.8535H19.8867C19.8867 28.1296 19.6629 28.3535 19.3867 28.3535L19.3867 28.8535L19.3867 29.3535C20.2151 29.3535 20.8867 28.6819 20.8867 27.8535H20.3867ZM19.3867 28.8535V28.3535H12.6133V28.8535V29.3535H19.3867V28.8535ZM12.6133 28.8535L12.6134 28.3535C12.3372 28.3534 12.1133 28.1294 12.1133 27.8535H11.6133H11.1133C11.1133 28.682 11.7851 29.3533 12.6131 29.3535L12.6133 28.8535ZM11.6133 27.8535L12.1133 27.8536C12.1133 27.5776 12.3373 27.3536 12.6134 27.3535L12.6133 26.8535L12.6131 26.3535C11.7851 26.3537 11.1134 27.0252 11.1133 27.8534L11.6133 27.8535ZM12.6133 26.8535V27.3535H19.3867V26.8535V26.3535H12.6133V26.8535ZM17.6934 3.14648L17.6933 3.64648C17.9695 3.64649 18.1934 3.87036 18.1934 4.14648H18.6934H19.1934C19.1934 3.31805 18.5218 2.6465 17.6934 2.64648L17.6934 3.14648ZM18.6934 4.14648L18.1934 4.1464C18.1933 4.4226 17.9694 4.64648 17.6933 4.64648L17.6934 5.14648L17.6934 5.64648C18.5218 5.64647 19.1932 4.97477 19.1934 4.14657L18.6934 4.14648ZM17.6934 5.14648V4.64648H14.3066V5.14648V5.64648H17.6934V5.14648ZM14.3066 5.14648L14.3069 4.64648C14.0307 4.64635 13.8067 4.42221 13.8066 4.1464L13.3066 4.14648L12.8066 4.14657C12.8068 4.97484 13.4786 5.64609 14.3064 5.64648L14.3066 5.14648ZM13.3066 4.14648H13.8066C13.8066 3.87074 14.0305 3.64662 14.3069 3.64648L14.3066 3.14648L14.3064 2.64648C13.4786 2.64688 12.8066 3.31798 12.8066 4.14648H13.3066ZM14.3066 3.14648V3.64648H17.6934V3.14648V2.64648H14.3066V3.14648Z" fill="#262626"/>
</g>
</g>
</svg>
