<svg width="16" height="16" viewBox="0 0 16 16" fill="none" xmlns="http://www.w3.org/2000/svg">
<g id="Frame" clip-path="url(#clip0_4433_41463)">
<path id="Vector" d="M4.66667 11.3333C5.58714 11.3333 6.33333 10.5871 6.33333 9.66667C6.33333 8.74619 5.58714 8 4.66667 8C3.74619 8 3 8.74619 3 9.66667C3 10.5871 3.74619 11.3333 4.66667 11.3333Z" stroke="#262626" stroke-width="1.2" stroke-linecap="round" stroke-linejoin="round"/>
<path id="Vector_2" d="M11.3334 11.3333C12.2539 11.3333 13.0001 10.5871 13.0001 9.66667C13.0001 8.74619 12.2539 8 11.3334 8C10.4129 8 9.66675 8.74619 9.66675 9.66667C9.66675 10.5871 10.4129 11.3333 11.3334 11.3333Z" stroke="#262626" stroke-width="1.2" stroke-linecap="round" stroke-linejoin="round"/>
<path id="Vector_3" d="M7.99992 4.66683C8.92039 4.66683 9.66658 3.92064 9.66658 3.00016C9.66658 2.07969 8.92039 1.3335 7.99992 1.3335C7.07944 1.3335 6.33325 2.07969 6.33325 3.00016C6.33325 3.92064 7.07944 4.66683 7.99992 4.66683Z" stroke="#262626" stroke-width="1.2" stroke-linecap="round" stroke-linejoin="round"/>
<path id="Vector_4" d="M7.99992 14.6668C7.99992 12.8259 6.50752 11.3335 4.66659 11.3335C2.82564 11.3335 1.33325 12.8259 1.33325 14.6668" stroke="#262626" stroke-width="1.2" stroke-linecap="round" stroke-linejoin="round"/>
<path id="Vector_5" d="M14.6667 14.6668C14.6667 12.8259 13.1743 11.3335 11.3333 11.3335C9.4924 11.3335 8 12.8259 8 14.6668" stroke="#262626" stroke-width="1.2" stroke-linecap="round" stroke-linejoin="round"/>
<path id="Vector_6" d="M11.3334 7.99984C11.3334 6.1589 9.84101 4.6665 8.00008 4.6665C6.15915 4.6665 4.66675 6.1589 4.66675 7.99984" stroke="#262626" stroke-width="1.2" stroke-linecap="round" stroke-linejoin="round"/>
</g>
<defs>
<clipPath id="clip0_4433_41463">
<rect width="16" height="16" fill="white"/>
</clipPath>
</defs>
</svg>
