<svg width="24" height="24" viewBox="0 0 24 24" fill="none" xmlns="http://www.w3.org/2000/svg">
<g id="Frame">
<path id="Vector" d="M21 4.5H10C9.4477 4.5 9 4.94771 9 5.5V16.5C9 17.0523 9.4477 17.5 10 17.5H21C21.5523 17.5 22 17.0523 22 16.5V5.5C22 4.94771 21.5523 4.5 21 4.5Z" stroke="#262626" stroke-width="1.5" stroke-linejoin="round"/>
<path id="Vector_2" d="M2 17.5H9V10.5H5.5L2 13.7308V17.5Z" stroke="#262626" stroke-width="1.5" stroke-linejoin="round"/>
<path id="Vector_3" d="M9 18.5C9 19.6045 8.10455 20.5 7 20.5C5.89545 20.5 5 19.6045 5 18.5" stroke="#262626" stroke-width="1.5" stroke-linecap="round" stroke-linejoin="round"/>
<path id="Vector_4" d="M20 18.5C20 19.6045 19.1045 20.5 18 20.5C16.8954 20.5 16 19.6045 16 18.5" stroke="#262626" stroke-width="1.5" stroke-linecap="round" stroke-linejoin="round"/>
</g>
</svg>
