<svg width="24" height="24" viewBox="0 0 24 24" fill="none" xmlns="http://www.w3.org/2000/svg">
<g id="Frame">
<path id="Vector" d="M12.2262 2.01416C18.7144 2.01416 23.9939 3.84147 23.9939 6.63674C23.9939 9.31023 19.1644 11.0987 13.0667 11.2502V16.3284C15.8871 16.5068 18.1101 17.5806 18.1101 19.2443C18.1101 21.0699 15.432 22.1866 12.2262 22.1866C9.02042 22.1866 6.34235 21.0699 6.34235 19.2443C6.34235 17.5806 8.56588 16.5068 11.3852 16.3284V11.2599L11.3863 11.2502C5.28919 11.0987 0.458496 9.31023 0.458496 6.63674C0.458496 3.84089 5.73801 2.01416 12.2262 2.01416ZM13.0661 18.0162L13.0667 17.9842C13.0689 18.0946 13.0493 18.2043 13.009 18.3071C12.9688 18.4099 12.9087 18.5038 12.8322 18.5834C12.7557 18.663 12.6643 18.7267 12.5632 18.7709C12.462 18.8152 12.3532 18.8391 12.2428 18.8413C12.0199 18.8457 11.8044 18.7613 11.6436 18.6068C11.4829 18.4523 11.3901 18.2403 11.3857 18.0174C9.44065 18.1672 8.02386 18.811 8.02386 19.2455C8.02386 19.7406 9.86089 20.5062 12.2262 20.5062C14.5915 20.5062 16.4286 19.7401 16.4286 19.2455C16.4286 18.811 15.0129 18.1672 13.0661 18.0162ZM12.2262 3.6951L11.9289 3.69681C6.48529 3.75056 2.13943 5.27941 2.13943 6.63674C2.13943 8.0198 6.64481 9.57895 12.2262 9.57895C17.8076 9.57895 22.313 8.0198 22.313 6.63674C22.313 5.25425 17.8076 3.6951 12.2262 3.6951Z" fill="#262626"/>
</g>
</svg>
