<svg width="32" height="32" viewBox="0 0 32 32" fill="none" xmlns="http://www.w3.org/2000/svg">
<g id="icon">
<path id="Vector" d="M12.4245 5.10059H5.40408C4.62863 5.10059 4 5.72921 4 6.50467V13.5251C4 14.3006 4.62863 14.9292 5.40408 14.9292H12.4245C13.2 14.9292 13.8286 14.3006 13.8286 13.5251V6.50467C13.8286 5.72921 13.2 5.10059 12.4245 5.10059Z" stroke="black" stroke-width="2.2" stroke-linejoin="round"/>
<path id="Vector_2" d="M12.4245 19.9292H5.40408C4.62863 19.9292 4 20.5578 4 21.3333V28.3537C4 29.1292 4.62863 29.7578 5.40408 29.7578H12.4245C13.2 29.7578 13.8286 29.1292 13.8286 28.3537V21.3333C13.8286 20.5578 13.2 19.9292 12.4245 19.9292Z" stroke="black" stroke-width="2.2" stroke-linejoin="round"/>
<path id="Vector_3" d="M27.2531 5.10059H20.2327C19.4572 5.10059 18.8286 5.72921 18.8286 6.50467V13.5251C18.8286 14.3006 19.4572 14.9292 20.2327 14.9292H27.2531C28.0286 14.9292 28.6572 14.3006 28.6572 13.5251V6.50467C28.6572 5.72921 28.0286 5.10059 27.2531 5.10059Z" stroke="black" stroke-width="2.2" stroke-linejoin="round"/>
<path id="Vector_4" d="M27.2531 19.9292H20.2327C19.4572 19.9292 18.8286 20.5578 18.8286 21.3333V28.3537C18.8286 29.1292 19.4572 29.7578 20.2327 29.7578H27.2531C28.0286 29.7578 28.6572 29.1292 28.6572 28.3537V21.3333C28.6572 20.5578 28.0286 19.9292 27.2531 19.9292Z" stroke="black" stroke-width="2.2" stroke-linejoin="round"/>
</g>
</svg>
