<svg width="32" height="32" viewBox="0 0 32 32" fill="none" xmlns="http://www.w3.org/2000/svg">
<g id="order type=drive thru">
<rect id="Rectangle 930" width="32" height="32" rx="5.33" fill="#FF4343"/>
<g id="Frame">
<g id="Group 89094">
<path id="Vector" d="M25.7621 7.14404C25.7621 6.61113 25.3253 6.17432 24.7924 6.17432H7.0752C6.54228 6.17432 6.10547 6.61113 6.10547 7.14404V24.859C6.10547 25.3919 6.54228 25.8288 7.0752 25.8288H24.7902C25.3231 25.8288 25.7599 25.3919 25.7599 24.859V20.5542C25.7599 20.2594 25.5218 20.0213 25.227 20.0213H24.1109C23.8161 20.0213 23.578 20.2594 23.578 20.5542V23.1118C23.578 23.4066 23.34 23.6447 23.0451 23.6447H8.82245C8.5276 23.6447 8.28954 23.4066 8.28954 23.1118V8.8913C8.28954 8.59645 8.5276 8.35839 8.82245 8.35839H23.0429C23.3378 8.35839 23.5758 8.59645 23.5758 8.8913V11.4488C23.5758 11.7437 23.8139 11.9818 24.1088 11.9818H25.2248C25.5197 11.9818 25.7577 11.7437 25.7577 11.4488V7.14404H25.7621Z" fill="white"/>
<path id="Vector_2" d="M19.0945 12.8074C19.0967 11.117 17.7251 9.74538 16.0346 9.74756C14.3726 9.74975 12.9813 11.141 12.9791 12.8031C12.977 14.4935 14.3485 15.8651 16.039 15.863C17.7011 15.8608 19.0923 14.4695 19.0945 12.8074ZM11.3848 19.1827V21.6726C11.3848 21.9128 11.5813 22.1094 11.8216 22.1094H20.2521C20.4923 22.1094 20.6889 21.9128 20.6889 21.6726V19.2264H21.8792C22.1195 19.2264 22.316 19.0299 22.316 18.7896V17.4573C22.316 16.9637 21.9142 16.5619 21.4206 16.5619H18.2537C18.2318 16.5619 18.2078 16.564 18.186 16.564C18.1466 16.5619 18.1073 16.5619 18.068 16.5619H14.0056C12.5642 16.5619 11.3848 17.7413 11.3848 19.1827ZM24.867 13.6505C24.6967 13.4801 24.4215 13.478 24.2489 13.6483L22.6982 15.1881C22.5279 15.3584 22.5257 15.6336 22.6961 15.8062L23.9585 17.0773C24.1288 17.2477 24.404 17.2498 24.5765 17.0795L26.125 15.5397C26.2954 15.3694 26.2976 15.0942 26.1272 14.9216L24.867 13.6505Z" fill="white"/>
</g>
</g>
</g>
</svg>
