<svg width="32" height="32" viewBox="0 0 32 32" fill="none" xmlns="http://www.w3.org/2000/svg">
<g id="Frame 89155">
<g id="Group 89154">
<g id="Frame 89452">
<path id="Vector 212" d="M10.1693 5.54102C9.78994 5.92039 9.11157 7.22891 9.78717 8.50017C10.513 9.86593 10.9079 10.0935 10.1693 11.8007" stroke="black" stroke-width="2" stroke-linecap="round"/>
<path id="Vector 213" d="M16.6226 3.40283C16.2432 3.78221 15.0754 6.22775 15.7929 7.4758C16.7745 9.183 17.3132 10.0935 16.1751 11.8007" stroke="black" stroke-width="2" stroke-linecap="round"/>
<path id="Vector 214" d="M22.4843 5.54102C22.1049 5.92039 21.4265 7.22891 22.1021 8.50017C22.8279 9.86593 23.2228 10.0935 22.4843 11.8007" stroke="black" stroke-width="2" stroke-linecap="round"/>
</g>
<g id="Group 89108">
<path id="Vector 209" d="M2.5 15.7725H29.5" stroke="black" stroke-width="2" stroke-linecap="round"/>
<path id="Vector 210" d="M5.875 16.4473V26.0974C5.875 27.4781 6.99429 28.5974 8.375 28.5974H23.625C25.0057 28.5974 26.125 27.4781 26.125 26.0974V16.4473" stroke="black" stroke-width="2" stroke-linecap="round"/>
</g>
</g>
</g>
</svg>
