<svg width="32" height="32" viewBox="0 0 32 32" fill="none" xmlns="http://www.w3.org/2000/svg">
<g id="Frame 89501">
<g id="Union">
<path fill-rule="evenodd" clip-rule="evenodd" d="M31.8276 14.5555C32.4751 14.5555 33 15.0824 33 15.7322C33 16.382 32.4751 16.9089 31.8276 16.9089H29.0431V27.8816C29.0429 30.1559 27.2058 32 24.9397 32H7.06034C4.79422 32 2.95714 30.1559 2.9569 27.8816V16.9089H0.172414C-0.475063 16.9089 -0.999952 16.382 -1 15.7322C-1 15.0824 -0.475092 14.5555 0.172414 14.5555H31.8276ZM5.30172 16.9089V27.8816C5.30196 28.8562 6.08923 29.6467 7.06034 29.6467H24.9397C25.9108 29.6467 26.698 28.8562 26.6983 27.8816V16.9089H5.30172Z" fill="#262626"/>
<path d="M8.33466 2.86117C8.79244 2.40172 9.53465 2.40187 9.99252 2.86117C10.4503 3.32069 10.4504 4.06555 9.99252 4.52506C9.99252 4.52506 9.98664 4.53263 9.97764 4.54345C9.96721 4.55599 9.95258 4.57372 9.93642 4.5963C9.90389 4.64185 9.86552 4.70251 9.82536 4.77671C9.74394 4.9272 9.66528 5.11592 9.61355 5.32483C9.5112 5.7387 9.5204 6.18793 9.75094 6.62331C9.85036 6.81105 9.94535 6.981 10.0372 7.14501C10.1264 7.30443 10.2189 7.46903 10.3017 7.62533C10.4669 7.93742 10.6373 8.29681 10.7287 8.71352C10.9248 9.60743 10.697 10.466 10.2398 11.5265C9.98258 12.1224 9.29275 12.3967 8.69875 12.139C8.1045 11.881 7.83146 11.1876 8.0885 10.5912C8.49689 9.6436 8.4704 9.36297 8.43885 9.21913C8.4164 9.11699 8.36528 8.98213 8.23161 8.72961C8.16497 8.60371 8.08881 8.46784 7.99347 8.29755C7.90057 8.13164 7.7941 7.94136 7.6809 7.7276C7.11957 6.66752 7.13034 5.59848 7.33856 4.75718C7.5385 3.94971 7.94286 3.25452 8.33466 2.86117Z" fill="#262626"/>
<path d="M22.7723 2.86117C23.2301 2.40172 23.9723 2.40187 24.4302 2.86117C24.888 3.32069 24.888 4.06555 24.4302 4.52506C24.4302 4.52506 24.4243 4.53263 24.4153 4.54345C24.4049 4.55599 24.3902 4.57372 24.3741 4.5963C24.3415 4.64185 24.3032 4.70251 24.263 4.77671C24.1816 4.9272 24.1029 5.11592 24.0512 5.32483C23.9488 5.7387 23.958 6.18793 24.1886 6.62331C24.288 6.81105 24.383 6.981 24.4748 7.14501C24.5641 7.30443 24.6565 7.46903 24.7393 7.62533C24.9045 7.93742 25.0749 8.29681 25.1664 8.71352C25.3624 9.60743 25.1346 10.466 24.6775 11.5265C24.4202 12.1224 23.7304 12.3967 23.1364 12.139C22.5421 11.881 22.2691 11.1876 22.5261 10.5912C22.9345 9.6436 22.908 9.36297 22.8765 9.21913C22.854 9.11699 22.8029 8.98213 22.6692 8.72961C22.6026 8.60371 22.5264 8.46784 22.4311 8.29755C22.3382 8.13164 22.2317 7.94136 22.1185 7.7276C21.5572 6.66752 21.568 5.59848 21.7762 4.75718C21.9761 3.94971 22.3805 3.25452 22.7723 2.86117Z" fill="#262626"/>
<path d="M15.9004 0.344641C16.3582 -0.114881 17.1015 -0.11488 17.5594 0.344641C18.0169 0.804098 18.0169 1.5491 17.5594 2.00854C17.5418 2.02617 17.4926 2.08997 17.3201 2.43485C17.1695 2.73605 17.0084 3.12284 16.8827 3.53454C16.7558 3.95043 16.6752 4.35618 16.6629 4.70547C16.6504 5.06313 16.712 5.27396 16.774 5.38229C17.3113 6.32028 17.8892 7.29119 18.0678 8.31019C18.2696 9.46252 17.9603 10.5362 17.1804 11.7104C16.8213 12.251 16.0934 12.3971 15.5546 12.0367C15.0162 11.6762 14.8704 10.9456 15.2295 10.405C15.7836 9.57074 15.8263 9.10447 15.7584 8.71697C15.667 8.19606 15.3538 7.62592 14.7406 6.55552C14.3821 5.92967 14.299 5.22993 14.3204 4.62158C14.3421 4.00471 14.4742 3.38766 14.6398 2.84508C14.8068 2.29833 15.0189 1.78965 15.2237 1.37998C15.4062 1.01516 15.6452 0.600873 15.9004 0.344641Z" fill="#262626"/>
<path fill-rule="evenodd" clip-rule="evenodd" d="M31.8276 14.5555C32.4751 14.5555 33 15.0824 33 15.7322C33 16.382 32.4751 16.9089 31.8276 16.9089H29.0431V27.8816C29.0429 30.1559 27.2058 32 24.9397 32H7.06034C4.79422 32 2.95714 30.1559 2.9569 27.8816V16.9089H0.172414C-0.475063 16.9089 -0.999952 16.382 -1 15.7322C-1 15.0824 -0.475092 14.5555 0.172414 14.5555H31.8276ZM5.30172 16.9089V27.8816C5.30196 28.8562 6.08923 29.6467 7.06034 29.6467H24.9397C25.9108 29.6467 26.698 28.8562 26.6983 27.8816V16.9089H5.30172Z" stroke="#262626" stroke-width="0.5" stroke-linecap="round"/>
<path d="M8.33466 2.86117C8.79244 2.40172 9.53465 2.40187 9.99252 2.86117C10.4503 3.32069 10.4504 4.06555 9.99252 4.52506C9.99252 4.52506 9.98664 4.53263 9.97764 4.54345C9.96721 4.55599 9.95258 4.57372 9.93642 4.5963C9.90389 4.64185 9.86552 4.70251 9.82536 4.77671C9.74394 4.9272 9.66528 5.11592 9.61355 5.32483C9.5112 5.7387 9.5204 6.18793 9.75094 6.62331C9.85036 6.81105 9.94535 6.981 10.0372 7.14501C10.1264 7.30443 10.2189 7.46903 10.3017 7.62533C10.4669 7.93742 10.6373 8.29681 10.7287 8.71352C10.9248 9.60743 10.697 10.466 10.2398 11.5265C9.98258 12.1224 9.29275 12.3967 8.69875 12.139C8.1045 11.881 7.83146 11.1876 8.0885 10.5912C8.49689 9.6436 8.4704 9.36297 8.43885 9.21913C8.4164 9.11699 8.36528 8.98213 8.23161 8.72961C8.16497 8.60371 8.08881 8.46784 7.99347 8.29755C7.90057 8.13164 7.7941 7.94136 7.6809 7.7276C7.11957 6.66752 7.13034 5.59848 7.33856 4.75718C7.5385 3.94971 7.94286 3.25452 8.33466 2.86117Z" stroke="#262626" stroke-width="0.5" stroke-linecap="round"/>
<path d="M22.7723 2.86117C23.2301 2.40172 23.9723 2.40187 24.4302 2.86117C24.888 3.32069 24.888 4.06555 24.4302 4.52506C24.4302 4.52506 24.4243 4.53263 24.4153 4.54345C24.4049 4.55599 24.3902 4.57372 24.3741 4.5963C24.3415 4.64185 24.3032 4.70251 24.263 4.77671C24.1816 4.9272 24.1029 5.11592 24.0512 5.32483C23.9488 5.7387 23.958 6.18793 24.1886 6.62331C24.288 6.81105 24.383 6.981 24.4748 7.14501C24.5641 7.30443 24.6565 7.46903 24.7393 7.62533C24.9045 7.93742 25.0749 8.29681 25.1664 8.71352C25.3624 9.60743 25.1346 10.466 24.6775 11.5265C24.4202 12.1224 23.7304 12.3967 23.1364 12.139C22.5421 11.881 22.2691 11.1876 22.5261 10.5912C22.9345 9.6436 22.908 9.36297 22.8765 9.21913C22.854 9.11699 22.8029 8.98213 22.6692 8.72961C22.6026 8.60371 22.5264 8.46784 22.4311 8.29755C22.3382 8.13164 22.2317 7.94136 22.1185 7.7276C21.5572 6.66752 21.568 5.59848 21.7762 4.75718C21.9761 3.94971 22.3805 3.25452 22.7723 2.86117Z" stroke="#262626" stroke-width="0.5" stroke-linecap="round"/>
<path d="M15.9004 0.344641C16.3582 -0.114881 17.1015 -0.11488 17.5594 0.344641C18.0169 0.804098 18.0169 1.5491 17.5594 2.00854C17.5418 2.02617 17.4926 2.08997 17.3201 2.43485C17.1695 2.73605 17.0084 3.12284 16.8827 3.53454C16.7558 3.95043 16.6752 4.35618 16.6629 4.70547C16.6504 5.06313 16.712 5.27396 16.774 5.38229C17.3113 6.32028 17.8892 7.29119 18.0678 8.31019C18.2696 9.46252 17.9603 10.5362 17.1804 11.7104C16.8213 12.251 16.0934 12.3971 15.5546 12.0367C15.0162 11.6762 14.8704 10.9456 15.2295 10.405C15.7836 9.57074 15.8263 9.10447 15.7584 8.71697C15.667 8.19606 15.3538 7.62592 14.7406 6.55552C14.3821 5.92967 14.299 5.22993 14.3204 4.62158C14.3421 4.00471 14.4742 3.38766 14.6398 2.84508C14.8068 2.29833 15.0189 1.78965 15.2237 1.37998C15.4062 1.01516 15.6452 0.600873 15.9004 0.344641Z" stroke="#262626" stroke-width="0.5" stroke-linecap="round"/>
</g>
</g>
</svg>
