<svg width="32" height="32" viewBox="0 0 32 32" fill="none" xmlns="http://www.w3.org/2000/svg">
<g id="Frame 89237">
<g id="ditu-2 1" clip-path="url(#clip0_4401_39773)">
<path id="Vector" d="M7.13672 15.4912C7.39814 15.4913 7.64909 15.5945 7.83398 15.7793C8.01896 15.9643 8.12305 16.2159 8.12305 16.4775C8.12295 16.739 8.01888 16.9899 7.83398 17.1748C7.64908 17.3597 7.3982 17.4638 7.13672 17.4639H6.53613L5.58691 25.5361H26.4131L25.4639 17.4639H24.8633C24.6018 17.4638 24.3509 17.3597 24.166 17.1748C23.9811 16.9899 23.877 16.739 23.877 16.4775C23.877 16.2159 23.981 15.9643 24.166 15.7793C24.3509 15.5945 24.6019 15.4913 24.8633 15.4912H26.3408C26.8407 15.4912 27.2612 15.8661 27.3203 16.3623L28.5029 26.4072C28.5192 26.5455 28.5057 26.6865 28.4639 26.8193C28.4221 26.9519 28.3521 27.0738 28.2598 27.1777C28.1672 27.2818 28.0538 27.3658 27.9268 27.4229C27.7997 27.4798 27.6617 27.5088 27.5225 27.5088H4.47754C4.33829 27.5088 4.20029 27.4799 4.07324 27.4229C3.94619 27.3658 3.83279 27.2818 3.74023 27.1777C3.64788 27.0738 3.57793 26.9519 3.53613 26.8193C3.49431 26.6865 3.48082 26.5455 3.49707 26.4072L4.67969 16.3623C4.70789 16.1223 4.82329 15.9008 5.00391 15.7402C5.1845 15.5797 5.41754 15.4912 5.65918 15.4912H7.13672ZM16 2.49121C20.461 2.49121 24.0771 6.10731 24.0771 10.5684C24.0771 11.8257 23.5212 13.3551 22.5303 15.1338L22.0791 15.9121C21.5371 16.8049 20.9593 17.6755 20.3467 18.5215C19.5569 19.6153 18.7296 20.6822 17.8672 21.7197C17.6816 21.9434 17.4946 22.1658 17.3057 22.3867L16.7344 23.0449L16.0742 23.7803L16 23.8633L15.9258 23.7803L15.2666 23.0449H15.2656C14.8815 22.6091 14.5036 22.167 14.1328 21.7197C13.2703 20.6823 12.4432 19.6152 11.6533 18.5215V18.5205C11.1941 17.8864 10.7537 17.2389 10.334 16.5781L9.9209 15.9121C8.64897 13.7983 7.92294 12.0054 7.92285 10.5684C7.92285 6.10733 11.539 2.49124 16 2.49121ZM16 4.46387C12.6286 4.4639 9.89551 7.19692 9.89551 10.5684C9.89556 11.0488 10.0441 11.6658 10.335 12.3984C10.6253 13.1297 11.0544 13.9703 11.6104 14.8945C12.1247 15.7414 12.6736 16.5677 13.2549 17.3701H13.2559C14.1247 18.574 15.0406 19.743 16 20.876C16.1119 20.7438 16.2288 20.6056 16.3486 20.4609L16.9678 19.7041C17.58 18.9415 18.1726 18.163 18.7451 17.3701C19.3264 16.5677 19.8743 15.7414 20.3887 14.8945C20.9451 13.9701 21.3747 13.1298 21.665 12.3984C21.9558 11.6657 22.1044 11.0488 22.1045 10.5684C22.1045 7.19691 19.3715 4.46387 16 4.46387ZM16 6.92285C16.8885 6.92285 17.7409 7.27605 18.3691 7.9043C18.9971 8.53247 19.3496 9.38423 19.3496 10.2725C19.3496 11.1609 18.9973 12.0134 18.3691 12.6416C17.7409 13.2698 16.8885 13.623 16 13.623C15.1115 13.623 14.2591 13.2698 13.6309 12.6416C13.0027 12.0134 12.6504 11.1609 12.6504 10.2725C12.6504 9.38425 13.0029 8.53246 13.6309 7.9043C14.2591 7.27606 15.1115 6.92287 16 6.92285ZM16 8.89551C15.6348 8.89552 15.2846 9.04059 15.0264 9.29883C14.7681 9.55708 14.6231 9.90725 14.623 10.2725C14.623 10.6377 14.7682 10.9878 15.0264 11.2461C15.2846 11.5044 15.6347 11.6504 16 11.6504C16.3653 11.6504 16.7153 11.5044 16.9736 11.2461C17.2319 10.9878 17.377 10.6377 17.377 10.2725C17.3769 9.90725 17.2319 9.55708 16.9736 9.29883C16.7154 9.04061 16.3652 8.89551 16 8.89551Z" fill="#262626" stroke="#262626" stroke-width="0.2"/>
</g>
</g>
<defs>
<clipPath id="clip0_4401_39773">
<rect width="26" height="26" fill="white" transform="translate(3 2)"/>
</clipPath>
</defs>
</svg>
