<svg width="32" height="32" viewBox="0 0 32 32" fill="none" xmlns="http://www.w3.org/2000/svg">
<g id="Frame 89659">
<g id="Union">
<path fill-rule="evenodd" clip-rule="evenodd" d="M31.0894 3.69922C31.1044 3.69954 31.1193 3.70116 31.1343 3.70215C31.1557 3.70353 31.1768 3.7053 31.1978 3.70801C31.2082 3.70937 31.2186 3.7112 31.229 3.71289C31.2411 3.71484 31.2532 3.71637 31.2651 3.71875C31.267 3.71912 31.2691 3.71837 31.271 3.71875C31.279 3.72039 31.2865 3.72376 31.2944 3.72559C31.2997 3.7268 31.3048 3.7282 31.3101 3.72949C31.3392 3.73672 31.3679 3.74419 31.396 3.75391C31.3979 3.75458 31.3999 3.75518 31.4019 3.75586C31.4288 3.7654 31.4551 3.77635 31.481 3.78809C31.4891 3.79174 31.4974 3.79495 31.5054 3.79883C31.519 3.80545 31.5331 3.81114 31.5464 3.81836C31.554 3.82249 31.5604 3.82869 31.5679 3.83301C31.5727 3.83577 31.5778 3.83798 31.5825 3.84082C31.6037 3.85355 31.6239 3.86762 31.644 3.88184C31.6553 3.88974 31.6663 3.89784 31.6772 3.90625C31.6912 3.917 31.7049 3.92799 31.7183 3.93945C31.7284 3.94815 31.7387 3.95667 31.7485 3.96582C31.7578 3.97445 31.7679 3.98224 31.7769 3.99121C31.8517 4.0661 31.9133 4.15356 31.9614 4.24902C31.9672 4.26038 31.9728 4.27171 31.978 4.2832C31.9887 4.30652 31.9985 4.33025 32.0073 4.35449C32.0091 4.35933 32.0105 4.36428 32.0122 4.36914C32.0159 4.37962 32.0206 4.38975 32.0239 4.40039C32.028 4.41348 32.0301 4.42712 32.0337 4.44043C32.0359 4.44861 32.0386 4.45663 32.0405 4.46484C32.0464 4.48927 32.0512 4.51397 32.0552 4.53906C32.0565 4.54753 32.0579 4.55596 32.0591 4.56445C32.0616 4.58352 32.0635 4.60268 32.0649 4.62207C32.0663 4.64064 32.0675 4.65915 32.0679 4.67773C32.068 4.68449 32.0688 4.69146 32.0688 4.69824V27.3018C32.0685 27.8537 31.6208 28.3016 31.0688 28.3018H0.931152C0.379297 28.3015 -0.0685122 27.8536 -0.0688477 27.3018V4.69824C-0.0688477 4.68687 -0.0672713 4.67535 -0.0668945 4.66406C-0.0666025 4.65525 -0.0654666 4.6465 -0.0649414 4.6377C-0.0633695 4.61132 -0.0607065 4.58536 -0.0571289 4.55957C-0.0561763 4.55273 -0.0552954 4.54589 -0.0541992 4.53906C-0.04997 4.51263 -0.0448325 4.48664 -0.0385742 4.46094C-0.037694 4.45733 -0.0365661 4.4538 -0.0356445 4.4502C-0.0286103 4.42266 -0.0204973 4.39571 -0.0112305 4.36914C-0.00953345 4.36428 -0.00812338 4.35933 -0.00634766 4.35449C0.00188196 4.33203 0.0102572 4.30976 0.0200195 4.28809C0.0259281 4.27498 0.032059 4.26194 0.0385742 4.24902C0.0431644 4.23991 0.0473881 4.23063 0.0522461 4.22168C0.0676813 4.19324 0.0840224 4.16536 0.102051 4.13867C0.109637 4.12744 0.117464 4.11637 0.125488 4.10547C0.127259 4.10306 0.129552 4.10103 0.131348 4.09863C0.132934 4.09652 0.13463 4.0939 0.13623 4.0918C0.143975 4.08165 0.151549 4.07136 0.159668 4.06152C0.179921 4.03699 0.201655 4.0137 0.224121 3.99121C0.232913 3.98241 0.242352 3.97429 0.251465 3.96582C0.261295 3.95667 0.271608 3.94815 0.281738 3.93945C0.297771 3.9257 0.314654 3.91312 0.331543 3.90039C0.340461 3.89367 0.348807 3.88627 0.35791 3.87988C0.377787 3.86592 0.39853 3.85334 0.419434 3.84082C0.423464 3.83841 0.427093 3.83535 0.431152 3.83301C0.451916 3.82097 0.472954 3.80938 0.494629 3.79883C0.502636 3.79494 0.510948 3.79175 0.519043 3.78809C0.545183 3.77621 0.571837 3.76549 0.599121 3.75586C0.601064 3.75518 0.603033 3.75458 0.60498 3.75391C0.629929 3.74528 0.655353 3.73811 0.681152 3.73145C0.690946 3.72891 0.700589 3.72587 0.710449 3.72363C0.729138 3.71941 0.748021 3.71605 0.76709 3.71289C0.778772 3.71094 0.790502 3.70954 0.802246 3.70801C0.82228 3.70542 0.842406 3.70354 0.862793 3.70215C0.878745 3.70104 0.894644 3.69957 0.910645 3.69922C0.917471 3.69908 0.924293 3.69825 0.931152 3.69824H31.0688C31.0755 3.69824 31.0827 3.69909 31.0894 3.69922ZM16.6001 16.7998C16.2446 17.0662 15.7553 17.0664 15.3999 16.7998L1.93115 6.69727V26.3018H30.0688V6.69727L16.6001 16.7998ZM15.9995 14.75L28.0688 5.69824H3.93018L15.9995 14.75Z" fill="#262626"/>
<path d="M31.0894 3.69922L31.1 3.19933L31.0993 3.19932L31.0894 3.69922ZM31.1343 3.70215L31.1012 4.20106L31.102 4.2011L31.1343 3.70215ZM31.1978 3.70801L31.2624 3.2122L31.2617 3.21211L31.1978 3.70801ZM31.229 3.71289L31.1488 4.20642L31.1494 4.20651L31.229 3.71289ZM31.2651 3.71875L31.1674 4.2091L31.1675 4.20913L31.2651 3.71875ZM31.271 3.71875L31.3716 3.22897L31.3714 3.22894L31.271 3.71875ZM31.2944 3.72559L31.4071 3.23845L31.407 3.23842L31.2944 3.72559ZM31.3101 3.72949L31.1896 4.21476L31.1896 4.21476L31.3101 3.72949ZM31.396 3.75391L31.2323 4.22635L31.2328 4.22653L31.396 3.75391ZM31.4019 3.75586L31.5685 3.28444L31.5679 3.28425L31.4019 3.75586ZM31.481 3.78809L31.2744 4.24343L31.2752 4.2438L31.481 3.78809ZM31.5054 3.79883L31.7239 3.34911L31.7232 3.34878L31.5054 3.79883ZM31.5464 3.81836L31.7853 3.37915L31.7852 3.37906L31.5464 3.81836ZM31.5679 3.83301L31.3176 4.26587L31.3184 4.26632L31.5679 3.83301ZM31.5825 3.84082L31.8399 3.41217L31.8392 3.41173L31.5825 3.84082ZM31.644 3.88184L31.3557 4.29029L31.3561 4.29061L31.644 3.88184ZM31.6772 3.90625L31.9822 3.51L31.9819 3.5098L31.6772 3.90625ZM31.7183 3.93945L31.3929 4.31912L31.3929 4.31913L31.7183 3.93945ZM31.7485 3.96582L31.4081 4.33205L31.4083 4.33219L31.7485 3.96582ZM31.7769 3.99121L31.423 4.34447L31.4231 4.34461L31.7769 3.99121ZM31.9614 4.24902L31.515 4.47422L31.5151 4.47433L31.9614 4.24902ZM31.978 4.2832L32.4328 4.07538L32.4327 4.07512L31.978 4.2832ZM32.0073 4.35449L31.5378 4.52641L31.5379 4.52664L32.0073 4.35449ZM32.0122 4.36914L32.4843 4.20456L32.4843 4.20433L32.0122 4.36914ZM32.0239 4.40039L31.5465 4.549L31.5466 4.54912L32.0239 4.40039ZM32.0337 4.44043L31.5506 4.5692L31.5506 4.56932L32.0337 4.44043ZM32.0405 4.46484L32.5268 4.34847L32.5268 4.34834L32.0405 4.46484ZM32.0552 4.53906L31.5615 4.61808L31.5615 4.61825L32.0552 4.53906ZM32.0591 4.56445L32.5547 4.49818L32.5546 4.49802L32.0591 4.56445ZM32.0649 4.62207L31.5664 4.65959L31.5664 4.65964L32.0649 4.62207ZM32.0679 4.67773L31.568 4.68748L31.568 4.6877L32.0679 4.67773ZM32.0688 27.3018L32.5688 27.3021V27.3018H32.0688ZM31.0688 28.3018V28.8018H31.0689L31.0688 28.3018ZM0.931152 28.3018L0.930916 28.8018H0.931152V28.3018ZM-0.0688477 27.3018H-0.568848L-0.568848 27.3021L-0.0688477 27.3018ZM-0.0668945 4.66406L0.432827 4.68075L0.432831 4.68063L-0.0668945 4.66406ZM-0.0649414 4.6377L0.434172 4.66746L0.434173 4.66744L-0.0649414 4.6377ZM-0.0571289 4.55957L-0.552356 4.49065L-0.552385 4.49086L-0.0571289 4.55957ZM-0.0541992 4.53906L0.439487 4.61827L0.439522 4.61805L-0.0541992 4.53906ZM-0.0385742 4.46094L-0.524326 4.34243L-0.524378 4.34264L-0.0385742 4.46094ZM-0.0356445 4.4502L0.448747 4.57415L0.4488 4.57394L-0.0356445 4.4502ZM-0.0112305 4.36914L-0.483273 4.20429L-0.48334 4.20448L-0.0112305 4.36914ZM-0.00634766 4.35449L0.463069 4.52668L0.463139 4.52649L-0.00634766 4.35449ZM0.0200195 4.28809L-0.435782 4.08255L-0.435877 4.08276L0.0200195 4.28809ZM0.0385742 4.24902L0.485009 4.47418L0.485116 4.47397L0.0385742 4.24902ZM0.0522461 4.22168L-0.387188 3.98315L0.0522461 4.22168ZM0.102051 4.13867L-0.312263 3.85877L0.102051 4.13867ZM0.125488 4.10547L0.528126 4.40192L0.528302 4.40168L0.125488 4.10547ZM0.131348 4.09863L-0.268652 3.79863L-0.268847 3.79889L0.131348 4.09863ZM0.13623 4.0918L-0.261214 3.78842L-0.26143 3.7887L0.13623 4.0918ZM0.224121 3.99121L-0.129608 3.63783L0.224121 3.99121ZM0.251465 3.96582L0.591847 4.33207L0.592187 4.33176L0.251465 3.96582ZM0.281738 3.93945L-0.0437454 3.5599L-0.0439396 3.56007L0.281738 3.93945ZM0.331543 3.90039L0.0307275 3.501L0.0306392 3.50107L0.331543 3.90039ZM0.35791 3.87988L0.645103 4.28918L0.645343 4.28901L0.35791 3.87988ZM0.419434 3.84082L0.163072 3.41154L0.162558 3.41185L0.419434 3.84082ZM0.431152 3.83301L0.681408 4.26587L0.681958 4.26555L0.431152 3.83301ZM0.494629 3.79883L0.27638 3.34897L0.275744 3.34928L0.494629 3.79883ZM0.519043 3.78809L0.725179 4.24362L0.725797 4.24334L0.519043 3.78809ZM0.599121 3.75586L0.433087 3.28423L0.432717 3.28436L0.599121 3.75586ZM0.60498 3.75391L0.7681 4.22655L0.768444 4.22643L0.60498 3.75391ZM0.681152 3.73145L0.806244 4.21554L0.806326 4.21552L0.681152 3.73145ZM0.710449 3.72363L0.600212 3.23594L0.599952 3.236L0.710449 3.72363ZM0.76709 3.71289L0.848867 4.20616L0.849429 4.20606L0.76709 3.71289ZM0.802246 3.70801L0.738075 3.21214L0.737383 3.21223L0.802246 3.70801ZM0.862793 3.70215L0.896771 4.20099L0.897509 4.20094L0.862793 3.70215ZM0.910645 3.69922L0.900341 3.19932L0.899795 3.19934L0.910645 3.69922ZM0.931152 3.69824V3.19824L0.930916 3.19824L0.931152 3.69824ZM31.0688 3.69824L31.0689 3.19824H31.0688V3.69824ZM16.6001 16.7998L16.8999 17.2L16.9001 17.1998L16.6001 16.7998ZM15.3999 16.7998L15.0999 17.1998L15.0999 17.1998L15.3999 16.7998ZM1.93115 6.69727L2.23117 6.29728C2.07966 6.18364 1.87695 6.16535 1.70756 6.25005C1.53816 6.33474 1.43115 6.50788 1.43115 6.69727H1.93115ZM1.93115 26.3018H1.43115C1.43115 26.5779 1.65501 26.8018 1.93115 26.8018V26.3018ZM30.0688 26.3018V26.8018C30.345 26.8018 30.5688 26.5779 30.5688 26.3018H30.0688ZM30.0688 6.69727H30.5688C30.5688 6.50788 30.4618 6.33474 30.2924 6.25005C30.123 6.16535 29.9203 6.18364 29.7688 6.29728L30.0688 6.69727ZM15.9995 14.75L15.6995 15.15C15.8773 15.2833 16.1217 15.2833 16.2995 15.15L15.9995 14.75ZM28.0688 5.69824L28.3688 6.09825C28.541 5.96912 28.6112 5.7443 28.5432 5.54013C28.4751 5.33596 28.2841 5.19824 28.0688 5.19824V5.69824ZM3.93018 5.69824V5.19824C3.71496 5.19824 3.52389 5.33596 3.45583 5.54013C3.38778 5.7443 3.45801 5.96912 3.63018 6.09825L3.93018 5.69824ZM31.0894 3.69922L31.0787 4.1991C31.0726 4.19897 31.0694 4.19865 31.074 4.19899C31.0767 4.1992 31.0782 4.19933 31.0836 4.19976C31.0879 4.2001 31.0942 4.20059 31.1012 4.20105L31.1343 3.70215L31.1673 3.20324C31.1624 3.20291 31.1653 3.20306 31.1497 3.20187C31.1393 3.20108 31.1212 3.19978 31.1 3.19933L31.0894 3.69922ZM31.1343 3.70215L31.102 4.2011C31.1175 4.20211 31.1272 4.20305 31.1338 4.2039L31.1978 3.70801L31.2617 3.21211C31.2263 3.20755 31.1938 3.20495 31.1666 3.20319L31.1343 3.70215ZM31.1978 3.70801L31.1331 4.20382C31.1313 4.20357 31.1309 4.20349 31.1338 4.20395C31.1352 4.20418 31.1369 4.20445 31.1395 4.20489C31.1418 4.20527 31.1453 4.20585 31.1488 4.20642L31.229 3.71289L31.3092 3.21936C31.3076 3.2191 31.2832 3.21491 31.2624 3.2122L31.1978 3.70801ZM31.229 3.71289L31.1494 4.20651C31.155 4.20742 31.1601 4.2082 31.1637 4.20873C31.168 4.20938 31.1692 4.20956 31.1714 4.2099C31.1751 4.21045 31.1724 4.2101 31.1674 4.2091L31.2651 3.71875L31.3629 3.2284C31.3459 3.22501 31.3312 3.22271 31.3228 3.22142C31.3102 3.21949 31.3126 3.21991 31.3086 3.21927L31.229 3.71289ZM31.2651 3.71875L31.1675 4.20913C31.1923 4.21407 31.2145 4.21655 31.2331 4.21777C31.2516 4.21898 31.2674 4.219 31.2793 4.21869C31.2912 4.21839 31.3007 4.21773 31.3064 4.21728C31.3093 4.21706 31.3117 4.21684 31.3131 4.21671C31.3139 4.21664 31.3145 4.21659 31.3149 4.21655C31.3151 4.21653 31.3152 4.21652 31.3153 4.21651C31.3154 4.2165 31.3155 4.21649 31.3155 4.21649C31.3164 4.21641 31.3122 4.21682 31.3072 4.2172C31.3018 4.21762 31.2926 4.21825 31.281 4.21851C31.2693 4.21878 31.2537 4.21872 31.2355 4.21744C31.2171 4.21616 31.1951 4.21359 31.1706 4.20856L31.271 3.71875L31.3714 3.22894C31.3464 3.22381 31.3239 3.22118 31.3051 3.21987C31.2863 3.21856 31.2703 3.21849 31.2581 3.21877C31.2461 3.21905 31.2363 3.2197 31.2304 3.22016C31.2274 3.22039 31.2249 3.22061 31.2233 3.22075C31.2219 3.22088 31.2206 3.221 31.2206 3.221C31.2195 3.22111 31.2236 3.22071 31.2283 3.22034C31.2334 3.21994 31.2425 3.21931 31.2538 3.21902C31.2653 3.21872 31.2806 3.21873 31.2986 3.21991C31.3167 3.2211 31.3384 3.22353 31.3627 3.22837L31.2651 3.71875ZM31.271 3.71875L31.1704 4.20853C31.1548 4.20533 31.1427 4.20196 31.1357 4.19991C31.1322 4.19886 31.1294 4.198 31.128 4.19752C31.1266 4.19708 31.1257 4.19679 31.1263 4.197C31.1265 4.19705 31.1266 4.1971 31.1269 4.19719C31.1271 4.19726 31.1275 4.19737 31.1278 4.19749C31.1285 4.19773 31.1296 4.19808 31.1308 4.19848C31.1332 4.19927 31.137 4.20048 31.1415 4.20186C31.1503 4.20456 31.1644 4.20872 31.1819 4.21275L31.2944 3.72559L31.407 3.23842C31.4205 3.24154 31.4307 3.24459 31.4356 3.2461C31.4396 3.24731 31.4434 3.24859 31.4391 3.24719C31.4371 3.2465 31.4284 3.24364 31.4181 3.24059C31.4072 3.23739 31.3911 3.23299 31.3716 3.22897L31.271 3.71875ZM31.2944 3.72559L31.1817 4.21272C31.1787 4.21203 31.177 4.21156 31.1786 4.21199C31.179 4.21208 31.1794 4.21218 31.1801 4.21235C31.1806 4.2125 31.1815 4.21272 31.1824 4.21294C31.1841 4.21338 31.1867 4.21403 31.1896 4.21476L31.3101 3.72949L31.4306 3.24423C31.4309 3.2443 31.4308 3.24429 31.4299 3.24407C31.4295 3.24396 31.4291 3.24385 31.4283 3.24366C31.4277 3.24349 31.4268 3.24327 31.4259 3.24303C31.4223 3.24213 31.4154 3.24036 31.4071 3.23845L31.2944 3.72559ZM31.3101 3.72949L31.1896 4.21476C31.2175 4.22169 31.2273 4.22462 31.2323 4.22635L31.396 3.75391L31.5597 3.28146C31.5086 3.26376 31.4609 3.25175 31.4305 3.24422L31.3101 3.72949ZM31.396 3.75391L31.2328 4.22653C31.2362 4.22771 31.2391 4.22866 31.2409 4.22925C31.2418 4.22956 31.2426 4.22981 31.2431 4.22998C31.2434 4.23006 31.2436 4.23014 31.2437 4.23019C31.244 4.23026 31.244 4.23026 31.2441 4.2303C31.2453 4.23069 31.2411 4.22934 31.2358 4.22747L31.4019 3.75586L31.5679 3.28425C31.5607 3.2817 31.5545 3.2797 31.5538 3.27946C31.5527 3.27912 31.5534 3.27934 31.554 3.27954C31.5549 3.27982 31.5567 3.28044 31.5592 3.28128L31.396 3.75391ZM31.4019 3.75586L31.2352 4.22728C31.2451 4.23076 31.2576 4.23579 31.2744 4.24343L31.481 3.78809L31.6875 3.33274C31.6526 3.31691 31.6126 3.30004 31.5685 3.28444L31.4019 3.75586ZM31.481 3.78809L31.2752 4.2438C31.2813 4.24655 31.2866 4.24882 31.2901 4.25032C31.2918 4.25108 31.2935 4.25177 31.2946 4.25224C31.2959 4.2528 31.2964 4.25303 31.2971 4.25331C31.2983 4.25382 31.2976 4.25354 31.2962 4.25291C31.2947 4.25223 31.2916 4.25085 31.2875 4.24888L31.5054 3.79883L31.7232 3.34878C31.7078 3.34132 31.6945 3.33565 31.6893 3.33344C31.6879 3.33285 31.6864 3.33221 31.6857 3.3319C31.6848 3.3315 31.6843 3.33132 31.684 3.3312C31.6835 3.33095 31.6847 3.33145 31.6867 3.33237L31.481 3.78809ZM31.5054 3.79883L31.2868 4.24855C31.2952 4.25261 31.3026 4.25601 31.3076 4.2583C31.3101 4.25944 31.3124 4.26052 31.3141 4.26126C31.3159 4.2621 31.317 4.26259 31.318 4.26304C31.3199 4.26393 31.3195 4.26373 31.3179 4.26299C31.3163 4.26219 31.3126 4.26037 31.3076 4.25766L31.5464 3.81836L31.7852 3.37906C31.7628 3.36692 31.7432 3.35788 31.734 3.3537C31.7316 3.35257 31.7292 3.3515 31.7276 3.35077C31.7258 3.34994 31.7247 3.34946 31.7238 3.34902C31.7219 3.34815 31.7223 3.34836 31.7239 3.34911L31.5054 3.79883ZM31.5464 3.81836L31.3074 4.25757C31.2896 4.24785 31.2761 4.23894 31.2684 4.23366C31.2645 4.23096 31.2615 4.22879 31.2598 4.22758C31.2583 4.22646 31.2573 4.2257 31.2579 4.22617C31.2581 4.22628 31.2582 4.22637 31.2585 4.22657C31.2587 4.22674 31.259 4.227 31.2594 4.22727C31.2601 4.22781 31.2612 4.22863 31.2625 4.22957C31.265 4.23142 31.2689 4.23429 31.2737 4.23766C31.283 4.24423 31.2982 4.25464 31.3176 4.26587L31.5679 3.83301L31.8181 3.40014C31.8338 3.40922 31.8454 3.41723 31.8512 3.4213C31.8542 3.42341 31.8563 3.425 31.8571 3.42556C31.8575 3.42586 31.8582 3.42636 31.8564 3.42505C31.8547 3.4238 31.846 3.41724 31.8354 3.40991C31.8241 3.40217 31.807 3.39094 31.7853 3.37915L31.5464 3.81836ZM31.5679 3.83301L31.3184 4.26632C31.3276 4.27164 31.3354 4.27577 31.3403 4.27834C31.3428 4.27964 31.345 4.28073 31.3463 4.28143C31.347 4.28179 31.3477 4.2821 31.3481 4.28232C31.3489 4.28272 31.3484 4.2825 31.349 4.28276C31.35 4.2833 31.3475 4.28202 31.344 4.28018C31.3403 4.2782 31.3338 4.27469 31.3258 4.26991L31.5825 3.84082L31.8392 3.41173C31.8288 3.40553 31.82 3.40068 31.8138 3.3974C31.8079 3.39426 31.8029 3.39172 31.8015 3.391C31.7988 3.38966 31.8008 3.39066 31.8027 3.39165C31.8052 3.39294 31.8105 3.39576 31.8173 3.39969L31.5679 3.83301ZM31.5825 3.84082L31.3251 4.26947C31.3288 4.27167 31.3355 4.27605 31.3557 4.29029L31.644 3.88184L31.9324 3.47338C31.9123 3.45919 31.8787 3.43543 31.8399 3.41218L31.5825 3.84082ZM31.644 3.88184L31.3561 4.29061C31.362 4.29478 31.3675 4.29878 31.3726 4.3027L31.6772 3.90625L31.9819 3.5098C31.9651 3.49691 31.9485 3.4847 31.932 3.47306L31.644 3.88184ZM31.6772 3.90625L31.3723 4.3025C31.3807 4.30897 31.3874 4.31441 31.3929 4.31912L31.7183 3.93945L32.0436 3.55978C32.0224 3.54158 32.0017 3.52503 31.9822 3.51L31.6772 3.90625ZM31.7183 3.93945L31.3929 4.31913C31.3963 4.32204 31.3997 4.3249 31.4019 4.3268C31.4045 4.32896 31.4061 4.33032 31.4074 4.3315C31.4102 4.33388 31.4098 4.33365 31.4081 4.33205L31.7485 3.96582L32.0889 3.59959C32.0693 3.58131 32.0455 3.56137 32.0436 3.55977L31.7183 3.93945ZM31.7485 3.96582L31.4083 4.33219C31.4159 4.33931 31.4226 4.3452 31.4271 4.34908C31.4293 4.35104 31.4314 4.35279 31.4328 4.354C31.4345 4.35551 31.435 4.35592 31.4359 4.35668C31.4373 4.35795 31.4363 4.35708 31.4344 4.35532C31.4323 4.35344 31.4282 4.34968 31.423 4.34447L31.7769 3.99121L32.1307 3.63796C32.1123 3.61954 32.0956 3.60517 32.0898 3.60009C32.0848 3.59579 32.0857 3.59659 32.0842 3.59525C32.0838 3.59496 32.0858 3.59665 32.0888 3.59945L31.7485 3.96582ZM31.7769 3.99121L31.4231 4.34461C31.4573 4.37881 31.4887 4.422 31.515 4.47422L31.9614 4.24902L32.4078 4.02383C32.3379 3.88512 32.246 3.75339 32.1306 3.63781L31.7769 3.99121ZM31.9614 4.24902L31.5151 4.47433C31.5199 4.4839 31.5221 4.48852 31.5234 4.49128L31.978 4.2832L32.4327 4.07512C32.4234 4.05489 32.4144 4.03685 32.4078 4.02372L31.9614 4.24902ZM31.978 4.2832L31.5233 4.49103C31.5286 4.5027 31.5334 4.51445 31.5378 4.52641L32.0073 4.35449L32.4768 4.18258C32.4635 4.14605 32.4488 4.11035 32.4328 4.07538L31.978 4.2832ZM32.0073 4.35449L31.5379 4.52664C31.5363 4.52219 31.5351 4.51871 31.5344 4.5168C31.5338 4.51503 31.5335 4.51388 31.5337 4.5147C31.5338 4.51488 31.5339 4.51506 31.534 4.5154C31.5341 4.5157 31.5342 4.51613 31.5344 4.51659C31.5346 4.51751 31.5351 4.51887 31.5356 4.52044C31.5366 4.52352 31.5382 4.52829 31.5401 4.53395L32.0122 4.36914L32.4843 4.20433C32.4854 4.20756 32.4862 4.20989 32.4864 4.21053C32.4864 4.21068 32.4866 4.21138 32.4858 4.20892C32.4853 4.20729 32.4842 4.2037 32.4828 4.19947C32.4813 4.19513 32.4793 4.18922 32.4768 4.18235L32.0073 4.35449ZM32.0122 4.36914L31.5401 4.53372C31.5438 4.54428 31.5471 4.55309 31.5494 4.5588C31.5505 4.5617 31.5515 4.56424 31.5522 4.56597C31.5525 4.56682 31.5529 4.56767 31.5531 4.56824C31.5533 4.56888 31.5535 4.56928 31.5536 4.56963C31.5543 4.57128 31.5536 4.56949 31.5525 4.56646C31.5512 4.56321 31.549 4.55709 31.5465 4.549L32.0239 4.40039L32.5013 4.25178C32.4935 4.22648 32.4851 4.20575 32.4827 4.19978C32.4824 4.19884 32.482 4.19795 32.4818 4.1973C32.4815 4.19657 32.4813 4.19613 32.4811 4.19569C32.4808 4.19483 32.4808 4.19479 32.4809 4.1951C32.4811 4.19563 32.4825 4.19925 32.4843 4.20456L32.0122 4.36914ZM32.0239 4.40039L31.5466 4.54912C31.544 4.54087 31.5423 4.53452 31.5415 4.53125C31.5408 4.52819 31.5404 4.52652 31.5409 4.52859C31.5412 4.52995 31.5413 4.53039 31.5418 4.53303C31.5423 4.53506 31.5429 4.53801 31.5437 4.54131C31.5452 4.54783 31.5475 4.55769 31.5506 4.5692L32.0337 4.44043L32.5168 4.31166C32.5175 4.31419 32.518 4.31619 32.5183 4.31747C32.5185 4.31811 32.5186 4.31862 32.5187 4.31895C32.5187 4.31928 32.5188 4.31947 32.5188 4.31949C32.5188 4.3195 32.5188 4.31938 32.5187 4.31907C32.5186 4.31875 32.5185 4.31833 32.5184 4.31769C32.5182 4.31697 32.5176 4.31406 32.5171 4.31206C32.5154 4.30397 32.51 4.27971 32.5013 4.25166L32.0239 4.40039ZM32.0337 4.44043L31.5506 4.56932C31.5524 4.57622 31.5541 4.58207 31.5552 4.58593C31.5558 4.58788 31.5563 4.58962 31.5567 4.59082C31.5571 4.59234 31.5572 4.59269 31.5574 4.59346C31.5578 4.5947 31.5575 4.59375 31.557 4.59196C31.5565 4.59005 31.5555 4.58632 31.5543 4.58135L32.0405 4.46484L32.5268 4.34834C32.5226 4.3311 32.5184 4.31676 32.5169 4.31178C32.5157 4.30757 32.5159 4.30836 32.5156 4.30716C32.5155 4.30695 32.516 4.30873 32.5168 4.31154L32.0337 4.44043ZM32.0405 4.46484L31.5543 4.58121C31.5567 4.59155 31.5591 4.60362 31.5615 4.61808L32.0552 4.53906L32.5489 4.46004C32.5432 4.42432 32.536 4.387 32.5268 4.34847L32.0405 4.46484ZM32.0552 4.53906L31.5615 4.61825C31.5619 4.62063 31.5623 4.62345 31.5626 4.62502C31.5629 4.62694 31.5631 4.62827 31.5633 4.62938C31.5636 4.63165 31.5636 4.63181 31.5635 4.63089L32.0591 4.56445L32.5546 4.49802C32.5524 4.48126 32.5495 4.46376 32.5489 4.45987L32.0552 4.53906ZM32.0591 4.56445L31.5635 4.63072C31.5644 4.63781 31.5654 4.64702 31.5664 4.65959L32.0649 4.62207L32.5635 4.58455C32.5616 4.55835 32.5588 4.52922 32.5547 4.49818L32.0591 4.56445ZM32.0649 4.62207L31.5664 4.65964C31.5675 4.67489 31.5679 4.68267 31.568 4.68748L32.0679 4.67773L32.5678 4.66799C32.5671 4.63563 32.5652 4.60639 32.5635 4.5845L32.0649 4.62207ZM32.0679 4.67773L31.568 4.6877C31.5682 4.69779 31.5686 4.70617 31.5689 4.71142C31.5691 4.71411 31.5692 4.71641 31.5693 4.71794C31.5693 4.71871 31.5694 4.71941 31.5694 4.7199C31.5695 4.72049 31.5695 4.72069 31.5695 4.721C31.5696 4.72233 31.5694 4.72006 31.5693 4.71675C31.5691 4.71321 31.5688 4.70667 31.5688 4.69824H32.0688H32.5688C32.5688 4.68642 32.5685 4.67646 32.5682 4.6695C32.5678 4.66276 32.5675 4.65706 32.5673 4.65496C32.5671 4.65151 32.5672 4.65307 32.5673 4.65425C32.5674 4.65608 32.5676 4.66106 32.5678 4.66777L32.0679 4.67773ZM32.0688 4.69824H31.5688V27.3018H32.0688H32.5688V4.69824H32.0688ZM32.0688 27.3018L31.5688 27.3015C31.5687 27.5777 31.3445 27.8017 31.0687 27.8018L31.0688 28.3018L31.0689 28.8018C31.8972 28.8016 32.5683 28.1297 32.5688 27.3021L32.0688 27.3018ZM31.0688 28.3018V27.8018H0.931152V28.3018V28.8018H31.0688V28.3018ZM0.931152 28.3018L0.931389 27.8018C0.655558 27.8016 0.43132 27.5775 0.431152 27.3015L-0.0688477 27.3018L-0.568848 27.3021C-0.568344 28.1297 0.103035 28.8014 0.930916 28.8018L0.931152 28.3018ZM-0.0688477 27.3018H0.431152V4.69824H-0.0688477H-0.568848V27.3018H-0.0688477ZM-0.0688477 4.69824H0.431152C0.431152 4.70675 0.430862 4.71322 0.430682 4.71655C0.430514 4.71967 0.430358 4.72149 0.430503 4.71962C0.430534 4.71922 0.43057 4.71876 0.430625 4.71805C0.430674 4.71742 0.430748 4.71649 0.43082 4.71556C0.430967 4.71367 0.431179 4.7109 0.431401 4.70777C0.431835 4.70161 0.432449 4.69207 0.432827 4.68075L-0.0668945 4.66406L-0.566616 4.64737C-0.566426 4.6417 -0.566151 4.63783 -0.566118 4.63736C-0.566097 4.63707 -0.566102 4.63715 -0.566177 4.63812C-0.566215 4.63861 -0.566253 4.6391 -0.566316 4.6399C-0.566373 4.64062 -0.566449 4.64159 -0.566528 4.64262C-0.566824 4.64646 -0.567398 4.65399 -0.567873 4.66283C-0.56836 4.67187 -0.568848 4.68405 -0.568848 4.69824H-0.0688477ZM-0.0668945 4.66406L0.432831 4.68063C0.432643 4.6863 0.432366 4.6906 0.432208 4.69283C0.43206 4.69491 0.431952 4.69605 0.432071 4.69469C0.432154 4.69375 0.432173 4.69355 0.432332 4.69175C0.432452 4.6904 0.432625 4.68844 0.432811 4.68623C0.433177 4.68188 0.433707 4.67526 0.434172 4.66746L-0.0649414 4.6377L-0.564055 4.60793C-0.563949 4.60616 -0.563851 4.60476 -0.563783 4.60385C-0.563715 4.60295 -0.563668 4.60239 -0.563665 4.60235C-0.563664 4.60234 -0.563684 4.60257 -0.563759 4.60342C-0.563794 4.60382 -0.563972 4.60581 -0.564082 4.60707C-0.564546 4.61234 -0.565987 4.62841 -0.56662 4.64749L-0.0668945 4.66406ZM-0.0649414 4.6377L0.434173 4.66744C0.434906 4.65515 0.436193 4.64222 0.438127 4.62828L-0.0571289 4.55957L-0.552385 4.49086C-0.557606 4.52849 -0.561644 4.56749 -0.564056 4.60795L-0.0649414 4.6377ZM-0.0571289 4.55957L0.438098 4.62849C0.438436 4.62606 0.438755 4.62373 0.438971 4.62215C0.439216 4.62035 0.439362 4.61929 0.439495 4.61834C0.439759 4.61644 0.439717 4.61684 0.439487 4.61827L-0.0541992 4.53906L-0.547885 4.45985C-0.55008 4.47353 -0.552321 4.4904 -0.552356 4.49065L-0.0571289 4.55957ZM-0.0541992 4.53906L0.439522 4.61805C0.441846 4.60353 0.44443 4.59073 0.44723 4.57924L-0.0385742 4.46094L-0.524378 4.34264C-0.534095 4.38254 -0.541786 4.42173 -0.547921 4.46007L-0.0541992 4.53906ZM-0.0385742 4.46094L0.447178 4.57945C0.446047 4.58409 0.445081 4.5877 0.444525 4.58974C0.444008 4.59163 0.44363 4.59295 0.443824 4.59227C0.44387 4.59211 0.443896 4.59202 0.443987 4.5917C0.444061 4.59144 0.444168 4.59106 0.444287 4.59064C0.444522 4.58981 0.444877 4.58856 0.445288 4.58708C0.446095 4.58418 0.447342 4.57964 0.448747 4.57415L-0.0356445 4.4502L-0.520036 4.32624C-0.519092 4.32255 -0.518331 4.3198 -0.518022 4.31869C-0.517817 4.31795 -0.517552 4.31702 -0.518074 4.31886C-0.518387 4.31996 -0.51927 4.32306 -0.520274 4.32675C-0.521318 4.33058 -0.522755 4.33599 -0.524326 4.34243L-0.0385742 4.46094ZM-0.0356445 4.4502L0.4488 4.57394C0.452358 4.56001 0.456372 4.54672 0.460879 4.5338L-0.0112305 4.36914L-0.48334 4.20448C-0.497367 4.2447 -0.509579 4.2853 -0.520089 4.32645L-0.0356445 4.4502ZM-0.0112305 4.36914L0.460812 4.53399C0.462794 4.52832 0.464375 4.52353 0.465384 4.52043C0.465897 4.51886 0.466337 4.51749 0.466632 4.51657C0.46678 4.51611 0.466919 4.51568 0.467014 4.51538C0.467122 4.51504 0.467182 4.51486 0.467238 4.51468C0.467503 4.51386 0.467137 4.51501 0.466538 4.5168C0.465896 4.51872 0.464708 4.52221 0.463069 4.52668L-0.00634766 4.35449L-0.475764 4.18231C-0.478291 4.18919 -0.480321 4.19512 -0.48178 4.19948C-0.483196 4.20371 -0.484354 4.20731 -0.484875 4.20894C-0.485668 4.21141 -0.485438 4.21069 -0.485387 4.21054C-0.485175 4.20988 -0.484407 4.20754 -0.483273 4.20429L-0.0112305 4.36914ZM-0.00634766 4.35449L0.463139 4.52649C0.470995 4.50504 0.474129 4.49738 0.475916 4.49341L0.0200195 4.28809L-0.435877 4.08276C-0.453614 4.12214 -0.467231 4.15901 -0.475834 4.1825L-0.00634766 4.35449ZM0.0200195 4.28809L0.475821 4.49362C0.479605 4.48523 0.482577 4.479 0.485009 4.47418L0.0385742 4.24902L-0.407861 4.02387C-0.418459 4.04488 -0.427749 4.06474 -0.435782 4.08255L0.0200195 4.28809ZM0.0385742 4.24902L0.485116 4.47397C0.48768 4.46888 0.489883 4.46438 0.491378 4.46132C0.492118 4.4598 0.492853 4.45829 0.493341 4.45728C0.493895 4.45614 0.494247 4.45542 0.494552 4.45479C0.495994 4.45184 0.494493 4.45503 0.49168 4.46021L0.0522461 4.22168L-0.387188 3.98315C-0.394859 3.99728 -0.4009 4.00958 -0.403933 4.01579C-0.404746 4.01745 -0.405508 4.01902 -0.406068 4.02017C-0.406694 4.02146 -0.407074 4.02224 -0.407451 4.02302C-0.40819 4.02453 -0.408236 4.02461 -0.407968 4.02408L0.0385742 4.24902ZM0.0522461 4.22168L0.49168 4.46021C0.502136 4.44095 0.510085 4.42787 0.516365 4.41857L0.102051 4.13867L-0.312263 3.85877C-0.34204 3.90285 -0.366774 3.94554 -0.387188 3.98315L0.0522461 4.22168ZM0.102051 4.13867L0.516365 4.41857C0.520023 4.41316 0.523945 4.4076 0.528125 4.40192L0.125488 4.10547L-0.277149 3.80902C-0.289017 3.82514 -0.300749 3.84173 -0.312263 3.85877L0.102051 4.13867ZM0.125488 4.10547L0.528302 4.40168C0.518313 4.41526 0.509598 4.4256 0.504375 4.43161C0.501699 4.43469 0.49953 4.4371 0.498264 4.4385C0.497097 4.43979 0.496179 4.44079 0.496473 4.44047C0.496474 4.44047 0.496619 4.44031 0.496712 4.44021C0.496833 4.44008 0.497014 4.43988 0.497226 4.43965C0.497643 4.43919 0.498295 4.43848 0.499075 4.43762C0.500604 4.43594 0.503055 4.43323 0.505992 4.42988C0.511738 4.42332 0.521011 4.41243 0.531542 4.39837L0.131348 4.09863L-0.268847 3.79889C-0.259213 3.78603 -0.2509 3.7763 -0.246145 3.77087C-0.243702 3.76808 -0.241755 3.76593 -0.240732 3.7648C-0.239862 3.76385 -0.239061 3.76298 -0.239655 3.76363C-0.239871 3.76386 -0.241298 3.76541 -0.242971 3.76726C-0.244741 3.76921 -0.247411 3.77219 -0.250578 3.77583C-0.256785 3.78298 -0.266451 3.79447 -0.277326 3.80926L0.125488 4.10547ZM0.131348 4.09863L0.531348 4.39863C0.535624 4.39293 0.538994 4.3882 0.540864 4.38556C0.54186 4.38415 0.54269 4.38296 0.543221 4.3822C0.543687 4.38153 0.544203 4.38079 0.544235 4.38074C0.544688 4.38009 0.543662 4.38157 0.542281 4.38351C0.540853 4.38552 0.537882 4.38966 0.533891 4.39489L0.13623 4.0918L-0.26143 3.7887C-0.266221 3.79499 -0.270004 3.80024 -0.27225 3.80339C-0.274449 3.80648 -0.276297 3.80914 -0.276667 3.80967C-0.277536 3.81092 -0.276682 3.80969 -0.275754 3.80838C-0.274698 3.80688 -0.272135 3.80328 -0.268652 3.79863L0.131348 4.09863ZM0.13623 4.0918L0.533675 4.39517C0.536373 4.39164 0.538971 4.3882 0.540735 4.38587C0.54273 4.38324 0.543948 4.38163 0.54503 4.38021C0.54721 4.37736 0.546882 4.37786 0.545269 4.37982L0.159668 4.06152L-0.225933 3.74323C-0.242131 3.76285 -0.260587 3.7876 -0.261214 3.78842L0.13623 4.0918ZM0.159668 4.06152L0.545269 4.37982C0.552813 4.37068 0.563173 4.35928 0.57785 4.34459L0.224121 3.99121L-0.129608 3.63783C-0.159864 3.66812 -0.192971 3.7033 -0.225933 3.74323L0.159668 4.06152ZM0.224121 3.99121L0.57785 4.34459C0.573863 4.34858 0.571563 4.35059 0.574408 4.348C0.575021 4.34744 0.575752 4.34678 0.576805 4.34582C0.577685 4.34503 0.579204 4.34365 0.580522 4.34245C0.583308 4.33993 0.587355 4.33625 0.591847 4.33207L0.251465 3.96582L-0.0889171 3.59957C-0.0888979 3.59955 -0.0890587 3.5997 -0.0894768 3.60008C-0.0899052 3.60048 -0.090485 3.601 -0.091354 3.60179C-0.0923221 3.60267 -0.0963451 3.60631 -0.0990631 3.60878C-0.105413 3.61457 -0.11683 3.62504 -0.129608 3.63783L0.224121 3.99121ZM0.251465 3.96582L0.592187 4.33176C0.590175 4.33363 0.5896 4.33406 0.592407 4.33165C0.593808 4.33044 0.595398 4.32909 0.598048 4.32683C0.600385 4.32485 0.603847 4.3219 0.607416 4.31884L0.281738 3.93945L-0.0439396 3.56007C-0.0444936 3.56054 -0.069583 3.58157 -0.089257 3.59989L0.251465 3.96582ZM0.281738 3.93945L0.607222 4.31901C0.606836 4.31934 0.608099 4.31824 0.612482 4.31484C0.617494 4.31096 0.622475 4.30723 0.632447 4.29971L0.331543 3.90039L0.0306392 3.50107C0.0179345 3.51064 -0.0131484 3.53366 -0.0437454 3.5599L0.281738 3.93945ZM0.331543 3.90039L0.632358 4.29978C0.639737 4.29422 0.645917 4.28934 0.649992 4.28609C0.652053 4.28444 0.653895 4.28296 0.655163 4.28194C0.656749 4.28066 0.657166 4.28032 0.657966 4.27968C0.659283 4.27862 0.658326 4.2794 0.656452 4.28085C0.654446 4.28239 0.650488 4.2854 0.645103 4.28918L0.35791 3.87988L0.0707175 3.47059C0.0518454 3.48383 0.0366817 3.49606 0.0313481 3.50035C0.0268215 3.50399 0.0276859 3.50331 0.0262978 3.50442C0.026015 3.50464 0.0278076 3.5032 0.0307275 3.501L0.331543 3.90039ZM0.35791 3.87988L0.645343 4.28901C0.648641 4.28669 0.655139 4.28247 0.676309 4.26979L0.419434 3.84082L0.162558 3.41185C0.141922 3.42421 0.106932 3.44515 0.0704777 3.47076L0.35791 3.87988ZM0.419434 3.84082L0.675795 4.2701C0.688204 4.26269 0.698064 4.25612 0.704134 4.25198C0.70723 4.24987 0.709781 4.24808 0.711399 4.24695C0.712223 4.24637 0.712923 4.24587 0.713385 4.24555C0.713619 4.24538 0.713828 4.24523 0.713972 4.24513C0.714158 4.245 0.714193 4.24497 0.714288 4.24491C0.715398 4.24412 0.711763 4.24672 0.707008 4.24991C0.701851 4.25338 0.692956 4.2592 0.681407 4.26587L0.431152 3.83301L0.180897 3.40014C0.167319 3.40799 0.156449 3.41507 0.149343 3.41985C0.142641 3.42435 0.137085 3.4283 0.136276 3.42888C0.13529 3.42958 0.13583 3.42919 0.136286 3.42887C0.136942 3.42841 0.138529 3.4273 0.140654 3.42585C0.144783 3.42303 0.152678 3.41775 0.163072 3.41154L0.419434 3.84082ZM0.431152 3.83301L0.681958 4.26555C0.696733 4.25699 0.706483 4.2518 0.713514 4.24837L0.494629 3.79883L0.275744 3.34928C0.239426 3.36697 0.207098 3.38495 0.180346 3.40046L0.431152 3.83301ZM0.494629 3.79883L0.712878 4.24868C0.708612 4.25075 0.705373 4.25221 0.703753 4.25293C0.702238 4.2536 0.701493 4.25391 0.702707 4.2534C0.703387 4.25311 0.703896 4.25289 0.705262 4.25231C0.706399 4.25183 0.70805 4.25113 0.70987 4.25035C0.713471 4.24881 0.718893 4.24646 0.725179 4.24362L0.519043 3.78809L0.312907 3.33256C0.315146 3.33154 0.316493 3.33097 0.316009 3.33118C0.314308 3.33191 0.315342 3.33146 0.310899 3.33335C0.305748 3.33554 0.292129 3.34133 0.27638 3.34898L0.494629 3.79883ZM0.519043 3.78809L0.725797 4.24334C0.738612 4.23752 0.751799 4.2322 0.765526 4.22736L0.599121 3.75586L0.432717 3.28436C0.391875 3.29878 0.351753 3.31491 0.312289 3.33284L0.519043 3.78809ZM0.599121 3.75586L0.765155 4.22749C0.759899 4.22934 0.755727 4.23068 0.756918 4.23029C0.757041 4.23025 0.757029 4.23025 0.757253 4.23018C0.757409 4.23013 0.757637 4.23006 0.757894 4.22997C0.758401 4.22981 0.759175 4.22955 0.760087 4.22925C0.761879 4.22866 0.764704 4.22772 0.7681 4.22655L0.60498 3.75391L0.441861 3.28126C0.444283 3.28043 0.446132 3.27981 0.446947 3.27955C0.447546 3.27935 0.448206 3.27913 0.447181 3.27947C0.446415 3.27972 0.440286 3.2817 0.433088 3.28423L0.599121 3.75586ZM0.60498 3.75391L0.768444 4.22643C0.77561 4.22395 0.786734 4.22059 0.806244 4.21554L0.681152 3.73145L0.55606 3.24735C0.523971 3.25564 0.484247 3.2666 0.441517 3.28138L0.60498 3.75391ZM0.681152 3.73145L0.806326 4.21552C0.812878 4.21383 0.818522 4.21228 0.822315 4.21122C0.824222 4.21069 0.825996 4.2102 0.827219 4.20985C0.828623 4.20946 0.829355 4.20925 0.830076 4.20905C0.831479 4.20866 0.830975 4.20881 0.829639 4.20916C0.828208 4.20953 0.825143 4.21032 0.820946 4.21127L0.710449 3.72363L0.599952 3.236C0.582469 3.23996 0.567824 3.24403 0.561476 3.2458C0.559763 3.24628 0.558063 3.24676 0.557033 3.24705C0.555823 3.24738 0.555163 3.24757 0.554635 3.24772C0.553558 3.24802 0.554324 3.2478 0.555978 3.24737L0.681152 3.73145ZM0.710449 3.72363L0.820687 4.21133C0.825114 4.21033 0.832718 4.20884 0.848867 4.20616L0.76709 3.71289L0.685312 3.21962C0.663324 3.22327 0.633161 3.22849 0.600212 3.23594L0.710449 3.72363ZM0.76709 3.71289L0.849429 4.20606C0.847831 4.20633 0.847804 4.2063 0.851009 4.20587C0.852585 4.20566 0.854447 4.20542 0.857238 4.20506C0.859665 4.20475 0.86347 4.20426 0.86711 4.20378L0.802246 3.70801L0.737383 3.21223C0.733489 3.21274 0.707882 3.21585 0.684751 3.21972L0.76709 3.71289ZM0.802246 3.70801L0.866417 4.20387C0.874693 4.2028 0.884575 4.20182 0.896771 4.20099L0.862793 3.70215L0.828815 3.2033C0.800236 3.20525 0.769867 3.20803 0.738075 3.21214L0.802246 3.70801ZM0.862793 3.70215L0.897509 4.20094C0.903139 4.20055 0.908558 4.20014 0.912242 4.19986C0.916413 4.19955 0.918915 4.19936 0.921142 4.19921C0.925601 4.1989 0.924765 4.19903 0.921494 4.1991L0.910645 3.69922L0.899795 3.19934C0.86787 3.20003 0.828861 3.2033 0.828077 3.20336L0.862793 3.70215ZM0.910645 3.69922L0.920948 4.19911C0.930876 4.19891 0.939133 4.19849 0.944396 4.19819C0.947075 4.19803 0.949367 4.19789 0.950888 4.19779C0.951657 4.19774 0.952352 4.19769 0.952833 4.19766C0.953414 4.19762 0.953619 4.19761 0.953912 4.19759C0.955196 4.1975 0.952909 4.19766 0.949577 4.19782C0.94599 4.19799 0.939587 4.19824 0.931389 4.19824L0.931152 3.69824L0.930916 3.19824C0.919289 3.19825 0.90946 3.1986 0.902452 3.19893C0.895698 3.19925 0.889992 3.19963 0.88786 3.19977C0.884392 3.2 0.885974 3.19989 0.887132 3.19983C0.888982 3.19972 0.893826 3.19946 0.900341 3.19932L0.910645 3.69922ZM0.931152 3.69824V4.19824H31.0688V3.69824V3.19824H0.931152V3.69824ZM31.0688 3.69824L31.0687 4.19824C31.0602 4.19824 31.0537 4.19798 31.0503 4.19782C31.0471 4.19767 31.0449 4.19751 31.0463 4.1976C31.0466 4.19762 31.0468 4.19764 31.0474 4.19768C31.0479 4.19771 31.0486 4.19775 31.0494 4.1978C31.0509 4.1979 31.0531 4.19805 31.0558 4.1982C31.0609 4.19849 31.0693 4.19892 31.0794 4.19912L31.0894 3.69922L31.0993 3.19932C31.1061 3.19945 31.111 3.19972 31.1128 3.19982C31.1139 3.19989 31.1154 3.19998 31.1119 3.19976C31.1099 3.19962 31.1042 3.19925 31.0976 3.19894C31.0908 3.19861 31.0808 3.19824 31.0689 3.19824L31.0688 3.69824ZM16.6001 16.7998L16.3003 16.3996C16.1223 16.533 15.8774 16.5329 15.6999 16.3998L15.3999 16.7998L15.0999 17.1998C15.6333 17.5998 16.3669 17.5993 16.8999 17.2L16.6001 16.7998ZM15.3999 16.7998L15.6999 16.3998L2.23117 6.29728L1.93115 6.69727L1.63113 7.09725L15.0999 17.1998L15.3999 16.7998ZM1.93115 6.69727H1.43115V26.3018H1.93115H2.43115V6.69727H1.93115ZM1.93115 26.3018V26.8018H30.0688V26.3018V25.8018H1.93115V26.3018ZM30.0688 26.3018H30.5688V6.69727H30.0688H29.5688V26.3018H30.0688ZM30.0688 6.69727L29.7688 6.29728L16.3001 16.3998L16.6001 16.7998L16.9001 17.1998L30.3689 7.09725L30.0688 6.69727ZM15.9995 14.75L16.2995 15.15L28.3688 6.09825L28.0688 5.69824L27.7689 5.29824L15.6995 14.35L15.9995 14.75ZM28.0688 5.69824V5.19824H3.93018V5.69824V6.19824H28.0688V5.69824ZM3.93018 5.69824L3.63018 6.09825L15.6995 15.15L15.9995 14.75L16.2995 14.35L4.23017 5.29824L3.93018 5.69824Z" fill="#262626"/>
</g>
</g>
</svg>
