<svg width="32" height="32" viewBox="0 0 32 32" fill="none" xmlns="http://www.w3.org/2000/svg">
<g id="Frame 89309">
<path id="Vector" d="M31 20.6796H32.25V20.5522L32.2243 20.4273L31 20.6796ZM31 27.3822L32.25 27.3822V27.3822H31ZM29.3333 29V30.25H29.3334L29.3333 29ZM2.66667 29L2.66653 30.25H2.66667V29ZM1 27.3822H-0.25V27.3822L1 27.3822ZM1 20.6796L-0.224283 20.4273L-0.25 20.5522V20.6796H1ZM3.14274 10.2801L4.36702 10.5323L4.39274 10.4075V10.2801H3.14274ZM3.14274 4.61779L1.89274 4.61777V4.61779H3.14274ZM4.80941 3V1.75H4.80934L4.80941 3ZM28.8564 4.61779L27.6064 4.61782V4.61797L28.8564 4.61779ZM28.8573 10.2801L27.6073 10.2802L27.6073 10.4076L27.633 10.5323L28.8573 10.2801ZM16.5833 14.8233C17.2736 14.8233 17.8333 14.2637 17.8333 13.5733C17.8333 12.883 17.2736 12.3233 16.5833 12.3233V13.5733V14.8233ZM15.5833 12.3233C14.8929 12.3233 14.3333 12.883 14.3333 13.5733C14.3333 14.2637 14.8929 14.8233 15.5833 14.8233V13.5733V12.3233ZM23.4166 14.8233C24.1069 14.8233 24.6666 14.2637 24.6666 13.5733C24.6666 12.883 24.1069 12.3233 23.4166 12.3233V13.5733V14.8233ZM22.4166 12.3233C21.7262 12.3233 21.1666 12.883 21.1666 13.5733C21.1666 14.2637 21.7262 14.8233 22.4166 14.8233V13.5733V12.3233ZM9.75 14.8233C10.4404 14.8233 11 14.2637 11 13.5733C11 12.883 10.4404 12.3233 9.75 12.3233V13.5733V14.8233ZM8.75 12.3233C8.05964 12.3233 7.5 12.883 7.5 13.5733C7.5 14.2637 8.05964 14.8233 8.75 14.8233V13.5733V12.3233ZM16.5833 18.8678C17.2736 18.8678 17.8333 18.3081 17.8333 17.6178C17.8333 16.9274 17.2736 16.3678 16.5833 16.3678V17.6178V18.8678ZM15.5833 16.3678C14.8929 16.3678 14.3333 16.9274 14.3333 17.6178C14.3333 18.3081 14.8929 18.8678 15.5833 18.8678V17.6178V16.3678ZM23.4166 18.8678C24.1069 18.8678 24.6666 18.3081 24.6666 17.6178C24.6666 16.9274 24.1069 16.3678 23.4166 16.3678V17.6178V18.8678ZM22.4166 16.3678C21.7262 16.3678 21.1666 16.9274 21.1666 17.6178C21.1666 18.3081 21.7262 18.8678 22.4166 18.8678V17.6178V16.3678ZM9.75 18.8678C10.4404 18.8678 11 18.3081 11 17.6178C11 16.9274 10.4404 16.3678 9.75 16.3678V17.6178V18.8678ZM8.75 16.3678C8.05964 16.3678 7.5 16.9274 7.5 17.6178C7.5 18.3081 8.05964 18.8678 8.75 18.8678V17.6178V16.3678ZM16.8333 25.7434C17.5237 25.7434 18.0833 25.1838 18.0833 24.4934C18.0833 23.8031 17.5237 23.2434 16.8333 23.2434V24.4934V25.7434ZM15.1667 23.2434C14.4763 23.2434 13.9167 23.8031 13.9167 24.4934C13.9167 25.1838 14.4763 25.7434 15.1667 25.7434V24.4934V23.2434ZM31 20.6796H29.75V27.3822H31H32.25V20.6796H31ZM31 27.3822L29.75 27.3822C29.75 27.5504 29.5987 27.75 29.3332 27.75L29.3333 29L29.3334 30.25C30.9087 30.2499 32.25 29.0009 32.25 27.3822L31 27.3822ZM29.3333 29V27.75H2.66667V29V30.25H29.3333V29ZM2.66667 29L2.6668 27.75C2.40124 27.75 2.25 27.5503 2.25 27.3822L1 27.3822L-0.25 27.3822C-0.249959 29.0009 1.09134 30.2498 2.66653 30.25L2.66667 29ZM1 27.3822H2.25V20.6796H1H-0.25V27.3822H1ZM1 20.6796L2.22428 20.9318L4.36702 10.5323L3.14274 10.2801L1.91846 10.0278L-0.224283 20.4273L1 20.6796ZM3.14274 10.2801H4.39274V4.61779H3.14274H1.89274V10.2801H3.14274ZM3.14274 4.61779L4.39274 4.61782C4.39274 4.44956 4.54398 4.25001 4.80947 4.25L4.80941 3L4.80934 1.75C3.23399 1.75008 1.89277 2.99914 1.89274 4.61777L3.14274 4.61779ZM4.80941 3V4.25H27.1898V3V1.75H4.80941V3ZM27.1898 3V4.25C27.4552 4.25 27.6064 4.44947 27.6064 4.61782L28.8564 4.61779L30.1064 4.61777C30.1064 2.99918 28.7653 1.75 27.1898 1.75V3ZM28.8564 4.61779L27.6064 4.61797L27.6073 10.2802L28.8573 10.2801L30.1073 10.2799L30.1064 4.61761L28.8564 4.61779ZM28.8573 10.2801L27.633 10.5323L29.7757 20.9318L31 20.6796L32.2243 20.4273L30.0815 10.0278L28.8573 10.2801ZM4.33333 9.52883V10.7788H27.6667V9.52883V8.27883H4.33333V9.52883ZM1.83333 21.2578V22.5078H31V21.2578V20.0078H1.83333V21.2578ZM16.5833 13.5733V12.3233H15.5833V13.5733V14.8233H16.5833V13.5733ZM23.4166 13.5733V12.3233H22.4166V13.5733V14.8233H23.4166V13.5733ZM9.75 13.5733V12.3233H8.75V13.5733V14.8233H9.75V13.5733ZM16.5833 17.6178V16.3678H15.5833V17.6178V18.8678H16.5833V17.6178ZM23.4166 17.6178V16.3678H22.4166V17.6178V18.8678H23.4166V17.6178ZM9.75 17.6178V16.3678H8.75V17.6178V18.8678H9.75V17.6178ZM16 3.86656H14.75V8.71994H16H17.25V3.86656H16ZM16.8333 24.4934V23.2434H15.1667V24.4934V25.7434H16.8333V24.4934Z" fill="#262626"/>
</g>
</svg>
