<svg width="32" height="32" viewBox="0 0 32 32" fill="none" xmlns="http://www.w3.org/2000/svg">
<g id="Frame">
<path id="Vector" d="M16 12C18.7614 12 21 9.76142 21 7C21 4.23858 18.7614 2 16 2C13.2386 2 11 4.23858 11 7C11 9.76142 13.2386 12 16 12Z" stroke="#262626" stroke-width="3" stroke-linecap="round" stroke-linejoin="round"/>
<path id="Vector_2" d="M1.83325 27.8704C1.83325 21.7952 7.65357 16.8704 14.8333 16.8704" stroke="#262626" stroke-width="3" stroke-linecap="round" stroke-linejoin="round"/>
<path id="Vector_3" d="M18.8333 19.2704C18.8333 18.4703 23.8333 16.8704 23.8333 16.8704C23.8333 16.8704 28.8333 18.4703 28.8333 19.2704C28.8333 25.6703 23.8333 28.8704 23.8333 28.8704C23.8333 28.8704 18.8333 25.6703 18.8333 19.2704Z" stroke="#262626" stroke-width="3" stroke-linecap="round" stroke-linejoin="round"/>
</g>
</svg>
