<svg width="32" height="32" viewBox="0 0 32 32" fill="none" xmlns="http://www.w3.org/2000/svg">
<g id="Frame 89847">
<g id="Group 89846">
<path id="Vector" d="M23.415 23.0092C23.2018 23.0092 23.0066 22.8878 22.9054 22.6954C21.026 19.2138 18.3785 18.8851 15.1166 18.8496V22.0025C15.1166 22.2434 14.9811 22.4638 14.7733 22.5628C14.6974 22.6002 14.6161 22.617 14.5311 22.617C14.3866 22.617 14.2492 22.5628 14.1426 22.462L8.20073 16.9724C8.07604 16.8585 8.00375 16.6923 8.00014 16.5204C7.99652 16.3486 8.06519 16.1805 8.18627 16.061L14.1281 9.87733C14.2366 9.769 14.3793 9.70923 14.5293 9.70923C14.6106 9.70923 14.6902 9.72604 14.7643 9.76153C14.9793 9.86239 15.1166 10.0847 15.1166 10.3275V13.4966C16.6527 13.5918 18.0569 13.8663 19.2929 14.7068C20.4007 15.4595 21.3711 16.5036 22.1789 17.8111C23.4927 19.9348 23.9409 22.038 23.9879 22.2714V22.2733C24.0457 22.5666 23.8921 22.8617 23.6228 22.9719H23.621C23.5542 22.9962 23.4855 23.0092 23.415 23.0092ZM13.9456 20.639V18.2295C13.9456 17.8895 14.2095 17.6131 14.5311 17.6131C16.6545 17.6131 18.3767 17.7308 19.8785 18.3079C20.5218 18.5508 21.1218 18.887 21.6675 19.311C21.5139 19.0121 21.3513 18.7245 21.1832 18.4536C19.5514 15.8387 17.3141 14.7125 14.5311 14.7125C14.3721 14.8107 14.2239 14.6453 14.1137 14.5295C14.0034 14.4137 13.9438 14.2587 13.9456 14.0943V11.7526L9.4585 16.4924L13.9456 20.639Z" fill="#262626" stroke="#262626" stroke-width="0.7"/>
<g id="Group 89729">
<path id="Vector_2" d="M20.7045 2.40918L27.5 9.77092V28.2319C27.5 28.9825 26.8564 29.591 26.0625 29.591H5.9375C5.14359 29.591 4.5 28.9825 4.5 28.2319V3.76827C4.5 3.01766 5.14359 2.40918 5.9375 2.40918H20.7045ZM27.5 9.77092H20.7045V2.40918" stroke="#262626" stroke-width="2" stroke-linecap="round" stroke-linejoin="round"/>
</g>
</g>
</g>
</svg>
