<svg width="54" height="54" viewBox="0 0 54 54" fill="none" xmlns="http://www.w3.org/2000/svg">
<g id="Frame">
<path id="Vector" d="M11.25 21.375C11.25 21.375 5.46428 23.625 4.5 31.5" stroke="#262626" stroke-width="3.5" stroke-linecap="round"/>
<path id="Vector_2" d="M42.75 21.375C42.75 21.375 48.5358 23.625 49.5 31.5" stroke="#262626" stroke-width="3.5" stroke-linecap="round"/>
<path id="Vector_3" d="M20.25 21.375C20.25 21.375 25.65 22.6875 27 29.25" stroke="#262626" stroke-width="3.5" stroke-linecap="round"/>
<path id="Vector_4" d="M33.75 21.375C33.75 21.375 28.35 22.6875 27 29.25" stroke="#262626" stroke-width="3.5" stroke-linecap="round"/>
<path id="Vector_5" d="M22.5 38.25C22.5 38.25 17.775 39.0938 15.75 45" stroke="#262626" stroke-width="3.5" stroke-linecap="round"/>
<path id="Vector_6" d="M31.5 38.25C31.5 38.25 36.225 39.0938 38.25 45" stroke="#262626" stroke-width="3.5" stroke-linecap="round"/>
<path id="Vector_7" d="M27 40.5C30.1066 40.5 32.625 37.9816 32.625 34.875C32.625 31.7684 30.1066 29.25 27 29.25C23.8934 29.25 21.375 31.7684 21.375 34.875C21.375 37.9816 23.8934 40.5 27 40.5Z" stroke="#262626" stroke-width="3.5" stroke-linecap="round" stroke-linejoin="round"/>
<path id="Vector_8" d="M38.25 22.5C41.9779 22.5 45 19.4779 45 15.75C45 12.0221 41.9779 9 38.25 9C34.5221 9 31.5 12.0221 31.5 15.75C31.5 19.4779 34.5221 22.5 38.25 22.5Z" stroke="#262626" stroke-width="3.5" stroke-linecap="round" stroke-linejoin="round"/>
<path id="Vector_9" d="M15.75 22.5C19.4779 22.5 22.5 19.4779 22.5 15.75C22.5 12.0221 19.4779 9 15.75 9C12.0221 9 9 12.0221 9 15.75C9 19.4779 12.0221 22.5 15.75 22.5Z" stroke="#262626" stroke-width="3.5" stroke-linecap="round" stroke-linejoin="round"/>
</g>
</svg>
