<svg width="40" height="30" viewBox="0 0 40 30" fill="none" xmlns="http://www.w3.org/2000/svg">
<path d="M0 4C0 1.79086 1.79086 0 4 0H40V30H4C1.79086 30 0 28.2091 0 26V4Z" fill="#FFC107"/>
<path fill-rule="evenodd" clip-rule="evenodd" d="M19.2443 8.00042C20.2344 7.9956 21.1013 8.03148 21.636 8.15038C21.685 8.16133 21.7317 8.1753 21.7748 8.19128L21.8988 8.24581L22.1375 8.37689C22.7225 8.71207 23.4938 9.25293 24.2138 9.79887C24.9315 10.3431 25.6392 10.9279 26.1115 11.3687C27.4315 11.3704 29.3621 11.3882 31.2093 11.5417C32.194 11.6236 33.1706 11.7458 34.0258 11.9276C34.8663 12.1064 35.6541 12.3557 36.2178 12.7257C36.4709 12.8921 36.6101 13.1596 36.632 13.4293C36.6492 13.6414 36.6814 14.1431 36.611 14.5315C36.5771 14.7185 36.5126 14.9113 36.4428 15.0883C36.7959 15.1623 37.0501 15.4979 36.9916 15.8748C36.932 16.2558 36.8296 16.7814 36.6836 17.2737C36.6106 17.5197 36.5222 17.7704 36.4186 17.9952C36.319 18.2112 36.1844 18.4477 36.0013 18.6307C35.6699 18.9611 35.2288 19.1341 34.8763 19.2273C34.5139 19.3231 34.1609 19.3562 33.9302 19.3563H30.8182C30.5012 20.8656 29.1622 21.9998 27.5549 22L27.3836 21.9958C25.8531 21.9184 24.5962 20.8117 24.2906 19.3563H15.7465C15.4295 20.8656 14.0904 21.9998 12.4832 22L12.3118 21.9958C10.7814 21.9184 9.52449 20.8117 9.21886 19.3563H6.743C6.51792 19.3563 6.28292 19.33 6.04913 19.2651C5.62238 19.1464 5.00022 18.9449 4.45322 18.6558C4.17981 18.5113 3.90001 18.3316 3.66999 18.1116C3.44153 17.8929 3.22576 17.5984 3.15274 17.2244C2.89836 15.9173 3.00157 15.2636 3.17377 14.7496L3.22213 14.6049L3.67945 14.1487C3.67946 13.7745 3.67945 13.2437 3.67945 12.8945C3.67959 12.6669 3.76899 12.4516 3.92441 12.2926C4.26962 11.9393 4.92412 11.199 5.71271 10.5004C6.5052 9.7985 7.50775 9.06766 8.62907 8.71456L8.6932 8.69463L8.75943 8.68729C10.5411 8.50959 13.2649 8.27056 15.7728 8.12626C17.0258 8.05418 18.233 8.00539 19.2443 8.00042ZM12.4832 16.5229C11.2946 16.5231 10.3306 17.485 10.3301 18.6705C10.3302 19.8564 11.2944 20.8179 12.4832 20.8182C13.672 20.8179 14.6362 19.8564 14.6363 18.6705C14.6359 17.485 13.6718 16.5231 12.4832 16.5229ZM27.5549 16.5229C26.3663 16.5231 25.4023 17.485 25.4018 18.6705C25.402 19.8564 26.3661 20.8179 27.5549 20.8182C28.7438 20.8179 29.7079 19.8564 29.708 18.6705C29.7076 17.485 28.7436 16.5231 27.5549 16.5229ZM6.57058 11.4641C5.89885 12.0592 5.36677 12.6488 4.97047 13.0644C4.97047 13.4251 4.97048 13.8937 4.97047 14.2158H5.80838C6.1353 14.2159 6.40132 14.4801 6.40132 14.8062C6.40102 15.1321 6.13511 15.3965 5.80838 15.3966H4.33653C4.27818 15.6793 4.25547 16.1291 4.42063 16.978C4.42556 17.0027 4.45068 17.0734 4.56466 17.1825C4.67787 17.2906 4.84569 17.4043 5.05878 17.517C5.48577 17.7426 6.00484 17.9146 6.39606 18.0235C6.50063 18.0525 6.61693 18.0675 6.743 18.0675H9.20309C9.48797 16.5177 10.8471 15.3423 12.4832 15.3421C14.1194 15.3423 15.4805 16.5176 15.7654 18.0675H24.2748C24.5597 16.5177 25.9189 15.3423 27.5549 15.3421C29.1911 15.3423 30.5522 16.5176 30.8372 18.0675H33.9302C34.0585 18.0674 34.299 18.0465 34.5452 17.9815C34.8017 17.9137 34.989 17.8177 35.0877 17.7194C35.114 17.6928 35.1726 17.615 35.2454 17.4572C35.3146 17.3068 35.3817 17.1188 35.4441 16.9088C35.5011 16.7165 35.5495 16.5135 35.5923 16.3184L35.4178 16.3089C34.9692 16.283 34.6171 15.7789 34.8911 15.3201C34.9066 15.294 34.9453 15.225 34.9962 15.1313C34.1124 15.0217 33.4985 14.7277 33.1375 14.2483C32.8333 13.8438 32.7764 13.3972 32.8073 13.0203C32.2689 12.9403 31.6931 12.8755 31.1021 12.8263C29.2745 12.6745 27.3502 12.6586 26.0337 12.6575L25.1222 13.2091C24.8646 13.3645 24.5694 13.4498 24.2685 13.4566L6.92067 13.8352C6.46474 13.8448 6.06337 13.4316 6.17003 12.9333C6.29997 12.3274 6.62561 11.7236 6.98901 11.117C6.99081 11.1139 6.99241 11.1096 6.99427 11.1065C6.85037 11.2223 6.70807 11.3424 6.57058 11.4641ZM33.9838 13.2406C33.9906 13.3577 34.0239 13.4585 34.0847 13.5394C34.1925 13.6821 34.5034 13.9156 35.361 13.9809C35.3611 13.9624 35.3632 13.9435 35.3631 13.9243C35.3625 13.8502 35.356 13.7768 35.3526 13.7104C35.0286 13.5346 34.566 13.377 33.9838 13.2406ZM11.2668 9.75063C10.5189 9.81545 9.82214 9.87914 9.21571 9.93834C8.8043 10.6456 8.39935 11.275 8.09815 11.7777C7.92891 12.0602 7.7906 12.308 7.68288 12.5296L10.4542 12.4688C10.4311 12.3606 10.4336 12.2456 10.471 12.1332L11.2668 9.75063ZM15.8474 9.41296C14.7978 9.47336 13.7084 9.55166 12.6672 9.63423L11.7294 12.4404L17.4181 12.3167L16.575 9.37311C16.3355 9.38521 16.0927 9.39886 15.8474 9.41296ZM19.2506 9.28922C18.8347 9.29126 18.3818 9.30153 17.9038 9.31753L18.7543 12.2873L24.2401 12.1678C24.315 12.1659 24.3894 12.1446 24.4536 12.1059L24.7795 11.9088C24.3957 11.58 23.9236 11.1975 23.4317 10.8245C22.6273 10.2146 21.8252 9.66418 21.3269 9.40248C20.945 9.32328 20.2264 9.28447 19.2506 9.28922Z" fill="white"/>
</svg>
