<svg width="24" height="24" viewBox="0 0 24 24" fill="none" xmlns="http://www.w3.org/2000/svg">
<g id="Frame 90698">
<g id="Group 89291">
<g id="Union">
<mask id="path-1-inside-1_4433_41556" fill="white">
<path d="M24 20.7144C24 21.8189 23.1045 22.7144 22 22.7144H2C0.895454 22.7144 3.78553e-05 21.8189 0 20.7144V15.8569L1.71387 7.28564V3.28564C1.7139 2.18125 2.60951 1.28587 3.71387 1.28564H20.2861C21.3905 1.28587 22.2861 2.18125 22.2861 3.28564V7.28564L24 15.8569V20.7144Z"/>
</mask>
<path d="M24 20.7144L25.5 20.7144V20.7144H24ZM0 20.7144H-1.5V20.7144L0 20.7144ZM0 15.8569L-1.47088 15.5628L-1.5 15.7084V15.8569H0ZM1.71387 7.28564L3.18475 7.57975L3.21387 7.43414V7.28564H1.71387ZM1.71387 3.28564L0.213867 3.28559V3.28564H1.71387ZM3.71387 1.28564V-0.214355H3.71356L3.71387 1.28564ZM20.2861 1.28564L20.2864 -0.214355H20.2861V1.28564ZM22.2861 3.28564H23.7861V3.28559L22.2861 3.28564ZM22.2861 7.28564H20.7861V7.43414L20.8152 7.57975L22.2861 7.28564ZM24 15.8569H25.5V15.7084L25.4709 15.5628L24 15.8569ZM24 20.7144L22.5 20.7143C22.5 20.9905 22.2761 21.2144 22 21.2144V22.7144V24.2144C23.933 24.2144 25.4999 22.6473 25.5 20.7144L24 20.7144ZM22 22.7144V21.2144H2V22.7144V24.2144H22V22.7144ZM2 22.7144V21.2144C1.72393 21.2144 1.50001 20.9905 1.5 20.7143L0 20.7144L-1.5 20.7144C-1.49993 22.6473 0.0669756 24.2144 2 24.2144V22.7144ZM0 20.7144H1.5V15.8569H0H-1.5V20.7144H0ZM0 15.8569L1.47088 16.151L3.18475 7.57975L1.71387 7.28564L0.242983 6.99153L-1.47088 15.5628L0 15.8569ZM1.71387 7.28564H3.21387V3.28564H1.71387H0.213867V7.28564H1.71387ZM1.71387 3.28564L3.21387 3.2857C3.21388 3.00994 3.43775 2.7857 3.71417 2.78564L3.71387 1.28564L3.71356 -0.214355C1.78127 -0.21396 0.213933 1.35255 0.213867 3.28559L1.71387 3.28564ZM3.71387 1.28564V2.78564H20.2861V1.28564V-0.214355H3.71387V1.28564ZM20.2861 1.28564L20.2858 2.78564C20.5622 2.7857 20.7861 3.00994 20.7861 3.2857L22.2861 3.28564L23.7861 3.28559C23.7861 1.35255 22.2187 -0.213957 20.2864 -0.214355L20.2861 1.28564ZM22.2861 3.28564H20.7861V7.28564H22.2861H23.7861V3.28564H22.2861ZM22.2861 7.28564L20.8152 7.57975L22.5291 16.151L24 15.8569L25.4709 15.5628L23.757 6.99153L22.2861 7.28564ZM24 15.8569H22.5V20.7144H24H25.5V15.8569H24Z" fill="black" mask="url(#path-1-inside-1_4433_41556)"/>
</g>
<path id="Vector 161" d="M2.99976 6.42847H20.9998" stroke="black" stroke-width="1.5"/>
<path id="Vector 162" d="M1 15.8572L23.1429 15.8572" stroke="black" stroke-width="1.5"/>
<path id="Vector 166" d="M12.6001 9.42847L11.5715 9.42847" stroke="black" stroke-width="1.5" stroke-linecap="round"/>
<path id="Vector 167" d="M17.9143 9.42847L16.8857 9.42847" stroke="black" stroke-width="1.5" stroke-linecap="round"/>
<path id="Vector 166_2" d="M7.28564 9.42847L6.25707 9.42847" stroke="black" stroke-width="1.5" stroke-linecap="round"/>
<path id="Vector 166_3" d="M12.6001 12.8572L11.5715 12.8572" stroke="black" stroke-width="1.5" stroke-linecap="round"/>
<path id="Vector 167_2" d="M17.9143 12.8572L16.8857 12.8572" stroke="black" stroke-width="1.5" stroke-linecap="round"/>
<path id="Vector 166_4" d="M7.28564 12.8572L6.25707 12.8572" stroke="black" stroke-width="1.5" stroke-linecap="round"/>
<path id="Vector 164" d="M12 2.5L12 6.42857" stroke="black" stroke-width="1.5"/>
<path id="Vector 165" d="M12.8572 18.7712L11.1429 18.7712" stroke="black" stroke-width="1.5" stroke-linecap="round"/>
</g>
</g>
</svg>
