<svg width="32" height="32" viewBox="0 0 32 32" fill="none" xmlns="http://www.w3.org/2000/svg">
<g id="Frame">
<path id="Vector" d="M6.66675 12.6667C6.66675 12.6667 3.23817 14.0001 2.66675 18.6667" stroke="#262626" stroke-width="3" stroke-linecap="round"/>
<path id="Vector_2" d="M25.3333 12.6667C25.3333 12.6667 28.7619 14.0001 29.3333 18.6667" stroke="#262626" stroke-width="3" stroke-linecap="round"/>
<path id="Vector_3" d="M12 12.6667C12 12.6667 15.2 13.4445 16 17.3334" stroke="#262626" stroke-width="3" stroke-linecap="round"/>
<path id="Vector_4" d="M20 12.6667C20 12.6667 16.8 13.4445 16 17.3334" stroke="#262626" stroke-width="3" stroke-linecap="round"/>
<path id="Vector_5" d="M13.3333 22.6667C13.3333 22.6667 10.5333 23.1667 9.33325 26.6667" stroke="#262626" stroke-width="3" stroke-linecap="round"/>
<path id="Vector_6" d="M18.6667 22.6667C18.6667 22.6667 21.4667 23.1667 22.6667 26.6667" stroke="#262626" stroke-width="3" stroke-linecap="round"/>
<path id="Vector_7" d="M16.0001 23.9999C17.841 23.9999 19.3334 22.5075 19.3334 20.6666C19.3334 18.8256 17.841 17.3333 16.0001 17.3333C14.1591 17.3333 12.6667 18.8256 12.6667 20.6666C12.6667 22.5075 14.1591 23.9999 16.0001 23.9999Z" stroke="#262626" stroke-width="3" stroke-linecap="round" stroke-linejoin="round"/>
<path id="Vector_8" d="M22.6667 13.3333C24.8759 13.3333 26.6667 11.5424 26.6667 9.33325C26.6667 7.12411 24.8759 5.33325 22.6667 5.33325C20.4576 5.33325 18.6667 7.12411 18.6667 9.33325C18.6667 11.5424 20.4576 13.3333 22.6667 13.3333Z" stroke="#262626" stroke-width="3" stroke-linecap="round" stroke-linejoin="round"/>
<path id="Vector_9" d="M9.33325 13.3333C11.5424 13.3333 13.3333 11.5424 13.3333 9.33325C13.3333 7.12411 11.5424 5.33325 9.33325 5.33325C7.12411 5.33325 5.33325 7.12411 5.33325 9.33325C5.33325 11.5424 7.12411 13.3333 9.33325 13.3333Z" stroke="#262626" stroke-width="3" stroke-linecap="round" stroke-linejoin="round"/>
</g>
</svg>
