<svg width="24" height="24" viewBox="0 0 24 24" fill="none" xmlns="http://www.w3.org/2000/svg">
<g id="Frame 90695">
<g id="Group 89141">
<path id="Vector 216" d="M7.26199 2.375C7.03795 2.64167 6.63735 3.56143 7.03632 4.45501C7.46494 5.41501 7.69814 5.575 7.26199 6.775" stroke="black" stroke-width="1.5" stroke-linecap="round"/>
<path id="Vector 217" d="M11.8484 0.908447C11.6398 1.15691 10.9977 2.75857 11.3922 3.57595C11.9319 4.69405 12.228 5.29035 11.6023 6.40845" stroke="black" stroke-width="1.5" stroke-linecap="round"/>
<path id="Vector 218" d="M16.062 2.375C15.838 2.64167 15.4374 3.56143 15.8363 4.45501C16.265 5.41501 16.4982 5.575 16.062 6.775" stroke="black" stroke-width="1.5" stroke-linecap="round"/>
<path id="Vector 209" d="M1 9.06665H22.2667" stroke="black" stroke-width="1.5" stroke-linecap="round"/>
<path id="Vector 210" d="M3.65845 9.93384V18.4698C3.65845 19.8505 4.77774 20.9698 6.15845 20.9698H11.6334M19.6084 9.93384V11.8533" stroke="black" stroke-width="1.5" stroke-linecap="round"/>
<g id="Group 89139">
<path id="Vector" d="M18.6 23.0917C21.03 23.0917 23 21.1218 23 18.6917C23 16.2617 21.03 14.2917 18.6 14.2917C16.1699 14.2917 14.2 16.2617 14.2 18.6917C14.2 21.1218 16.1699 23.0917 18.6 23.0917Z" stroke="black" stroke-width="1.5" stroke-linejoin="round"/>
<g id="Group 89140">
<path id="Vector_2" d="M18.5999 16.8584V20.5251" stroke="black" stroke-width="1.5" stroke-linecap="round" stroke-linejoin="round"/>
<path id="Vector_3" d="M16.7664 18.6917H20.433" stroke="black" stroke-width="1.5" stroke-linecap="round" stroke-linejoin="round"/>
</g>
</g>
</g>
</g>
</svg>
