<svg width="54" height="54" viewBox="0 0 54 54" fill="none" xmlns="http://www.w3.org/2000/svg">
<rect width="54" height="54" rx="8" fill="#A0D911"/>
<g clip-path="url(#clip0_1011_3291)">
<path d="M45.3895 31.8238C45.3895 28.7554 43.385 26.1762 38.5923 25.3925C38.6113 24.2929 38.6113 23.2312 38.6113 22.2385H8.61084C8.61084 31.3655 8.61084 46 23.6111 46C30.6148 46 34.3459 42.8104 36.3385 38.4809C42.7699 38.2101 45.3894 35.3364 45.3894 31.8238H45.3895ZM16.0041 40.255C13.1779 36.075 12.1068 31.1446 12.1163 26.1501C12.1211 24.0482 15.3795 24.0482 15.3747 26.1501C15.3652 30.615 16.2915 34.8757 18.8184 38.6091C20.0011 40.3547 17.1773 41.9839 16.0041 40.255ZM37.4073 35.5098C38.0413 33.2061 38.343 30.7361 38.4855 28.3374C40.9911 28.9596 41.5634 30.2445 41.5325 31.8927C41.4993 33.7737 40.8058 35.0514 37.4072 35.5098L37.4073 35.5098ZM20.1222 19.0869C20.6447 17.5836 20.5022 16.1254 19.9322 14.66C19.3005 13.0331 18.4669 11.9383 19.633 10.3518C20.8775 8.65372 18.0465 7.02688 16.8187 8.70597C15.7666 10.1381 15.4768 11.6913 15.9257 13.4084C16.3698 15.097 17.6095 16.4056 16.9802 18.2201C16.2891 20.2127 19.4383 21.0605 20.1222 19.0869ZM25.9884 19.0869C26.5109 17.5836 26.3684 16.1254 25.7984 14.66C25.1667 13.0331 24.333 11.9383 25.4992 10.3518C26.7436 8.65372 23.9127 7.02688 22.6848 8.70597C21.6327 10.1381 21.3429 11.6913 21.7942 13.4084C22.2359 15.097 23.4757 16.4056 22.8463 18.2201C22.1576 20.2127 25.3044 21.0605 25.9884 19.0869ZM31.8545 19.0869C32.377 17.5836 32.2345 16.1254 31.6645 14.66C31.0328 13.0331 30.1992 11.9383 31.3653 10.3518C32.6122 8.65372 29.7812 7.02926 28.551 8.70597C27.4989 10.1381 27.2091 11.6913 27.6603 13.4084C28.1021 15.097 29.3418 16.4056 28.7125 18.2201C28.0237 20.2127 31.1706 21.0605 31.8569 19.0869H31.8545Z" fill="white"/>
</g>
<defs>
<clipPath id="clip0_1011_3291">
<rect width="38" height="38" fill="white" transform="translate(8 8)"/>
</clipPath>
</defs>
</svg>
