<svg width="24" height="24" viewBox="0 0 24 24" fill="none" xmlns="http://www.w3.org/2000/svg">
<g id="Combine">
<g id="Group 88361">
<path id="Vector" d="M9.54545 6.47732V1.50686C9.54545 1.20185 9.3623 0.95459 9.13636 0.95459H3.40909C3.18316 0.95459 3 1.20185 3 1.50686V22.4932C3 22.7982 3.18316 23.0455 3.40909 23.0455H9.13636C9.3623 23.0455 9.54545 22.7982 9.54545 22.4932V17.5228" stroke="#262626" stroke-width="1.5" stroke-linecap="round"/>
<path id="Vector_2" d="M14.4546 17.5228V22.4932C14.4546 22.7982 14.6377 23.0455 14.8637 23.0455H20.591C20.8169 23.0455 21 22.7982 21 22.4932V1.50686C21 1.20185 20.8169 0.95459 20.591 0.95459H14.8637C14.6377 0.95459 14.4546 1.20185 14.4546 1.50686V6.47732" stroke="#262626" stroke-width="1.5" stroke-linecap="round"/>
<path id="Vector_3" d="M14.25 11.5908H20.3864" stroke="#262626" stroke-width="1.5" stroke-linecap="round"/>
<path id="Vector_4" d="M3.61353 11.5908H9.74989" stroke="#262626" stroke-width="1.5" stroke-linecap="round"/>
<path id="Vector_5" d="M15.589 13.5622L14.9382 12.9113L13.6365 11.6096L14.9382 10.3078L15.589 9.65698" stroke="#262626" stroke-width="1.5" stroke-linecap="round" stroke-linejoin="round"/>
<path id="Vector_6" d="M8.80908 13.5622L9.45995 12.9113L10.7617 11.6096L9.45995 10.3078L8.80908 9.65698" stroke="#262626" stroke-width="1.5" stroke-linecap="round" stroke-linejoin="round"/>
</g>
</g>
</svg>
