<svg width="24" height="24" viewBox="0 0 24 24" fill="none" xmlns="http://www.w3.org/2000/svg">
<g id="Frame">
<path id="Union" d="M19.3862 1.75C19.8002 1.75026 20.1362 2.08597 20.1362 2.5V22.2139C20.1362 22.4939 19.9796 22.7509 19.731 22.8799C19.4823 23.0088 19.1825 22.9885 18.9536 22.8271L11.9927 17.9209L5.03174 22.8271C4.80283 22.9884 4.50296 23.0088 4.25439 22.8799C4.00599 22.7509 3.8501 22.4938 3.8501 22.2139V2.5C3.85012 2.0858 4.1859 1.75 4.6001 1.75H19.3862ZM5.3501 9.25V20.7686L11.561 16.3906L11.6616 16.3311C11.905 16.2112 12.1986 16.2308 12.4253 16.3906L18.6362 20.7686V9.25H5.3501ZM5.3501 7.75H18.5933V3.25H5.3501V7.75Z" fill="#262626"/>
</g>
</svg>
