<svg width="32" height="32" viewBox="0 0 32 32" fill="none" xmlns="http://www.w3.org/2000/svg">
<g id="Frame">
<path id="Vector" d="M20.6701 29.3329C16.4503 29.3329 13.7065 29.3329 12.4388 29.3329C11.304 29.3329 9.94408 28.9542 9.03182 27.7414C8.41542 26.9218 8.00342 25.7214 8.00342 23.9996C8.00342 21.1529 8.00342 18.7083 8.00342 16.666" stroke="black" stroke-width="2" stroke-linecap="round"/>
<path id="Vector_2" d="M2.6665 21.9996L8.0029 16.666L13.3424 21.9996" stroke="black" stroke-width="2" stroke-linecap="round" stroke-linejoin="round"/>
<path id="Vector_3" d="M22.2 9.4C23.9673 9.4 25.4 7.96731 25.4 6.2C25.4 4.43269 23.9673 3 22.2 3C20.4327 3 19 4.43269 19 6.2C19 7.96731 20.4327 9.4 22.2 9.4Z" stroke="black" stroke-width="2" stroke-linecap="round" stroke-linejoin="round"/>
<path id="Vector_4" d="M29.4 19.0008C29.4 15.0243 26.1764 11.8008 22.2 11.8008C18.2236 11.8008 15 15.0243 15 19.0008" stroke="black" stroke-width="2" stroke-linecap="round" stroke-linejoin="round"/>
</g>
</svg>
