<svg width="24" height="24" viewBox="0 0 24 24" fill="none" xmlns="http://www.w3.org/2000/svg">
<g id="Frame 89681">
<g id="ditu-2 1">
<path id="Vector" d="M12.5846 19.0725L12 19.7241L11.4154 19.0725C11.0756 18.6868 10.7415 18.296 10.4134 17.9002C9.65007 16.982 8.91824 16.0381 8.21919 15.07C7.67746 14.322 7.16634 13.5522 6.68706 12.7627C5.56088 10.8911 4.92865 9.31967 4.92865 8.07143C4.92865 4.1659 8.09452 1 12 1C15.9055 1 19.0713 4.1659 19.0713 8.07143C19.0713 9.31967 18.4391 10.8911 17.3129 12.7627C16.8337 13.5522 16.3225 14.322 15.7808 15.07C15.0819 16.0381 14.3503 16.982 13.5871 17.9002C13.2588 18.296 12.9246 18.6868 12.5846 19.0725ZM12.3771 16.8976C13.1173 16.0071 13.8269 15.0917 14.5048 14.1529C15.0215 13.4396 15.509 12.7056 15.9662 11.9529C16.9562 10.3081 17.4999 8.95562 17.4999 8.07143C17.4999 5.03386 15.0375 2.57143 12 2.57143C8.96246 2.57143 6.50006 5.03386 6.50006 8.07143C6.50006 8.95562 7.04429 10.3081 8.03376 11.9529C8.49096 12.7056 8.9785 13.4396 9.49517 14.1529C10.2874 15.2506 11.123 16.3163 12 17.3476C12.1205 17.2061 12.2462 17.0558 12.3771 16.8976ZM20.4678 14.0952H19.857C19.6487 14.0952 19.4488 14.0125 19.3015 13.8651C19.1541 13.7178 19.0713 13.5179 19.0713 13.3095C19.0713 13.1011 19.1541 12.9013 19.3015 12.7539C19.4488 12.6066 19.6487 12.5238 19.857 12.5238H21.1666C21.5646 12.5238 21.8999 12.8224 21.947 13.2179L22.9946 22.1226C23.0076 22.2328 22.997 22.3445 22.9637 22.4503C22.9304 22.5561 22.8751 22.6536 22.8013 22.7365C22.7276 22.8194 22.6372 22.8857 22.536 22.9311C22.4348 22.9765 22.3251 23 22.2142 23H1.78583C1.67491 23 1.56523 22.9765 1.46403 22.9311C1.36282 22.8857 1.27238 22.8194 1.19866 22.7365C1.12493 22.6536 1.06959 22.5561 1.03627 22.4503C1.00296 22.3445 0.992424 22.2328 1.00537 22.1226L2.05297 13.2179C2.07543 13.0266 2.16732 12.8503 2.3112 12.7224C2.45507 12.5944 2.64091 12.5238 2.83344 12.5238H4.14295C4.35133 12.5238 4.55118 12.6066 4.69853 12.7539C4.84587 12.9013 4.92865 13.1011 4.92865 13.3095C4.92865 13.5179 4.84587 13.7178 4.69853 13.8651C4.55118 14.0125 4.35133 14.0952 4.14295 14.0952H3.53219L2.66949 21.4286H21.3305L20.4678 14.0952ZM12 10.6905C11.2359 10.6905 10.5032 10.3869 9.96288 9.84666C9.42261 9.30638 9.11908 8.5736 9.11908 7.80952C9.11908 7.04545 9.42261 6.31267 9.96288 5.77238C10.5032 5.2321 11.2359 4.92857 12 4.92857C12.7641 4.92857 13.4968 5.2321 14.0371 5.77238C14.5774 6.31267 14.8809 7.04545 14.8809 7.80952C14.8809 8.5736 14.5774 9.30638 14.0371 9.84666C13.4968 10.3869 12.7641 10.6905 12 10.6905ZM12 9.11905C12.3473 9.11905 12.6804 8.98108 12.926 8.7355C13.1715 8.48991 13.3095 8.15683 13.3095 7.80952C13.3095 7.46222 13.1715 7.12913 12.926 6.88355C12.6804 6.63797 12.3473 6.5 12 6.5C11.6527 6.5 11.3196 6.63797 11.074 6.88355C10.8285 7.12913 10.6905 7.46222 10.6905 7.80952C10.6905 8.15683 10.8285 8.48991 11.074 8.7355C11.3196 8.98108 11.6527 9.11905 12 9.11905Z" fill="#262626"/>
</g>
</g>
</svg>
