<svg width="24" height="24" viewBox="0 0 24 24" fill="none" xmlns="http://www.w3.org/2000/svg">
<g id="details">
<g id="Group 88278">
<path id="Vector" d="M19.7629 19.0432L17.5361 16.8164C18.0309 16.0742 18.3402 15.2082 18.3402 14.2803C18.3402 11.868 16.3608 9.95044 14.0103 9.95044C11.6598 9.95044 9.68042 11.9298 9.68042 14.2803C9.68042 16.6927 11.6598 18.6102 14.0103 18.6102C14.9382 18.6102 15.8041 18.3628 16.5464 17.8061L18.7732 20.0329C18.8969 20.1566 19.0825 20.2185 19.268 20.2185C19.4536 20.2185 19.6392 20.1566 19.7629 20.0329C19.8866 19.9092 19.9485 19.7236 19.9485 19.5381C19.9485 19.3525 19.8866 19.1669 19.7629 19.0432ZM13.9485 17.1876C12.3402 17.1876 11.0412 15.8886 11.0412 14.2803C11.0412 12.6721 12.3402 11.3731 13.9485 11.3731C15.5567 11.3731 16.8557 12.6721 16.8557 14.2803C16.8557 15.8886 15.5567 17.1876 13.9485 17.1876Z" fill="#262626"/>
<path id="Vector_2" d="M19.5773 2.71216H4.36082C3.61856 2.71216 3 3.33071 3 4.07298V19.8462C3 20.5884 3.61856 21.207 4.36082 21.207H15.9278C16.3608 21.207 16.6701 20.8977 16.6701 20.4647C16.6701 20.0317 16.3608 19.7225 15.9278 19.7225H4.48454V4.19669H19.5155V16.2585C19.5155 16.6915 19.8247 17.0008 20.2577 17.0008C20.6907 17.0008 21 16.6915 21 16.2585V4.07298C20.9381 3.33071 20.3196 2.71216 19.5773 2.71216Z" fill="#262626"/>
<path id="Vector_3" d="M7.02059 7.66105H16.9175C17.3505 7.66105 17.6598 7.35177 17.6598 6.91878C17.6598 6.48579 17.3505 6.17651 16.9175 6.17651H7.02059C6.5876 6.17651 6.27832 6.48579 6.27832 6.91878C6.27832 7.28992 6.5876 7.66105 7.02059 7.66105ZM8.38141 10.0734H7.02059C6.5876 10.0734 6.27832 10.3827 6.27832 10.8157C6.27832 11.2487 6.5876 11.558 7.02059 11.558H8.38141C8.8144 11.558 9.12368 11.2487 9.12368 10.8157C9.12368 10.3827 8.75255 10.0734 8.38141 10.0734Z" fill="#262626"/>
</g>
</g>
</svg>
