<svg width="32" height="32" viewBox="0 0 32 32" fill="none" xmlns="http://www.w3.org/2000/svg">
<g id="Refund">
<g id="Group 88379">
<path id="Union" fill-rule="evenodd" clip-rule="evenodd" d="M29.3643 3.52637C30.4903 3.52637 31.447 4.28728 31.7275 5.33105C31.782 5.45445 31.8125 5.59083 31.8125 5.73438V5.94141C31.8126 5.94791 31.8135 5.95442 31.8135 5.96094V26.0391C31.8135 27.3933 30.7071 28.4736 29.3643 28.4736H3.27734C1.93458 28.4736 0.828125 27.3933 0.828125 26.0391V5.73438C0.828125 5.58942 0.858582 5.45149 0.914062 5.32715C1.1959 4.28526 2.15268 3.5264 3.27734 3.52637H29.3643ZM2.82812 26.0391C2.82812 26.269 3.01934 26.4736 3.27734 26.4736H29.3643C29.6223 26.4736 29.8135 26.269 29.8135 26.0391V17.832C29.8133 17.8252 29.8125 17.8184 29.8125 17.8115V12.1699H2.82812V26.0391ZM11.2598 17.2764C11.6148 16.8536 12.246 16.7985 12.6689 17.1533C13.0919 17.5082 13.1467 18.1394 12.792 18.5625L11.2197 20.4355H23.5693C24.1214 20.4358 24.5693 20.8834 24.5693 21.4355C24.5693 21.9876 24.1214 22.4353 23.5693 22.4355H9.07617C9.07463 22.4355 9.07283 22.4346 9.07129 22.4346C9.05956 22.4345 9.04786 22.4341 9.03613 22.4336C8.93574 22.4297 8.8397 22.4103 8.74902 22.3789C8.65998 22.3481 8.57394 22.3053 8.49414 22.248C8.44763 22.2147 8.40433 22.1774 8.36426 22.1367C8.3243 22.0963 8.28858 22.0532 8.25684 22.0078C8.25228 22.0013 8.24757 21.9949 8.24316 21.9883C8.23333 21.9735 8.22382 21.9586 8.21484 21.9434C8.20632 21.9289 8.19824 21.9143 8.19043 21.8994C8.18454 21.8882 8.17927 21.8767 8.17383 21.8652C8.16519 21.8471 8.156 21.8292 8.14844 21.8105C8.11846 21.7362 8.09838 21.6587 8.08691 21.5801C8.08007 21.5329 8.07617 21.4847 8.07617 21.4355C8.07617 21.4003 8.07749 21.3654 8.08105 21.3311C8.09102 21.2353 8.11535 21.1406 8.15332 21.0498C8.17896 20.9886 8.21031 20.9303 8.24707 20.876C8.26629 20.8476 8.28706 20.8198 8.30957 20.793L11.2598 17.2764ZM3.27734 5.52637C3.0195 5.5264 2.82836 5.73118 2.82812 5.96094V10.1699H29.8125V5.95117C29.8069 5.7254 29.6185 5.52637 29.3643 5.52637H3.27734Z" fill="#262626"/>
</g>
</g>
</svg>
