<svg width="102" height="102" viewBox="0 0 102 102" fill="none" xmlns="http://www.w3.org/2000/svg">
<g id="Group 89079">
<rect id="Rectangle 7380" width="102" height="102" rx="24" fill="#ED7F1C"/>
<g id="Frame">
<g id="Group 89082">
<path id="Vector" opacity="0.5" d="M62.2676 31.6252L68.8193 25.4934C69.1809 25.1546 69.6604 24.9704 70.1558 24.9801C70.6513 24.9898 71.1233 25.1927 71.4712 25.5454L76.451 30.5852C76.8027 30.9409 77 31.4209 77 31.9212C77 32.4214 76.8027 32.9014 76.451 33.2571L70.1713 39.5848L76.403 45.7846C77.607 46.9765 76.763 49.0324 75.0631 49.0324H54.9039C54.6541 49.033 54.4066 48.9842 54.1756 48.889C53.9447 48.7937 53.7347 48.6539 53.5579 48.4774C53.381 48.3009 53.2407 48.0913 53.145 47.8605C53.0493 47.6298 53 47.3824 53 47.1325V26.9854C53 25.2935 55.0399 24.4455 56.2399 25.6374L62.2676 31.6252Z" fill="white"/>
<path id="Vector_2" d="M39.7324 31.6252L33.1807 25.4934C32.8192 25.1546 32.3396 24.9704 31.8442 24.9801C31.3488 24.9898 30.8768 25.1927 30.5288 25.5454L25.549 30.5852C25.1973 30.9409 25 31.4209 25 31.9212C25 32.4214 25.1973 32.9014 25.549 33.2571L31.8287 39.5848L25.597 45.7846C24.3931 46.9765 25.237 49.0325 26.937 49.0325H47.0961C47.3459 49.033 47.5934 48.9842 47.8244 48.889C48.0554 48.7937 48.2653 48.6539 48.4421 48.4774C48.619 48.3009 48.7593 48.0913 48.855 47.8605C48.9507 47.6298 49 47.3824 49 47.1325V26.9854C49.0002 26.6099 48.8892 26.2429 48.6809 25.9305C48.4727 25.6181 48.1765 25.3744 47.8299 25.2302C47.4833 25.086 47.1017 25.0477 46.7333 25.1202C46.365 25.1927 46.0263 25.3727 45.7602 25.6374L39.7324 31.6252ZM62.2675 70.3755L68.8192 76.5073C69.5712 77.2113 70.7471 77.1873 71.4711 76.4553L76.4509 71.4155C76.8026 71.0598 76.9999 70.5798 76.9999 70.0796C76.9999 69.5793 76.8026 69.0993 76.4509 68.7436L70.1711 62.4159L76.4029 56.2161C76.6699 55.9509 76.8521 55.6123 76.9265 55.2433C77.0008 54.8743 76.9638 54.4916 76.8203 54.1436C76.6767 53.7957 76.433 53.4982 76.1202 53.2889C75.8073 53.0797 75.4393 52.9681 75.0629 52.9683H54.9038C54.6539 52.9678 54.4064 53.0165 54.1755 53.1118C53.9445 53.207 53.7346 53.3469 53.5577 53.5233C53.3809 53.6998 53.2406 53.9094 53.1449 54.1402C53.0491 54.371 52.9999 54.6184 52.9999 54.8682V75.0154C52.9999 76.7073 55.0398 77.5552 56.2397 76.3633L62.2675 70.3755ZM39.7324 70.3755L33.1807 76.5073C32.8192 76.8461 32.3396 77.0303 31.8442 77.0206C31.3488 77.0109 30.8768 76.8081 30.5288 76.4553L25.549 71.4155C25.1973 71.0598 25 70.5798 25 70.0796C25 69.5793 25.1973 69.0993 25.549 68.7436L31.8287 62.4159L25.597 56.2161C25.33 55.9509 25.1477 55.6123 25.0734 55.2433C24.9991 54.8743 25.0361 54.4916 25.1796 54.1436C25.3232 53.7957 25.5668 53.4982 25.8797 53.2889C26.1926 53.0797 26.5606 52.9681 26.937 52.9683H47.0961C48.1481 52.9683 49 53.8202 49 54.8682V75.0154C49 76.7073 46.9601 77.5552 45.7602 76.3633L39.7324 70.3755Z" fill="white"/>
</g>
</g>
</g>
</svg>
