<svg width="102" height="102" viewBox="0 0 102 102" fill="none" xmlns="http://www.w3.org/2000/svg">
<g id="Group 89085">
<rect id="Rectangle 7381" width="102" height="102" rx="24" fill="#ED7F1C"/>
<g id="Frame">
<path id="Vector" d="M75.8234 42.8076L65.6457 30.1291C64.6279 28.8322 62.9646 28.0005 61.2954 28.0005H40.7482C39.0848 28.0005 37.5088 28.7391 36.3979 30.1291L26.2203 42.8076C24.4639 44.9361 24.6442 48.0825 26.4994 50.1239L47.1397 71.9681L47.4189 72.2472C48.4367 73.1719 49.8267 73.7303 51.2108 73.7303H51.3969C52.88 73.6372 54.2641 73.0847 55.2819 71.9739L75.457 50.2227C77.3994 48.0825 77.4925 44.9361 75.8234 42.8076ZM63.6101 49.013L53.985 59.4699C52.5019 60.9529 50.1931 61.046 48.71 59.656L48.5239 59.4699L38.5265 48.92C37.881 48.1814 37.881 46.9775 38.6196 46.3261C39.4512 45.5875 40.5621 45.6806 41.3007 46.4192L50.6932 56.341C50.9724 56.6318 51.4318 56.6318 51.711 56.341L60.8302 46.6111C61.5688 45.8725 62.6796 45.7794 63.5113 46.425C64.2557 47.0647 64.2557 48.2686 63.6101 49.013Z" fill="white"/>
</g>
</g>
</svg>
