<svg width="40" height="30" viewBox="0 0 40 30" fill="none" xmlns="http://www.w3.org/2000/svg">
<path d="M0 4C0 1.79086 1.79086 0 4 0H40V30H4C1.79086 30 0 28.2091 0 26V4Z" fill="black"/>
<path fill-rule="evenodd" clip-rule="evenodd" d="M24.1751 7C24.4863 7 24.782 7.12348 24.9953 7.33897L25.0818 7.43633L29.1667 12.6615H33.3442C34.2523 12.6615 34.9882 13.3778 34.9883 14.2614V16.7231H35.2169C35.6497 16.7234 35.9999 17.0651 36 17.4864V19.3086C35.9995 19.852 35.5469 20.2931 34.9883 20.2931H31.8694C31.5215 21.8409 30.1069 22.9999 28.412 23C26.7169 23 25.3023 21.841 24.9545 20.2931H17.9557C17.6078 21.8409 16.1932 22.9999 14.4983 23C12.8032 23 11.3887 21.841 11.0408 20.2931H9.08423C8.71079 20.2929 8.36697 20.092 8.19115 19.7714L7.46483 18.4468H5.13765C4.50944 18.4464 4.00027 17.9499 4 17.3385V10.9378C4.0003 10.3265 4.50946 9.83113 5.13765 9.83074H7.5093L9.14475 7.39065L9.21146 7.30411C9.37832 7.11272 9.62431 7.00017 9.8859 7H24.1751ZM14.4983 17.5837C13.3807 17.5837 12.4739 18.4663 12.4737 19.5538C12.4738 20.6414 13.3806 21.5227 14.4983 21.5227C15.6158 21.5226 16.5214 20.6413 16.5216 19.5538C16.5214 18.4664 15.6157 17.5839 14.4983 17.5837ZM28.412 17.5837C27.2943 17.5837 26.3876 18.4663 26.3874 19.5538C26.3875 20.6414 27.2943 21.5227 28.412 21.5227C29.5294 21.5226 30.4351 20.6413 30.4353 19.5538C30.4351 18.4664 29.5294 17.5839 28.412 17.5837ZM28.5379 14.1376H8.67907V15.1232H9.81796C10.2371 15.1232 10.5764 15.4534 10.5764 15.8612C10.5764 16.2691 10.2371 16.5993 9.81796 16.5993H8.67907V17.5224L9.38686 18.8158H11.0396C11.387 17.2674 12.8028 16.1077 14.4983 16.1077C16.1936 16.1078 17.6095 17.2675 17.9569 18.8158H24.9533C25.3007 17.2674 26.7165 16.1077 28.412 16.1077C30.1073 16.1078 31.5232 17.2675 31.8706 18.8158H34.4831V18.2004H34.3559C33.8674 18.2 33.4705 17.8139 33.4702 17.3385V16.5993H32.2066C31.7874 16.5993 31.4482 16.2691 31.4482 15.8612C31.4482 15.4534 31.7874 15.1232 32.2066 15.1232H33.4702V14.2614C33.4701 14.1935 33.414 14.1388 33.3442 14.1388H28.8529C28.7437 14.1386 28.6375 14.117 28.5379 14.0799V14.1376ZM5.51687 16.9695H7.16097V11.308H5.51687V16.9695ZM8.67907 10.7875V12.6615H13.9931V8.47607H10.2293L8.67907 10.7875ZM15.5099 12.6615H19.811V8.47607H15.5099V12.6615ZM21.3279 12.6615H27.2595L23.9873 8.47607H21.3279V12.6615Z" fill="white"/>
</svg>
