<svg width="102" height="102" viewBox="0 0 102 102" fill="none" xmlns="http://www.w3.org/2000/svg">
<g id="Group 89073">
<rect id="Rectangle 7387" width="102" height="102" rx="24" fill="#445180"/>
<g id="Frame">
<path id="Vector" d="M25.3502 55.237C24.8839 52.4317 24.8839 49.5687 25.3502 46.7634C28.2146 46.8309 30.7879 45.4585 31.7886 43.0438C32.7893 40.6265 31.9393 37.8348 29.8651 35.862C31.5193 33.5468 33.5446 31.5207 35.8591 29.8654C37.8345 31.9397 40.6261 32.7896 43.0435 31.7889C45.4608 30.7882 46.8306 28.2123 46.7605 25.3505C49.5675 24.8837 52.4323 24.8837 55.2393 25.3505C55.1691 28.2149 56.5415 30.7882 58.9563 31.7889C61.3736 32.7896 64.1652 31.9397 66.1381 29.8654C68.4533 31.5196 70.4794 33.5449 72.1346 35.8594C70.0604 37.8348 69.2104 40.6265 70.2112 43.0438C71.2119 45.4611 73.7878 46.8309 76.6496 46.7608C77.1175 49.568 77.1175 52.4324 76.6496 55.2396C73.7852 55.1694 71.2119 56.5419 70.2112 58.9566C69.2104 61.3739 70.0604 64.1655 72.1346 66.1384C70.4805 68.4537 68.4552 70.4798 66.1407 72.1349C64.1652 70.0607 61.3736 69.2108 58.9563 70.2115C56.5389 71.2122 55.1691 73.7881 55.2393 76.6499C52.4321 77.1178 49.5677 77.1178 46.7605 76.6499C46.8306 73.7855 45.4582 71.2122 43.0435 70.2115C40.6261 69.2108 37.8345 70.0607 35.8617 72.1349C33.5465 70.4807 31.5203 68.4555 29.8651 66.141C31.9393 64.1655 32.7893 61.3739 31.7886 58.9566C30.7879 56.5393 28.212 55.1694 25.3502 55.2396V55.237ZM50.9999 58.798C53.068 58.798 55.0514 57.9765 56.5138 56.5141C57.9762 55.0517 58.7977 53.0683 58.7977 51.0002C58.7977 48.9321 57.9762 46.9487 56.5138 45.4863C55.0514 44.0239 53.068 43.2023 50.9999 43.2023C48.9318 43.2023 46.9483 44.0239 45.486 45.4863C44.0236 46.9487 43.202 48.9321 43.202 51.0002C43.202 53.0683 44.0236 55.0517 45.486 56.5141C46.9483 57.9765 48.9318 58.798 50.9999 58.798Z" fill="white"/>
</g>
</g>
</svg>
