<svg width="32" height="32" viewBox="0 0 32 32" fill="none" xmlns="http://www.w3.org/2000/svg">
<g id="Frame 89504">
<g id="Union">
<path d="M15.8144 -1C20.4558 -1 24.6612 0.902632 27.7033 3.97738C28.7895 5.07529 29.6811 6.43101 30.291 7.48104C30.3061 7.50696 30.3199 7.53339 30.3346 7.55899L30.9178 5.52169C31.0812 4.94968 31.67 4.62073 32.2334 4.7864C32.797 4.95237 33.1211 5.55003 32.9577 6.12213L31.7094 10.4906C31.546 11.0627 30.9572 11.3927 30.3938 11.227L26.0908 9.95867C25.5273 9.7927 25.2032 9.19506 25.3666 8.62294C25.5302 8.05099 26.1188 7.7218 26.6823 7.88766L28.3414 8.37539C27.7835 7.43812 27.045 6.356 26.2039 5.50589C23.5449 2.81831 19.8727 1.15739 15.8144 1.15739C7.69719 1.15761 1.12501 7.80738 1.12501 16C1.12506 24.1926 7.69722 30.8424 15.8144 30.8426C17.8778 30.8426 20.3799 30.4627 22.5972 29.647C24.8403 28.8218 26.6262 27.6131 27.4947 26.077C27.7868 25.5603 28.4364 25.3823 28.9453 25.6788C29.4542 25.9753 29.6306 26.6348 29.3385 27.1514C28.1067 29.3301 25.7666 30.7752 23.3215 31.6748C20.8505 32.5839 18.1008 33 15.8144 33C6.53253 32.9998 -0.999957 25.3931 -1 16C-1 6.60683 6.53251 -0.999786 15.8144 -1Z" fill="#262626"/>
<path fill-rule="evenodd" clip-rule="evenodd" d="M27.6171 13.5571C28.2039 13.5571 28.6796 14.0401 28.6796 14.6358C28.6796 15.2316 28.2039 15.7145 27.6171 15.7145H25.8791V22.7419C25.8791 24.827 24.2142 26.5173 22.1604 26.5173H10.671C8.61715 26.5173 6.9522 24.827 6.9522 22.7419V15.7145H5.21421C4.62741 15.7145 4.15171 15.2316 4.15171 14.6358C4.15171 14.0401 4.62741 13.5571 5.21421 13.5571H27.6171ZM9.07722 22.7419C9.07722 23.6355 9.79077 24.3599 10.671 24.3599H22.1604C23.0406 24.3599 23.7541 23.6355 23.7541 22.7419V15.7145H9.07722V22.7419Z" fill="#262626"/>
<path d="M13.2411 4.77482C13.6561 4.35362 14.3287 4.35358 14.7436 4.77482C15.1584 5.19606 15.1584 5.87892 14.7436 6.30016C14.7456 6.2981 14.7316 6.31341 14.7052 6.35073C14.6798 6.38663 14.6484 6.4355 14.6159 6.4961C14.5506 6.61839 14.4874 6.7716 14.4458 6.94169C14.3633 7.27883 14.3722 7.63895 14.5547 7.98773C14.6377 8.14626 14.7163 8.28993 14.7934 8.42911C14.8681 8.56413 14.9464 8.70511 15.0165 8.83889C15.1562 9.10593 15.3037 9.41929 15.3827 9.7838C15.5527 10.5681 15.353 11.3162 14.9677 12.2203C14.7347 12.7671 14.1086 13.0184 13.57 12.7818C13.0318 12.5451 12.7841 11.9106 13.017 11.3639C13.3585 10.5626 13.3275 10.3441 13.3065 10.2473C13.29 10.1712 13.2517 10.0638 13.1405 9.85122C13.0851 9.74542 13.0214 9.63157 12.9413 9.48674C12.8632 9.3457 12.7733 9.1826 12.6777 9.00006C12.1956 8.07876 12.2057 7.15009 12.3841 6.4213C12.5549 5.72345 12.9009 5.12024 13.2411 4.77482Z" fill="#262626"/>
<path d="M18.8421 3.63713C19.257 3.21587 19.9307 3.21587 20.3456 3.63713C20.7602 4.05832 20.7602 4.74128 20.3456 5.16247C20.3423 5.1669 20.2898 5.23035 20.219 5.36684C20.1481 5.5036 20.0788 5.67582 20.0333 5.8651C19.9412 6.24841 19.961 6.61747 20.1391 6.93221C20.5877 7.72427 21.082 8.56245 21.2348 9.4446C21.4087 10.4489 21.1406 11.3815 20.4784 12.3899C20.153 12.8856 19.4932 13.0194 19.005 12.6891C18.5168 12.3587 18.3848 11.689 18.7103 11.1933C19.1679 10.4964 19.1945 10.1207 19.142 9.81751C19.0682 9.39195 18.8137 8.92127 18.2963 8.00775C17.7687 7.07573 17.7894 6.09938 17.9685 5.3542C18.14 4.64052 18.4903 3.99441 18.8421 3.63713Z" fill="#262626"/>
<path d="M15.8144 -1C20.4558 -1 24.6612 0.902632 27.7033 3.97738C28.7895 5.07529 29.6811 6.43101 30.291 7.48104C30.3061 7.50696 30.3199 7.53339 30.3346 7.55899L30.9178 5.52169C31.0812 4.94968 31.67 4.62073 32.2334 4.7864C32.797 4.95237 33.1211 5.55003 32.9577 6.12213L31.7094 10.4906C31.546 11.0627 30.9572 11.3927 30.3938 11.227L26.0908 9.95867C25.5273 9.7927 25.2032 9.19506 25.3666 8.62294C25.5302 8.05099 26.1188 7.7218 26.6823 7.88766L28.3414 8.37539C27.7835 7.43812 27.045 6.356 26.2039 5.50589C23.5449 2.81831 19.8727 1.15739 15.8144 1.15739C7.69719 1.15761 1.12501 7.80738 1.12501 16C1.12506 24.1926 7.69722 30.8424 15.8144 30.8426C17.8778 30.8426 20.3799 30.4627 22.5972 29.647C24.8403 28.8218 26.6262 27.6131 27.4947 26.077C27.7868 25.5603 28.4364 25.3823 28.9453 25.6788C29.4542 25.9753 29.6306 26.6348 29.3385 27.1514C28.1067 29.3301 25.7666 30.7752 23.3215 31.6748C20.8505 32.5839 18.1008 33 15.8144 33C6.53253 32.9998 -0.999957 25.3931 -1 16C-1 6.60683 6.53251 -0.999786 15.8144 -1Z" stroke="#262626" stroke-width="0.5" stroke-linecap="round" stroke-linejoin="round"/>
<path fill-rule="evenodd" clip-rule="evenodd" d="M27.6171 13.5571C28.2039 13.5571 28.6796 14.0401 28.6796 14.6358C28.6796 15.2316 28.2039 15.7145 27.6171 15.7145H25.8791V22.7419C25.8791 24.827 24.2142 26.5173 22.1604 26.5173H10.671C8.61715 26.5173 6.9522 24.827 6.9522 22.7419V15.7145H5.21421C4.62741 15.7145 4.15171 15.2316 4.15171 14.6358C4.15171 14.0401 4.62741 13.5571 5.21421 13.5571H27.6171ZM9.07722 22.7419C9.07722 23.6355 9.79077 24.3599 10.671 24.3599H22.1604C23.0406 24.3599 23.7541 23.6355 23.7541 22.7419V15.7145H9.07722V22.7419Z" stroke="#262626" stroke-width="0.5" stroke-linecap="round" stroke-linejoin="round"/>
<path d="M13.2411 4.77482C13.6561 4.35362 14.3287 4.35358 14.7436 4.77482C15.1584 5.19606 15.1584 5.87892 14.7436 6.30016C14.7456 6.2981 14.7316 6.31341 14.7052 6.35073C14.6798 6.38663 14.6484 6.4355 14.6159 6.4961C14.5506 6.61839 14.4874 6.7716 14.4458 6.94169C14.3633 7.27883 14.3722 7.63895 14.5547 7.98773C14.6377 8.14626 14.7163 8.28993 14.7934 8.42911C14.8681 8.56413 14.9464 8.70511 15.0165 8.83889C15.1562 9.10593 15.3037 9.41929 15.3827 9.7838C15.5527 10.5681 15.353 11.3162 14.9677 12.2203C14.7347 12.7671 14.1086 13.0184 13.57 12.7818C13.0318 12.5451 12.7841 11.9106 13.017 11.3639C13.3585 10.5626 13.3275 10.3441 13.3065 10.2473C13.29 10.1712 13.2517 10.0638 13.1405 9.85122C13.0851 9.74542 13.0214 9.63157 12.9413 9.48674C12.8632 9.3457 12.7733 9.1826 12.6777 9.00006C12.1956 8.07876 12.2057 7.15009 12.3841 6.4213C12.5549 5.72345 12.9009 5.12024 13.2411 4.77482Z" stroke="#262626" stroke-width="0.5" stroke-linecap="round" stroke-linejoin="round"/>
<path d="M18.8421 3.63713C19.257 3.21587 19.9307 3.21587 20.3456 3.63713C20.7602 4.05832 20.7602 4.74128 20.3456 5.16247C20.3423 5.1669 20.2898 5.23035 20.219 5.36684C20.1481 5.5036 20.0788 5.67582 20.0333 5.8651C19.9412 6.24841 19.961 6.61747 20.1391 6.93221C20.5877 7.72427 21.082 8.56245 21.2348 9.4446C21.4087 10.4489 21.1406 11.3815 20.4784 12.3899C20.153 12.8856 19.4932 13.0194 19.005 12.6891C18.5168 12.3587 18.3848 11.689 18.7103 11.1933C19.1679 10.4964 19.1945 10.1207 19.142 9.81751C19.0682 9.39195 18.8137 8.92127 18.2963 8.00775C17.7687 7.07573 17.7894 6.09938 17.9685 5.3542C18.14 4.64052 18.4903 3.99441 18.8421 3.63713Z" stroke="#262626" stroke-width="0.5" stroke-linecap="round" stroke-linejoin="round"/>
</g>
</g>
</svg>
