<svg width="102" height="102" viewBox="0 0 102 102" fill="none" xmlns="http://www.w3.org/2000/svg">
<g id="Group 89080">
<rect id="Rectangle 7380" width="102" height="102" rx="24" fill="#007CFF"/>
<g id="Group 10">
<g id="epay">
<g id="&#229;&#155;&#190;&#229;&#177;&#130; 1">
<path id="Vector" d="M46.2617 70.7674C46.6535 69.3905 46.9782 68.1984 47.3364 67.0118C50.8122 55.5098 54.3103 44.0134 57.7413 32.5002C58.0827 31.3808 58.5753 30.989 59.7674 31.0002C65.9242 31.0618 72.081 30.9555 78.2378 31.073C80.1889 31.1141 82.1236 31.4404 83.9804 32.0413C87.8032 33.3006 89.8741 36.4518 89.7845 40.4369C89.7415 43.3735 89.0981 46.2703 87.8939 48.9491C86.6898 51.6278 84.9503 54.032 82.7826 56.0135C81.6812 57.1285 80.3603 58.0027 78.9036 58.5807C77.4469 59.1588 75.886 59.4282 74.3198 59.3718C70.5474 59.2654 66.7694 59.3718 62.997 59.327C61.8776 59.327 61.4522 59.6852 61.1667 60.7151C60.3439 63.6647 59.3757 66.5752 58.5361 69.5193C58.2843 70.4092 57.9372 70.8178 56.9298 70.7954C53.4148 70.7282 49.9446 70.7674 46.2617 70.7674ZM63.9988 51.3736C66.2377 51.3736 68.2414 51.4239 70.234 51.3736C74.9915 51.2336 79.0158 46.6384 78.5904 41.8585C78.4225 39.922 77.1296 38.4443 75.4169 38.394C73.234 38.3268 71.0455 38.3436 68.8627 38.394C68.6498 38.413 68.4448 38.4835 68.2654 38.5996C68.086 38.7157 67.9375 38.8737 67.8328 39.06C66.5455 43.0451 65.3253 47.0638 63.9988 51.3736Z" fill="white"/>
<path id="Vector_2" d="M42.3999 64.6386C40.9808 66.3951 39.2153 67.8407 37.2134 68.8854C35.2115 69.9302 33.016 70.5518 30.7636 70.7114C28.0108 70.9735 25.2341 70.6257 22.631 69.6928C15.4108 67.1349 11.3921 60.6759 12.075 52.756C12.6906 45.6421 18.0806 39.8828 25.4743 38.7634C27.725 38.4202 30.0132 38.4013 32.2692 38.7074C36.6853 39.3063 39.8532 41.8473 41.8625 45.7877C43.76 49.5097 44.0062 53.5004 43.732 57.799H21.6459C22.3344 60.4184 23.7057 62.0975 25.9893 62.9819C29.2915 64.2636 31.6983 63.4912 35.745 59.8923C36.0696 60.0938 36.4334 60.2897 36.7636 60.5303L42.3999 64.6386ZM21.7243 51.2672H34.0938C34.1422 50.5294 34.0425 49.7893 33.8004 49.0906C33.5584 48.3919 33.1789 47.7488 32.6844 47.199C32.19 46.6492 31.5905 46.204 30.9212 45.8895C30.252 45.575 29.5266 45.3977 28.7878 45.3679C25.0658 45.1272 21.9874 47.6123 21.7243 51.2672Z" fill="white"/>
</g>
</g>
</g>
</g>
</svg>
