<svg width="16" height="16" viewBox="0 0 16 16" fill="none" xmlns="http://www.w3.org/2000/svg">
<g id="Frame">
<path id="Vector" d="M6.66536 10.9998L8.66536 11.6665C8.66536 11.6665 13.6654 10.6665 14.332 10.6665C14.9987 10.6665 14.9987 11.3332 14.332 11.9998C13.6654 12.6665 11.332 14.6665 9.33203 14.6665C7.33203 14.6665 5.9987 13.6665 4.66536 13.6665C3.33203 13.6665 1.33203 13.6665 1.33203 13.6665" stroke="#262626" stroke-width="1.2" stroke-linecap="round" stroke-linejoin="round"/>
<path id="Vector_2" d="M1.33203 9.66667C1.9987 9 3.33203 8 4.66536 8C5.9987 8 9.16537 9.33333 9.66537 10C10.1654 10.6667 8.66536 11.6667 8.66536 11.6667" stroke="#262626" stroke-width="1.2" stroke-linecap="round" stroke-linejoin="round"/>
<path id="Vector_3" d="M5.33203 5.99984V3.33317C5.33203 2.96498 5.6305 2.6665 5.9987 2.6665H13.9987C14.3669 2.6665 14.6654 2.96498 14.6654 3.33317V8.6665" stroke="#262626" stroke-width="1.2" stroke-linecap="round" stroke-linejoin="round"/>
<path id="Vector_4" d="M11.6654 2.6665H8.33203V5.6665H11.6654V2.6665Z" stroke="#262626" stroke-width="1.2" stroke-linecap="round" stroke-linejoin="round"/>
</g>
</svg>
