<svg width="32" height="32" viewBox="0 0 32 32" fill="none" xmlns="http://www.w3.org/2000/svg">
<g id="icon">
<path id="Vector" d="M12.6667 13.5789C15.244 13.5789 17.3333 11.4896 17.3333 8.91227C17.3333 6.33495 15.244 4.24561 12.6667 4.24561C10.0893 4.24561 8 6.33495 8 8.91227C8 11.4896 10.0893 13.5789 12.6667 13.5789Z" stroke="black" stroke-width="2.2" stroke-linecap="round" stroke-linejoin="round"/>
<path id="Vector_2" d="M21.7393 4.91064C23.0945 5.72724 24.0009 7.21311 24.0009 8.91064C24.0009 10.6082 23.0945 12.094 21.7393 12.9106" stroke="black" stroke-width="2.2" stroke-linecap="round" stroke-linejoin="round"/>
<path id="Vector_3" d="M2.66699 27.444V28.244H22.667V27.444C22.667 24.457 22.667 22.9636 22.0857 21.8227C21.5744 20.8192 20.7585 20.0032 19.7549 19.4919C18.6141 18.9106 17.1206 18.9106 14.1337 18.9106H11.2003C8.21339 18.9106 6.71993 18.9106 5.57905 19.4919C4.57551 20.0032 3.75961 20.8192 3.24829 21.8227C2.66699 22.9636 2.66699 24.457 2.66699 27.444Z" stroke="black" stroke-width="2.2" stroke-linecap="round" stroke-linejoin="round"/>
<path id="Vector_4" d="M29.3339 28.2452V27.4452C29.3339 24.4582 29.3339 22.9648 28.7527 21.8239C28.2413 20.8204 27.4254 20.0045 26.4219 19.4932" stroke="black" stroke-width="2.2" stroke-linecap="round" stroke-linejoin="round"/>
</g>
</svg>
