<svg width="32" height="32" viewBox="0 0 32 32" fill="none" xmlns="http://www.w3.org/2000/svg">
<g id="Frame">
<path id="Vector" d="M16.0001 29.3332C23.3639 29.3332 29.3334 23.3636 29.3334 15.9998C29.3334 8.63604 23.3639 2.6665 16.0001 2.6665C8.63628 2.6665 2.66675 8.63604 2.66675 15.9998C2.66675 23.3636 8.63628 29.3332 16.0001 29.3332Z" stroke="#262626" stroke-width="2" stroke-linejoin="round"/>
<path id="Vector_2" d="M9.33325 18C10.4378 18 11.3333 17.1046 11.3333 16C11.3333 14.8954 10.4378 14 9.33325 14C8.22868 14 7.33325 14.8954 7.33325 16C7.33325 17.1046 8.22868 18 9.33325 18Z" fill="#262626"/>
<path id="Vector_3" d="M16 18C17.1046 18 18 17.1046 18 16C18 14.8954 17.1046 14 16 14C14.8954 14 14 14.8954 14 16C14 17.1046 14.8954 18 16 18Z" fill="#262626"/>
<path id="Vector_4" d="M22.6667 18C23.7713 18 24.6667 17.1046 24.6667 16C24.6667 14.8954 23.7713 14 22.6667 14C21.5622 14 20.6667 14.8954 20.6667 16C20.6667 17.1046 21.5622 18 22.6667 18Z" fill="#262626"/>
</g>
</svg>
