<svg width="32" height="32" viewBox="0 0 32 32" fill="none" xmlns="http://www.w3.org/2000/svg">
<g id="order type=dine in">
<rect id="Rectangle 930" width="32" height="32" rx="5.33" fill="#FF6A01"/>
<g id="Frame" clip-path="url(#clip0_4540_14797)">
<path id="Vector" d="M22.6546 25.8897C22.6527 26.7289 22.4373 27.2615 21.638 27.2602C20.8402 27.2582 20.6656 26.7223 20.6675 25.8828L20.6422 18.8425C20.613 18.8457 17.4129 18.4585 17.6255 15.3814C17.6255 15.3814 18.5415 4.75568 21.9835 4.76417C22.862 4.7661 22.6384 7.09006 22.6384 7.09006L22.6546 25.8897ZM12.9573 10.6355C12.9523 10.6405 12.9573 10.6405 12.9573 10.6355V10.6355Z" fill="white"/>
<path id="Vector_2" d="M15.4582 11.4943C15.4582 9.32469 14.7048 6.81339 14.2527 4.77925V4.76416H13.851L13.8409 10.6355C13.8409 10.9419 13.6952 11.1931 13.3888 11.1931C13.1026 11.1931 12.987 10.9771 12.9569 10.6958C12.9519 10.6757 12.9569 10.6556 12.9569 10.6355L12.4396 4.76418H12.0378L11.5858 10.6405L11.5808 10.6959C11.5506 10.9771 11.3949 11.1931 11.1036 11.1931C10.7972 11.1931 10.6466 10.9419 10.6466 10.6355L10.6264 4.7642H10.2246C9.78268 6.82348 9.0293 9.3297 9.0293 11.4994C9.0293 12.7902 9.76256 13.9153 10.8725 14.4225C11.4351 14.6787 11.4401 14.9399 11.4401 14.9399C11.4401 14.9399 10.6364 25.0703 10.6364 25.6429C10.6364 26.2154 10.8374 26.572 11.1136 26.8483C11.3898 27.1246 11.8268 27.2602 12.2386 27.2602H12.2587C12.6706 27.2602 13.1026 27.1246 13.3838 26.8483C13.6601 26.572 13.851 26.3008 13.851 25.6429C13.851 24.985 13.0473 14.9399 13.0473 14.9399C13.0473 14.9399 12.997 14.6887 13.6198 14.4075C14.7048 13.9153 15.4582 12.7902 15.4582 11.4943Z" fill="white"/>
</g>
</g>
<defs>
<clipPath id="clip0_4540_14797">
<rect width="22.5185" height="22.5185" fill="white" transform="translate(4.74023 4.74097)"/>
</clipPath>
</defs>
</svg>
