<svg width="102" height="102" viewBox="0 0 102 102" fill="none" xmlns="http://www.w3.org/2000/svg">
<g id="Group 89084">
<rect id="Rectangle 7386" width="102" height="102" rx="24" fill="#007CFF"/>
<g id="Frame">
<path id="Vector" d="M28.1573 40.2716C27.4915 40.7376 26.9479 41.3572 26.5723 42.0779C26.1968 42.7986 26.0005 43.5992 26 44.4118V72.1334C26 74.9276 28.265 77.193 31.0588 77.193H71.528C74.3218 77.193 76.5876 74.928 76.5876 72.1334V44.4143C76.5872 43.6013 76.3909 42.8003 76.0154 42.0793C75.6399 41.3582 75.0962 40.7381 74.4303 40.2716L54.1947 26.1075C53.3444 25.5123 52.3315 25.193 51.2936 25.193C50.2557 25.193 49.2429 25.5123 48.3926 26.1075L28.1573 40.2716ZM32.3235 46.8406H42.4407C42.6068 46.8405 42.7712 46.8732 42.9247 46.9367C43.0781 47.0002 43.2175 47.0933 43.335 47.2107C43.4524 47.3281 43.5456 47.4675 43.6091 47.6209C43.6727 47.7744 43.7054 47.9388 43.7054 48.1049V55.6931C43.7053 56.0284 43.572 56.35 43.3348 56.5871C43.0977 56.8242 42.7761 56.9574 42.4407 56.9574H32.3235C31.9882 56.9574 31.6665 56.8242 31.4294 56.5871C31.1922 56.35 31.0589 56.0284 31.0588 55.6931V48.1053C31.0588 47.9392 31.0914 47.7747 31.155 47.6212C31.2185 47.4678 31.3117 47.3283 31.4291 47.2109C31.5466 47.0934 31.686 47.0003 31.8395 46.9367C31.9929 46.8732 32.1574 46.8405 32.3235 46.8406ZM31.0588 63.2813C31.0589 63.1152 31.0916 62.9509 31.1552 62.7975C31.2188 62.6441 31.312 62.5048 31.4294 62.3874C31.5468 62.2701 31.6862 62.177 31.8397 62.1135C31.9931 62.05 32.1575 62.0173 32.3235 62.0174H42.4407C42.6067 62.0173 42.7711 62.05 42.9246 62.1135C43.078 62.177 43.2174 62.2701 43.3348 62.3874C43.4523 62.5048 43.5454 62.6441 43.609 62.7975C43.6726 62.9509 43.7054 63.1152 43.7054 63.2813V70.8695C43.7054 71.0355 43.6727 71.2 43.6091 71.3534C43.5456 71.5068 43.4524 71.6462 43.335 71.7636C43.2175 71.881 43.0781 71.9741 42.9247 72.0377C42.7712 72.1012 42.6068 72.1338 42.4407 72.1338H32.3235C31.9882 72.1338 31.6665 72.0006 31.4294 71.7635C31.1922 71.5264 31.0589 71.2048 31.0588 70.8695V63.2813ZM50.0289 62.017H60.1457C60.3118 62.0169 60.4763 62.0495 60.6297 62.1129C60.7832 62.1764 60.9227 62.2695 61.0402 62.3868C61.1577 62.5042 61.251 62.6436 61.3146 62.797C61.3783 62.9503 61.4111 63.1148 61.4112 63.2809V70.8691C61.411 71.2045 61.2776 71.5262 61.0402 71.7633C60.8029 72.0003 60.4812 72.1335 60.1457 72.1334H50.0289C49.8629 72.1334 49.6984 72.1008 49.545 72.0372C49.3915 71.9737 49.2521 71.8806 49.1347 71.7632C49.0172 71.6458 48.9241 71.5064 48.8605 71.353C48.7969 71.1996 48.7642 71.0351 48.7642 70.8691V63.2813C48.7642 63.1152 48.7969 62.9508 48.8605 62.7974C48.9241 62.6439 49.0172 62.5046 49.1347 62.3871C49.2521 62.2697 49.3915 62.1766 49.545 62.1131C49.6984 62.0496 49.8629 62.0169 50.0289 62.017Z" fill="white"/>
</g>
</g>
</svg>
