<svg width="24" height="24" viewBox="0 0 24 24" fill="none" xmlns="http://www.w3.org/2000/svg">
<g id="Refund">
<g id="Group 88379">
<path id="Union" d="M22.0234 2.64551C23.0304 2.64551 23.8601 3.45526 23.8604 4.4707V19.5303C23.8601 20.5457 23.0304 21.3555 22.0234 21.3555H2.45801C1.45111 21.3554 0.62138 20.5457 0.621094 19.5303V4.4707C0.621338 3.45527 1.45107 2.64554 2.45801 2.64551H22.0234ZM2.12109 19.5303C2.12138 19.7025 2.2647 19.8554 2.45801 19.8555H22.0234C22.2168 19.8555 22.3601 19.7025 22.3604 19.5303V9.12695H2.12109V19.5303ZM8.44531 12.957C8.71166 12.6403 9.18486 12.5992 9.50195 12.8652C9.81899 13.1314 9.85971 13.6046 9.59375 13.9219L8.41602 15.3262H17.6768C18.0906 15.3264 18.4265 15.6623 18.4268 16.0762C18.4268 16.4902 18.0908 16.8259 17.6768 16.8262H6.80664C6.78091 16.8262 6.75553 16.8248 6.73047 16.8223C6.72782 16.822 6.7253 16.8206 6.72266 16.8203C6.68852 16.8165 6.65564 16.809 6.62305 16.8008C6.59759 16.7943 6.57271 16.7865 6.54785 16.7773C6.52549 16.7691 6.50372 16.7603 6.48242 16.75C6.42759 16.7235 6.37399 16.6923 6.3252 16.6514C6.3116 16.64 6.29871 16.6274 6.28613 16.6152C6.281 16.6103 6.2755 16.6057 6.27051 16.6006C6.24624 16.5758 6.22527 16.5487 6.20508 16.5215C6.18937 16.5003 6.17555 16.4779 6.16211 16.4551C6.14933 16.4333 6.13738 16.4114 6.12695 16.3887C6.11817 16.3696 6.1107 16.35 6.10352 16.3301C6.09437 16.3046 6.0864 16.2791 6.08008 16.2529C6.06637 16.1962 6.05664 16.1371 6.05664 16.0762C6.05668 16.0134 6.06648 15.9528 6.08105 15.8945C6.08777 15.8677 6.09669 15.8416 6.10645 15.8154C6.11374 15.7959 6.12104 15.7766 6.12988 15.7578C6.14473 15.7263 6.16014 15.6948 6.17969 15.665C6.18316 15.6598 6.18683 15.6546 6.19043 15.6494C6.20343 15.6307 6.2175 15.6125 6.23242 15.5947L8.44531 12.957ZM2.45801 4.14551C2.26468 4.14554 2.12134 4.29844 2.12109 4.4707V7.62695H22.3604V4.4707C22.3601 4.29842 22.2168 4.14551 22.0234 4.14551H2.45801Z" fill="#262626"/>
</g>
</g>
</svg>
