<svg width="24" height="24" viewBox="0 0 24 24" fill="none" xmlns="http://www.w3.org/2000/svg">
<g id="Frame 89685">
<path id="Union" d="M17.2168 11.7095C20.4812 11.8749 23.077 14.5736 23.0771 17.8784C23.0769 21.2895 20.3112 24.0559 16.8994 24.0562L16.5811 24.0474C13.3169 23.8819 10.721 21.183 10.7207 17.8784C10.7209 14.4671 13.4874 11.7018 16.8994 11.7017L17.2168 11.7095ZM17.9014 0.193848C18.9035 0.19403 19.7167 1.00697 19.7168 2.00928V9.35693C19.7168 9.77096 19.3808 10.1066 18.9668 10.1069C18.5526 10.1069 18.2168 9.77115 18.2168 9.35693V2.00928C18.2167 1.83566 18.0754 1.69403 17.9014 1.69385H2.98828C2.81413 1.69385 2.67298 1.83555 2.67285 2.00928V21.1792C2.67295 21.353 2.81411 21.4937 2.98828 21.4937H8.84668C9.26065 21.4937 9.59635 21.8297 9.59668 22.2437C9.59668 22.6578 9.26085 22.9936 8.84668 22.9937H2.98828C1.98597 22.9937 1.17295 22.1817 1.17285 21.1792V2.00928C1.17298 1.00685 1.98598 0.193848 2.98828 0.193848H17.9014ZM16.8994 13.2017C14.3156 13.2018 12.2209 15.2958 12.2207 17.8784C12.221 20.4609 14.3156 22.5561 16.8994 22.5562C19.4831 22.5559 21.5769 20.4608 21.5771 17.8784C21.577 15.2959 19.4831 13.2019 16.8994 13.2017ZM18.4502 16.1958C18.738 15.8983 19.213 15.8907 19.5107 16.1782C19.8084 16.4661 19.8161 16.941 19.5283 17.2388L16.9688 19.8862C16.6249 20.2415 16.0513 20.2294 15.7227 19.8599L14.3408 18.3052C14.0661 17.9956 14.0939 17.5216 14.4033 17.2466C14.7128 16.9717 15.1867 16.9999 15.4619 17.3091L16.3779 18.3384L18.4502 16.1958ZM10.7314 10.7046C11.1453 10.7048 11.4812 11.0407 11.4814 11.4546C11.4814 11.8687 11.1455 12.2044 10.7314 12.2046H6.49316C6.07905 12.2045 5.74316 11.8687 5.74316 11.4546C5.74337 11.0406 6.07917 10.7047 6.49316 10.7046H10.7314ZM14.1631 6.02295C14.5771 6.02314 14.913 6.35891 14.9131 6.77295C14.9131 7.18704 14.5771 7.52276 14.1631 7.52295H6.49316C6.07905 7.52284 5.74316 7.18709 5.74316 6.77295C5.74323 6.35886 6.07909 6.02306 6.49316 6.02295H14.1631Z" fill="#262626"/>
</g>
</svg>
