<svg width="102" height="102" viewBox="0 0 102 102" fill="none" xmlns="http://www.w3.org/2000/svg">
<g id="Group 89082">
<rect id="Rectangle 7379" width="102" height="102" rx="24" fill="#ED7F1C"/>
<g id="Frame" clip-path="url(#clip0_4401_39585)">
<path id="Vector" d="M42.1038 67.2279C42.7735 67.224 43.4368 67.357 44.0532 67.6188C44.6696 67.8806 45.2259 68.2656 45.6881 68.7502C46.6456 69.7681 47.1825 71.1105 47.1912 72.5079C47.1826 73.9053 46.6456 75.2477 45.6881 76.2656C45.2276 76.7475 44.6795 77.1372 44.0732 77.4142C43.4566 77.6993 42.7976 77.842 42.1077 77.842C41.3754 77.842 40.7009 77.6993 40.0805 77.4141C38.8456 76.8522 37.8761 75.8344 37.3749 74.5737C37.0998 73.9198 36.9596 73.2172 36.9625 72.5079C36.9711 71.1105 37.5081 69.7681 38.4656 68.7502C38.9242 68.2723 39.4599 67.9023 40.0843 67.6325C40.7009 67.3628 41.3754 67.2279 42.1038 67.2279ZM64.8582 67.3435C65.5346 67.3441 66.2042 67.479 66.828 67.7403C67.4519 68.0016 68.0177 68.3842 68.4926 68.8658C69.45 69.8837 69.987 71.2261 69.9957 72.6235C69.987 74.0209 69.45 75.3633 68.4926 76.3812C68.0204 76.8702 67.4562 77.2612 66.8326 77.5317C66.2089 77.8022 65.538 77.9469 64.8582 77.9576C64.1645 77.9576 63.5093 77.815 62.8888 77.5259C61.6533 76.9657 60.6824 75.9492 60.1794 74.6893C59.9057 74.0352 59.7667 73.3326 59.7709 72.6235C59.7795 71.2261 60.3165 69.8837 61.2739 68.8658C61.7365 68.3819 62.293 67.9976 62.9093 67.7365C63.5257 67.4754 64.1889 67.3429 64.8582 67.3473V67.3435ZM74.0463 34.7574C75.0677 34.7574 75.8577 34.9 76.4242 35.189C76.9908 35.4742 77.3878 35.8288 77.6267 36.2489C77.8608 36.6587 77.9744 37.1263 77.9543 37.5978C77.9389 38.0757 77.8772 38.4842 77.7616 38.8311C77.6537 39.178 77.4147 39.8832 77.0525 40.9508C76.6561 42.1261 76.2642 43.3028 75.877 44.4811C75.4569 45.7645 75.0407 47.0364 74.6206 48.2967C74.2005 49.5608 73.8652 50.5552 73.607 51.2797C73.1329 52.8098 72.5432 53.8735 71.834 54.4632C71.1211 55.0567 70.2346 55.3535 69.1748 55.3535H40.462L41.2328 60.5179H68.851C70.6007 60.5179 71.4718 61.3003 71.4718 62.8689C71.4915 63.5649 71.3123 64.2521 70.9553 64.8499C70.6085 65.4049 69.9263 65.6785 68.905 65.6785H40.2461C39.5961 65.703 38.9547 65.5238 38.4116 65.166C37.9093 64.8102 37.4899 64.35 37.1821 63.817C36.847 63.2466 36.5805 62.6386 36.3882 62.0056C36.2004 61.403 36.046 60.7906 35.9257 60.1711C35.8308 59.6164 35.7306 59.0627 35.6251 58.5099C34.8675 54.3027 34.1108 50.0954 33.355 45.8879C32.5813 41.5824 31.7976 37.2787 31.004 32.9768H26.8957C26.4045 32.9966 25.9215 32.8469 25.5275 32.5528C25.1646 32.2668 24.8586 31.9151 24.6257 31.516C24.3891 31.1168 24.2223 30.6802 24.1324 30.2249C24.0479 29.8101 24.004 29.388 24.0013 28.9647C23.9902 28.6156 24.0501 28.2679 24.1773 27.9427C24.3045 27.6174 24.4964 27.3213 24.7413 27.0723C25.2307 26.5714 25.8975 26.3247 26.7377 26.3247H32.2605C32.9928 26.3247 33.5709 26.4403 34.0103 26.6715C34.4458 26.8989 34.7927 27.1841 35.0509 27.531C35.3053 27.874 35.4864 28.2363 35.5981 28.6178C35.7061 29.0033 35.7985 29.327 35.8679 29.5929C35.962 30.0194 36.0353 30.4503 36.0876 30.884C36.1647 31.439 36.2341 32.0017 36.3073 32.5798C36.4152 33.2659 36.527 33.9942 36.6349 34.7574H74.0463ZM69.9456 32.9228H49.9276L57.1462 25.3495C57.9826 24.4708 58.9037 24.0199 59.9058 24.0006C60.9079 23.9814 61.8328 24.413 62.6691 25.2918L69.9456 32.9228Z" fill="white"/>
</g>
</g>
<defs>
<clipPath id="clip0_4401_39585">
<rect width="54" height="54" fill="white" transform="translate(24 24)"/>
</clipPath>
</defs>
</svg>
