<svg width="40" height="30" viewBox="0 0 40 30" fill="none" xmlns="http://www.w3.org/2000/svg">
<path d="M0 4C0 1.79086 1.79086 0 4 0H40V30H4C1.79086 30 0 28.2091 0 26V4Z" fill="#FF403F"/>
<path fill-rule="evenodd" clip-rule="evenodd" d="M21.6068 5.5C22.8317 5.50007 23.8242 6.50776 23.8242 7.75146V8.5968H28.1439C28.932 8.59702 29.6739 8.97479 30.1447 9.61669L33.5073 14.2035C33.8277 14.6406 34 15.1718 34 15.7168V20.3228C34 20.7892 33.6281 21.1681 33.1688 21.1682H31.2114C31.0484 23.0358 29.5059 24.5 27.6241 24.5C25.7418 24.5 24.1991 23.0351 24.0367 21.1668H23.0066C23.0021 21.1669 22.9976 21.1682 22.993 21.1682C22.9886 21.1682 22.984 21.1669 22.9795 21.1668H17.3494C17.1871 23.0351 15.6444 24.5 13.7621 24.5C11.8798 24.5 10.3372 23.0351 10.1748 21.1668H6.83117C6.37183 21.1668 6 20.7892 6 20.3228V7.75146C6 6.50771 6.99245 5.5 8.21737 5.5H21.6068ZM13.7621 18.87C12.6903 18.87 11.8209 19.7528 11.8209 20.841C11.8209 21.9293 12.6903 22.8121 13.7621 22.8121C14.8339 22.8121 15.7033 21.9293 15.7033 20.841C15.7033 19.7528 14.8339 18.87 13.7621 18.87ZM27.6241 18.87C26.5523 18.87 25.6828 19.7528 25.6828 20.841C25.6828 21.9293 26.5523 22.8121 27.6241 22.8121C28.6958 22.8121 29.5653 21.9293 29.5653 20.841C29.5653 19.7528 28.6958 18.87 27.6241 18.87ZM7.66235 19.4789H10.4198C10.9522 18.1332 12.2462 17.1821 13.7621 17.1821C15.2821 17.1821 16.5789 18.1384 17.1085 19.4899C17.1475 19.4842 17.187 19.4789 17.2276 19.4789H22.1619V15.9409H7.66235V19.4789ZM23.8242 19.4789H24.2818C24.8141 18.1332 26.1082 17.1821 27.6241 17.1821C29.1399 17.1821 30.434 18.1332 30.9664 19.4789H32.3377V15.7168C32.3377 15.6886 32.3337 15.6608 32.3309 15.633H26.2636C25.6511 15.633 25.1549 15.1291 25.1549 14.5072V10.2847H23.8242V19.4789ZM8.21737 7.18791C7.91114 7.18791 7.66235 7.44053 7.66235 7.75146V14.2529H22.1619V7.75146C22.1619 7.44057 21.913 7.18798 21.6068 7.18791H8.21737ZM26.8172 13.9451H31.2439L28.8099 10.6256C28.6531 10.4118 28.4064 10.2849 28.1439 10.2847H26.8172V13.9451Z" fill="white"/>
</svg>
