<svg width="102" height="102" viewBox="0 0 102 102" fill="none" xmlns="http://www.w3.org/2000/svg">
<g id="Group 89077">
<rect id="Rectangle 7385" width="102" height="102" rx="24" fill="#22988D"/>
<g id="Frame">
<g id="Group 88422">
<path id="Vector" d="M51.9543 51.8303C56.8186 48.7516 58.9737 42.8405 57.3728 37.2989C55.7719 31.8189 50.7229 28.0013 44.9965 28.0013C39.2702 28.0013 34.2212 31.7573 32.6203 37.2989C31.0194 42.8405 33.236 48.69 38.0387 51.8303C29.6032 54.7858 24 62.7288 24 71.6569C24 72.0879 24.1847 72.5189 24.4926 72.8268C24.8005 73.1347 25.1699 73.2578 25.6009 73.2578H64.3306C64.7699 73.2527 65.1898 73.0759 65.5005 72.7652C65.8112 72.4546 65.988 72.0347 65.9931 71.5953C65.9931 62.7288 60.3899 54.7858 51.9543 51.8303Z" fill="white"/>
<path id="Vector_2" d="M68.764 51.9527C72.5199 49.4281 73.9977 44.6254 72.3968 40.3768C70.7343 36.1283 66.3626 33.6653 61.8677 34.3426C66.1779 40.1921 66.0547 48.1967 61.4983 53.923C66.732 57.1248 70.5496 62.1738 72.2121 68.0849H76.3375C76.7768 68.0798 77.1967 67.903 77.5074 67.5923C77.8181 67.2816 77.9949 66.8617 78 66.4224C77.9384 60.2651 74.3671 54.6003 68.764 51.9527Z" fill="white"/>
</g>
</g>
</g>
</svg>
