<svg width="16" height="16" viewBox="0 0 16 16" fill="none" xmlns="http://www.w3.org/2000/svg">
<g id="Frame">
<path id="Vector" d="M8.00057 6.66667C9.28924 6.66667 10.3339 5.622 10.3339 4.33333C10.3339 3.04467 9.28924 2 8.00057 2C6.7119 2 5.66724 3.04467 5.66724 4.33333C5.66724 5.622 6.7119 6.66667 8.00057 6.66667Z" stroke="#262626" stroke-linecap="round" stroke-linejoin="round"/>
<path id="Vector_2" d="M2 13.6002V14.0002H14V13.6002C14 12.1067 14 11.36 13.7094 10.7895C13.4537 10.2878 13.0457 9.8798 12.544 9.62413C11.9735 9.3335 11.2268 9.3335 9.73333 9.3335H6.26667C4.7732 9.3335 4.02647 9.3335 3.45603 9.62413C2.95426 9.8798 2.54631 10.2878 2.29065 10.7895C2 11.36 2 12.1067 2 13.6002Z" stroke="#262626" stroke-linecap="round" stroke-linejoin="round"/>
</g>
</svg>
