<svg width="16" height="16" viewBox="0 0 16 16" fill="none" xmlns="http://www.w3.org/2000/svg">
<g id="Frame">
<path id="Vector" d="M8.00023 3.87316C8.69786 3.87316 9.26339 3.30465 9.26339 2.60334C9.26339 1.90202 8.69786 1.3335 8.00023 1.3335C7.30259 1.3335 6.73706 1.90202 6.73706 2.60334C6.73706 3.30465 7.30259 3.87316 8.00023 3.87316Z" stroke="#262626" stroke-width="1.2" stroke-linejoin="round"/>
<path id="Vector_2" d="M3.26316 13.3966C3.96077 13.3966 4.5263 12.8281 4.5263 12.1268C4.5263 11.4255 3.96077 10.8569 3.26316 10.8569C2.56554 10.8569 2 11.4255 2 12.1268C2 12.8281 2.56554 13.3966 3.26316 13.3966Z" stroke="#262626" stroke-width="1.2" stroke-linejoin="round"/>
<path id="Vector_3" d="M12.7368 13.3966C13.4344 13.3966 13.9999 12.8281 13.9999 12.1268C13.9999 11.4255 13.4344 10.8569 12.7368 10.8569C12.0392 10.8569 11.4736 11.4255 11.4736 12.1268C11.4736 12.8281 12.0392 13.3966 12.7368 13.3966Z" stroke="#262626" stroke-width="1.2" stroke-linejoin="round"/>
<path id="Vector_4" d="M11.0476 3.43799C12.8147 4.48755 14 6.42206 14 8.63486C14 8.82712 13.9911 9.01732 13.9736 9.20499" stroke="#262626" stroke-width="1.2" stroke-linecap="round" stroke-linejoin="round"/>
<path id="Vector_5" d="M10.338 14.1919C9.61951 14.4978 8.82944 14.6669 8.00004 14.6669C7.17068 14.6669 6.38061 14.4978 5.66211 14.1919" stroke="#262626" stroke-width="1.2" stroke-linecap="round" stroke-linejoin="round"/>
<path id="Vector_6" d="M2.02645 9.20499C2.00895 9.01732 2 8.82712 2 8.63486C2 6.42206 3.1853 4.48755 4.95243 3.43799" stroke="#262626" stroke-width="1.2" stroke-linecap="round" stroke-linejoin="round"/>
</g>
</svg>
