<svg width="16" height="16" viewBox="0 0 16 16" fill="none" xmlns="http://www.w3.org/2000/svg">
<g id="Frame">
<path id="Vector" d="M8.00033 6.66667C9.28899 6.66667 10.3337 5.622 10.3337 4.33333C10.3337 3.04467 9.28899 2 8.00033 2C6.71166 2 5.66699 3.04467 5.66699 4.33333C5.66699 5.622 6.71166 6.66667 8.00033 6.66667Z" stroke="#262626" stroke-width="1.2" stroke-linecap="round" stroke-linejoin="round"/>
<path id="Vector_2" d="M4 2.41846C3.3955 2.84011 3 3.54063 3 4.33356C3 5.18233 3.4532 5.92526 4.1308 6.33356" stroke="#262626" stroke-width="1.2" stroke-linecap="round" stroke-linejoin="round"/>
<path id="Vector_3" d="M12 2.41846C12.6045 2.84011 13 3.54063 13 4.33356C13 5.12646 12.6045 5.82703 12 6.24866" stroke="#262626" stroke-width="1.2" stroke-linecap="round" stroke-linejoin="round"/>
<path id="Vector_4" d="M4 13.3335V14.0002H12V13.3335C12 12.091 12 11.4697 11.797 10.9797C11.5264 10.3263 11.0072 9.80713 10.3538 9.5365C9.86377 9.3335 9.2425 9.3335 8 9.3335C6.7575 9.3335 6.13623 9.3335 5.64617 9.5365C4.99277 9.80713 4.47363 10.3263 4.203 10.9797C4 11.4697 4 12.091 4 13.3335Z" stroke="#262626" stroke-width="1.2" stroke-linecap="round" stroke-linejoin="round"/>
<path id="Vector_5" d="M14.667 14V13.6C14.667 12.1066 14.667 11.3598 14.3763 10.7894C14.1207 10.2876 13.7127 9.87969 13.2109 9.62402" stroke="#262626" stroke-width="1.2" stroke-linecap="round" stroke-linejoin="round"/>
<path id="Vector_6" d="M1.33301 14V13.6C1.33301 12.1066 1.33301 11.3598 1.62366 10.7894C1.87932 10.2876 2.28727 9.87969 2.78903 9.62402" stroke="#262626" stroke-width="1.2" stroke-linecap="round" stroke-linejoin="round"/>
</g>
</svg>
