<svg width="32" height="32" viewBox="0 0 32 32" fill="none" xmlns="http://www.w3.org/2000/svg">
<g id="Frame 89499">
<g id="Union">
<path fill-rule="evenodd" clip-rule="evenodd" d="M12.3522 12.7913H31.8276C32.4751 12.7913 33 13.3147 33 13.9604C33 14.606 32.4751 15.1294 31.8276 15.1294H29.0431V26.0324C29.043 26.7154 28.8728 27.3581 28.576 27.9242L31.6513 30.7921L30.851 31.6449L30.0506 32.5L26.9433 29.6013C26.3505 29.933 25.6678 30.1242 24.9397 30.1242H7.06034C4.79422 30.1242 2.95714 28.292 2.9569 26.0324V15.1294H0.172414C-0.475063 15.1294 -0.999952 14.606 -1 13.9604C-1 13.3147 -0.475092 12.7913 0.172414 12.7913H8.91972L0.738012 5.16033L2.34092 3.45353L12.3522 12.7913ZM5.30172 26.0324C5.30196 27.0007 6.08923 27.786 7.06034 27.786H24.9397C24.9577 27.786 24.9756 27.7831 24.9935 27.7826L11.426 15.1294H5.30172V26.0324ZM26.6914 26.1649C26.6947 26.1211 26.6983 26.077 26.6983 26.0324V15.1294H14.8585L26.6914 26.1649Z" fill="#262626"/>
<path d="M11.2657 1.17361C11.7235 0.717127 12.4657 0.717274 12.9236 1.17361C13.3814 1.63016 13.3814 2.37021 12.9236 2.82675C12.9236 2.82675 12.9177 2.83427 12.9087 2.84502C12.8982 2.85748 12.8836 2.87509 12.8675 2.89753C12.8349 2.94279 12.7966 3.00305 12.7564 3.07678C12.675 3.22629 12.5963 3.4138 12.5446 3.62136C12.4422 4.03255 12.4514 4.47888 12.682 4.91145C12.7814 5.09797 12.8764 5.26683 12.9682 5.42977C13.0575 5.58816 13.1499 5.7517 13.2327 5.90699C13.3979 6.21706 13.5683 6.57413 13.6598 6.98815C13.8558 7.87628 13.628 8.72933 13.1709 9.78297C12.9136 10.375 12.2238 10.6475 11.6298 10.3915C11.0355 10.1351 10.7625 9.44622 11.0195 8.85365C11.4279 7.91222 11.4014 7.6334 11.3699 7.49049C11.3474 7.38902 11.2963 7.25502 11.1626 7.00414C11.096 6.87905 11.0198 6.74406 10.9245 6.57487C10.8316 6.41002 10.7251 6.22098 10.6119 6.0086C10.0506 4.95537 10.0614 3.89323 10.2696 3.05737C10.4695 2.25511 10.8739 1.56441 11.2657 1.17361Z" fill="#262626"/>
<path d="M17.9384 -0.157586C18.3962 -0.614138 19.1395 -0.614138 19.5974 -0.157586C20.0548 0.298889 20.0548 1.0391 19.5974 1.49556C19.5939 1.49949 19.5764 1.51916 19.5482 1.55949C19.5143 1.60795 19.4726 1.67464 19.4291 1.757C19.3414 1.92316 19.2562 2.1327 19.2001 2.36209C19.0867 2.82596 19.1089 3.28375 19.3363 3.67844C19.8737 4.61037 20.4515 5.57501 20.6301 6.58742C20.832 7.73235 20.5228 8.79901 19.7428 9.96564C19.3836 10.5028 18.6557 10.648 18.117 10.2899C17.5787 9.93161 17.4328 9.20573 17.7918 8.6687C18.346 7.83977 18.3887 7.37658 18.3208 6.99158C18.2293 6.47404 17.9161 5.90756 17.3029 4.84409C16.6896 3.78008 16.7133 2.66357 16.9228 1.80724C17.124 0.98516 17.5338 0.245948 17.9384 -0.157586Z" fill="#262626"/>
<path fill-rule="evenodd" clip-rule="evenodd" d="M12.3522 12.7913H31.8276C32.4751 12.7913 33 13.3147 33 13.9604C33 14.606 32.4751 15.1294 31.8276 15.1294H29.0431V26.0324C29.043 26.7154 28.8728 27.3581 28.576 27.9242L31.6513 30.7921L30.851 31.6449L30.0506 32.5L26.9433 29.6013C26.3505 29.933 25.6678 30.1242 24.9397 30.1242H7.06034C4.79422 30.1242 2.95714 28.292 2.9569 26.0324V15.1294H0.172414C-0.475063 15.1294 -0.999952 14.606 -1 13.9604C-1 13.3147 -0.475092 12.7913 0.172414 12.7913H8.91972L0.738012 5.16033L2.34092 3.45353L12.3522 12.7913ZM5.30172 26.0324C5.30196 27.0007 6.08923 27.786 7.06034 27.786H24.9397C24.9577 27.786 24.9756 27.7831 24.9935 27.7826L11.426 15.1294H5.30172V26.0324ZM26.6914 26.1649C26.6947 26.1211 26.6983 26.077 26.6983 26.0324V15.1294H14.8585L26.6914 26.1649Z" stroke="#262626" stroke-width="0.5"/>
<path d="M11.2657 1.17361C11.7235 0.717127 12.4657 0.717274 12.9236 1.17361C13.3814 1.63016 13.3814 2.37021 12.9236 2.82675C12.9236 2.82675 12.9177 2.83427 12.9087 2.84502C12.8982 2.85748 12.8836 2.87509 12.8675 2.89753C12.8349 2.94279 12.7966 3.00305 12.7564 3.07678C12.675 3.22629 12.5963 3.4138 12.5446 3.62136C12.4422 4.03255 12.4514 4.47888 12.682 4.91145C12.7814 5.09797 12.8764 5.26683 12.9682 5.42977C13.0575 5.58816 13.1499 5.7517 13.2327 5.90699C13.3979 6.21706 13.5683 6.57413 13.6598 6.98815C13.8558 7.87628 13.628 8.72933 13.1709 9.78297C12.9136 10.375 12.2238 10.6475 11.6298 10.3915C11.0355 10.1351 10.7625 9.44622 11.0195 8.85365C11.4279 7.91222 11.4014 7.6334 11.3699 7.49049C11.3474 7.38902 11.2963 7.25502 11.1626 7.00414C11.096 6.87905 11.0198 6.74406 10.9245 6.57487C10.8316 6.41002 10.7251 6.22098 10.6119 6.0086C10.0506 4.95537 10.0614 3.89323 10.2696 3.05737C10.4695 2.25511 10.8739 1.56441 11.2657 1.17361Z" stroke="#262626" stroke-width="0.5"/>
<path d="M17.9384 -0.157586C18.3962 -0.614138 19.1395 -0.614138 19.5974 -0.157586C20.0548 0.298889 20.0548 1.0391 19.5974 1.49556C19.5939 1.49949 19.5764 1.51916 19.5482 1.55949C19.5143 1.60795 19.4726 1.67464 19.4291 1.757C19.3414 1.92316 19.2562 2.1327 19.2001 2.36209C19.0867 2.82596 19.1089 3.28375 19.3363 3.67844C19.8737 4.61037 20.4515 5.57501 20.6301 6.58742C20.832 7.73235 20.5228 8.79901 19.7428 9.96564C19.3836 10.5028 18.6557 10.648 18.117 10.2899C17.5787 9.93161 17.4328 9.20573 17.7918 8.6687C18.346 7.83977 18.3887 7.37658 18.3208 6.99158C18.2293 6.47404 17.9161 5.90756 17.3029 4.84409C16.6896 3.78008 16.7133 2.66357 16.9228 1.80724C17.124 0.98516 17.5338 0.245948 17.9384 -0.157586Z" stroke="#262626" stroke-width="0.5"/>
</g>
</g>
</svg>
