<svg width="32" height="32" viewBox="0 0 32 32" fill="none" xmlns="http://www.w3.org/2000/svg">
<g id="details">
<g id="Group 88278">
<path id="Vector" d="M26.3505 25.391L23.3815 22.422C24.0412 21.4323 24.4536 20.2776 24.4536 19.0405C24.4536 15.824 21.8144 13.2673 18.6804 13.2673C15.5464 13.2673 12.9072 15.9065 12.9072 19.0405C12.9072 22.257 15.5464 24.8137 18.6804 24.8137C19.9175 24.8137 21.0722 24.4838 22.0619 23.7416L25.0309 26.7106C25.1959 26.8756 25.4433 26.9581 25.6907 26.9581C25.9382 26.9581 26.1856 26.8756 26.3505 26.7106C26.5155 26.5457 26.5979 26.2983 26.5979 26.0508C26.5979 25.8034 26.5155 25.556 26.3505 25.391ZM18.5979 22.9168C16.4536 22.9168 14.7217 21.1849 14.7217 19.0405C14.7217 16.8962 16.4536 15.1642 18.5979 15.1642C20.7423 15.1642 22.4742 16.8962 22.4742 19.0405C22.4742 21.1849 20.7423 22.9168 18.5979 22.9168Z" fill="#262626"/>
<path id="Vector_2" d="M26.1031 3.61621H5.81443C4.82474 3.61621 4 4.44095 4 5.43064V26.4616C4 27.4513 4.82474 28.276 5.81443 28.276H21.2371C21.8144 28.276 22.2268 27.8636 22.2268 27.2863C22.2268 26.709 21.8144 26.2966 21.2371 26.2966H5.97938V5.59559H26.0206V21.6781C26.0206 22.2554 26.433 22.6678 27.0103 22.6678C27.5876 22.6678 28 22.2554 28 21.6781V5.43064C27.9175 4.44095 27.0928 3.61621 26.1031 3.61621Z" fill="#262626"/>
<path id="Vector_3" d="M9.36078 10.2147H22.5567C23.134 10.2147 23.5464 9.80236 23.5464 9.22504C23.5464 8.64772 23.134 8.23535 22.5567 8.23535H9.36078C8.78347 8.23535 8.37109 8.64772 8.37109 9.22504C8.37109 9.71989 8.78347 10.2147 9.36078 10.2147ZM11.1752 13.4312H9.36078C8.78347 13.4312 8.37109 13.8436 8.37109 14.4209C8.37109 14.9982 8.78347 15.4106 9.36078 15.4106H11.1752C11.7525 15.4106 12.1649 14.9982 12.1649 14.4209C12.1649 13.8436 11.6701 13.4312 11.1752 13.4312Z" fill="#262626"/>
</g>
</g>
</svg>
