<svg width="102" height="102" viewBox="0 0 102 102" fill="none" xmlns="http://www.w3.org/2000/svg">
<g id="Group 89078">
<rect id="Rectangle 7384" width="102" height="102" rx="24" fill="#5841D7"/>
<g id="Frame" clip-path="url(#clip0_4401_39580)">
<path id="Vector" d="M50.8858 32.0017C59.9438 32.0017 67.26 39.3178 67.26 48.3759C67.26 48.9565 67.26 49.5372 67.1438 50.1178C65.2858 50.9307 63.3116 51.6275 61.2213 52.2081C59.3632 52.6726 57.389 52.9049 55.2987 53.1372C54.8342 52.2081 53.789 51.6275 52.7438 51.6275H49.4922C47.8664 51.6275 46.589 52.9049 46.589 54.5307C46.589 56.1565 47.8664 57.4339 49.4922 57.4339H52.7438C53.9051 57.4339 54.9503 56.7372 55.4148 55.692C57.6213 55.4597 59.7116 55.2275 61.8019 54.763C63.4277 54.4146 65.0535 53.9501 66.5632 53.2533C64.4729 59.9888 58.318 64.7501 50.8858 64.7501C41.8277 64.7501 34.5116 57.4339 34.5116 48.3759C34.5116 39.3178 41.8277 32.0017 50.8858 32.0017ZM51.118 24.6855C44.4987 24.6855 38.6922 27.3565 34.2793 31.6533C31.4922 34.4404 29.4019 37.8081 28.3568 41.6404H27.4277C25.4535 41.6404 23.9438 43.2662 23.9438 45.1243V50.5823C23.9438 52.5565 25.5697 54.0662 27.4277 54.0662H31.9568V42.1049C33.0019 39.0855 34.6277 36.4146 36.8342 34.3243C40.4342 30.7243 45.4277 28.4017 51.0019 28.4017C56.5761 28.4017 61.5697 30.6081 65.1697 34.3243C67.26 36.4146 68.8858 38.9694 69.9309 41.7565V54.1823H74.46C76.4342 54.1823 77.9438 52.5565 77.9438 50.6985V45.2404C77.9438 43.2662 76.318 41.7565 74.46 41.7565H73.7632C72.6019 37.9243 70.5116 34.5565 67.8406 31.7694C63.5438 27.3565 57.6213 24.6855 51.118 24.6855Z" fill="white"/>
<path id="Vector_2" d="M63.2311 64.4434C60.0109 67.3808 55.8054 69.0026 51.4467 68.9878C47.0873 69.0031 42.8809 67.3813 39.6602 64.4434C34.13 67.2507 30.51 72.2025 30.51 78.9295H72.51C72.51 72.1793 68.8246 67.2296 63.2311 64.4434Z" fill="white"/>
</g>
</g>
<defs>
<clipPath id="clip0_4401_39580">
<rect width="54" height="54" fill="white" transform="translate(24 24)"/>
</clipPath>
</defs>
</svg>
