<svg width="102" height="102" viewBox="0 0 102 102" fill="none" xmlns="http://www.w3.org/2000/svg">
<g id="Group 89071">
<rect id="Rectangle 7380" width="102" height="102" rx="24" fill="#22988D"/>
<path id="Subtract" d="M58.8296 24C58.8296 24.6749 58.9645 25.2148 58.8296 25.8896C58.5596 27.6446 57.7494 29.1297 56.6694 30.3447C55.8596 31.0196 55.0499 31.6946 53.9702 32.0996C51.9453 32.7746 49.6502 32.7749 47.7603 31.8301L46.9497 31.4248C46.5448 31.1549 46.1398 31.0201 45.7349 30.6152C44.3849 29.2652 43.4402 27.3746 43.3052 25.3496V24H58.8296ZM51.2954 41.1514C50.9641 41.1514 50.9315 41.1546 50.8931 41.1846C50.8696 41.203 50.8271 41.2188 50.8003 41.2188C50.7717 41.2188 50.7212 41.2333 50.686 41.25C50.6525 41.2667 50.6072 41.2853 50.5854 41.292C50.5501 41.3005 50.4817 41.338 50.3647 41.4082C50.3111 41.4401 50.2013 41.5239 50.146 41.5742C50.1198 41.5987 50.0922 41.6203 50.0864 41.6211C50.0713 41.6211 49.8633 41.8746 49.813 41.9551C49.7877 41.9956 49.7157 42.1259 49.6538 42.248C49.5901 42.3688 49.5125 42.5183 49.479 42.582C49.4002 42.7262 49.3329 42.8484 49.1821 43.1299C49.115 43.254 49.0415 43.3907 49.0181 43.4326C48.9962 43.4747 48.9355 43.5865 48.8853 43.6836C48.8333 43.7809 48.7865 43.8669 48.7798 43.877C48.7727 43.886 48.7276 43.9697 48.6792 44.0615C48.6306 44.1537 48.5718 44.2628 48.5483 44.3047C48.5248 44.3468 48.4638 44.4586 48.4136 44.5557C48.3633 44.6529 48.3168 44.739 48.3101 44.749C48.3029 44.7583 48.2578 44.8419 48.2095 44.9336C48.1609 45.0256 48.1034 45.1322 48.0815 45.1709C48.0598 45.211 48.0233 45.2749 48.0015 45.3135C47.9797 45.3537 47.9222 45.4615 47.8735 45.5537C47.8249 45.6459 47.7797 45.7282 47.7729 45.7383C47.7657 45.7478 47.7193 45.8343 47.6694 45.9307C47.6191 46.0279 47.5581 46.1407 47.5347 46.1826C47.5111 46.2246 47.4533 46.3337 47.4048 46.4258C47.3561 46.518 47.3099 46.6003 47.3032 46.6104C47.2959 46.6201 47.2492 46.7064 47.1978 46.8027C47.1475 46.8998 47.0878 47.0126 47.0659 47.0547C47.0424 47.0966 46.968 47.2323 46.9009 47.3564C46.8338 47.4805 46.7534 47.6297 46.7231 47.6885C46.6913 47.7455 46.6408 47.8397 46.6089 47.8984C46.5786 47.9556 46.4981 48.1046 46.4312 48.2285C46.3642 48.3524 46.2907 48.4881 46.2671 48.5303C46.2453 48.5722 46.1846 48.685 46.1343 48.7822C46.0827 48.8788 46.036 48.9636 46.0288 48.9746C46.0221 48.983 45.9768 49.067 45.9282 49.1592C45.8797 49.2513 45.8209 49.3603 45.7974 49.4023C45.7739 49.4443 45.7139 49.557 45.6636 49.6543C45.6133 49.7516 45.5658 49.8376 45.5591 49.8477C45.5512 49.8583 45.5063 49.9406 45.4585 50.0312C45.4099 50.1234 45.3512 50.2324 45.3276 50.2744C45.2689 50.3801 45.2087 50.4928 45.1147 50.6689C45.0712 50.7511 45.0297 50.8269 45.0229 50.8369C45.0161 50.8456 44.9687 50.9322 44.9185 51.0293C44.8681 51.1266 44.8081 51.2393 44.7847 51.2812C44.7612 51.3232 44.7024 51.4322 44.6538 51.5244C44.6052 51.6166 44.5599 51.6989 44.5532 51.709C44.5463 51.7179 44.4995 51.8046 44.4478 51.9014C44.1979 52.376 44.1775 52.4029 44.0366 52.418C43.993 52.4213 43.949 52.433 43.939 52.4414C43.927 52.4498 43.8724 52.4671 43.814 52.4805C43.7117 52.5023 43.6002 52.5356 43.4878 52.5742C43.4608 52.5843 43.4007 52.6026 43.354 52.6143C43.3087 52.626 43.2515 52.6433 43.228 52.6533C43.204 52.6635 43.1071 52.6955 43.0103 52.7256C42.913 52.7558 42.827 52.7843 42.8169 52.791C42.8076 52.7978 42.7699 52.8105 42.7339 52.8203C42.6517 52.8421 42.3208 52.9602 42.2319 52.9971C42.1977 53.0118 42.165 53.0247 42.1587 53.0254C42.1503 53.0254 41.7824 53.1682 41.7271 53.1934C41.7082 53.2019 41.6363 53.2314 41.5679 53.2598C41.4993 53.2882 41.4274 53.3187 41.4087 53.3271C41.3902 53.3355 41.284 53.3811 41.1733 53.4297C40.9604 53.5219 40.6157 53.6832 40.4614 53.7637C40.1696 53.9129 39.859 54.0738 39.812 54.1006C39.7818 54.119 39.7284 54.1478 39.6948 54.168C39.4987 54.2769 39.031 54.5665 38.8647 54.6807C38.7927 54.7292 38.6717 54.8113 38.5962 54.8633C38.4469 54.9639 38.0225 55.2832 37.9487 55.3486C37.9233 55.369 37.8159 55.4611 37.7104 55.5498C37.4605 55.7629 36.9088 56.3157 36.6958 56.5723C36.2262 57.1324 35.8668 57.7199 35.6304 58.3086C35.6104 58.3586 35.5877 58.4187 35.5776 58.4424C35.5005 58.6336 35.3609 59.1537 35.3374 59.3398C35.3173 59.5042 35.2919 59.6335 35.2769 59.6436C35.257 59.6606 35.257 60.6768 35.2769 60.6963C35.2919 60.7063 35.3173 60.8357 35.3374 61C35.3609 61.1862 35.5005 61.7063 35.5776 61.8975C35.5877 61.921 35.6103 61.9812 35.6304 62.0312C35.7142 62.2374 35.8654 62.5496 35.9761 62.7441C36.1824 63.1014 36.4124 63.4305 36.6958 63.7676C36.8904 64.0007 37.4571 64.5805 37.6216 64.7148C37.6836 64.7651 37.7726 64.8406 37.8179 64.8809C37.8648 64.9211 37.9235 64.9713 37.9487 64.9932C38.0175 65.0519 38.4434 65.3721 38.5659 65.4561C38.6263 65.498 38.7353 65.572 38.8091 65.624C38.9802 65.7414 39.4919 66.0588 39.6948 66.1729C39.7284 66.1929 39.7819 66.2209 39.812 66.2393C39.859 66.2661 40.1679 66.4269 40.4614 66.5762C40.5118 66.603 40.629 66.6586 40.7212 66.7021C40.8132 66.744 40.9064 66.7899 40.9302 66.8018C40.9536 66.8152 41.0628 66.8633 41.1733 66.9102C41.284 66.9588 41.3902 67.0043 41.4087 67.0127C41.4273 67.0211 41.4992 67.0516 41.5679 67.0801C41.6366 67.1086 41.7174 67.1438 41.7476 67.1572C41.776 67.1706 41.8093 67.1806 41.8228 67.1807C41.8361 67.1807 41.8527 67.187 41.8628 67.1953C41.8829 67.2138 42.3212 67.3779 42.6499 67.4902C42.742 67.5221 42.8806 67.5698 42.9595 67.5967C43.1171 67.652 43.2573 67.6956 43.4468 67.751C43.5154 67.7711 43.6023 67.7971 43.6392 67.8105C43.676 67.8223 43.7814 67.8525 43.8735 67.876C43.9657 67.9011 44.0867 67.9354 44.1421 67.9521C44.2746 67.9941 45.0164 68.1737 45.2495 68.2207C45.3516 68.2408 45.477 68.2688 45.5308 68.2822C45.643 68.309 46.291 68.4331 46.4312 68.4551C46.4814 68.4618 46.5922 68.48 46.6743 68.4951C47.4022 68.6209 48.6035 68.7531 49.3599 68.79C49.5543 68.8001 49.7723 68.8171 49.8462 68.8271C50.0307 68.8557 52.4914 68.8557 52.6792 68.8271C52.7533 68.8171 52.9729 68.8001 53.1655 68.79C53.8045 68.7598 54.6835 68.6676 55.522 68.5469C55.928 68.4865 56.7729 68.3339 56.9976 68.2803C57.0479 68.2669 57.1734 68.2408 57.2739 68.2207C57.5138 68.1721 58.2522 67.9924 58.3813 67.9521C58.4367 67.9354 58.5577 67.9011 58.6499 67.876C58.742 67.8525 58.8474 67.8223 58.8843 67.8105C58.9212 67.7971 59.0089 67.7711 59.0776 67.751C59.267 67.6957 59.4064 67.652 59.564 67.5967C59.6428 67.5698 59.7814 67.5221 59.8735 67.4902C60.2023 67.3779 60.6405 67.2138 60.6606 67.1953C60.6707 67.187 60.6874 67.1807 60.7007 67.1807C60.714 67.1807 60.7474 67.1706 60.7759 67.1572C60.806 67.1438 60.8868 67.1086 60.9556 67.0801C61.0242 67.0516 61.1044 67.0157 61.1313 67.0039C61.1599 66.9922 61.2311 66.9627 61.2915 66.9375C61.3519 66.9123 61.4572 66.8648 61.5259 66.833C62.0255 66.5983 61.9456 66.6385 62.4067 66.4004C62.5441 66.3283 62.6813 66.256 62.7114 66.2393C62.7416 66.2208 62.7954 66.193 62.8306 66.1729C63.0251 66.0639 63.4929 65.7733 63.6606 65.6592C63.7311 65.6105 63.8521 65.5286 63.9292 65.4766C64.0766 65.3761 64.5 65.0582 64.5747 64.9922C64.5999 64.9721 64.7073 64.8789 64.813 64.79C65.0629 64.5769 65.6146 64.0242 65.8276 63.7676C66.2486 63.2645 66.5987 62.7107 66.8218 62.1992C66.8402 62.1574 66.871 62.0873 66.8911 62.042C66.9096 61.9967 66.9263 61.9527 66.9263 61.9443C66.9263 61.9342 66.9364 61.9043 66.9497 61.876C67.0034 61.7535 67.079 61.4948 67.1528 61.1846C67.2484 60.7887 67.3001 59.8848 67.228 59.8848C67.2213 59.8852 67.2065 59.9407 67.1948 60.0059C67.1076 60.5725 66.8744 61.1593 66.5073 61.7461C66.4201 61.8853 66.1083 62.3101 66.021 62.4092C65.9958 62.436 65.9384 62.5014 65.8931 62.5518C65.7873 62.6709 65.369 63.0892 65.2495 63.1953C65.0886 63.3378 65.0597 63.3634 64.9224 63.4756C64.7447 63.6231 64.4211 63.8612 64.2349 63.9854C64.1531 64.0404 64.0803 64.0886 64.0747 64.0957C64.0512 64.1209 63.4446 64.4907 63.2534 64.5947C63.193 64.6283 63.0988 64.6798 63.0435 64.71C62.9491 64.7622 62.1985 65.137 62.1216 65.168C62.1031 65.1764 62.0302 65.2084 61.9614 65.2402C61.6644 65.3761 61.0595 65.6156 60.6538 65.7598C58.6949 66.4541 56.454 66.9142 54.1714 67.0869C53.987 67.102 53.7889 67.117 53.7319 67.1221C53.4013 67.1506 52.4241 67.1807 51.7651 67.1807C49.9136 67.1807 48.2173 67.0346 46.5737 66.7344C46.3994 66.7025 46.2183 66.6685 46.1714 66.6602C45.8994 66.6114 45.0629 66.422 44.7544 66.3398C44.6856 66.3214 44.5416 66.2834 44.436 66.2549C43.6931 66.062 42.3984 65.6206 41.8784 65.3857C41.86 65.3774 41.7123 65.3133 41.5513 65.2412C41.2712 65.1188 40.6611 64.8237 40.52 64.7432C40.4831 64.7214 40.3889 64.6699 40.3101 64.6279C40.0635 64.4971 39.5667 64.1931 39.2866 64.002C39.0953 63.871 38.6321 63.5229 38.5093 63.417C38.0347 63.0095 37.8058 62.7833 37.4302 62.3457C37.0043 61.8494 36.6158 61.1462 36.4263 60.5342C36.3022 60.1268 36.243 59.7375 36.2446 59.3066C36.2446 58.3558 36.5815 57.4178 37.2388 56.5391C37.3713 56.3613 37.5645 56.1246 37.6567 56.0273C37.967 55.7037 38.2173 55.4636 38.4487 55.2725C38.5174 55.2138 38.6015 55.1457 38.6333 55.1172C38.7038 55.0568 39.0853 54.7732 39.228 54.6758C39.4652 54.5132 39.6074 54.4191 39.6187 54.417C39.6237 54.417 39.6529 54.3985 39.6831 54.375C39.7131 54.3517 39.7416 54.334 39.7466 54.334C39.7503 54.3338 39.8159 54.2949 39.8911 54.248C40.0301 54.1626 40.0555 54.1477 40.2349 54.0488C40.2902 54.0186 40.3877 53.9649 40.4497 53.9297C40.6227 53.8323 41.2757 53.5123 41.5425 53.3965C41.6712 53.3397 41.792 53.286 41.811 53.2773C41.9149 53.2304 42.5649 52.975 42.5825 52.9746C42.5892 52.9746 42.6175 52.9646 42.646 52.9512C42.7584 52.8992 43.5788 52.6276 43.7817 52.5723C43.8421 52.5572 43.9076 52.5357 43.9243 52.5273C43.9427 52.5173 43.9893 52.5038 44.0278 52.4971C44.0863 52.4887 44.1024 52.4902 44.1108 52.5117C44.1175 52.5268 44.1106 52.5526 44.0972 52.5693C44.0821 52.5844 44.0315 52.6734 43.9829 52.7656C43.9344 52.8575 43.8744 52.9694 43.8491 53.0166C43.824 53.0619 43.7482 53.2031 43.6812 53.3271C43.6142 53.4509 43.5408 53.5866 43.5171 53.6289C43.4953 53.6708 43.4346 53.7836 43.3843 53.8809C43.3329 53.9771 43.2863 54.0617 43.2788 54.0732C43.2721 54.0816 43.2268 54.1657 43.1782 54.2578C43.1297 54.3498 43.071 54.4588 43.0474 54.501C43.0239 54.5429 42.9629 54.6557 42.9126 54.7529C42.8628 54.8491 42.8165 54.9339 42.8091 54.9453C42.8024 54.9537 42.7571 55.0378 42.7085 55.1299C42.66 55.2219 42.6012 55.3309 42.5776 55.373C42.5542 55.415 42.5024 55.513 42.4604 55.5918L42.1519 56.1621C42.1099 56.2409 42.0571 56.338 42.0337 56.3799C42.0101 56.4221 41.9523 56.5311 41.9038 56.623C41.8552 56.7153 41.809 56.7976 41.8022 56.8076C41.7945 56.818 41.7483 56.9042 41.6987 57C41.6484 57.0973 41.5912 57.2035 41.5728 57.2354C41.5541 57.2677 41.4954 57.3766 41.4419 57.4785C41.3883 57.579 41.3402 57.6696 41.3335 57.6797C41.3268 57.6881 41.279 57.7748 41.2271 57.8721C41.1767 57.9693 41.117 58.0821 41.0952 58.124C41.0717 58.166 40.9973 58.3017 40.9302 58.4258C40.8631 58.5498 40.7883 58.6894 40.7632 58.7363C40.7028 58.8471 40.5738 59.1053 40.5386 59.1875C40.5235 59.2229 40.4907 59.34 40.4673 59.4473C40.4304 59.6148 40.4254 59.6705 40.4321 59.8516C40.4506 60.3764 40.6425 60.7633 41.0718 61.1523C41.2194 61.2848 41.5279 61.4377 41.7778 61.498C41.9959 61.5517 42.3528 61.5517 42.5708 61.498C42.7301 61.4595 42.7858 61.44 42.9351 61.3662C43.1899 61.2438 43.381 61.0855 43.5571 60.8574C43.661 60.7234 43.6711 60.7066 43.7817 60.4971C43.8304 60.4048 43.8756 60.3209 43.8823 60.3125C43.8891 60.3024 43.9359 60.2171 43.9878 60.1201C44.0381 60.0228 44.0988 59.9101 44.1206 59.8682C44.1441 59.8263 44.2176 59.6905 44.2847 59.5664C44.4188 59.3165 44.4865 59.1937 44.5737 59.0293C44.6074 58.9687 44.6875 58.8182 44.7544 58.6943C44.8213 58.5706 44.8947 58.435 44.9185 58.3926C44.9403 58.3507 45.001 58.2379 45.0513 58.1406C45.1025 58.0447 45.149 57.9587 45.1567 57.9482C45.1634 57.9382 45.2088 57.8557 45.2573 57.7637C45.3058 57.6717 45.3646 57.5627 45.3882 57.5205C45.4117 57.4786 45.4726 57.3658 45.5229 57.2686C45.5732 57.1713 45.6198 57.0836 45.6265 57.0752C45.6338 57.064 45.6789 56.9829 45.7271 56.8916C45.7757 56.7994 45.8332 56.6916 45.855 56.6514C45.8768 56.6128 45.9133 56.549 45.9351 56.5088C45.9569 56.4702 46.0144 56.3628 46.063 56.2705C46.1116 56.1784 46.1569 56.0943 46.1636 56.0859C46.1709 56.0746 46.2173 55.9898 46.2671 55.8936C46.3174 55.7963 46.3784 55.6835 46.4019 55.6416C46.4254 55.5995 46.4832 55.4904 46.5317 55.3984C46.5804 55.3062 46.6266 55.2223 46.6333 55.2139C46.6407 55.2024 46.6871 55.1177 46.7368 55.0215C46.7888 54.9242 46.8443 54.818 46.8628 54.7861C46.8814 54.7539 46.9401 54.6433 46.9937 54.543C47.047 54.4412 47.095 54.3508 47.1021 54.3418C47.1088 54.3317 47.154 54.2495 47.2026 54.1572C47.2512 54.0651 47.3122 53.9517 47.3374 53.9062C47.3626 53.8593 47.4383 53.7198 47.5054 53.5957C47.5724 53.4717 47.6459 53.336 47.6694 53.2939C47.6912 53.252 47.7519 53.1393 47.8022 53.042C47.854 52.9452 47.9008 52.8585 47.9077 52.8496C47.9144 52.8396 47.9597 52.7572 48.0083 52.665C48.0569 52.5729 48.1156 52.4639 48.1392 52.4219C48.1626 52.3799 48.2199 52.2737 48.2651 52.1865C48.3104 52.0994 48.3724 51.9858 48.4009 51.9355C48.4311 51.8852 48.4678 51.816 48.4829 51.7842C48.4997 51.7523 48.5317 51.695 48.5552 51.6582C48.5768 51.6216 48.5998 51.58 48.605 51.5664C48.61 51.5531 48.6233 51.5262 48.6333 51.5078C48.6434 51.4894 48.6811 51.4186 48.7163 51.3516C48.7884 51.2124 48.87 51.0611 48.9136 50.9873C48.9304 50.9586 48.9807 50.8653 49.0259 50.7783C49.0712 50.6911 49.1284 50.5849 49.1519 50.543C49.1754 50.5009 49.2341 50.3919 49.2827 50.2998C49.3313 50.2076 49.3766 50.1236 49.3833 50.1152C49.3904 50.1043 49.4378 50.0195 49.4878 49.9229C49.5398 49.8256 49.5943 49.7194 49.6128 49.6875C49.6313 49.6555 49.6901 49.5448 49.7437 49.4443C49.7973 49.3421 49.8463 49.2515 49.853 49.2432C49.8602 49.2322 49.9053 49.1502 49.9536 49.0586C50.0021 48.9666 50.0622 48.8531 50.0874 48.8076L50.4233 48.1865C50.4486 48.1394 50.5086 48.0275 50.5571 47.9355C50.6053 47.8442 50.6504 47.7607 50.6577 47.751C50.6644 47.7409 50.7135 47.6504 50.7671 47.5498C50.8207 47.4477 50.8794 47.3387 50.8979 47.3066C50.9164 47.2748 50.9719 47.1686 51.0239 47.0713C51.0738 46.9749 51.1202 46.8885 51.1274 46.8789C51.1358 46.8688 51.1698 46.8063 51.2017 46.7393C51.277 46.5904 51.3105 46.5819 51.3657 46.6973C51.4076 46.781 51.5547 47.0593 51.6235 47.1836C51.6453 47.2238 51.6828 47.2876 51.7046 47.3262C51.7264 47.3664 51.7829 47.4742 51.8315 47.5664C51.88 47.6584 51.9252 47.7405 51.9321 47.751C51.9388 47.7594 51.9863 47.8462 52.0366 47.9434C52.0869 48.0406 52.1469 48.1533 52.1704 48.1953C52.1939 48.2372 52.2526 48.3463 52.3013 48.4385C52.3498 48.5306 52.395 48.6127 52.4019 48.623C52.4086 48.6314 52.4563 48.7182 52.5083 48.8154C52.5586 48.9127 52.6183 49.0254 52.6401 49.0674C52.6636 49.1093 52.7381 49.245 52.8052 49.3691C52.8722 49.4931 52.9527 49.6421 52.9829 49.6992C53.0147 49.7578 53.0643 49.8521 53.0962 49.9092C53.1264 49.9678 53.2069 50.1172 53.2739 50.2412C53.341 50.3653 53.4154 50.501 53.439 50.543C53.4608 50.5849 53.5205 50.6977 53.5708 50.7949C53.6227 50.892 53.6704 50.977 53.6772 50.9873C53.684 50.9957 53.7292 51.0797 53.7778 51.1719C53.8265 51.2641 53.8852 51.3731 53.9087 51.415C53.9322 51.457 53.9922 51.5697 54.0425 51.667C54.0921 51.7628 54.1383 51.8474 54.146 51.8594C54.1527 51.8677 54.198 51.9519 54.2466 52.0439C54.2951 52.1359 54.3538 52.2449 54.3774 52.2871C54.4009 52.329 54.4581 52.4352 54.5034 52.5225C54.5487 52.6097 54.6147 52.7307 54.6499 52.791C54.6851 52.8515 54.7502 52.9716 54.7954 53.0586C54.8407 53.1458 54.8979 53.252 54.9214 53.2939C54.9449 53.336 55.0037 53.445 55.0522 53.5371C55.1008 53.6293 55.1461 53.7116 55.1528 53.7217C55.1602 53.7313 55.2065 53.8178 55.2563 53.9141C55.3083 54.0113 55.3639 54.1175 55.3823 54.1494C55.4009 54.1815 55.4596 54.2905 55.5132 54.3926C55.5668 54.4931 55.6159 54.5837 55.6226 54.5938C55.63 54.6035 55.675 54.687 55.7231 54.7783C55.7717 54.8703 55.8317 54.9822 55.8569 55.0293C55.8821 55.0746 55.9578 55.2157 56.0249 55.3398C56.0919 55.4638 56.1724 55.6127 56.2026 55.6699C56.2345 55.7286 56.285 55.8229 56.3169 55.8799C56.3471 55.9387 56.4276 56.0879 56.4946 56.2119C56.5616 56.3358 56.6351 56.4716 56.6587 56.5137C56.6805 56.5556 56.7412 56.6684 56.7915 56.7656C56.8432 56.8623 56.8899 56.9472 56.897 56.958C56.9037 56.9664 56.9489 57.0504 56.9976 57.1426C57.0461 57.2347 57.1049 57.3437 57.1284 57.3857C57.1519 57.4277 57.2119 57.5404 57.2622 57.6377C57.3123 57.7345 57.3597 57.8194 57.3667 57.8301C57.3734 57.8385 57.4149 57.9143 57.4585 57.998C57.5524 58.1741 57.6127 58.2869 57.6714 58.3926C57.6949 58.4346 57.7537 58.5436 57.8022 58.6357C57.8509 58.7279 57.8961 58.8103 57.9028 58.8203C57.9097 58.8291 57.9571 58.9157 58.0073 59.0127C58.0576 59.11 58.1176 59.2227 58.1411 59.2646C58.1646 59.3067 58.2234 59.4157 58.272 59.5078C58.3206 59.6 58.3659 59.6823 58.3726 59.6924C58.3796 59.7014 58.4269 59.7879 58.4771 59.8848C58.529 59.982 58.5846 60.0883 58.603 60.1201C58.622 60.153 58.6982 60.2967 58.7749 60.4385C58.9275 60.7253 58.9899 60.8193 59.1274 60.9736C59.2181 61.0776 59.4098 61.2329 59.5171 61.2949C59.8423 61.4776 60.0651 61.5371 60.4272 61.5371C60.714 61.5354 60.8587 61.5068 61.1069 61.3994C61.7692 61.1126 62.1912 60.4383 62.1577 59.7256C62.1493 59.5445 62.1028 59.3095 62.0542 59.2021C62.0411 59.1743 62.0293 59.1466 62.0288 59.1406C62.0288 59.1205 61.7593 58.5945 61.7271 58.5518C61.7203 58.5417 61.6751 58.4594 61.6265 58.3672C61.5779 58.275 61.5191 58.166 61.4956 58.124C61.4721 58.0821 61.4149 57.9759 61.3696 57.8887C61.3244 57.8017 61.2593 57.6815 61.2241 57.6211C61.1889 57.5607 61.1229 57.4398 61.0776 57.3525C61.0324 57.2653 60.9761 57.1591 60.9526 57.1172C60.9291 57.0751 60.8704 56.9662 60.8218 56.874C60.7732 56.7818 60.7279 56.6978 60.7212 56.6895C60.7141 56.6787 60.6668 56.5939 60.6167 56.4971C60.5648 56.4 60.5093 56.2948 60.4907 56.2627C60.4723 56.2309 60.4135 56.1201 60.3599 56.0195C60.3062 55.9172 60.2582 55.8258 60.2515 55.8174C60.2444 55.8066 60.1991 55.7253 60.1509 55.6338C60.1022 55.5415 60.0413 55.4271 60.0161 55.3818C59.9909 55.3348 59.9162 55.1953 59.8491 55.0713C59.7821 54.9472 59.7016 54.798 59.6714 54.7393C59.6395 54.6822 59.589 54.588 59.5571 54.5293C59.5268 54.4721 59.4464 54.3231 59.3794 54.1992C59.3123 54.0751 59.2378 53.9394 59.2144 53.8975C59.1925 53.8554 59.1328 53.7426 59.0825 53.6455C59.0311 53.5493 58.9845 53.4629 58.9771 53.4531C58.9703 53.4431 58.9241 53.3608 58.8755 53.2686C58.827 53.1765 58.7691 53.0674 58.7456 53.0254C58.7221 52.9835 58.6612 52.8707 58.6108 52.7734C58.561 52.6771 58.5146 52.5907 58.5073 52.5811C58.5006 52.571 58.4553 52.4887 58.4067 52.3965C58.3581 52.3042 58.3006 52.1965 58.2788 52.1562C58.257 52.1176 58.2205 52.0538 58.1987 52.0137C58.1769 51.975 58.1193 51.8684 58.0708 51.7764C58.0225 51.6848 57.9774 51.6012 57.9702 51.5918C57.9635 51.5817 57.917 51.4957 57.8667 51.3984C57.8165 51.3014 57.7555 51.1896 57.7319 51.1475C57.7085 51.1055 57.6497 50.9956 57.6011 50.9033C57.5528 50.8118 57.5076 50.7289 57.5005 50.7197C57.4938 50.7097 57.447 50.6236 57.395 50.5264C57.3447 50.4291 57.284 50.3163 57.2622 50.2744C57.2384 50.2319 57.165 50.0963 57.0981 49.9727C57.0312 49.8488 56.9511 49.6982 56.9175 49.6377C56.8303 49.4733 56.7626 49.3505 56.6284 49.1006C56.5614 48.9766 56.4878 48.8407 56.4644 48.7988C56.4425 48.7569 56.3818 48.645 56.3315 48.5479C56.2796 48.4506 56.2328 48.3629 56.2261 48.3545C56.2193 48.3442 56.1703 48.2538 56.1167 48.1533C56.063 48.0511 56.0043 47.942 55.9858 47.9102C55.9673 47.8782 55.911 47.7728 55.8608 47.6758C55.8105 47.5785 55.7631 47.4908 55.7563 47.4824C55.7495 47.472 55.7043 47.3899 55.6558 47.2979C55.6071 47.2056 55.5484 47.0966 55.5249 47.0547C55.4662 46.9491 55.4059 46.8362 55.312 46.6602C55.269 46.5775 55.2277 46.5031 55.2202 46.4932C55.2135 46.4831 55.166 46.3971 55.1157 46.2998C55.0656 46.2029 55.0055 46.091 54.9819 46.0488C54.9585 46.007 54.8997 45.8978 54.8511 45.8057C54.803 45.7145 54.758 45.6311 54.7505 45.6211C54.7438 45.611 54.6963 45.525 54.646 45.4277C54.594 45.3305 54.5385 45.2252 54.52 45.1934C54.5016 45.1615 54.4428 45.0508 54.3892 44.9502C54.336 44.8489 54.2882 44.759 54.2808 44.749C54.2741 44.739 54.2288 44.6566 54.1802 44.5645C54.1315 44.4722 54.0706 44.3578 54.0454 44.3125C54.0201 44.2653 53.9454 44.1258 53.8784 44.002C53.8114 43.8779 53.7368 43.7421 53.7134 43.7002C53.6914 43.658 53.6317 43.5461 53.5815 43.4492C53.5296 43.3519 53.4818 43.2642 53.4751 43.2559C53.4676 43.2442 53.4198 43.1542 53.3667 43.0547C53.313 42.9524 53.2543 42.8434 53.2358 42.8115C53.1939 42.736 53.0826 42.5263 52.9351 42.2412C52.7759 41.9346 52.7205 41.8554 52.5444 41.6777C52.3552 41.4869 52.2764 41.4266 52.0923 41.3379C51.8997 41.2424 51.8388 41.2188 51.7886 41.2188C51.7617 41.2188 51.7212 41.203 51.6978 41.1846C51.6592 41.1545 51.627 41.1514 51.2954 41.1514ZM60.8384 52.8604C60.7683 52.8253 60.6714 52.8148 60.6704 52.8428C60.6704 52.8528 60.6905 52.8688 60.7173 52.8789C60.7592 52.8957 60.8416 52.932 61.0142 53.0107C61.0511 53.0275 61.1268 53.0625 61.1821 53.0859C61.3615 53.1664 61.9345 53.4587 62.1226 53.5645C62.2231 53.6231 62.3356 53.6869 62.3726 53.707C62.6776 53.8797 63.4689 54.4205 63.5903 54.54C63.6037 54.5534 63.6525 54.5937 63.6978 54.6289C63.9527 54.8302 64.2511 55.1226 64.605 55.5117C64.6806 55.5958 64.9806 56.0033 65.061 56.1357C65.3528 56.6036 65.5359 57.0545 65.6382 57.5576C65.6717 57.727 65.6763 57.7974 65.6763 58.1846C65.6763 58.5955 65.6733 58.6345 65.6313 58.8408C65.5022 59.4579 65.2235 60.0616 64.8345 60.5664C64.8127 60.5932 64.7894 60.6237 64.7827 60.6338C64.5379 60.9608 64.0918 61.4183 63.7397 61.7051C63.671 61.7604 63.6018 61.8176 63.5884 61.8311C63.5519 61.8655 63.1336 62.1752 62.9829 62.2773C62.7632 62.4266 62.4011 62.6497 62.1597 62.7871C62.1244 62.8056 62.0672 62.8393 62.0337 62.8594C61.9977 62.8782 61.8116 62.9753 61.6177 63.0723C61.2942 63.2365 61.1346 63.3139 60.8882 63.4229C60.8379 63.4446 60.7593 63.4792 60.7124 63.501C60.6671 63.5211 60.6099 63.545 60.5864 63.5518C60.5629 63.5585 60.5148 63.579 60.478 63.5957C60.3623 63.6477 60.1132 63.7464 59.9907 63.79C59.9267 63.8136 59.7613 63.8737 59.6226 63.9238C58.8477 64.2089 57.7082 64.526 56.6616 64.749C55.7478 64.9435 54.5173 65.1353 53.7358 65.2041C53.6352 65.2142 53.4755 65.2289 53.3833 65.2373C52.9272 65.2843 52.099 65.3344 51.4634 65.3545C51.1447 65.3629 50.8253 65.3768 50.7515 65.3818C50.1271 65.4338 52.1242 65.4603 53.1235 65.415C54.1412 65.3681 54.465 65.3466 55.2026 65.2695C55.8246 65.2058 56.7403 65.0784 57.1313 65.0029C57.2186 64.9862 57.382 64.9557 57.4927 64.9355C57.7894 64.8836 58.2034 64.7964 58.6157 64.6992C58.9059 64.6305 58.9802 64.6115 59.3794 64.5059C59.5032 64.4724 59.6288 64.4394 59.6558 64.4326C59.6843 64.4259 59.7748 64.3982 59.8569 64.373C59.9408 64.3479 60.0923 64.3026 60.1929 64.2725C60.4665 64.1902 61.1136 63.9676 61.2192 63.9189C61.2477 63.9073 61.2811 63.8955 61.2944 63.8955C61.3063 63.8938 61.3465 63.8807 61.3833 63.8623C61.4199 63.844 61.4614 63.83 61.4751 63.8281C61.49 63.8281 61.5085 63.822 61.5171 63.8154C61.5271 63.807 61.6177 63.7678 61.7183 63.7275C61.8206 63.689 61.9101 63.6493 61.9185 63.6426C61.9285 63.6342 61.9438 63.627 61.9556 63.627C61.9675 63.626 62.05 63.5927 62.1392 63.5498C62.2313 63.5079 62.3208 63.4684 62.3394 63.46C62.3846 63.4415 62.8192 63.2322 62.9341 63.1748C63.1605 63.0624 63.4532 62.9024 63.522 62.8555C63.5454 62.8404 63.5722 62.8236 63.5806 62.8203C63.5917 62.8162 63.6595 62.7743 63.7358 62.7295C63.8113 62.6825 63.887 62.6373 63.9038 62.6289C64.0968 62.5165 64.7832 62.0271 64.9224 61.9014C64.961 61.8677 65.0433 61.7955 65.1069 61.7402C65.4322 61.4618 65.8012 61.0641 66.0493 60.7305C66.1249 60.6286 66.1857 60.5412 66.188 60.5332C66.188 60.5282 66.2137 60.4889 66.2456 60.4453C66.323 60.3373 66.5389 59.9122 66.606 59.7363C66.6361 59.6576 66.6713 59.5671 66.6831 59.5352C66.715 59.458 66.7805 59.184 66.8208 58.9727C66.866 58.7209 66.8623 58.1713 66.812 57.9082C66.7667 57.6701 66.7113 57.4606 66.6392 57.2627C66.5788 57.0935 66.3464 56.6277 66.2456 56.4746C65.9572 56.0319 65.5262 55.5432 65.1069 55.1826C65.0432 55.1273 64.961 55.055 64.9224 55.0215C64.7832 54.8974 64.1218 54.4248 63.9038 54.2939C63.8886 54.2855 63.8285 54.2489 63.77 54.2139C63.7114 54.1803 63.6341 54.1329 63.5972 54.1094C63.4144 53.9987 63.1493 53.8541 62.9263 53.7451C62.826 53.695 62.7938 53.6804 62.7388 53.6504C62.7103 53.6353 62.4319 53.5038 62.3228 53.4551C62.2959 53.4417 62.205 53.4018 62.1245 53.3633C62.0433 53.3268 61.9686 53.2966 61.9556 53.2959C61.9439 53.2959 61.9285 53.2895 61.9185 53.2812C61.9101 53.2745 61.8309 53.2393 61.7437 53.2041C61.6567 53.1706 61.553 53.1272 61.5142 53.1104C61.4756 53.0919 61.4331 53.0781 61.4214 53.0781C61.408 53.078 61.3913 53.0708 61.3813 53.0625C61.3724 53.0541 61.3358 53.0389 61.2993 53.0273C61.2624 53.0173 61.2106 52.9988 61.1821 52.9854C61.0849 52.9434 60.9454 52.8936 60.9253 52.8936C60.9135 52.8935 60.8751 52.8787 60.8384 52.8604ZM53.4067 52.2207C53.3983 52.2208 53.3751 52.2563 53.355 52.2998C53.3349 52.345 53.2861 52.4371 53.2476 52.5059C53.2107 52.5746 53.1472 52.6928 53.1069 52.7666C53.0684 52.8404 53.0111 52.9457 52.981 53.001C52.9508 53.0563 52.8713 53.204 52.8042 53.3281C52.7372 53.4522 52.6623 53.5917 52.6372 53.6387C52.612 53.6841 52.551 53.7975 52.5024 53.8896C52.4538 53.9819 52.4086 54.0642 52.4019 54.0742C52.3949 54.0831 52.3469 54.1735 52.2935 54.2754C52.2399 54.3757 52.1812 54.4863 52.1626 54.5186C52.1441 54.5504 52.0886 54.6566 52.0366 54.7539C51.9864 54.8511 51.9388 54.9362 51.9321 54.9463C51.9251 54.9553 51.88 55.039 51.8315 55.1309C51.7829 55.2231 51.7242 55.3321 51.7007 55.374C51.6772 55.416 51.6172 55.5288 51.5669 55.626C51.5171 55.7222 51.4708 55.8069 51.4634 55.8184C51.4567 55.8267 51.4114 55.9108 51.3628 56.0029C51.3142 56.0952 51.2567 56.2026 51.2349 56.2412C51.2131 56.2814 51.1766 56.3452 51.1548 56.3838C51.133 56.424 51.0755 56.5318 51.0269 56.624C50.9788 56.7152 50.9336 56.7963 50.9263 56.8076C50.9196 56.816 50.873 56.9038 50.8228 57.001C50.7724 57.0983 50.7115 57.211 50.688 57.2529C50.6644 57.2951 50.6056 57.4041 50.5571 57.4961C50.509 57.5874 50.4638 57.6685 50.4565 57.6797C50.4498 57.6881 50.4031 57.7758 50.3511 57.873C50.3008 57.9703 50.2401 58.0831 50.2183 58.125C50.1945 58.1674 50.1211 58.3031 50.0542 58.4268C49.9873 58.5506 49.9115 58.6892 49.8862 58.7363C49.8259 58.8469 49.697 59.105 49.6616 59.1875C49.6465 59.2227 49.6148 59.3409 49.5913 59.4482C49.5545 59.6157 49.5494 59.6715 49.5562 59.8525C49.5747 60.3771 49.7658 60.7644 50.1948 61.1533C50.3424 61.2858 50.651 61.4386 50.9009 61.499C51.1189 61.5527 51.4768 61.5527 51.6948 61.499C51.8538 61.4605 51.909 61.4399 52.0581 61.3662C52.3129 61.2438 52.5041 61.0864 52.6802 60.8584C52.7842 60.7242 52.7951 60.7077 52.9058 60.498C52.9544 60.4058 52.9996 60.3219 53.0063 60.3135C53.0132 60.3032 53.0599 60.2172 53.1118 60.1201C53.1619 60.0232 53.2217 59.9113 53.2437 59.8691C53.2671 59.8272 53.3416 59.6914 53.4087 59.5674C53.4757 59.4435 53.5561 59.2943 53.5864 59.2354C53.6183 59.1783 53.6688 59.0841 53.7007 59.0254C53.7309 58.9684 53.8114 58.8193 53.8784 58.6953C53.9455 58.5712 54.019 58.4345 54.0425 58.3926C54.0644 58.3504 54.1251 58.2386 54.1753 58.1416C54.2273 58.0443 54.2741 57.9566 54.2808 57.9482C54.2881 57.937 54.3331 57.8551 54.3813 57.7637C54.4299 57.6715 54.4888 57.5624 54.5122 57.5205C54.5358 57.4784 54.5958 57.3665 54.646 57.2695C54.6963 57.1723 54.7438 57.0846 54.7505 57.0762C54.7579 57.0648 54.8029 56.983 54.8511 56.8916C54.8996 56.7997 54.9561 56.6928 54.978 56.6523C54.9998 56.6138 55.0373 56.55 55.0591 56.5098C55.0809 56.4712 55.1361 56.3665 55.1831 56.2793C55.2284 56.1922 55.2932 56.0716 55.3267 56.0146C55.3602 55.9559 55.3872 55.8937 55.3872 55.877C55.3868 55.8479 55.328 55.7307 55.2026 55.5C55.1775 55.4531 55.1294 55.3625 55.0942 55.2988C55.0591 55.2335 55.01 55.143 54.9849 55.0977C54.9597 55.0507 54.9025 54.9445 54.8589 54.8623C54.8153 54.7785 54.7603 54.6776 54.7368 54.6357C54.7148 54.5935 54.6407 54.4578 54.5737 54.334C54.5067 54.21 54.4296 54.0659 54.4028 54.0156C54.3743 53.9653 54.3156 53.8546 54.272 53.7725C54.2284 53.6886 54.1869 53.6129 54.1802 53.6045C54.1733 53.5942 54.1161 53.4889 54.0542 53.3701C53.9921 53.2494 53.9349 53.1432 53.9282 53.1348C53.9208 53.1233 53.8742 53.0368 53.8228 52.9404C53.771 52.8419 53.711 52.7301 53.689 52.6895C53.6672 52.6492 53.6159 52.5552 53.5757 52.4814C53.5356 52.4079 53.4961 52.3323 53.4858 52.3135C53.459 52.2632 53.4218 52.2207 53.4067 52.2207ZM60.6206 52.792C60.5872 52.7703 60.5207 52.7705 60.52 52.792C60.52 52.8004 60.5483 52.8096 60.5835 52.8096C60.6285 52.8096 60.6388 52.8036 60.6206 52.792ZM60.4106 41.1543C60.2463 41.1543 60.117 41.1608 60.1069 41.1709C60.0984 41.1793 60.0349 41.2013 59.9663 41.2197C59.7366 41.2801 59.6459 41.3219 59.4263 41.4678C59.2921 41.555 59.0986 41.7444 58.9946 41.8887C58.9527 41.9441 58.8711 42.0834 58.8091 42.1973C58.7487 42.3113 58.6575 42.479 58.6089 42.5713C58.5586 42.6635 58.4983 42.7763 58.4731 42.8232C58.4478 42.8689 58.373 43.0092 58.3062 43.1328C58.2392 43.2567 58.1647 43.3924 58.1411 43.4346C58.1193 43.4765 58.0596 43.5893 58.0093 43.6865C57.9573 43.7838 57.9095 43.8698 57.9028 43.8799C57.8951 43.8904 57.8501 43.9728 57.8022 44.0635C57.7536 44.1557 57.6949 44.2657 57.6714 44.3076C57.6477 44.3499 57.5877 44.4617 57.5376 44.5586C57.4873 44.6559 57.4408 44.7419 57.4341 44.752C57.4274 44.7604 57.3811 44.8443 57.3325 44.9365C57.2841 45.0284 57.2275 45.1351 57.2056 45.1738C57.1839 45.2139 57.1473 45.2778 57.1255 45.3164C57.1037 45.3567 57.0462 45.4644 56.9976 45.5566C56.9489 45.6489 56.9037 45.7311 56.897 45.7412C56.8901 45.7499 56.8427 45.8366 56.7925 45.9336C56.7422 46.0309 56.6822 46.1436 56.6587 46.1855C56.6352 46.2274 56.5786 46.3328 56.5317 46.4199C56.4865 46.5071 56.4188 46.6281 56.3853 46.6885C56.2914 46.8527 56.2916 46.8781 56.3853 47.0605C56.4304 47.1459 56.481 47.2433 56.4995 47.2754C56.5749 47.4078 56.6117 47.4752 56.687 47.6191C56.7306 47.7013 56.7878 47.8075 56.813 47.8545C56.8382 47.8998 56.8954 48.0051 56.939 48.0889C57.0128 48.2264 57.053 48.3038 57.1821 48.542C57.2073 48.5873 57.2563 48.6778 57.2915 48.7432C57.3267 48.8068 57.3747 48.8974 57.3999 48.9443C57.4251 48.9896 57.4823 49.0958 57.5259 49.1797L57.7993 49.6826C57.8714 49.8201 57.9523 49.9679 57.9741 50.0098C57.9978 50.0522 58.0666 50.1809 58.1284 50.2979C58.1904 50.4169 58.2505 50.5127 58.2622 50.5127C58.294 50.5127 58.3062 50.4938 58.4067 50.3027C58.4553 50.2106 58.5006 50.1265 58.5073 50.1182C58.5148 50.1067 58.5611 50.022 58.6108 49.9258C58.6628 49.8285 58.7184 49.7223 58.7368 49.6904C58.7554 49.6582 58.8142 49.5476 58.8677 49.4473C58.9213 49.3451 58.9703 49.2545 58.9771 49.2461C58.9845 49.2346 59.0295 49.1528 59.0776 49.0615C59.1262 48.9695 59.1862 48.8559 59.2114 48.8105C59.2366 48.7636 59.3123 48.6241 59.3794 48.5C59.4465 48.3759 59.5212 48.2347 59.5464 48.1895C59.5715 48.1425 59.6325 48.0307 59.6812 47.9385C59.7296 47.8466 59.7748 47.7628 59.7817 47.7539C59.7884 47.7438 59.8375 47.6533 59.8911 47.5527C59.9445 47.4509 60.0023 47.342 60.021 47.3096C60.0394 47.2777 60.095 47.1715 60.147 47.0742C60.1972 46.9772 60.2446 46.8906 60.2515 46.8818C60.2582 46.8718 60.3034 46.7895 60.3521 46.6973C60.4007 46.6051 60.4594 46.4961 60.4829 46.4541C60.5064 46.4122 60.5582 46.3151 60.6001 46.2363L60.9087 45.666C60.9506 45.5872 61.0024 45.4892 61.0259 45.4473C61.0494 45.4052 61.1082 45.2962 61.1567 45.2041C61.2053 45.1119 61.2506 45.0279 61.2573 45.0195C61.2645 45.0086 61.3118 44.9238 61.3618 44.8271C61.4121 44.7299 61.4721 44.6171 61.4956 44.5752C61.5192 44.5331 61.5779 44.4241 61.6265 44.332C61.6751 44.2399 61.7203 44.1558 61.7271 44.1475C61.7343 44.1364 61.7848 44.0462 61.8364 43.9463C62.1146 43.4183 62.1528 43.2891 62.1528 42.8984C62.1528 42.5848 62.1196 42.4335 61.9771 42.1182C61.8814 41.9035 61.5897 41.5784 61.3667 41.4375C61.204 41.3335 60.9384 41.2217 60.8579 41.2217C60.8409 41.2214 60.7997 41.2057 60.7632 41.1875C60.7045 41.1573 60.6638 41.1543 60.4106 41.1543ZM66.2251 24C71.085 24.0001 74.9995 27.9155 74.9995 32.7754L77.9995 69.2246C77.9995 74.0845 74.085 77.9999 69.2251 78H32.7749C27.9149 78 23.9995 74.0846 23.9995 69.2246L26.9995 32.7754C26.9995 27.9154 30.9149 24 35.7749 24H41.4146C41.2796 24.945 41.4151 25.89 41.6851 26.835C41.9551 27.78 42.2251 28.8599 42.7651 29.6699C43.035 30.0748 43.3047 30.6146 43.7095 31.0195C44.6544 32.0994 45.7346 33.0449 47.0845 33.585L48.3003 33.9902C49.6501 34.5301 51.0002 34.5295 52.3501 34.3945C54.78 34.1245 57.2099 32.9097 58.6948 30.8848C59.3698 30.0748 59.91 28.995 60.3149 27.915C60.5849 26.97 60.72 26.1598 60.855 25.2148C60.855 24.8099 60.8552 24.4049 60.7202 24H66.2251Z" fill="white"/>
</g>
</svg>
