<svg width="32" height="32" viewBox="0 0 32 32" fill="none" xmlns="http://www.w3.org/2000/svg">
<g id="Frame 89649">
<g id="Union">
<path d="M22.5 15.5C27.1943 15.5 30.9998 19.3058 31 24C31 28.6944 27.1944 32.5 22.5 32.5C17.8056 32.4999 14 28.6944 14 24C14.0002 19.3058 17.8058 15.5001 22.5 15.5ZM23.5625 -0.5C24.9167 -0.499999 25.9998 0.605459 26 1.9502V11.9551C26 12.5073 25.5523 12.9551 25 12.9551C24.4478 12.955 24 12.5073 24 11.9551V1.9502C23.9998 1.69367 23.7959 1.5 23.5625 1.5H3.4375C3.20419 1.50008 3.0002 1.69373 3 1.9502V28.0498C3 28.3065 3.20407 28.4999 3.4375 28.5H11.3438C11.8959 28.5 12.3435 28.9479 12.3438 29.5C12.3438 30.0523 11.896 30.5 11.3438 30.5H3.4375C2.08323 30.4999 1 29.3947 1 28.0498V1.9502C1.0002 0.605496 2.08335 -0.499925 3.4375 -0.5H23.5625ZM22.5 17.5C18.9103 17.5001 16.0002 20.4104 16 24C16 27.5898 18.9102 30.4999 22.5 30.5C26.0899 30.5 29 27.5899 29 24C28.9998 20.4103 26.0897 17.5 22.5 17.5ZM23.793 21.293C24.1835 20.9024 24.8165 20.9024 25.207 21.293C25.5976 21.6835 25.5976 22.3165 25.207 22.707L23.9141 24L25.207 25.293C25.5976 25.6835 25.5976 26.3165 25.207 26.707C24.8165 27.0976 24.1835 27.0976 23.793 26.707L22.5 25.4141L21.207 26.707C20.8165 27.0976 20.1835 27.0976 19.793 26.707C19.4024 26.3165 19.4024 25.6835 19.793 25.293L21.0859 24L19.793 22.707C19.4024 22.3165 19.4024 21.6835 19.793 21.293C20.1835 20.9024 20.8165 20.9024 21.207 21.293L22.5 22.5859L23.793 21.293ZM12 15.5C12.5522 15.5 12.9998 15.9479 13 16.5C13 17.0523 12.5523 17.5 12 17.5H8C7.44778 17.4999 7 17.0522 7 16.5C7.00021 15.9479 7.44791 15.5001 8 15.5H12ZM16 10.5C16.5522 10.5 16.9998 10.9479 17 11.5C17 12.0523 16.5523 12.5 16 12.5H8C7.44778 12.4999 7 12.0522 7 11.5C7.00021 10.9479 7.44791 10.5001 8 10.5H16ZM19 5.5C19.5522 5.5 19.9998 5.94789 20 6.5C20 7.05228 19.5523 7.5 19 7.5H8C7.44778 7.49993 7 7.05224 7 6.5C7.00021 5.94794 7.44791 5.50007 8 5.5H19Z" fill="#262626"/>
<path d="M22.5 15.5V15H22.5L22.5 15.5ZM31 24H31.5V24L31 24ZM22.5 32.5L22.5 33H22.5V32.5ZM14 24L13.5 24V24H14ZM23.5625 -0.5V-1V-1V-0.5ZM26 1.9502H26.5V1.95012L26 1.9502ZM26 11.9551L26.5 11.9551V11.9551H26ZM25 12.9551L24.9999 13.4551H25V12.9551ZM24 11.9551H23.5V11.9551L24 11.9551ZM24 1.9502H24.5V1.9498L24 1.9502ZM23.5625 1.5L23.5625 1H23.5625V1.5ZM3.4375 1.5V1H3.43734L3.4375 1.5ZM3 1.9502L2.5 1.9498V1.9502H3ZM3.4375 28.5L3.43734 29H3.4375V28.5ZM12.3438 29.5H12.8438V29.4998L12.3438 29.5ZM3.4375 30.5L3.43747 31H3.4375V30.5ZM1 1.9502L0.5 1.95012V1.9502H1ZM3.4375 -0.5V-1H3.43747L3.4375 -0.5ZM22.5 17.5V17H22.5L22.5 17.5ZM16 24L15.5 24V24H16ZM22.5 30.5L22.5 31H22.5V30.5ZM29 24H29.5V24L29 24ZM23.793 21.293L23.4394 20.9394V20.9394L23.793 21.293ZM25.207 21.293L25.5606 20.9394V20.9394L25.207 21.293ZM25.207 22.707L25.5606 23.0606V23.0606L25.207 22.707ZM23.9141 24L23.5605 23.6464C23.3652 23.8417 23.3652 24.1583 23.5605 24.3536L23.9141 24ZM25.207 25.293L25.5606 24.9394V24.9394L25.207 25.293ZM25.207 26.707L25.5606 27.0606V27.0606L25.207 26.707ZM23.793 26.707L23.4394 27.0606V27.0606L23.793 26.707ZM22.5 25.4141L22.8536 25.0605C22.6583 24.8652 22.3417 24.8652 22.1464 25.0605L22.5 25.4141ZM21.207 26.707L21.5606 27.0606V27.0606L21.207 26.707ZM19.793 26.707L19.4394 27.0606V27.0606L19.793 26.707ZM19.793 25.293L19.4394 24.9394V24.9394L19.793 25.293ZM21.0859 24L21.4395 24.3536C21.6348 24.1583 21.6348 23.8417 21.4395 23.6464L21.0859 24ZM19.793 22.707L20.1465 22.3535V22.3535L19.793 22.707ZM19.793 21.293L20.1465 21.6465V21.6465L19.793 21.293ZM21.207 21.293L20.8535 21.6465V21.6465L21.207 21.293ZM22.5 22.5859L22.1464 22.9395C22.3417 23.1348 22.6583 23.1348 22.8536 22.9395L22.5 22.5859ZM13 16.5H13.5V16.4998L13 16.5ZM8 17.5L7.99993 18H8V17.5ZM7 16.5L6.5 16.4998V16.5H7ZM8 15.5V15H7.99993L8 15.5ZM17 11.5H17.5V11.4998L17 11.5ZM8 12.5L7.99993 13H8V12.5ZM7 11.5L6.5 11.4998V11.5H7ZM8 10.5V10H7.99993L8 10.5ZM20 6.5H20.5V6.49981L20 6.5ZM8 7.5L7.99993 8H8V7.5ZM7 6.5L6.5 6.49981V6.5H7ZM8 5.5V5H7.99993L8 5.5ZM22.5 15.5V16C26.9181 16 30.4998 19.5819 30.5 24L31 24L31.5 24C31.4998 19.0296 27.4705 15 22.5 15V15.5ZM31 24H30.5C30.5 28.4183 26.9183 32 22.5 32V32.5V33C27.4706 33 31.5 28.9706 31.5 24H31ZM22.5 32.5L22.5 32C18.0818 31.9999 14.5 28.4182 14.5 24H14H13.5C13.5 28.9705 17.5295 32.9999 22.5 33L22.5 32.5ZM14 24L14.5 24C14.5002 19.5819 18.0819 16.0001 22.5 16L22.5 15.5L22.5 15C17.5296 15.0001 13.5002 19.0297 13.5 24L14 24ZM23.5625 -0.5V0C24.6359 8.34465e-07 25.4998 0.876888 25.5 1.95027L26 1.9502L26.5 1.95012C26.4998 0.334029 25.1976 -0.999999 23.5625 -1V-0.5ZM26 1.9502H25.5V11.9551H26H26.5V1.9502H26ZM26 11.9551L25.5 11.955C25.5 12.2312 25.2761 12.4551 25 12.4551V12.9551V13.4551C25.8284 13.4551 26.4999 12.7834 26.5 11.9551L26 11.9551ZM25 12.9551L25.0001 12.4551C24.7239 12.455 24.5 12.2311 24.5 11.955L24 11.9551L23.5 11.9551C23.5001 12.7835 24.1717 13.455 24.9999 13.4551L25 12.9551ZM24 11.9551H24.5V1.9502H24H23.5V11.9551H24ZM24 1.9502L24.5 1.9498C24.4996 1.41945 24.074 1 23.5625 1L23.5625 1.5L23.5625 2C23.5177 2 23.5 1.96789 23.5 1.95059L24 1.9502ZM23.5625 1.5V1H3.4375V1.5V2H23.5625V1.5ZM3.4375 1.5L3.43734 1C2.92616 1.00017 2.50042 1.41935 2.5 1.9498L3 1.9502L3.5 1.95059C3.49999 1.9681 3.48222 1.99999 3.43766 2L3.4375 1.5ZM3 1.9502H2.5V28.0498H3H3.5V1.9502H3ZM3 28.0498H2.5C2.5 28.5812 2.92646 28.9998 3.43734 29L3.4375 28.5L3.43766 28C3.48168 28 3.5 28.0318 3.5 28.0498H3ZM3.4375 28.5V29H11.3438V28.5V28H3.4375V28.5ZM11.3438 28.5V29C11.6196 29 11.8436 29.2239 11.8438 29.5002L12.3438 29.5L12.8438 29.4998C12.8434 28.6719 12.1722 28 11.3438 28V28.5ZM12.3438 29.5H11.8438C11.8438 29.7761 11.6199 30 11.3438 30V30.5V31C12.1722 31 12.8438 30.3284 12.8438 29.5H12.3438ZM11.3438 30.5V30H3.4375V30.5V31H11.3438V30.5ZM3.4375 30.5L3.43753 30C2.36398 29.9999 1.5 29.1232 1.5 28.0498H1H0.5C0.5 29.6662 1.80249 30.9999 3.43747 31L3.4375 30.5ZM1 28.0498H1.5V1.9502H1H0.5V28.0498H1ZM1 1.9502L1.5 1.95027C1.50016 0.876958 2.36417 5.91874e-05 3.43753 0L3.4375 -0.5L3.43747 -1C1.80253 -0.99991 0.500246 0.334034 0.5 1.95012L1 1.9502ZM3.4375 -0.5V0H23.5625V-0.5V-1H3.4375V-0.5ZM22.5 17.5L22.5 17C18.6342 17.0001 15.5002 20.1342 15.5 24L16 24L16.5 24C16.5002 20.6865 19.1865 18.0001 22.5 18L22.5 17.5ZM16 24H15.5C15.5 27.866 18.6341 30.9999 22.5 31L22.5 30.5L22.5 30C19.1863 29.9999 16.5 27.3137 16.5 24H16ZM22.5 30.5V31C26.366 31 29.5 27.866 29.5 24H29H28.5C28.5 27.3137 25.8137 30 22.5 30V30.5ZM29 24L29.5 24C29.4998 20.1342 26.3659 17 22.5 17V17.5V18C25.8136 18 28.4998 20.6864 28.5 24L29 24ZM23.793 21.293L24.1465 21.6465C24.3418 21.4513 24.6582 21.4513 24.8535 21.6465L25.207 21.293L25.5606 20.9394C24.9748 20.3536 24.0252 20.3536 23.4394 20.9394L23.793 21.293ZM25.207 21.293L24.8535 21.6465C25.0487 21.8418 25.0487 22.1582 24.8535 22.3535L25.207 22.707L25.5606 23.0606C26.1464 22.4748 26.1464 21.5252 25.5606 20.9394L25.207 21.293ZM25.207 22.707L24.8535 22.3535L23.5605 23.6464L23.9141 24L24.2676 24.3536L25.5606 23.0606L25.207 22.707ZM23.9141 24L23.5605 24.3536L24.8535 25.6465L25.207 25.293L25.5606 24.9394L24.2676 23.6464L23.9141 24ZM25.207 25.293L24.8535 25.6465C25.0487 25.8418 25.0487 26.1582 24.8535 26.3535L25.207 26.707L25.5606 27.0606C26.1464 26.4748 26.1464 25.5252 25.5606 24.9394L25.207 25.293ZM25.207 26.707L24.8535 26.3535C24.6582 26.5487 24.3418 26.5487 24.1465 26.3535L23.793 26.707L23.4394 27.0606C24.0252 27.6464 24.9748 27.6464 25.5606 27.0606L25.207 26.707ZM23.793 26.707L24.1465 26.3535L22.8536 25.0605L22.5 25.4141L22.1464 25.7676L23.4394 27.0606L23.793 26.707ZM22.5 25.4141L22.1464 25.0605L20.8535 26.3535L21.207 26.707L21.5606 27.0606L22.8536 25.7676L22.5 25.4141ZM21.207 26.707L20.8535 26.3535C20.6582 26.5487 20.3418 26.5487 20.1465 26.3535L19.793 26.707L19.4394 27.0606C20.0252 27.6464 20.9748 27.6464 21.5606 27.0606L21.207 26.707ZM19.793 26.707L20.1465 26.3535C19.9513 26.1582 19.9513 25.8418 20.1465 25.6465L19.793 25.293L19.4394 24.9394C18.8536 25.5252 18.8536 26.4748 19.4394 27.0606L19.793 26.707ZM19.793 25.293L20.1465 25.6465L21.4395 24.3536L21.0859 24L20.7324 23.6464L19.4394 24.9394L19.793 25.293ZM21.0859 24L21.4395 23.6464L20.1465 22.3535L19.793 22.707L19.4394 23.0606L20.7324 24.3536L21.0859 24ZM19.793 22.707L20.1465 22.3535C19.9513 22.1582 19.9513 21.8418 20.1465 21.6465L19.793 21.293L19.4394 20.9394C18.8536 21.5252 18.8536 22.4748 19.4394 23.0606L19.793 22.707ZM19.793 21.293L20.1465 21.6465C20.3418 21.4513 20.6582 21.4513 20.8535 21.6465L21.207 21.293L21.5606 20.9394C20.9748 20.3536 20.0252 20.3536 19.4394 20.9394L19.793 21.293ZM21.207 21.293L20.8535 21.6465L22.1464 22.9395L22.5 22.5859L22.8536 22.2324L21.5606 20.9394L21.207 21.293ZM22.5 22.5859L22.8536 22.9395L24.1465 21.6465L23.793 21.293L23.4394 20.9394L22.1464 22.2324L22.5 22.5859ZM12 15.5V16C12.2758 16 12.4999 16.2239 12.5 16.5002L13 16.5L13.5 16.4998C13.4997 15.6719 12.8285 15 12 15V15.5ZM13 16.5H12.5C12.5 16.7761 12.2761 17 12 17V17.5V18C12.8284 18 13.5 17.3284 13.5 16.5H13ZM12 17.5V17H8V17.5V18H12V17.5ZM8 17.5L8.00007 17C7.72387 17 7.5 16.776 7.5 16.5H7H6.5C6.5 17.3284 7.17169 17.9999 7.99993 18L8 17.5ZM7 16.5L7.5 16.5002C7.5001 16.224 7.72418 16 8.00007 16L8 15.5L7.99993 15C7.17163 15.0001 6.50031 15.6719 6.5 16.4998L7 16.5ZM8 15.5V16H12V15.5V15H8V15.5ZM16 10.5V11C16.2758 11 16.4999 11.2239 16.5 11.5002L17 11.5L17.5 11.4998C17.4997 10.6719 16.8285 10 16 10V10.5ZM17 11.5H16.5C16.5 11.7761 16.2761 12 16 12V12.5V13C16.8284 13 17.5 12.3284 17.5 11.5H17ZM16 12.5V12H8V12.5V13H16V12.5ZM8 12.5L8.00007 12C7.72387 12 7.5 11.776 7.5 11.5H7H6.5C6.5 12.3284 7.17169 12.9999 7.99993 13L8 12.5ZM7 11.5L7.5 11.5002C7.5001 11.224 7.72418 11 8.00007 11L8 10.5L7.99993 10C7.17163 10.0001 6.50031 10.6719 6.5 11.4998L7 11.5ZM8 10.5V11H16V10.5V10H8V10.5ZM19 5.5V6C19.2758 6 19.4999 6.22389 19.5 6.50019L20 6.5L20.5 6.49981C20.4997 5.67189 19.8285 5 19 5V5.5ZM20 6.5H19.5C19.5 6.77614 19.2761 7 19 7V7.5V8C19.8284 8 20.5 7.32843 20.5 6.5H20ZM19 7.5V7H8V7.5V8H19V7.5ZM8 7.5L8.00007 7C7.72387 6.99996 7.5 6.77603 7.5 6.5H7H6.5C6.5 7.32845 7.17169 7.99989 7.99993 8L8 7.5ZM7 6.5L7.5 6.50019C7.5001 6.224 7.72418 6.00004 8.00007 6L8 5.5L7.99993 5C7.17163 5.00011 6.50031 5.67187 6.5 6.49981L7 6.5ZM8 5.5V6H19V5.5V5H8V5.5Z" fill="#262626"/>
</g>
</g>
</svg>
