<svg width="32" height="32" viewBox="0 0 32 32" fill="none" xmlns="http://www.w3.org/2000/svg">
<g id="Frame 89154">
<g id="Group 89153">
<path id="Vector 212" d="M14.1105 6.30054C13.7591 6.65196 13.1307 7.86405 13.7565 9.04164C14.4288 10.3068 14.7946 10.5176 14.1105 12.099" stroke="black" stroke-width="2" stroke-linecap="round"/>
<path id="Vector 213" d="M19.3821 5.24585C19.0307 5.59727 18.3634 6.93629 19.0281 8.09237C19.9374 9.67377 20.4364 10.5172 19.3821 12.0986" stroke="black" stroke-width="2" stroke-linecap="round"/>
<path id="Vector 209" d="M5.84912 14.7349H26.9344" stroke="black" stroke-width="2" stroke-linecap="round"/>
<path id="Vector 210" d="M8.48486 15.2612V22.2496C8.48486 23.6303 9.60415 24.7496 10.9849 24.7496H21.7988C23.1795 24.7496 24.2988 23.6303 24.2988 22.2496V15.2612" stroke="black" stroke-width="2" stroke-linecap="round"/>
<path id="Vector" d="M27.686 25.8397C25.7093 29.2836 19.9196 30.7596 15.8256 30.7596C7.63765 30.7596 1 24.1515 1 15.9999C1 7.84839 7.63765 1.24023 15.8256 1.24023C19.9196 1.24023 23.626 2.89227 26.3088 5.56327C28.1802 7.42639 29.4651 10.26 29.4651 10.26" stroke="black" stroke-width="2" stroke-linecap="round" stroke-linejoin="round"/>
<path id="Vector_2" d="M31 6.56406L29.8251 10.6141L25.7751 9.43924" stroke="black" stroke-width="2" stroke-linecap="round" stroke-linejoin="round"/>
</g>
</g>
</svg>
