<svg width="24" height="24" viewBox="0 0 24 24" fill="none" xmlns="http://www.w3.org/2000/svg">
<g id="Frame">
<path id="Vector" d="M8.49801 3.84302C8.86131 3.84302 9.19602 4.04003 9.37237 4.35765L10.5956 6.56105C10.7557 6.84955 10.7633 7.1985 10.6157 7.49365L9.43726 9.8505C9.43726 9.8505 9.77876 11.6062 11.208 13.0354C12.6372 14.4646 14.387 14.8002 14.387 14.8002L16.7435 13.622C17.0388 13.4743 17.388 13.482 17.6766 13.6424L19.8863 14.8709C20.2036 15.0474 20.4004 15.3819 20.4004 15.7449V18.2817C20.4004 19.5735 19.2004 20.5065 17.9764 20.0935C15.4624 19.2452 11.5601 17.6301 9.08667 15.1567C6.61322 12.6833 4.99812 8.78095 4.14985 6.267C3.73684 5.04295 4.66989 3.84302 5.96172 3.84302H8.49801Z" stroke="#262626" stroke-width="1.5" stroke-linejoin="round"/>
</g>
</svg>
