<svg width="32" height="32" viewBox="0 0 32 32" fill="none" xmlns="http://www.w3.org/2000/svg">
<g id="Frame">
<path id="Vector" d="M15.9999 12.0001C18.5772 12.0001 20.6666 9.91074 20.6666 7.33342C20.6666 4.75609 18.5772 2.66675 15.9999 2.66675C13.4226 2.66675 11.3333 4.75609 11.3333 7.33342C11.3333 9.91074 13.4226 12.0001 15.9999 12.0001Z" stroke="#262626" stroke-width="2" stroke-linecap="round" stroke-linejoin="round"/>
<path id="Vector_2" d="M2.66675 27.3334C2.66675 21.4423 8.03935 16.6667 14.6667 16.6667" stroke="#262626" stroke-width="2" stroke-linecap="round" stroke-linejoin="round"/>
<path id="Vector_3" d="M18.6667 19.4666C18.6667 18.7555 23.3334 17.3333 23.3334 17.3333C23.3334 17.3333 28.0001 18.7555 28.0001 19.4666C28.0001 25.1555 23.3334 27.9999 23.3334 27.9999C23.3334 27.9999 18.6667 25.1555 18.6667 19.4666Z" stroke="#262626" stroke-width="2" stroke-linecap="round" stroke-linejoin="round"/>
</g>
</svg>
