<svg width="32" height="32" viewBox="0 0 32 32" fill="none" xmlns="http://www.w3.org/2000/svg">
<g id="order type=delivery">
<rect id="Rectangle 930" width="32" height="32" rx="5.33" fill="#FFC919"/>
<g id="Frame" clip-path="url(#clip0_4540_14792)">
<path id="Vector" d="M11.4 17.678C11.2242 17.7214 11.0437 17.8775 10.924 18.0343C9.01775 20.5354 7.1183 23.0417 5.22566 25.5531C4.87208 26.0224 4.80571 26.5447 5.25766 26.9749C5.68709 27.3838 6.14654 27.3407 6.56649 26.8951C8.68835 24.6433 10.8153 22.3974 12.9325 20.1404C13.096 19.9666 13.196 19.7216 13.2469 19.6383C13.3169 18.6964 12.0961 17.5057 11.4 17.678ZM8.69546 15.468C8.9799 15.7066 9.39195 15.6482 9.61081 15.3388L10.903 13.5133C11.1223 13.2039 11.0686 12.7556 10.7845 12.5173L8.57023 10.661C8.28578 10.4223 7.87374 10.4808 7.65488 10.7901L6.36264 12.6157C6.14338 12.925 6.19711 13.3734 6.48155 13.6116L8.69546 15.468ZM26.7425 10.2789C26.3103 9.9779 26.05 10.2924 25.8094 10.6523C25.1927 11.5751 24.58 12.5023 23.9301 13.3975C23.8049 13.5706 23.4177 13.7547 23.3257 13.68C22.8441 13.2881 22.1188 12.701 21.5183 12.1693C21.3358 12.0077 21.3741 11.6952 21.5874 11.587C22.3428 11.2046 22.9045 10.6902 23.0906 9.94313C23.1834 9.5698 23.3142 9.21425 23.4098 8.84171C23.4987 8.49327 23.667 8.37199 24.0139 8.46957C24.3994 8.57781 24.8036 8.64379 25.2006 8.64813C25.2464 8.6477 25.2915 8.63703 25.3326 8.61692C25.5799 8.50631 25.6763 8.17722 25.5443 7.92399C25.5098 7.85168 25.4604 7.78746 25.3993 7.73555C25.1911 7.57476 24.9083 7.50641 24.6483 7.4515C24.1695 7.35076 23.9285 7.0841 23.7247 6.56854C23.3509 5.62159 22.5806 5.15345 21.766 4.88757C20.358 4.42851 19.4359 5.04125 18.9646 6.56854C18.7165 7.37249 18.5048 8.23016 18.2614 9.08862C18.1796 9.37583 17.8762 9.50857 17.6348 9.36358C16.3438 8.59124 15.0646 7.80192 13.8332 7.0517C13.4227 6.80202 13.1205 6.81704 12.7689 7.19076C11.9705 8.03856 11.1215 8.82907 10.318 9.67133C10.0888 9.91153 9.88538 10.0834 9.65545 10.0407L9.01111 9.50067C8.85822 9.37267 8.63699 9.40388 8.51887 9.5702C8.40114 9.73652 8.42998 9.9775 8.58287 10.1055L11.2756 12.3625C11.4455 12.5047 11.7003 12.4506 11.803 12.2325C11.8396 12.1517 11.8491 12.0612 11.83 11.9745C11.811 11.8878 11.7643 11.8097 11.6971 11.7517L11.1669 11.3077C11.1391 11.2832 11.1169 11.2531 11.1017 11.2194C11.0866 11.1856 11.0789 11.149 11.0791 11.112C11.0793 11.075 11.0875 11.0384 11.103 11.0048C11.1186 10.9713 11.1412 10.9414 11.1693 10.9173L12.0128 10.2288C13.5298 8.98986 13.5183 9.00645 15.0452 10.2363C15.4778 10.5847 15.4928 10.8498 15.1831 11.2938C14.2784 12.5892 13.401 13.9068 12.5196 15.2211C11.6465 16.5236 11.692 16.8938 12.8365 17.9589C13.8375 18.89 14.826 19.8382 15.8484 20.7409C16.2193 21.068 16.2786 21.3105 15.9961 21.7522C15.2309 22.9469 14.5107 24.1755 13.7704 25.3887C13.4832 25.8593 13.4705 26.3021 13.8992 26.6754C14.3377 27.0583 14.6944 26.9109 15.0531 26.4838C16.3017 24.9968 17.565 23.5222 18.8429 22.0604C19.2577 21.5867 19.2558 21.207 18.8082 20.7745C18.2634 20.2474 17.7443 19.6896 17.177 19.1069L20.7574 14.9671C20.9363 14.7605 21.2279 14.7285 21.4408 14.8928L23.1305 16.1938C23.5244 16.4976 23.8444 16.4964 24.1328 16.001C25.028 14.4622 25.9406 12.9361 26.8543 11.4108C27.106 10.9881 27.1842 10.5863 26.7425 10.2789Z" fill="white"/>
</g>
</g>
<defs>
<clipPath id="clip0_4540_14792">
<rect width="22.5185" height="22.5185" fill="white" transform="translate(4.74023 4.73975)"/>
</clipPath>
</defs>
</svg>
