<svg width="40" height="30" viewBox="0 0 40 30" fill="none" xmlns="http://www.w3.org/2000/svg">
<path d="M0 4C0 1.79086 1.79086 0 4 0H40V30H4C1.79086 30 0 28.2091 0 26V4Z" fill="#FF9800"/>
<path d="M25.2053 14.5495C25.5957 14.5495 25.9119 14.8657 25.9119 15.2561C25.9119 15.6465 25.5957 15.9627 25.2053 15.9627H23.9201C23.5298 15.9627 23.2136 15.6465 23.2136 15.2561C23.2136 14.8657 23.5298 14.5495 23.9201 14.5495H25.2053Z" fill="white"/>
<path fill-rule="evenodd" clip-rule="evenodd" d="M25.6471 6.38916C27.2448 6.38916 28.6976 7.31466 29.3733 8.76246L31.0049 12.2578L33.8024 12.7887C35.0767 13.0297 35.9997 14.1425 36 15.4393V19.3689C36 20.1495 35.3674 20.7819 34.5868 20.7821H32.4695C32.1683 22.3915 30.7576 23.6108 29.0608 23.611L28.7057 23.5921C27.1698 23.436 25.9295 22.2779 25.6496 20.7821H14.0919C13.7906 22.3915 12.3799 23.6108 10.6831 23.611L10.328 23.5921C8.79198 23.4361 7.55186 22.278 7.27191 20.7821H5.41319C4.63266 20.7818 4 20.1495 4 19.3689V14.1002C4 13.3196 4.63266 12.6873 5.41319 12.687H19.8074V8.18765C19.8075 7.19441 20.6127 6.38972 21.6058 6.38916H25.6471ZM10.6831 18.213C9.61847 18.213 8.75538 19.0761 8.75538 20.1407C8.75586 21.205 9.61876 22.0685 10.6831 22.0685C11.7474 22.0684 12.6104 21.2049 12.6109 20.1407C12.6109 19.0762 11.7477 18.2131 10.6831 18.213ZM29.0608 18.213C27.9963 18.2132 27.1331 19.0762 27.1331 20.1407C27.1335 21.2049 27.9966 22.0683 29.0608 22.0685C30.1251 22.0684 30.9881 21.2049 30.9886 20.1407C30.9886 19.0762 30.1254 18.2131 29.0608 18.213ZM32.5122 20.4746C32.5232 20.3676 32.5295 20.2592 32.5298 20.1495L32.5122 20.4746ZM5.5412 19.2409H7.33467C7.7312 17.7608 9.07809 16.6705 10.6831 16.6705L11.0371 16.6881C12.484 16.8348 13.6659 17.8709 14.0329 19.2409H19.8074V14.2282H5.5412V19.2409ZM21.6058 7.93036C21.4644 7.93092 21.3499 8.04615 21.3498 8.18765V19.2409H25.7124C26.1088 17.7609 27.4559 16.6707 29.0608 16.6705L29.4148 16.6881C30.8618 16.8348 32.0449 17.8707 32.4118 19.2409H34.4575V16.8487C33.2878 16.7879 32.4723 16.4431 32.0064 15.7443C31.629 15.1778 31.5768 14.4858 31.5697 13.9345L30.3975 13.7136H24.4335C23.724 13.7132 23.1483 13.138 23.1483 12.4285V7.93036H21.6058ZM32.9967 14.2044C33.0174 14.547 33.0651 14.7832 33.1837 14.9611C33.2959 15.1291 33.5755 15.3797 34.4563 15.4368C34.4548 14.8822 34.0614 14.4066 33.5163 14.3035L32.9967 14.2044ZM24.6907 12.1724H29.2629L27.9765 9.41383C27.5541 8.50915 26.6456 7.93036 25.6471 7.93036H24.6907V12.1724Z" fill="white"/>
</svg>
