<svg width="24" height="24" viewBox="0 0 24 24" fill="none" xmlns="http://www.w3.org/2000/svg">
<g id="more">
<path id="Vector" d="M5.75 13C6.44036 13 7 12.4404 7 11.75C7 11.0596 6.44036 10.5 5.75 10.5C5.05964 10.5 4.5 11.0596 4.5 11.75C4.5 12.4404 5.05964 13 5.75 13Z" fill="#262626"/>
<path id="Vector_2" d="M11.75 13C12.4404 13 13 12.4404 13 11.75C13 11.0596 12.4404 10.5 11.75 10.5C11.0596 10.5 10.5 11.0596 10.5 11.75C10.5 12.4404 11.0596 13 11.75 13Z" fill="#262626"/>
<path id="Vector_3" d="M17.75 13C18.4404 13 19 12.4404 19 11.75C19 11.0596 18.4404 10.5 17.75 10.5C17.0596 10.5 16.5 11.0596 16.5 11.75C16.5 12.4404 17.0596 13 17.75 13Z" fill="#262626"/>
</g>
</svg>
