<svg width="24" height="24" viewBox="0 0 24 24" fill="none" xmlns="http://www.w3.org/2000/svg">
<g id="Track Reward">
<g id="Group 88376">
<circle id="Ellipse 29" cx="12" cy="12" r="11.25" stroke="#262626" stroke-width="1.5"/>
<path id="Star 4" d="M11.5887 6.61914C11.7474 6.26366 12.2514 6.26364 12.41 6.61914L13.6044 9.29395C13.7248 9.56382 13.9764 9.75246 14.2694 9.79102L17.1805 10.1738C17.5516 10.223 17.7041 10.6776 17.4374 10.9404L15.2518 13.0928C15.0514 13.2903 14.962 13.5748 15.0126 13.8516L15.5624 16.8633C15.6313 17.2409 15.2265 17.5254 14.8944 17.333L12.4257 15.9023L12.3241 15.8525C12.1163 15.7666 11.8825 15.7666 11.6747 15.8525L11.5731 15.9023L9.10437 17.333C8.77225 17.5255 8.36746 17.2409 8.4364 16.8633L8.98621 13.8516C9.03673 13.5748 8.94731 13.2902 8.74695 13.0928L6.5614 10.9404C6.29459 10.6776 6.44702 10.223 6.81824 10.1738L9.72937 9.79102C10.0223 9.75246 10.274 9.56382 10.3944 9.29395L11.5887 6.61914Z" stroke="#262626" stroke-width="1.5"/>
</g>
</g>
</svg>
