<svg width="32" height="32" viewBox="0 0 32 32" fill="none" xmlns="http://www.w3.org/2000/svg">
<g id="Frame 89142">
<g id="Group 89141">
<path id="Vector 216" d="M9.62887 2.875C9.27245 3.17803 8.63512 4.22322 9.26984 5.23865C9.95175 6.32956 10.3228 6.51136 9.62887 7.875" stroke="black" stroke-width="1.8" stroke-linecap="round"/>
<path id="Vector 217" d="M15.8462 0.875C15.5428 1.19123 14.6089 3.2297 15.1827 4.27001C15.9677 5.69304 16.3985 6.45197 15.4883 7.875" stroke="black" stroke-width="1.8" stroke-linecap="round"/>
<path id="Vector 218" d="M21.6288 2.875C21.2724 3.17803 20.6351 4.22322 21.2698 5.23865C21.9517 6.32956 22.3227 6.51136 21.6288 7.875" stroke="black" stroke-width="1.8" stroke-linecap="round"/>
<path id="Vector 209" d="M1 12H30" stroke="black" stroke-width="2" stroke-linecap="round"/>
<path id="Vector 210" d="M4.625 13.1826V25.7317C4.625 27.1124 5.74429 28.2317 7.125 28.2317H15.5M26.375 13.1826V15.8" stroke="black" stroke-width="2" stroke-linecap="round"/>
<g id="Group 89139">
<path id="Vector" d="M25 31.125C28.3137 31.125 31 28.4387 31 25.125C31 21.8113 28.3137 19.125 25 19.125C21.6863 19.125 19 21.8113 19 25.125C19 28.4387 21.6863 31.125 25 31.125Z" stroke="black" stroke-width="1.9" stroke-linejoin="round"/>
<g id="Group 89140">
<path id="Vector_2" d="M25 22.625V27.625" stroke="black" stroke-width="1.9" stroke-linecap="round" stroke-linejoin="round"/>
<path id="Vector_3" d="M22.5 25.125H27.5" stroke="black" stroke-width="1.9" stroke-linecap="round" stroke-linejoin="round"/>
</g>
</g>
</g>
</g>
</svg>
