<svg width="32" height="32" viewBox="0 0 32 32" fill="none" xmlns="http://www.w3.org/2000/svg">
<g id="Frame">
<path id="Vector" d="M16.3016 2.68555C24.9525 2.68555 31.9919 5.12195 31.9919 8.84899C31.9919 12.4136 25.5525 14.7982 17.4222 15.0002V21.7712C21.1828 22.0091 24.1467 23.4408 24.1467 25.6591C24.1467 28.0933 20.576 29.5821 16.3016 29.5821C12.0272 29.5821 8.45647 28.0933 8.45647 25.6591C8.45647 23.4408 11.4212 22.0091 15.1802 21.7712V15.0132L15.1817 15.0002C7.05226 14.7982 0.611328 12.4136 0.611328 8.84899C0.611328 5.12119 7.65068 2.68555 16.3016 2.68555ZM17.4215 24.0216L17.4222 23.979C17.4251 24.1261 17.399 24.2724 17.3454 24.4095C17.2918 24.5466 17.2116 24.6717 17.1096 24.7778C17.0076 24.8839 16.8857 24.9689 16.7509 25.0279C16.616 25.0869 16.4709 25.1188 16.3237 25.1217C16.0265 25.1276 15.7391 25.0151 15.5248 24.8091C15.3105 24.6031 15.1868 24.3204 15.181 24.0232C12.5875 24.2229 10.6985 25.0813 10.6985 25.6607C10.6985 26.3208 13.1478 27.3416 16.3016 27.3416C19.4554 27.3416 21.9047 26.3201 21.9047 25.6607C21.9047 25.0813 20.0172 24.2229 17.4215 24.0216ZM16.3016 4.9268L15.9052 4.92908C8.64705 5.00074 2.85258 7.03922 2.85258 8.84899C2.85258 10.6931 8.85974 12.7719 16.3016 12.7719C23.7435 12.7719 29.7506 10.6931 29.7506 8.84899C29.7506 7.00567 23.7435 4.9268 16.3016 4.9268Z" fill="#262626"/>
</g>
</svg>
