<svg width="40" height="30" viewBox="0 0 40 30" fill="none" xmlns="http://www.w3.org/2000/svg">
<path d="M4 0.25H39.75V29.75H4C1.92893 29.75 0.25 28.0711 0.25 26V4C0.25 1.92893 1.92893 0.25 4 0.25Z" fill="white"/>
<path d="M4 0.25H39.75V29.75H4C1.92893 29.75 0.25 28.0711 0.25 26V4C0.25 1.92893 1.92893 0.25 4 0.25Z" stroke="#6B7785" stroke-width="0.5"/>
<path fill-rule="evenodd" clip-rule="evenodd" d="M24.8267 6.5C25.2306 6.50004 25.6107 6.69336 25.8523 7.01953L29.7713 11.9172H33.4403C34.854 11.9173 35.9999 13.0718 36 14.4962V19.2679C35.9999 19.98 35.4269 20.5588 34.7202 20.5588H32.4062C32.0159 22.2442 30.519 23.5 28.7273 23.5C26.9355 23.5 25.4386 22.2442 25.0483 20.5588H16.4062C16.0159 22.2442 14.519 23.5 12.7273 23.5C10.9355 23.5 9.43864 22.2442 9.0483 20.5588H5.27983C4.57307 20.5588 4.00014 19.98 4 19.2679V13.8522C4 12.7837 4.86007 11.9172 5.92045 11.9172H7.9929L9.76989 7.26284C9.97594 6.79918 10.1426 6.50031 10.9375 6.5H24.8267ZM12.7273 17.6377C11.6026 17.6377 10.6903 18.5569 10.6903 19.6901C10.6903 20.8233 11.6026 21.7425 12.7273 21.7425C13.8519 21.7425 14.7642 20.8232 14.7642 19.6901C14.7642 18.557 13.8519 17.6377 12.7273 17.6377ZM28.7273 17.6377C27.6026 17.6377 26.6903 18.5569 26.6903 19.6901C26.6903 20.8233 27.6026 21.7425 28.7273 21.7425C29.8519 21.7425 30.7642 20.8232 30.7642 19.6901C30.7642 18.557 29.8519 17.6377 28.7273 17.6377ZM9.2358 13.8522H5.92045V15.8802H6.90909C7.39108 15.8802 7.78125 16.2733 7.78125 16.759C7.78125 17.2446 7.39108 17.6377 6.90909 17.6377H5.92045V18.6238H9.09943C9.55735 17.039 11.0063 15.8802 12.7273 15.8802C14.4482 15.8802 15.8972 17.039 16.3551 18.6238H25.0994C25.5573 17.039 27.0063 15.8802 28.7273 15.8802C30.4482 15.8802 31.8972 17.039 32.3551 18.6238H34.0795V16.5386H33.1577C31.9612 16.5385 30.9726 15.5969 30.9062 14.3932L30.8764 13.8522H28.8082L28.7955 13.8364H13.0781C12.4262 13.8361 11.9694 13.1864 12.1861 12.5669L13.6335 8.43501H11.3537L9.2358 13.8522ZM32.5043 14.3044C32.5237 14.6537 32.8105 14.9269 33.1577 14.927H34.0795V14.4962C34.0795 14.1403 33.7936 13.8523 33.4403 13.8522H32.4787L32.5043 14.3044ZM14.0028 12.2249H20.0724V8.43501H15.331L14.0028 12.2249ZM21.6719 12.2249H27.5156L24.5057 8.43501H21.6719V12.2249Z" fill="#262626"/>
</svg>
