<svg width="32" height="32" viewBox="0 0 32 32" fill="none" xmlns="http://www.w3.org/2000/svg">
<g id="Frame 89299">
<g id="Group 89298">
<path id="Vector" d="M16 13.5L16 4.33333" stroke="#262626" stroke-width="2.2" stroke-linecap="round" stroke-linejoin="round"/>
<path id="Vector_2" d="M12.6666 10.1667L15.9999 13.5L19.3333 10.1669" stroke="#262626" stroke-width="2.2" stroke-linecap="round" stroke-linejoin="round"/>
<path id="Vector 168" d="M14.3333 22.6665H17.6666" stroke="#262626" stroke-width="2.2" stroke-linecap="round"/>
<path id="Vector 169" d="M1.83325 17.6665L30.1666 17.6665" stroke="#262626" stroke-width="2.2" stroke-linecap="round"/>
<path id="Union" d="M11.1776 6H6.35528C5.54418 6 4.82173 6.5311 4.55562 7.32339L1.15594 17.4517C1.05267 17.7594 1 18.0818 1 18.4063V25.2045C1.00001 26.5643 2.06599 27.6667 3.38095 27.6667H28.619C29.934 27.6667 31 26.5643 31 25.2045V18.4063C31 18.0818 30.9473 17.7594 30.8441 17.4517L27.4444 7.32339C27.1783 6.5311 26.4558 6 25.6447 6H20.8224" stroke="#262626" stroke-width="2.2" stroke-linecap="round"/>
</g>
</g>
</svg>
