<svg width="102" height="102" viewBox="0 0 102 102" fill="none" xmlns="http://www.w3.org/2000/svg">
<g id="Group 89076">
<rect id="Rectangle 7380" width="102" height="102" rx="24" fill="#ED7F1C"/>
<g id="Frame">
<path id="Vector" d="M72.4288 52.9898C74.3986 52.9898 75.9985 54.5897 75.9985 56.5563V70.8453C75.9985 72.8152 74.3986 74.4151 72.4288 74.4151H29.5683C27.5984 74.4151 25.9985 72.8152 25.9985 70.8453V56.5596C25.9985 54.5864 27.5984 52.9898 29.5683 52.9898H72.4321H72.4288ZM45.6439 59.8127H34.9313C33.9447 59.8127 33.1447 60.6827 33.1447 61.7559C33.1447 62.8325 33.9447 63.7025 34.9313 63.7025H45.6439C46.6305 63.7025 47.4271 62.8325 47.4271 61.7559C47.4271 60.6827 46.6272 59.8127 45.6439 59.8127ZM72.4288 27.5815C74.3986 27.5815 75.9985 29.1814 75.9985 31.1546V45.4404C75.9985 47.4136 74.3986 49.0101 72.4288 49.0101H29.5683C27.5984 49.0101 25.9985 47.4102 25.9985 45.4437V31.1513C25.9985 29.1814 27.5984 27.5815 29.5683 27.5815H72.4321H72.4288ZM45.6439 34.4144H34.9313C33.9447 34.4144 33.1447 35.281 33.1447 36.3576C33.1447 37.4309 33.9447 38.3008 34.9313 38.3008H45.6439C46.6305 38.3008 47.4271 37.4309 47.4271 36.3576C47.4271 35.2844 46.6272 34.4144 45.6439 34.4144Z" fill="white"/>
</g>
</g>
</svg>
