<svg width="40" height="30" viewBox="0 0 40 30" fill="none" xmlns="http://www.w3.org/2000/svg">
<path d="M0 4C0 1.79086 1.79086 0 4 0H40V30H4C1.79086 30 0 28.2091 0 26V4Z" fill="#AB47BC"/>
<path d="M24.6356 14.4547C25.0874 14.4547 25.4532 14.8205 25.4532 15.2724C25.4532 15.7242 25.0874 16.09 24.6356 16.09H23.2719C22.8201 16.09 22.4543 15.7242 22.4543 15.2724C22.4543 14.8205 22.8201 14.4547 23.2719 14.4547H24.6356Z" fill="white"/>
<path fill-rule="evenodd" clip-rule="evenodd" d="M24.553 5.59106C24.6861 5.59113 24.8263 5.60967 24.9685 5.65632C26.1757 6.05267 27.7632 6.95322 29.2032 8.13457C30.6159 9.29354 31.9711 10.7937 32.6802 12.4625L33.5565 13.2282C34.4736 14.0308 34.9998 15.1909 35 16.4096V19.6363C34.9999 20.6904 34.1445 21.5444 33.0904 21.5445H30.9504C30.5783 23.184 29.1148 24.4089 27.3628 24.409L26.986 24.389C25.4037 24.2281 24.1205 23.0648 23.7753 21.5445H15.8132C15.4411 23.1838 13.9788 24.4087 12.227 24.409L11.8501 24.389C10.2676 24.2282 8.98334 23.065 8.63814 21.5445H6.90829C5.85414 21.5444 5.00014 20.6904 5 19.6363V8.31834C5 6.81211 6.22104 5.59106 7.72727 5.59106H24.553ZM12.227 18.6814C11.0973 18.6814 10.1816 19.5972 10.1816 20.7269C10.1817 21.8564 11.0974 22.7724 12.227 22.7724C13.3563 22.772 14.2723 21.8562 14.2725 20.7269C14.2725 19.5974 13.3564 18.6818 12.227 18.6814ZM27.3628 18.6814C26.2333 18.6816 25.3174 19.5973 25.3174 20.7269C25.3175 21.8563 26.2334 22.7722 27.3628 22.7724C28.4923 22.7722 29.4081 21.8564 29.4083 20.7269C29.4083 19.5973 28.4924 18.6816 27.3628 18.6814ZM7.72727 7.22636C7.12478 7.22636 6.6353 7.71584 6.6353 8.31834V17.182H7.59011C8.04198 17.182 8.40776 17.5478 8.40776 17.9996C8.40776 18.4515 8.04198 18.8173 7.59011 18.8173H6.6353V19.6363C6.63544 19.7867 6.75788 19.9091 6.90829 19.9092H8.63947C9.01167 18.2697 10.4749 17.0448 12.227 17.0448L12.6025 17.0635C14.1853 17.224 15.4679 18.3885 15.8132 19.9092H23.7753C24.1474 18.2697 25.6108 17.045 27.3628 17.0448L27.7384 17.0635C29.3213 17.2239 30.6051 18.3883 30.9504 19.9092H33.0904C33.2408 19.9091 33.3632 19.7867 33.3634 19.6363V18.0156C32.9788 17.9635 32.6383 17.8696 32.35 17.716C31.8225 17.4346 31.5188 16.9863 31.4298 16.4522C31.35 15.9735 31.4503 15.4733 31.5843 15.03C31.6837 14.7009 31.819 14.3549 31.9624 14.0086L31.5363 13.6357C31.4882 13.5936 31.4447 13.5477 31.4045 13.4999H8.94576C8.31267 13.4997 7.86338 12.9798 7.8631 12.4092V7.22636H7.72727ZM33.0198 15.4641C32.9067 15.8385 32.8868 16.0711 32.9093 16.2059C32.9225 16.2854 32.944 16.3327 33.0558 16.3923C33.1238 16.4285 33.2237 16.4614 33.3634 16.4922V16.4096C33.3633 16.0039 33.265 15.6102 33.0877 15.255C33.0631 15.3266 33.0403 15.3963 33.0198 15.4641ZM9.4984 11.8633H15.6361V7.22636H9.4984V11.8633ZM26.3348 11.8633H30.4843C29.8768 10.9773 29.0604 10.1346 28.1645 9.39966C27.3927 8.76658 26.591 8.24004 25.866 7.84559L26.3348 11.8633ZM17.2714 11.8633H24.6875L24.1482 7.22636H17.2714V11.8633Z" fill="white"/>
</svg>
