<svg width="40" height="30" viewBox="0 0 40 30" fill="none" xmlns="http://www.w3.org/2000/svg">
<path d="M0 4C0 1.79086 1.79086 0 4 0H40V30H4C1.79086 30 0 28.2091 0 26V4Z" fill="#66BB6A"/>
<path d="M18.6904 15.0383C19.0521 15.0383 19.3452 15.3461 19.3452 15.7258C19.3449 16.1052 19.0519 16.4133 18.6904 16.4133H17.3809C17.0194 16.4133 16.7264 16.1052 16.7261 15.7258C16.7261 15.3461 17.0192 15.0383 17.3809 15.0383H18.6904Z" fill="white"/>
<path fill-rule="evenodd" clip-rule="evenodd" d="M12.4035 9.60787C14.7689 8.84546 17.3071 8.28225 19.4488 8.58194L19.4923 8.58731L19.5358 8.5994C20.6668 8.89625 21.7991 9.54427 22.7445 10.2121C23.6304 10.8381 24.3948 11.5145 24.9019 12.0156C25.9373 12.0285 27.4229 12.1005 28.8498 12.2331C30.3193 12.3696 31.8243 12.5765 32.689 12.879C34.275 13.4341 35.5857 14.3409 36.1675 14.9013C36.3942 15.1197 36.4999 15.4176 36.5 15.7016V17.8918C36.4999 18.2197 36.3755 18.534 36.1547 18.766L35.638 19.3085C35.4761 19.4785 35.257 19.5742 35.028 19.5744H31.0226C30.5641 20.7062 29.4954 21.5 28.25 21.5C27.0047 21.4999 25.936 20.7061 25.4774 19.5744H12.6887C12.2302 20.7062 11.1615 21.5 9.9161 21.5C8.67082 21.4999 7.60208 20.7061 7.1435 19.5744H4.41567C3.90984 19.5741 3.50033 19.144 3.5 18.6129V13.5249C3.50028 12.6898 4.14461 12.0115 4.94001 12.0115H6.10634C7.80554 11.3379 10.0877 10.3543 12.4035 9.60787ZM9.9161 16.8256C9.12072 16.8257 8.47623 17.5025 8.47609 18.3376C8.47625 19.1728 9.12073 19.8509 9.9161 19.851C10.7116 19.851 11.3572 19.1729 11.3574 18.3376C11.3572 17.5024 10.7116 16.8256 9.9161 16.8256ZM28.25 16.8256C27.4546 16.8257 26.8101 17.5025 26.81 18.3376C26.8101 19.1728 27.4546 19.8509 28.25 19.851C29.0455 19.851 29.6911 19.1729 29.6913 18.3376C29.6911 17.5024 29.0455 16.8256 28.25 16.8256ZM12.9278 18.3376L12.9202 18.1295C12.9192 18.1155 12.9162 18.1018 12.9151 18.0879C12.9212 18.1703 12.9278 18.2536 12.9278 18.3376ZM31.2617 18.3376L31.2541 18.1295C31.2531 18.1155 31.2501 18.1018 31.249 18.0879C31.2551 18.1703 31.2617 18.2536 31.2617 18.3376ZM11.1899 11.7645C9.89892 12.2384 8.66215 12.7454 7.55402 13.1946C7.55518 13.2128 7.55913 13.2311 7.55914 13.2496C7.55914 13.8076 7.44307 14.6266 6.944 15.3257C6.53241 15.9019 5.9142 16.3189 5.07045 16.4778V17.9254H6.93249C7.12502 16.3737 8.38591 15.1754 9.9161 15.1753C11.4464 15.1753 12.7072 16.3736 12.8997 17.9254H25.2664C25.4589 16.3737 26.7198 15.1754 28.25 15.1753C29.7803 15.1753 31.0411 16.3736 31.2336 17.9254H34.7339L34.9295 17.7199V17.1653C34.6829 17.1631 34.2911 17.1529 33.8642 17.07C33.3584 16.9717 32.7321 16.7632 32.2247 16.2912C31.8034 15.8989 31.5867 15.3755 31.4728 14.9416C31.407 14.6909 31.3703 14.4456 31.35 14.2299C30.6462 14.0902 29.7152 13.97 28.7117 13.8767C27.2659 13.7424 25.7602 13.6713 24.7676 13.6632L23.6256 14.2635L23.4593 14.3494H10.0478C9.61387 14.3494 9.26259 13.9806 9.26259 13.5249C9.26261 13.0693 9.61388 12.7004 10.0478 12.7004H12.0812L11.1899 11.7645ZM32.9243 14.7402C32.9936 14.925 33.0819 15.0666 33.1813 15.1591C33.4127 15.3742 33.7478 15.5099 34.1264 15.5835C34.2553 15.6085 34.3814 15.6224 34.4998 15.6332C34.0947 15.348 33.5519 15.0231 32.9243 14.7402ZM5.07045 14.7831C5.38667 14.672 5.57089 14.4983 5.68687 14.336C5.8261 14.1409 5.90538 13.9015 5.94776 13.6619H5.07045V14.7831ZM15.1403 10.5519C14.3986 10.7224 13.6345 10.9373 12.8639 11.1857H12.8588L14.3013 12.7004H15.9588L15.1403 10.5519ZM19.1943 10.2121C18.4423 10.1126 17.6074 10.1388 16.7197 10.2578L17.6507 12.7004H23.0872L23.2023 12.6386C22.8201 12.3035 22.3648 11.9335 21.8672 11.5818C21.003 10.9713 20.0608 10.4479 19.1943 10.2121Z" fill="white"/>
</svg>
