<svg width="32" height="32" viewBox="0 0 32 32" fill="none" xmlns="http://www.w3.org/2000/svg">
<g id="Combine">
<g id="Group 88361">
<path id="Vector" d="M13 9.25V3.175C13 2.80221 12.7761 2.5 12.5 2.5H5.5C5.22386 2.5 5 2.80221 5 3.175V28.825C5 29.1978 5.22386 29.5 5.5 29.5H12.5C12.7761 29.5 13 29.1978 13 28.825V22.75" stroke="#262626" stroke-width="2" stroke-linecap="round"/>
<path id="Vector_2" d="M19 22.75V28.825C19 29.1978 19.2239 29.5 19.5 29.5H26.5C26.7761 29.5 27 29.1978 27 28.825V3.175C27 2.80221 26.7761 2.5 26.5 2.5H19.5C19.2239 2.5 19 2.80221 19 3.175V9.25" stroke="#262626" stroke-width="2" stroke-linecap="round"/>
<path id="Vector_3" d="M18.75 15.5H26.25" stroke="#262626" stroke-width="2" stroke-linecap="round"/>
<path id="Vector_4" d="M5.75 15.5H13.25" stroke="#262626" stroke-width="2" stroke-linecap="round"/>
<path id="Vector_5" d="M20.3865 17.9092L19.591 17.1137L18 15.5227L19.591 13.9317L20.3865 13.1362" stroke="#262626" stroke-width="2" stroke-linecap="round" stroke-linejoin="round"/>
<path id="Vector_6" d="M12.1001 17.9092L12.8956 17.1137L14.4866 15.5227L12.8956 13.9317L12.1001 13.1362" stroke="#262626" stroke-width="2" stroke-linecap="round" stroke-linejoin="round"/>
</g>
</g>
</svg>
