<svg width="32" height="32" viewBox="0 0 32 32" fill="none" xmlns="http://www.w3.org/2000/svg">
<g id="Frame">
<path id="Vector" d="M6.57199 21.8384C4.15913 22.5622 2.66675 23.5622 2.66675 24.6668C2.66675 26.8759 8.63628 28.6668 16.0001 28.6668C23.3639 28.6668 29.3334 26.8759 29.3334 24.6668C29.3334 23.5622 27.841 22.5622 25.4281 21.8384" stroke="#262626" stroke-width="2" stroke-linecap="round" stroke-linejoin="round"/>
<path id="Vector_2" d="M15.9999 23.3334C15.9999 23.3334 24.6666 17.6694 24.6666 11.1213C24.6666 6.45197 20.7864 2.66675 15.9999 2.66675C11.2135 2.66675 7.33325 6.45197 7.33325 11.1213C7.33325 17.6694 15.9999 23.3334 15.9999 23.3334Z" stroke="#262626" stroke-width="2" stroke-linejoin="round"/>
<path id="Vector_3" d="M16.0001 14.6667C17.841 14.6667 19.3334 13.1743 19.3334 11.3333C19.3334 9.4924 17.841 8 16.0001 8C14.1591 8 12.6667 9.4924 12.6667 11.3333C12.6667 13.1743 14.1591 14.6667 16.0001 14.6667Z" stroke="#262626" stroke-width="2" stroke-linejoin="round"/>
</g>
</svg>
