<svg width="54" height="54" viewBox="0 0 54 54" fill="none" xmlns="http://www.w3.org/2000/svg">
<g id="Frame">
<path id="Vector" d="M27 20C30.866 20 34 16.866 34 13C34 9.13401 30.866 6 27 6C23.134 6 20 9.13401 20 13C20 16.866 23.134 20 27 20Z" stroke="#262626" stroke-width="3.5" stroke-linecap="round" stroke-linejoin="round"/>
<path id="Vector_2" d="M5.875 44.875C5.875 35.4861 14.3816 27.875 24.875 27.875" stroke="#262626" stroke-width="3.5" stroke-linecap="round" stroke-linejoin="round"/>
<path id="Vector_3" d="M30.875 32.275C30.875 31.1416 38.375 28.875 38.375 28.875C38.375 28.875 45.875 31.1416 45.875 32.275C45.875 41.3416 38.375 45.875 38.375 45.875C38.375 45.875 30.875 41.3416 30.875 32.275Z" stroke="#262626" stroke-width="3.5" stroke-linecap="round" stroke-linejoin="round"/>
</g>
</svg>
