<svg width="40" height="30" viewBox="0 0 40 30" fill="none" xmlns="http://www.w3.org/2000/svg">
<path d="M0 4C0 1.79086 1.79086 0 4 0H40V30H4C1.79086 30 0 28.2091 0 26V4Z" fill="#007CFF"/>
<path fill-rule="evenodd" clip-rule="evenodd" d="M20.4333 7.5C20.6795 7.5 20.9156 7.60644 21.0882 7.79595L24.707 11.7698C26.7453 11.8529 31.595 12.6124 35.4462 15.1755C35.9213 15.4917 36.227 16.0084 36.3244 16.569L36.4609 17.3602C36.5207 17.7049 36.5122 18.0595 36.4333 18.3998L36.3589 18.718C36.1861 19.4638 35.5646 19.9866 34.8521 19.9866H32.1417C31.8232 21.4275 30.6245 22.5 29.1915 22.5C27.7588 22.4997 26.561 21.4273 26.2427 19.9866H13.7899C13.4713 21.4275 12.2726 22.5 10.8397 22.5C9.40688 22.4997 8.20913 21.4273 7.89083 19.9866H5.0523C4.19468 19.9866 3.5 19.2372 3.5 18.312V14.0705C3.50029 13.2605 3.99434 12.5476 4.71454 12.3186L7.14915 11.5437C7.72261 11.3614 8.33407 11.3699 8.90272 11.569L12.6759 12.8911V11.0024C12.6763 10.5341 13.0575 10.0055 13.6423 10.1145C14.2028 10.2191 14.819 10.6441 15.2691 11.0976C15.5054 11.3357 15.7288 11.6143 15.8977 11.9155C16.0623 12.2091 16.2051 12.578 16.2052 12.9819V13.1856H20.3864L16.6711 9.1047C16.1276 8.50745 16.5197 7.5 17.2956 7.5H20.4333ZM10.8397 17.6264C10.0215 17.6267 9.35796 18.3425 9.35766 19.2252C9.35766 20.1081 10.0213 20.8251 10.8397 20.8254C11.6583 20.8254 12.323 20.1083 12.323 19.2252C12.3227 18.3423 11.6581 17.6264 10.8397 17.6264ZM29.1915 17.6264C28.3734 17.6267 27.7099 18.3425 27.7096 19.2252C27.7096 20.1081 28.3732 20.8251 29.1915 20.8254C30.0102 20.8254 30.6749 20.1083 30.6749 19.2252C30.6746 18.3423 30.01 17.6264 29.1915 17.6264ZM22.5371 12.9402C23.2386 13.7108 22.7318 15.0119 21.7306 15.0119H13.4259C13.3079 15.0118 13.1908 14.9917 13.0785 14.9524L8.37886 13.3076C8.13531 13.2225 7.87309 13.219 7.62752 13.2971L5.19292 14.0705V18.1603H7.97355C8.38356 16.876 9.50986 15.9521 10.8397 15.9518C12.1698 15.9518 13.2984 16.8756 13.7085 18.1603H26.3254C26.7355 16.876 27.8618 15.9521 29.1915 15.9518C30.5217 15.9518 31.6502 16.8756 32.0604 18.1603H34.5433C33.7585 18.0516 33.1522 17.6524 32.7511 17.1475C32.4838 16.8111 32.3058 16.4254 32.2314 16.0515C32.1948 15.8673 32.1803 15.6583 32.2079 15.4506C28.9865 14.008 25.604 13.5917 24.3458 13.5916H23.9901L20.1066 9.32629H19.2477L22.5371 12.9402ZM33.4211 16.0529C33.4663 16.1509 33.5284 16.2539 33.6086 16.3548C33.8226 16.6242 34.1676 16.872 34.666 16.9468L34.6591 16.9051C34.6441 16.8189 34.6012 16.7607 34.557 16.7311C34.1888 16.486 33.8072 16.2635 33.4211 16.0529ZM14.0876 13.1856H14.7935V12.9819C14.7934 12.9575 14.7804 12.865 14.6901 12.7037C14.6035 12.5494 14.4711 12.3769 14.3054 12.21C14.2338 12.1378 14.159 12.0748 14.0876 12.0152V13.1856Z" fill="white"/>
</svg>
