<svg width="102" height="102" viewBox="0 0 102 102" fill="none" xmlns="http://www.w3.org/2000/svg">
<g id="Group 88421">
<rect id="Rectangle 7380" width="102" height="102" rx="24" fill="#007CFF"/>
<g id="Frame">
<g id="Group 88421_2">
<path id="Vector" d="M66.7578 69.3357V33.6881C66.7228 32.8827 66.5827 31.5521 65.7423 30.7116C65.147 30.1163 64.2716 29.8362 63.116 29.8362C60.7348 29.8362 59.5442 31.622 59.5442 35.1588V41.707C59.5442 42.5125 58.8789 43.2128 58.0385 43.2128H30.3749V67.6898C30.3749 71.7868 33.0011 75.1135 37.0982 75.1135H37.7986L68.8238 75.0785C67.5282 73.7828 66.7578 71.7868 66.7578 69.3357ZM58.3186 63.2426H38.8491C37.8685 63.2426 37.0631 62.4372 37.0631 61.4568C37.0631 60.4763 37.8685 59.6709 38.8491 59.6709H58.3186C59.2991 59.6709 60.1045 60.4763 60.1045 61.4568C60.1045 62.4373 59.2991 63.2426 58.3186 63.2426ZM58.3186 53.718H38.8491C37.8685 53.718 37.0631 52.9126 37.0631 51.932C37.0631 50.9515 37.8685 50.1462 38.8491 50.1462H58.3186C59.2991 50.1462 60.1045 50.9516 60.1045 51.932C60.1045 52.9125 59.2991 53.718 58.3186 53.718ZM69.7693 69.3357C69.7693 70.6663 70.1195 73.8178 73.2711 73.8178C74.5667 73.8178 75.3721 73.2926 75.8973 72.6273C76.2475 72.067 76.5276 71.4367 76.6677 70.7713V70.7013C76.6677 70.6313 76.7028 70.5262 76.7028 70.4562C76.7377 70.106 76.7728 69.7909 76.7728 69.5808V60.7214C76.7728 60.1611 76.3526 59.7059 75.7573 59.7059H69.7693L69.7693 69.3357Z" fill="white"/>
<path id="Vector_2" d="M26.2427 40.2347H56.5677V35.1922C56.5677 30.2898 58.7388 27.2433 62.4507 26.9281C62.1005 26.8581 61.7153 26.8231 61.3651 26.8231H30.655C27.6785 26.8231 25.2273 29.0642 25.2273 31.8306V39.4643C25.2273 39.8145 25.6475 40.2347 26.2427 40.2347Z" fill="white"/>
</g>
</g>
</g>
</svg>
