<svg width="36" height="36" viewBox="0 0 36 36" fill="none" xmlns="http://www.w3.org/2000/svg">
<path d="M21.7673 5.44141L28.0463 11.7204" stroke="black" stroke-width="1.8837" stroke-linecap="round" stroke-linejoin="round"/>
<path d="M21.7673 4.5C22.2873 4.50018 22.7096 4.92141 22.7097 5.44141V10.7783H28.0466C28.5666 10.7785 28.988 11.2007 28.988 11.7207V29.3018C28.988 30.5153 28.0043 31.4988 26.7908 31.499H9.20972C7.99605 31.499 7.01254 30.5154 7.01245 29.3018V6.69727C7.01252 5.4836 7.99603 4.5 9.20972 4.5H21.7673ZM17.9998 15.1748C17.4798 15.175 17.0574 15.5962 17.0574 16.1162V19.5693H13.6042C13.0842 19.5695 12.6628 19.9917 12.6628 20.5117C12.6632 21.0315 13.0844 21.4529 13.6042 21.4531H17.0574V24.9072C17.0578 25.4269 17.48 25.8484 17.9998 25.8486C18.5196 25.8485 18.9407 25.427 18.9412 24.9072V21.4531H22.3953C22.915 21.4529 23.3364 21.0315 23.3367 20.5117C23.3367 19.9917 22.9152 19.5696 22.3953 19.5693H18.9412V16.1162C18.9412 15.5961 18.5198 15.1749 17.9998 15.1748Z" fill="black"/>
</svg>
