<svg width="32" height="32" viewBox="0 0 32 32" fill="none" xmlns="http://www.w3.org/2000/svg">
<g id="Frame 89686">
<path id="Union" fill-rule="evenodd" clip-rule="evenodd" d="M23.25 15.75C28.2206 15.75 32.25 19.7794 32.25 24.75C32.25 29.7206 28.2206 33.75 23.25 33.75C18.2795 33.7499 14.25 29.7205 14.25 24.75C14.25 19.7795 18.2795 15.7501 23.25 15.75ZM24.6875 -1.75C26.3675 -1.75 27.7499 -0.395897 27.75 1.2998V11.9951C27.7499 12.8235 27.0784 13.4951 26.25 13.4951C25.4217 13.495 24.7501 12.8234 24.75 11.9951V1.2998C24.75 1.29203 24.7484 1.28817 24.7471 1.28516C24.7453 1.28108 24.7425 1.27466 24.7363 1.26855C24.7302 1.26256 24.7229 1.2579 24.7158 1.25488C24.7096 1.2523 24.7005 1.25 24.6875 1.25H2.8125C2.79951 1.25003 2.79039 1.25228 2.78418 1.25488C2.77715 1.25792 2.76972 1.26255 2.76367 1.26855C2.75756 1.27467 2.75466 1.28111 2.75293 1.28516C2.75165 1.28816 2.75002 1.2921 2.75 1.2998V29.2002C2.75002 29.2079 2.75166 29.2118 2.75293 29.2148C2.75465 29.2189 2.75756 29.2253 2.76367 29.2314C2.76972 29.2374 2.77715 29.2421 2.78418 29.2451C2.7904 29.2477 2.7995 29.25 2.8125 29.25H11.4062C12.2347 29.25 12.9062 29.9216 12.9062 30.75C12.9062 31.5784 12.2347 32.25 11.4062 32.25H2.8125C1.1327 32.2499 -0.249894 30.8959 -0.25 29.2002V1.2998C-0.249894 -0.395827 1.13268 -1.74987 2.8125 -1.75H24.6875ZM23.25 18.75C19.9364 18.7501 17.25 21.4364 17.25 24.75C17.25 28.0636 19.9364 30.7499 23.25 30.75C26.5637 30.75 29.25 28.0637 29.25 24.75C29.25 21.4363 26.5637 18.75 23.25 18.75ZM12.25 14.25C13.0784 14.25 13.75 14.9216 13.75 15.75C13.75 16.5784 13.0784 17.25 12.25 17.25H7.25C6.42169 17.2499 5.75 16.5783 5.75 15.75C5.75 14.9217 6.42169 14.2501 7.25 14.25H12.25ZM19.25 6.25C20.0784 6.25 20.75 6.92157 20.75 7.75C20.75 8.57843 20.0784 9.25 19.25 9.25H7.25C6.42169 9.24987 5.75 8.57835 5.75 7.75C5.75 6.92165 6.42169 6.25013 7.25 6.25H19.25Z" fill="#262626"/>
<path id="Vector" d="M20 24.5601L22.2319 26.8077L25.5 23" stroke="#262626" stroke-width="3" stroke-linecap="round" stroke-linejoin="round"/>
</g>
</svg>
