<svg width="24" height="24" viewBox="0 0 24 24" fill="none" xmlns="http://www.w3.org/2000/svg">
<g id="Frame 89885">
<g id="Frame 89424">
<g id="Group 89423">
<path id="Vector" d="M18.7913 12.9847V5.2347C18.7913 4.77446 18.4183 4.40137 17.958 4.40137H16.0413M10.4998 21.068H6.29134C5.8311 21.068 5.45801 20.695 5.45801 20.2347V5.2347C5.45801 4.77446 5.8311 4.40137 6.29134 4.40137H8.20801" stroke="black" stroke-width="1.5" stroke-linecap="round" stroke-linejoin="round"/>
<path id="Vector_2" d="M9.0415 9.63379H15.0415" stroke="black" stroke-width="1.5" stroke-linecap="round" stroke-linejoin="round"/>
<path id="Vector_3" d="M9.09961 13.5H13.0996" stroke="black" stroke-width="1.5" stroke-linecap="round" stroke-linejoin="round"/>
<path id="Vector_4" d="M15.5417 2.93359H9.125V5.68359H15.5417V2.93359Z" stroke="black" stroke-width="1.5" stroke-linecap="round" stroke-linejoin="round"/>
<path id="Vector_5" d="M16.25 20.7002C14.6852 20.7002 13.2685 19.8669 12 18.2002C13.2685 16.5335 14.6852 15.7002 16.25 15.7002C17.8148 15.7002 19.2315 16.5335 20.5 18.2002C19.2315 19.8669 17.8148 20.7002 16.25 20.7002Z" stroke="black" stroke-width="1.5" stroke-linejoin="round"/>
<path id="Vector_6" d="M16.2496 19.3C16.8848 19.3 17.3996 18.7851 17.3996 18.15C17.3996 17.5149 16.8848 17 16.2496 17C15.6145 17 15.0996 17.5149 15.0996 18.15C15.0996 18.7851 15.6145 19.3 16.2496 19.3Z" fill="black"/>
</g>
</g>
</g>
</svg>
