<svg width="32" height="32" viewBox="0 0 32 32" fill="none" xmlns="http://www.w3.org/2000/svg">
<g id="Frame 89303">
<g id="Group 89302">
<path id="Vector" d="M17.0252 4.29625L4.98825 4.29625C3.89017 4.29625 3 5.24585 3 6.41732L3 29.042C3 30.2134 3.89017 31.1631 4.98825 31.1631L23.5452 31.1631C24.6433 31.1631 25.5335 30.2134 25.5335 29.042L25.5335 12.2246" stroke="#262626" stroke-width="2.2" stroke-linecap="round" stroke-linejoin="round"/>
<path id="Union" d="M28.6466 2.91469C28.8418 3.10995 28.8418 3.42653 28.6466 3.62179L23.3685 8.89982C23.3554 8.91296 23.3389 8.92218 23.3208 8.92644L20.522 9.58631C20.4522 9.60276 20.3883 9.54257 20.4005 9.47192L20.9116 6.51974C20.9151 6.49941 20.9248 6.48067 20.9394 6.46608L26.2151 1.19038C26.4104 0.995113 26.727 0.995113 26.9222 1.19037L28.6466 2.91469Z" stroke="#262626" stroke-width="2.2"/>
<path id="Vector 239" d="M3 12.0999C4.73334 13.8332 7.33336 15.6532 10.8 15.9999" stroke="#262626" stroke-width="2.2" stroke-linecap="round"/>
<path id="Vector 240" d="M25.5334 12.0999C23.8001 13.8332 21.2001 15.6532 17.7334 15.9999" stroke="#262626" stroke-width="2.2" stroke-linecap="round"/>
<circle id="Ellipse 117" cx="14.2667" cy="15.9999" r="2.80002" stroke="#262626" stroke-width="2.2"/>
</g>
</g>
</svg>
