<svg width="32" height="32" viewBox="0 0 32 32" fill="none" xmlns="http://www.w3.org/2000/svg">
<g id="Frame">
<path id="Vector" d="M11.3307 5.12378C11.8151 5.12378 12.2614 5.38646 12.4965 5.80995L14.1275 8.74783C14.341 9.13249 14.3511 9.59776 14.1543 9.99129L12.5831 13.1338C12.5831 13.1338 13.0384 15.4747 14.944 17.3803C16.8496 19.2859 19.1827 19.7334 19.1827 19.7334L22.3247 18.1624C22.7185 17.9655 23.1841 17.9757 23.5689 18.1896L26.5151 19.8276C26.9381 20.0629 27.2005 20.5089 27.2005 20.993V24.3753C27.2005 26.0978 25.6006 27.3418 23.9685 26.7911C20.6166 25.6601 15.4135 23.5066 12.1156 20.2087C8.81766 16.9108 6.6642 11.7077 5.53318 8.35576C4.9825 6.72369 6.22656 5.12378 7.94899 5.12378H11.3307Z" stroke="#262626" stroke-width="2" stroke-linejoin="round"/>
</g>
</svg>
