<svg width="102" height="102" viewBox="0 0 102 102" fill="none" xmlns="http://www.w3.org/2000/svg">
<g id="Group 89081">
<rect id="Rectangle 7384" width="102" height="102" rx="24" fill="#22988D"/>
<g id="Frame">
<path id="Vector" d="M72.4213 27.7904C74.3896 27.7904 76 29.4008 76 31.3691V63.501C76 65.4693 74.3896 67.0798 72.4213 67.0798H55.4223L57.2117 70.6585H65.2894C66.2863 70.6585 67.0787 71.4509 67.0787 72.4479C67.0787 73.4448 66.2863 74.2372 65.2894 74.2372H36.7106C35.7137 74.2372 34.9213 73.4448 34.9213 72.4479C34.9213 71.4509 35.7137 70.6585 36.7106 70.6585H44.7883L46.5777 67.0798H29.5787C27.6104 67.0798 26 65.4693 26 63.501V31.3691C26 29.4008 27.6104 27.7904 29.5787 27.7904H72.4213ZM38.1421 43.8691C36.9663 43.8691 35.9949 44.8405 35.9949 46.0164V56.0113C35.9949 57.1871 36.9407 58.1585 38.1421 58.1585C39.318 58.1585 40.2894 57.2127 40.2894 56.0113V45.9908C40.2894 44.8149 39.318 43.8691 38.1421 43.8691ZM46.7055 36.7117C45.5297 36.7117 44.5583 37.683 44.5583 38.8589V56.0113C44.5583 57.1871 45.5297 58.1585 46.7055 58.1585C47.8814 58.1585 48.8528 57.1871 48.8528 56.0113V38.8589C48.8528 37.683 47.907 36.7117 46.7055 36.7117ZM55.2945 43.8691C54.1186 43.8691 53.1472 44.8405 53.1472 46.0164V56.0113C53.1472 57.1871 54.093 58.1585 55.2945 58.1585C56.4703 58.1585 57.4417 57.2127 57.4417 56.0113V45.9908C57.4162 44.8149 56.4703 43.8691 55.2945 43.8691ZM63.8579 40.2904C62.682 40.2904 61.7106 41.2618 61.7106 42.4376V56.0113C61.7106 57.1871 62.682 58.1585 63.8579 58.1585C65.0337 58.1585 66.0051 57.1871 66.0051 56.0113V42.4376C66.0051 41.2362 65.0337 40.2904 63.8579 40.2904Z" fill="white"/>
</g>
</g>
</svg>
