<svg width="30" height="27" viewBox="0 0 30 27" fill="none" xmlns="http://www.w3.org/2000/svg">
<path d="M8.43799 5.06172L10.463 1.01172H18.563L20.588 5.06172H8.43799Z" fill="black" stroke="black" stroke-width="2.025" stroke-linejoin="round"/>
<path d="M25.9873 4.05078C27.6649 4.05078 29.0254 5.4113 29.0254 7.08887V23.2881C29.0253 24.9655 27.6648 26.3262 25.9873 26.3262H3.03809C1.3607 26.3261 0.000126823 24.9655 0 23.2881V7.08887C0 5.41137 1.36062 4.05089 3.03809 4.05078H25.9873ZM14.5137 8.77539C10.9721 8.77539 8.10059 11.6469 8.10059 15.1885C8.1008 18.7298 10.9723 21.6006 14.5137 21.6006C18.0547 21.6002 20.9256 18.7296 20.9258 15.1885C20.9258 11.6472 18.0549 8.77582 14.5137 8.77539Z" fill="black"/>
</svg>
