<svg width="32" height="32" viewBox="0 0 32 32" fill="none" xmlns="http://www.w3.org/2000/svg">
<g id="Frame 89675">
<path id="Union" d="M18.2432 19.5156C18.829 18.9299 19.7785 18.9299 20.3643 19.5156C20.9498 20.1014 20.9499 21.051 20.3643 21.6367L19.5459 22.4551H28.5928C28.6445 22.4551 28.6957 22.4578 28.7461 22.4629C28.847 22.4732 28.9451 22.4932 29.0391 22.5225C29.2737 22.5956 29.4838 22.7249 29.6533 22.8945C29.721 22.9623 29.7821 23.0366 29.8359 23.1162C29.863 23.1562 29.888 23.1976 29.9111 23.2402C29.9573 23.3252 29.9962 23.4149 30.0254 23.5088C30.0692 23.6497 30.0928 23.7997 30.0928 23.9551L30.0918 30.8828C30.0916 32.0311 29.1605 32.9609 28.0127 32.9609H21.0859C20.2577 32.9607 19.5859 32.2892 19.5859 31.4609C19.5862 30.6329 20.2579 29.9611 21.0859 29.9609H27.0918V25.4551H19.5479L20.3643 26.2715C20.9497 26.8573 20.9499 27.8069 20.3643 28.3926C19.7786 28.9781 18.8289 28.978 18.2432 28.3926L14.8652 25.0146C14.2795 24.4289 14.2796 23.4794 14.8652 22.8936L18.2432 19.5156ZM26.5693 -0.960938C28.2503 -0.960938 29.6139 0.402023 29.6143 2.08301V17.4297C29.6138 18.2059 29.0236 18.8449 28.2676 18.9219L28.1143 18.9297C27.2862 18.9294 26.6147 18.2574 26.6143 17.4297V2.08398L26.6016 2.05273C26.5934 2.04435 26.582 2.03906 26.5693 2.03906H4.95117C4.92751 2.03943 4.90725 2.05945 4.90723 2.08398V29.8779C4.90743 29.9027 4.928 29.9225 4.95117 29.9229H13.4443C14.2728 29.9229 14.944 30.595 14.9443 31.4229L14.9365 31.5762C14.8594 32.332 14.2209 32.9228 13.4443 32.9229H4.95117C3.27022 32.9225 1.90743 31.5586 1.90723 29.8779V2.08301C1.90763 0.40243 3.27042 -0.960544 4.95117 -0.960938H26.5693ZM14.3555 16.1523C15.1839 16.1523 15.8555 16.8239 15.8555 17.6523C15.8551 18.4803 15.1838 19.1523 14.3555 19.1523H10.0322C9.20461 19.1518 8.53263 18.4802 8.53223 17.6523C8.53223 16.824 9.20452 16.1529 10.0322 16.1523H14.3555ZM18.6797 10.5918C19.508 10.5919 20.1795 11.2637 20.1797 12.0918C20.1795 12.9201 19.5078 13.5917 18.6797 13.5918H10.0322C9.20465 13.5913 8.53243 12.92 8.53223 12.0918C8.53243 11.2638 9.20448 10.5923 10.0322 10.5918H18.6797ZM21.1504 5.03223C21.9786 5.03235 22.6504 5.70378 22.6504 6.53223C22.65 7.3602 21.9785 8.03211 21.1504 8.03223H10.0322C9.20462 8.03168 8.53261 7.36011 8.53223 6.53223C8.53223 5.70387 9.20452 5.03277 10.0322 5.03223H21.1504Z" fill="#262626"/>
</g>
</svg>
