<svg width="32" height="32" viewBox="0 0 32 32" fill="none" xmlns="http://www.w3.org/2000/svg">
<g id="Frame">
<path id="Vector" d="M12.1893 28.7808C9.95522 28.1157 7.96661 26.8808 6.39199 25.2446C6.97941 24.5484 7.33341 23.6489 7.33341 22.6667C7.33341 20.4575 5.54255 18.6667 3.33341 18.6667C3.19978 18.6667 3.06767 18.6733 2.93741 18.6861C2.75994 17.8184 2.66675 16.9201 2.66675 16C2.66675 14.6063 2.88059 13.2625 3.27727 11.9996C3.29595 11.9999 3.31467 12 3.33341 12C5.54255 12 7.33341 10.2091 7.33341 7.99999C7.33341 7.36579 7.18581 6.76612 6.92315 6.23333C8.46508 4.79959 10.3471 3.7266 12.4348 3.14868C13.0963 4.44538 14.4445 5.33334 16.0001 5.33334C17.5556 5.33334 18.9038 4.44538 19.5653 3.14868C21.6531 3.7266 23.5351 4.79959 25.077 6.23333C24.8143 6.76612 24.6667 7.36579 24.6667 7.99999C24.6667 10.2091 26.4576 12 28.6667 12C28.6855 12 28.7042 11.9999 28.7229 11.9996C29.1196 13.2625 29.3334 14.6063 29.3334 16C29.3334 16.9201 29.2402 17.8184 29.0628 18.6861C28.9325 18.6733 28.8004 18.6667 28.6667 18.6667C26.4576 18.6667 24.6667 20.4575 24.6667 22.6667C24.6667 23.6489 25.0207 24.5484 25.6081 25.2446C24.0335 26.8808 22.0449 28.1157 19.8109 28.7808C19.2953 27.1679 17.7841 26 16.0001 26C14.2161 26 12.7049 27.1679 12.1893 28.7808Z" stroke="#262626" stroke-width="2" stroke-linejoin="round"/>
<path id="Vector_2" d="M15.9999 20.6666C18.5773 20.6666 20.6666 18.5773 20.6666 15.9999C20.6666 13.4226 18.5773 11.3333 15.9999 11.3333C13.4226 11.3333 11.3333 13.4226 11.3333 15.9999C11.3333 18.5773 13.4226 20.6666 15.9999 20.6666Z" stroke="#262626" stroke-width="2" stroke-linejoin="round"/>
</g>
</svg>
