<svg width="32" height="32" viewBox="0 0 32 32" fill="none" xmlns="http://www.w3.org/2000/svg">
<g id="Frame">
<path id="Vector" d="M26 10.6667V6C26 4.89543 25.1046 4 24 4H6C4.89543 4 4 4.89543 4 6V26C4 27.1046 4.89543 28 6 28H24C25.1046 28 26 27.1046 26 26V21.3333" stroke="#262626" stroke-width="2" stroke-linejoin="round"/>
<path id="Vector_2" d="M26.0001 10.6667H16.6667C15.5622 10.6667 14.6667 11.5622 14.6667 12.6667V19.3334C14.6667 20.438 15.5622 21.3334 16.6667 21.3334H26.0001C27.1047 21.3334 28.0001 20.438 28.0001 19.3334V12.6667C28.0001 11.5622 27.1047 10.6667 26.0001 10.6667Z" stroke="#262626" stroke-width="2" stroke-linejoin="round"/>
<path id="Vector_3" d="M18.6666 15.9999C18.6666 15.2635 19.2635 14.6666 19.9999 14.6666C20.7363 14.6666 21.3333 15.2635 21.3333 15.9999C21.3333 16.7363 20.7363 17.3333 19.9999 17.3333C19.2635 17.3333 18.6666 16.7363 18.6666 15.9999Z" fill="#262626"/>
</g>
</svg>
