<svg width="24" height="24" viewBox="0 0 24 24" fill="none" xmlns="http://www.w3.org/2000/svg">
<g id="Frame" clip-path="url(#clip0_4401_39561)">
<path id="Vector" d="M12 24C5.45455 24 0 18.5455 0 12C0 5.45455 5.45455 0 12 0C18.5455 0 24 5.45455 24 12C24 18.5455 18.5455 24 12 24ZM12 1.63636C6.32727 1.63636 1.63636 6.21818 1.63636 12C1.63636 17.7818 6.21818 22.3636 12 22.3636C17.7818 22.3636 22.3636 17.7818 22.3636 12C22.3636 6.21818 17.6727 1.63636 12 1.63636Z" fill="#262626"/>
<path id="Ellipse 27" d="M4.45756 17.7759C3.3847 16.375 2.72324 14.7029 2.54733 12.9471C2.37141 11.1913 2.68799 9.42119 3.46158 7.83521C4.23517 6.24924 5.4352 4.91007 6.92715 3.9678C8.41909 3.02554 10.144 2.51744 11.9085 2.50044L12 12L4.45756 17.7759Z" fill="#262626"/>
</g>
<defs>
<clipPath id="clip0_4401_39561">
<rect width="24" height="24" fill="white"/>
</clipPath>
</defs>
</svg>
