<svg width="102" height="102" viewBox="0 0 102 102" fill="none" xmlns="http://www.w3.org/2000/svg">
<g id="Group 89083">
<rect id="Rectangle 7380" width="102" height="102" rx="24" fill="#22988D"/>
<g id="Frame" clip-path="url(#clip0_4401_39595)">
<path id="Vector" d="M76.0417 37.2504C76.1334 37.1645 76.2065 37.0607 76.2564 36.9454C76.3064 36.8302 76.3322 36.7059 76.3322 36.5803C76.3322 36.4547 76.3064 36.3304 76.2564 36.2151C76.2065 36.0998 76.1334 35.9961 76.0417 35.9102L51.6885 25.9312C51.3506 25.768 50.9802 25.6832 50.6049 25.6832C50.2296 25.6832 49.8592 25.768 49.5212 25.9312L25.563 36.106C25.4129 36.3357 25.344 36.609 25.3672 36.8824C25.3672 37.0782 25.563 37.4664 25.7588 37.4664L50.4091 47.6175C51.1957 48.0091 50.9999 48.0091 51.7864 47.6175L76.0417 37.2504ZM48.36 49.346L24.9756 39.6101C24.8273 39.6147 24.6817 39.6518 24.5493 39.7189C24.4168 39.786 24.3008 39.8814 24.2093 39.9983C24.2093 40.1941 24.0135 40.5823 24.0135 40.7781V64.2198C24.0135 64.4156 23.8177 64.8039 25.1714 65.3879L48.5355 76.3188C48.8393 76.2918 49.1232 76.1567 49.3358 75.938C49.5483 75.7193 49.6752 75.4315 49.6934 75.1271V51.125C49.6477 50.7377 49.5007 50.3693 49.2671 50.057C49.0336 49.7446 48.7219 49.4994 48.3633 49.346H48.36ZM41.4868 53.4645V54.8283C41.4868 55.0241 41.2876 55.4123 40.8926 55.2165C37.9354 53.8527 35.0018 52.7859 31.8454 51.3208C31.4538 51.1284 31.0825 50.9326 31.0825 50.5444V48.1104C31.0825 47.7188 31.258 47.3306 31.6496 47.5264L40.8926 51.5166C41.6826 51.9082 41.4868 51.9082 41.4868 53.4645ZM77.6182 39.978C77.397 39.7783 77.1247 39.644 76.8317 39.5898L53.4642 49.3223C52.2827 49.7139 52.2827 50.2979 52.2827 50.882V75.0529C52.3064 75.3593 52.4382 75.6474 52.6546 75.8657C52.871 76.084 53.158 76.2182 53.4642 76.2445L76.8317 64.0747C77.8174 63.4907 78.0132 62.515 78.0132 61.1546V40.7545C78.0043 40.6049 77.9646 40.4587 77.8966 40.3251C77.8287 40.1915 77.7339 40.0734 77.6182 39.978Z" fill="white"/>
</g>
</g>
<defs>
<clipPath id="clip0_4401_39595">
<rect width="54" height="54" fill="white" transform="translate(24 24)"/>
</clipPath>
</defs>
</svg>
