<svg width="32" height="32" viewBox="0 0 32 32" fill="none" xmlns="http://www.w3.org/2000/svg">
<g id="Frame 90685">
<g id="Union">
<path d="M25.0498 21.7244C25.5469 21.7244 25.9502 22.1278 25.9502 22.6248V24.2244H27.5498C28.0469 24.2244 28.4502 24.6278 28.4502 25.1248C28.45 25.6217 28.0467 26.0252 27.5498 26.0252H25.9502V27.6248C25.95 28.1217 25.5467 28.5252 25.0498 28.5252C24.5529 28.5252 24.1496 28.1217 24.1494 27.6248V26.0252H22.5498C22.0529 26.0252 21.6496 25.6217 21.6494 25.1248C21.6494 24.6278 22.0527 24.2244 22.5498 24.2244H24.1494V22.6248C24.1494 22.1278 24.5527 21.7244 25.0498 21.7244Z" fill="#262626"/>
<path fill-rule="evenodd" clip-rule="evenodd" d="M25.0498 18.2244C28.8606 18.2244 31.9502 21.3141 31.9502 25.1248C31.95 28.9354 28.8604 32.0252 25.0498 32.0252C21.2392 32.0252 18.1496 28.9354 18.1494 25.1248C18.1494 21.3141 21.239 18.2244 25.0498 18.2244ZM25.0498 20.0252C22.2332 20.0252 19.9502 22.3082 19.9502 25.1248C19.9504 27.9413 22.2333 30.2244 25.0498 30.2244C27.8663 30.2244 30.1492 27.9413 30.1494 25.1248C30.1494 22.3082 27.8665 20.0252 25.0498 20.0252Z" fill="#262626"/>
<path d="M30.0498 10.9998C30.6021 10.9998 31.0498 11.4475 31.0498 11.9998C31.0496 12.5519 30.6019 12.9998 30.0498 12.9998H27.4072C27.4181 13.059 27.4248 13.1202 27.4248 13.1824V15.7996C27.4246 16.3517 26.9769 16.7996 26.4248 16.7996C25.8727 16.7996 25.425 16.3517 25.4248 15.7996V13.1824C25.4248 13.1202 25.4315 13.059 25.4424 12.9998H5.65723C5.66812 13.059 5.6748 13.1202 5.6748 13.1824V25.7313C5.67503 26.5595 6.34652 27.2313 7.1748 27.2313H15.5498C16.102 27.2313 16.5497 27.6791 16.5498 28.2313C16.5496 28.7834 16.1019 29.2313 15.5498 29.2313H7.1748C5.24195 29.2313 3.67503 27.6641 3.6748 25.7313V13.1824C3.6748 13.1202 3.68149 13.059 3.69238 12.9998H1.0498C0.49766 12.9998 0.0500309 12.5519 0.0498047 11.9998C0.0498047 11.4475 0.49752 10.9998 1.0498 10.9998H30.0498Z" fill="#262626"/>
<path d="M9.0957 2.18928C9.47437 1.86734 10.0423 1.91319 10.3643 2.29182C10.686 2.67047 10.6402 3.23846 10.2617 3.56037C10.2617 3.56037 10.2569 3.56412 10.251 3.57014C10.2437 3.57758 10.2342 3.58869 10.2227 3.60236C10.1991 3.63031 10.1708 3.66795 10.1416 3.71369C10.0822 3.80678 10.0268 3.9202 9.99121 4.04182C9.92342 4.27405 9.9284 4.51421 10.083 4.76154C10.1617 4.88736 10.2371 5.00195 10.3105 5.11311C10.3816 5.22062 10.4571 5.33445 10.5244 5.44221C10.6574 5.65511 10.8059 5.91664 10.8867 6.22834C11.0649 6.91677 10.8476 7.56162 10.4805 8.28303C10.2549 8.72561 9.71331 8.90179 9.27051 8.67658C8.82773 8.45117 8.65182 7.90951 8.87695 7.46662C9.19916 6.83336 9.14893 6.69931 9.14355 6.68049C9.13315 6.64034 9.10441 6.56558 8.99805 6.39533C8.94578 6.31171 8.88532 6.22138 8.80859 6.10529C8.73413 5.99264 8.64825 5.86218 8.55664 5.71565C8.07671 4.94785 8.08261 4.15673 8.26367 3.53693C8.43507 2.95057 8.77724 2.46015 9.0957 2.18928Z" fill="#262626"/>
<path d="M15.2461 0.251779C15.5902 -0.106904 16.1608 -0.118699 16.5195 0.225411C16.8777 0.569492 16.8896 1.13934 16.5459 1.49787C16.5767 1.46575 16.5126 1.53781 16.3945 1.78303C16.293 1.99394 16.1837 2.26535 16.0986 2.55451C16.0127 2.84684 15.9594 3.13187 15.9512 3.3758C15.9428 3.62653 15.9841 3.76858 16.0205 3.83479C16.386 4.49747 16.7851 5.19292 16.9082 5.92268C17.0473 6.74791 16.8341 7.51871 16.2959 8.36018C16.0279 8.77822 15.4712 8.90013 15.0527 8.63264C14.6345 8.36476 14.5128 7.80801 14.7803 7.38947C15.1515 6.80897 15.1784 6.48782 15.1338 6.22248C15.0729 5.86146 14.8635 5.46479 14.4443 4.7049C14.194 4.25104 14.1377 3.74727 14.1523 3.31428C14.1673 2.87385 14.2584 2.43327 14.3721 2.0467C14.4866 1.6572 14.6316 1.2943 14.7725 1.00178C14.8965 0.744163 15.0632 0.442621 15.2461 0.251779Z" fill="#262626"/>
<path d="M21.0957 2.18928C21.4744 1.86734 22.0423 1.91318 22.3643 2.29182C22.6859 2.67046 22.6402 3.23846 22.2617 3.56037C22.2617 3.56037 22.2569 3.56413 22.251 3.57014C22.2437 3.57757 22.2342 3.58871 22.2227 3.60236C22.1991 3.6303 22.1708 3.66797 22.1416 3.71369C22.0822 3.80678 22.0268 3.92021 21.9912 4.04182C21.9234 4.27404 21.9284 4.51421 22.083 4.76154C22.1617 4.88735 22.2371 5.00196 22.3105 5.11311C22.3816 5.22061 22.4571 5.33446 22.5244 5.44221C22.6574 5.65511 22.8059 5.91664 22.8867 6.22834C23.0649 6.91678 22.8476 7.56162 22.4805 8.28303C22.2549 8.72562 21.7133 8.9018 21.2705 8.67658C20.8277 8.45118 20.6518 7.90952 20.877 7.46662C21.1992 6.83336 21.1489 6.6993 21.1436 6.68049C21.1332 6.64038 21.1042 6.56621 20.998 6.39631C20.9458 6.31263 20.8854 6.22148 20.8086 6.10529C20.7341 5.99264 20.6482 5.86218 20.5566 5.71565C20.0767 4.94785 20.0826 4.15674 20.2637 3.53693C20.4351 2.95057 20.7772 2.46014 21.0957 2.18928Z" fill="#262626"/>
<path d="M25.0498 21.7244C25.5469 21.7244 25.9502 22.1278 25.9502 22.6248V24.2244H27.5498C28.0469 24.2244 28.4502 24.6278 28.4502 25.1248C28.45 25.6217 28.0467 26.0252 27.5498 26.0252H25.9502V27.6248C25.95 28.1217 25.5467 28.5252 25.0498 28.5252C24.5529 28.5252 24.1496 28.1217 24.1494 27.6248V26.0252H22.5498C22.0529 26.0252 21.6496 25.6217 21.6494 25.1248C21.6494 24.6278 22.0527 24.2244 22.5498 24.2244H24.1494V22.6248C24.1494 22.1278 24.5527 21.7244 25.0498 21.7244Z" stroke="#262626" stroke-width="0.6" stroke-linecap="round" stroke-linejoin="round"/>
<path fill-rule="evenodd" clip-rule="evenodd" d="M25.0498 18.2244C28.8606 18.2244 31.9502 21.3141 31.9502 25.1248C31.95 28.9354 28.8604 32.0252 25.0498 32.0252C21.2392 32.0252 18.1496 28.9354 18.1494 25.1248C18.1494 21.3141 21.239 18.2244 25.0498 18.2244ZM25.0498 20.0252C22.2332 20.0252 19.9502 22.3082 19.9502 25.1248C19.9504 27.9413 22.2333 30.2244 25.0498 30.2244C27.8663 30.2244 30.1492 27.9413 30.1494 25.1248C30.1494 22.3082 27.8665 20.0252 25.0498 20.0252Z" stroke="#262626" stroke-width="0.6" stroke-linecap="round" stroke-linejoin="round"/>
<path d="M30.0498 10.9998C30.6021 10.9998 31.0498 11.4475 31.0498 11.9998C31.0496 12.5519 30.6019 12.9998 30.0498 12.9998H27.4072C27.4181 13.059 27.4248 13.1202 27.4248 13.1824V15.7996C27.4246 16.3517 26.9769 16.7996 26.4248 16.7996C25.8727 16.7996 25.425 16.3517 25.4248 15.7996V13.1824C25.4248 13.1202 25.4315 13.059 25.4424 12.9998H5.65723C5.66812 13.059 5.6748 13.1202 5.6748 13.1824V25.7313C5.67503 26.5595 6.34652 27.2313 7.1748 27.2313H15.5498C16.102 27.2313 16.5497 27.6791 16.5498 28.2313C16.5496 28.7834 16.1019 29.2313 15.5498 29.2313H7.1748C5.24195 29.2313 3.67503 27.6641 3.6748 25.7313V13.1824C3.6748 13.1202 3.68149 13.059 3.69238 12.9998H1.0498C0.49766 12.9998 0.0500309 12.5519 0.0498047 11.9998C0.0498047 11.4475 0.49752 10.9998 1.0498 10.9998H30.0498Z" stroke="#262626" stroke-width="0.6" stroke-linecap="round" stroke-linejoin="round"/>
<path d="M9.0957 2.18928C9.47437 1.86734 10.0423 1.91319 10.3643 2.29182C10.686 2.67047 10.6402 3.23846 10.2617 3.56037C10.2617 3.56037 10.2569 3.56412 10.251 3.57014C10.2437 3.57758 10.2342 3.58869 10.2227 3.60236C10.1991 3.63031 10.1708 3.66795 10.1416 3.71369C10.0822 3.80678 10.0268 3.9202 9.99121 4.04182C9.92342 4.27405 9.9284 4.51421 10.083 4.76154C10.1617 4.88736 10.2371 5.00195 10.3105 5.11311C10.3816 5.22062 10.4571 5.33445 10.5244 5.44221C10.6574 5.65511 10.8059 5.91664 10.8867 6.22834C11.0649 6.91677 10.8476 7.56162 10.4805 8.28303C10.2549 8.72561 9.71331 8.90179 9.27051 8.67658C8.82773 8.45117 8.65182 7.90951 8.87695 7.46662C9.19916 6.83336 9.14893 6.69931 9.14355 6.68049C9.13315 6.64034 9.10441 6.56558 8.99805 6.39533C8.94578 6.31171 8.88532 6.22138 8.80859 6.10529C8.73413 5.99264 8.64825 5.86218 8.55664 5.71565C8.07671 4.94785 8.08261 4.15673 8.26367 3.53693C8.43507 2.95057 8.77724 2.46015 9.0957 2.18928Z" stroke="#262626" stroke-width="0.6" stroke-linecap="round" stroke-linejoin="round"/>
<path d="M15.2461 0.251779C15.5902 -0.106904 16.1608 -0.118699 16.5195 0.225411C16.8777 0.569492 16.8896 1.13934 16.5459 1.49787C16.5767 1.46575 16.5126 1.53781 16.3945 1.78303C16.293 1.99394 16.1837 2.26535 16.0986 2.55451C16.0127 2.84684 15.9594 3.13187 15.9512 3.3758C15.9428 3.62653 15.9841 3.76858 16.0205 3.83479C16.386 4.49747 16.7851 5.19292 16.9082 5.92268C17.0473 6.74791 16.8341 7.51871 16.2959 8.36018C16.0279 8.77822 15.4712 8.90013 15.0527 8.63264C14.6345 8.36476 14.5128 7.80801 14.7803 7.38947C15.1515 6.80897 15.1784 6.48782 15.1338 6.22248C15.0729 5.86146 14.8635 5.46479 14.4443 4.7049C14.194 4.25104 14.1377 3.74727 14.1523 3.31428C14.1673 2.87385 14.2584 2.43327 14.3721 2.0467C14.4866 1.6572 14.6316 1.2943 14.7725 1.00178C14.8965 0.744163 15.0632 0.442621 15.2461 0.251779Z" stroke="#262626" stroke-width="0.6" stroke-linecap="round" stroke-linejoin="round"/>
<path d="M21.0957 2.18928C21.4744 1.86734 22.0423 1.91318 22.3643 2.29182C22.6859 2.67046 22.6402 3.23846 22.2617 3.56037C22.2617 3.56037 22.2569 3.56413 22.251 3.57014C22.2437 3.57757 22.2342 3.58871 22.2227 3.60236C22.1991 3.6303 22.1708 3.66797 22.1416 3.71369C22.0822 3.80678 22.0268 3.92021 21.9912 4.04182C21.9234 4.27404 21.9284 4.51421 22.083 4.76154C22.1617 4.88735 22.2371 5.00196 22.3105 5.11311C22.3816 5.22061 22.4571 5.33446 22.5244 5.44221C22.6574 5.65511 22.8059 5.91664 22.8867 6.22834C23.0649 6.91678 22.8476 7.56162 22.4805 8.28303C22.2549 8.72562 21.7133 8.9018 21.2705 8.67658C20.8277 8.45118 20.6518 7.90952 20.877 7.46662C21.1992 6.83336 21.1489 6.6993 21.1436 6.68049C21.1332 6.64038 21.1042 6.56621 20.998 6.39631C20.9458 6.31263 20.8854 6.22148 20.8086 6.10529C20.7341 5.99264 20.6482 5.86218 20.5566 5.71565C20.0767 4.94785 20.0826 4.15674 20.2637 3.53693C20.4351 2.95057 20.7772 2.46014 21.0957 2.18928Z" stroke="#262626" stroke-width="0.6" stroke-linecap="round" stroke-linejoin="round"/>
</g>
</g>
</svg>
