<svg width="32" height="32" viewBox="0 0 32 32" fill="none" xmlns="http://www.w3.org/2000/svg">
<g id="Search for Devices">
<path id="Vector" d="M15.8666 9.33325C19.6221 9.33325 22.6666 12.3181 22.6666 15.9999C22.6666 19.6818 19.6221 22.6666 15.8666 22.6666C14.125 22.6666 12.5363 22.0247 11.3333 20.9691" stroke="#262626" stroke-width="2" stroke-linecap="round" stroke-linejoin="round"/>
<path id="Vector_2" d="M16.0001 2.66675C23.3639 2.66675 29.3334 8.63628 29.3334 16.0001C29.3334 23.3639 23.3639 29.3334 16.0001 29.3334C12.3905 29.3334 9.11588 27.8991 6.71515 25.5692C4.2183 23.1461 2.66675 19.7543 2.66675 16.0001C2.66675 12.4218 4.0763 9.17275 6.37045 6.77788" stroke="#262626" stroke-width="2" stroke-linecap="round" stroke-linejoin="round"/>
<g id="Vector_3">
<path d="M6.37036 6.77808L16 16.0003L6.71505 25.5693" fill="#262626"/>
<path d="M6.37036 6.77808L16 16.0003L6.71505 25.5693L3.49976 15.5002L6.37036 6.77808Z" fill="#262626"/>
<path d="M6.37036 6.77808L16 16.0003L6.71505 25.5693L3.49976 15.5002L6.37036 6.77808Z" stroke="#262626" stroke-width="2" stroke-linecap="round" stroke-linejoin="round"/>
</g>
</g>
</svg>
