<svg width="32" height="32" viewBox="0 0 32 32" fill="none" xmlns="http://www.w3.org/2000/svg">
<g id="Frame 90689">
<g id="Group 88112">
<g id="Frame 88160">
<g id="Group 88130">
<g id="Frame">
<path id="Vector" d="M23.3333 16.6666C18.5933 14.9466 13.4067 14.9466 8.66667 16.6666L8 9.33325C12.6667 7.33325 19.3333 7.33325 24 9.33325L23.3333 16.6666Z" stroke="#262626" stroke-width="2" stroke-miterlimit="2" stroke-linecap="round" stroke-linejoin="round"/>
<path id="Vector_2" d="M16 15.3333L14 12" stroke="#262626" stroke-width="2" stroke-miterlimit="2" stroke-linecap="round" stroke-linejoin="round"/>
<path id="Vector_3" d="M28 26C28 27.1046 27.1046 28 26 28H6C4.89543 28 4 27.1046 4 26V6C4 4.89543 4.89543 4 6 4H26C27.1046 4 28 4.89543 28 6V26Z" stroke="#262626" stroke-width="2" stroke-miterlimit="2" stroke-linecap="round" stroke-linejoin="round"/>
<path id="Vector_4" d="M19.3334 15.6369C17.1247 15.29 14.8755 15.29 12.6667 15.6369" stroke="#262626" stroke-width="2" stroke-miterlimit="2" stroke-linecap="round" stroke-linejoin="round"/>
</g>
</g>
</g>
</g>
</g>
</svg>
