<svg width="32" height="32" viewBox="0 0 32 32" fill="none" xmlns="http://www.w3.org/2000/svg">
<g id="Frame">
<path id="Vector" d="M16 13.3333C18.5774 13.3333 20.6667 11.244 20.6667 8.66667C20.6667 6.08934 18.5774 4 16 4C13.4227 4 11.3334 6.08934 11.3334 8.66667C11.3334 11.244 13.4227 13.3333 16 13.3333Z" stroke="#262626" stroke-width="2" stroke-linecap="round" stroke-linejoin="round"/>
<path id="Vector_2" d="M4 27.2001V28.0001H28V27.2001C28 24.2131 28 22.7197 27.4187 21.5788C26.9074 20.5753 26.0915 19.7593 25.0879 19.248C23.9471 18.6667 22.4536 18.6667 19.4667 18.6667H12.5333C9.5464 18.6667 8.05293 18.6667 6.91207 19.248C5.90852 19.7593 5.09262 20.5753 4.5813 21.5788C4 22.7197 4 24.2131 4 27.2001Z" stroke="#262626" stroke-width="2" stroke-linecap="round" stroke-linejoin="round"/>
</g>
</svg>
